<svg width="628" height="484" viewBox="0 0 628 484" fill="none" xmlns="http://www.w3.org/2000/svg">
<path d="M541.938 398.312C541.938 399.102 540.621 399.816 537.96 400.143H531.196C528.537 399.816 527.221 399.102 527.221 398.293C527.221 397.483 528.537 396.789 531.196 396.442H537.96C540.621 396.789 541.938 397.483 541.938 398.312ZM571.369 398.108C571.421 398.498 571.141 398.899 570.466 399.275C569.788 399.66 568.691 400.014 567.394 400.143H560.63C557.971 399.816 556.654 399.102 556.654 398.293C556.654 397.483 557.971 396.789 560.63 396.442H567.394C568.763 396.649 569.648 396.817 570.291 397.079C570.937 397.347 571.314 397.698 571.369 398.108ZM585.37 373.011C586.075 373.011 586.711 374.488 587.003 377.475C587.036 379.881 587.036 382.874 586.286 385.513C585.139 388.591 583.717 389.492 583.143 389.089C582.493 388.659 582.728 387.137 583.117 384.481C583.729 382.254 583.731 380.113 583.703 377.475C584.013 374.488 584.632 373.011 585.37 373.011ZM585.37 339.991C586.075 339.991 586.711 341.468 587.003 344.454V352.041C586.711 355.024 586.075 356.501 585.353 356.501C584.632 356.501 584.013 355.024 583.703 352.041V344.454C584.013 341.468 584.632 339.991 585.37 339.991ZM585.37 306.971C586.075 306.971 586.711 308.448 587.003 311.434V319.022C586.711 322.005 586.075 323.481 585.353 323.481C584.632 323.481 584.013 322.005 583.703 319.022V311.434C584.013 308.448 584.632 306.971 585.37 306.971ZM577.281 277.159C577.596 276.512 579.229 276.523 581.574 278.576C583.348 280.523 584.767 282.882 585.69 285.472C586.484 288.691 585.862 290.387 585.191 290.466C584.441 290.578 583.787 289.219 582.63 286.857C581.879 284.742 580.716 282.813 579.264 281.218C577.758 279.112 576.892 277.911 577.281 277.159ZM548.243 274.597C548.243 273.807 549.559 273.093 552.22 272.766H558.984C561.643 273.093 562.959 273.807 562.959 274.617C562.959 275.426 561.643 276.12 558.984 276.468H552.22C549.559 276.12 548.243 275.426 548.243 274.597ZM519.155 276.963C518.811 276.33 519.634 274.747 522.395 273.498C524.775 272.684 527.399 272.745 529.548 272.766C532.208 273.093 533.526 273.807 533.526 274.617C533.526 275.426 532.208 276.12 529.548 276.468C527.201 276.45 525.247 276.401 523.273 277.066C520.899 277.471 519.538 277.714 519.155 276.963ZM510.761 306.562C510.057 306.562 509.421 305.086 509.129 302.1V294.512C509.237 293.063 509.6 291.792 509.934 291.057C510.276 290.305 510.639 289.997 510.995 290.062C511.351 290.128 511.657 290.554 511.89 291.282C512.131 292.027 512.238 292.975 512.428 294.512V302.1C512.119 305.086 511.5 306.562 510.761 306.562ZM510.761 339.582C510.057 339.582 509.421 338.105 509.129 335.119V327.531C509.421 324.549 510.057 323.072 510.779 323.072C511.5 323.072 512.119 324.549 512.428 327.531V335.119C512.119 338.105 511.5 339.582 510.761 339.582ZM510.761 372.602C510.057 372.602 509.421 371.125 509.129 368.139V360.551C509.421 357.568 510.057 356.092 510.779 356.092C511.5 356.092 512.119 357.568 512.428 360.551V368.139C512.119 371.125 511.5 372.602 510.761 372.602ZM524.391 398.04C524.302 398.77 522.773 399.414 519.931 398.422C517.654 397.306 515.599 395.644 513.92 393.596C512.167 390.908 512.208 389.077 512.81 388.735C513.476 388.331 514.519 389.337 516.346 391.088C517.72 392.764 519.402 394.126 521.262 395.034C523.329 396.406 524.518 397.183 524.391 398.04Z" fill="#BBCAEA"/>
<path d="M328.246 263.369C328.037 263.532 327.766 263.596 327.434 263.622C325.849 268.253 308.294 319.16 286.965 349.209C276.163 364.418 264.407 374.276 253.253 370.05C219.082 357.042 205.942 331.418 205.942 331.418L241.807 284.906C241.807 284.906 247.958 291.199 254.76 297.642C262.632 305.088 271.356 312.701 272.444 310.961C274.17 308.245 301.776 264.99 310.742 251.569C310.742 251.569 310.742 251.569 310.746 251.55C310.556 246.891 310.277 234.994 311.811 233.323C313.766 231.244 316.775 240.9 316.67 243.721C316.565 246.543 341.249 207.775 342.838 223.414C344.428 239.053 330.856 261.42 328.246 263.369Z" fill="#FEC9AC"/>
<path opacity="0.5" d="M285.76 350.87C275.286 364.971 263.803 374.039 252.746 369.905C218.868 357.183 205.59 332.947 205.59 332.947L240.419 289.865C240.419 289.865 246.565 295.862 253.356 302.009C255.658 312.521 259.181 322.666 264.711 331.472C269.994 339.882 277.371 346.942 285.76 350.87Z" fill="#FFAB90"/>
<path d="M56.3973 366.626C57.095 367.017 57.7927 367.335 58.4902 367.567L56.0813 393.955L54.558 438.779H220.831L214.837 362.859L213.333 352.087C214.521 352.991 216.44 353.505 218.772 353.212C218.87 353.199 218.968 353.187 219.066 353.175C219.219 353.15 219.382 353.114 219.546 353.089C219.742 353.053 219.949 353.004 220.156 352.955C220.2 352.943 220.244 352.93 220.287 352.918C220.538 352.857 220.789 352.784 221.039 352.698C221.486 352.551 221.944 352.38 222.413 352.172C222.478 352.148 222.554 352.123 222.631 352.087C222.892 351.964 223.154 351.83 223.426 351.695C223.568 351.622 223.71 351.549 223.851 351.463C223.993 351.39 224.124 351.304 224.276 351.218C224.429 351.133 224.571 351.047 224.723 350.95C224.996 350.778 225.279 350.583 225.562 350.387C225.868 350.179 226.184 349.947 226.489 349.702C226.762 349.482 227.034 349.25 227.318 349.017C227.459 348.895 227.601 348.773 227.753 348.626C227.906 348.492 228.059 348.357 228.2 348.21C229.53 346.963 230.882 345.423 232.211 343.576C232.364 343.368 232.506 343.16 232.658 342.94C232.8 342.732 232.953 342.512 233.094 342.292C236.354 337.413 239.471 330.59 242.011 321.236C242.152 320.71 242.294 320.172 242.435 319.634C243.133 316.92 243.787 313.997 244.376 310.867C244.496 310.243 244.615 309.607 244.724 308.959C244.844 308.323 244.953 307.663 245.062 307.003C245.389 305.022 245.695 302.955 245.978 300.803C246.065 300.106 246.163 299.397 246.25 298.676C246.36 297.71 246.468 296.732 246.578 295.741C246.795 293.687 247.003 291.559 247.177 289.37C247.177 289.37 242.621 276.923 223.339 256.93C216.352 249.698 204.404 238.521 196.22 233.086C174.867 218.822 150.748 215.115 126.08 219.33C123.399 219.794 120.739 220.344 118.101 221.005C94.9937 226.642 73.7716 239.31 56.55 256.967C51.0238 262.64 46.0862 268.069 41.7699 273.083C27.4584 289.664 19.883 301.549 19.883 301.549C19.883 301.549 20.417 303.114 21.3982 305.78C26.2158 318.9 41.7699 358.592 56.3973 366.626Z" fill="#FF8B6A"/>
<path d="M164.151 222.608C161.952 229.912 153.792 234.932 147.609 236.837C141.745 238.644 135.534 238.796 129.65 237.053C116.397 233.126 116.07 223.918 116.07 223.918C118.307 223.106 119.397 216.701 119.908 209.808C120.555 201.119 120.304 191.662 120.304 191.662H155.499C155.499 191.662 156.531 203.662 157.65 212.902C157.881 214.764 158.46 216.549 159.367 218.096C160.167 219.492 161.219 220.715 162.492 221.634C163.447 222.327 164.151 222.608 164.151 222.608Z" fill="#FEC9AC"/>
<path opacity="0.5" d="M159.367 218.096C147.34 222.976 133.142 221.385 122.957 212.729C121.886 211.82 120.873 210.847 119.909 209.808C120.555 201.119 120.304 191.662 120.304 191.662H155.5C155.5 191.662 156.532 203.662 157.651 212.902C157.882 214.764 158.461 216.549 159.367 218.096Z" fill="#FFAB90"/>
<path d="M167.307 178.327C166.359 185.888 164.99 193.863 160.388 199.486C156.302 204.472 150.151 206.847 144.117 207.166C140.841 207.343 137.524 206.965 134.428 205.748C128.151 203.291 123.296 197.691 118.936 192.079C117.317 190.007 115.723 187.892 114.22 185.705C112.664 183.44 110.72 181.576 108.634 179.933C108.625 179.925 108.615 179.918 108.605 179.91C106.941 178.599 105.583 176.85 104.298 175.101C103.266 173.708 102.223 172.231 101.96 170.47C101.718 168.875 102.16 167.21 102.981 165.898C103.487 165.118 104.098 164.445 104.793 163.878C103.445 155.702 104.224 147.054 107.12 139.386C110.975 129.179 118.526 120.802 127.677 116.608L161.767 110.607C161.915 116.325 164.095 121.677 165.643 127.112C170.34 143.51 169.434 161.255 167.307 178.327Z" fill="#FEC9AC"/>
<path d="M181.096 128.876C179.729 132.434 178.015 135.906 175.475 138.538C172.935 141.17 169.467 142.862 166.037 142.371C163.188 141.951 160.687 140.115 158.044 138.813C156.29 137.931 153.918 138.206 151.791 138.973C149.47 139.84 147.033 140.274 144.597 140.028L142.456 139.826C142.779 138.09 144.97 138.018 146.195 136.889C137.557 135.862 128.622 141.908 125.399 150.962C124.226 154.289 120.616 166.207 120.616 166.207C120.616 166.207 117.045 163.488 115.485 162.808C113.409 161.912 111.05 161.26 108.845 161.883C107.117 162.36 105.519 163.748 105.029 165.672C104.204 161.781 102.466 158.636 100.98 155.258C98.7514 150.191 97.9893 144.425 98.4534 138.799C98.9014 133.234 100.413 127.573 101.831 122.31C103.172 117.378 104.552 112.374 107.079 108.064C110.611 102.047 116.207 97.7797 122.266 95.3644C128.313 92.9491 134.824 92.2697 141.244 92.3418C145.37 92.3997 149.522 92.7613 153.467 94.1356C157.399 95.5092 161.112 97.9824 163.626 101.656C165.618 104.587 166.74 108.03 168.448 111.158C170.949 115.743 174.714 119.461 179.085 121.659C179.858 122.05 180.683 122.412 181.238 123.149C182.398 124.682 181.818 127.025 181.096 128.876Z" fill="#2E363A"/>
<path opacity="0.5" d="M113.977 177.083C114.054 177.951 113.435 178.819 112.675 178.92C112.301 178.978 111.94 178.877 111.592 178.718C110.38 178.183 109.451 177.055 108.652 175.898C107.195 173.8 105.906 171.371 105.854 168.709C105.841 167.87 105.97 166.974 106.473 166.352C107.182 165.47 108.433 165.412 109.464 165.73C111.54 166.352 113.255 168.275 113.835 170.59L113.977 177.083Z" fill="#FFAB90"/>
<path d="M162.93 122.282C160.364 124.075 157.038 123.452 154.111 122.599C149.547 121.269 144.918 119.49 140.238 120.155C135.597 120.791 131.304 123.988 128.944 128.501C128.364 129.628 127.887 130.829 127.191 131.871C125.489 134.402 122.614 135.646 119.803 135.877C116.98 136.108 114.182 135.443 111.423 134.778C108.716 134.141 106.021 133.491 103.326 132.84C102.024 132.521 100.748 132.218 99.4199 132.145C100.077 128.833 100.954 125.564 101.831 122.31C103.172 117.378 104.551 112.374 107.078 108.064C110.611 102.047 116.206 97.7797 122.266 95.3644C128.313 92.9491 134.823 92.2697 141.244 92.3418C145.37 92.3997 149.521 92.7613 153.466 94.1356C157.399 95.5092 161.112 97.9824 163.626 101.656C164.412 102.814 165.07 104.071 165.689 105.359C165.921 107.5 166.308 109.654 166.449 111.81C166.72 115.729 165.908 120.213 162.93 122.282Z" fill="#3A4146"/>
<path d="M131.372 157.112C131.236 157.021 131.214 156.682 131.43 156.12C131.65 155.568 132.121 154.782 133.023 154.055C134.597 152.921 136.625 152.564 138.433 153.101C139.489 153.482 140.152 154.068 140.511 154.517C140.87 154.979 140.941 155.31 140.833 155.447C140.589 155.772 139.769 155.135 138.055 154.782C136.625 154.364 135.089 154.635 133.843 155.525C132.306 156.452 131.701 157.341 131.372 157.112ZM153.471 152.136C153.263 151.912 153.723 150.752 155.574 149.644C157.181 148.861 158.957 148.55 160.701 148.745C162.762 149.164 163.517 150.111 163.377 150.405C163.225 150.785 162.303 150.522 160.551 150.471C159.073 150.303 157.548 150.571 156.187 151.237C154.53 151.887 153.724 152.454 153.471 152.136ZM146.263 181.666C146.394 181.533 146.829 181.923 147.643 182.56C148.049 182.864 148.577 183.222 149.198 183.369C149.788 183.513 150.63 183.389 151.065 182.847C151.85 182.053 151.287 179.657 151.091 177.794C150.815 175.842 150.45 173.907 150.002 171.995C149.055 167.456 148.452 165.208 148.796 165.057C149.078 164.926 150.243 166.957 151.497 171.554C152.212 174.608 152.689 177.564 152.98 180.557C153.023 181.09 153.049 181.664 152.954 182.286C152.863 182.904 152.607 183.578 152.153 184.079C151.006 185.196 149.722 185.071 148.843 184.75C147.946 184.378 147.41 183.796 147.033 183.333C146.304 182.374 146.144 181.783 146.263 181.666ZM148.722 192.895C148.76 193.06 148.435 193.366 147.672 193.639C146.915 193.901 145.703 194.167 144.085 193.968C141.372 193.506 138.776 192.123 136.861 189.799C135.792 188.354 135.427 186.863 135.474 185.907C135.516 184.937 135.817 184.539 135.962 184.577C136.345 184.628 136.032 186.392 138.014 188.644C139.609 190.589 141.935 191.862 144.312 192.253C147.129 192.832 148.633 192.445 148.722 192.895Z" fill="#4F2D2A"/>
<path d="M158.931 167.459C159.909 167.459 160.702 165.86 160.702 163.888C160.702 161.915 159.909 160.316 158.931 160.316C157.953 160.316 157.16 161.915 157.16 163.888C157.16 165.86 157.953 167.459 158.931 167.459Z" fill="#4F2D2A"/>
<path d="M138.163 169.424C139.141 169.424 139.934 167.825 139.934 165.852C139.934 163.88 139.141 162.281 138.163 162.281C137.185 162.281 136.392 163.88 136.392 165.852C136.392 167.825 137.185 169.424 138.163 169.424Z" fill="#4F2D2A"/>
<path d="M247.173 289.375C242.159 351.528 219.171 356.53 213.329 352.091L214.833 362.864C208.26 345.439 201.677 328.002 195.093 310.578C198.123 317.144 207.29 316.948 212.141 311.947C217.002 306.946 218.582 299.181 219.694 291.906C221.471 280.326 222.681 268.648 223.335 256.934C242.616 276.927 247.173 289.375 247.173 289.375Z" fill="#FF8B6A"/>
<path d="M210.444 326.946C208.33 323.143 206.161 319.365 203.97 315.599C202.553 313.153 201.136 310.708 199.708 308.275C198.89 309.986 198.018 311.662 197.081 313.312C196.907 313.642 196.71 313.985 196.514 314.315C186.792 331.14 171.87 344.175 154.888 350.472C135.911 357.503 114.559 356.06 96.4756 346.523C96.3207 346.441 96.1704 346.352 96.0161 346.27C86.3831 349.844 78.7223 358.4 70.9298 365.366C66.4048 369.411 61.9575 373.569 57.5565 377.79L56.0808 393.955L54.5576 438.779H220.831L214.837 362.859L213.332 352.087C214.521 352.991 216.439 353.505 218.771 353.212C218.87 353.199 218.968 353.187 219.066 353.175C219.218 353.15 219.382 353.114 219.545 353.089C219.742 353.053 219.949 353.004 220.156 352.955C220.199 352.943 220.243 352.93 220.287 352.918C220.537 352.857 220.788 352.784 221.039 352.698C221.486 352.551 221.943 352.38 222.412 352.172C222.478 352.148 222.554 352.123 222.63 352.087C222.892 351.964 223.153 351.83 223.426 351.695C219.415 343.27 215.011 335.053 210.444 326.946Z" fill="#FF8B6A"/>
<path d="M65.6348 353.989C65.4575 354.305 64.079 353.833 61.6244 352.222C59.1962 350.588 55.6667 347.793 51.7061 343.113C44.8072 334.505 41.9178 327.302 37.2947 315.122C33.1987 303.451 31.6238 297.458 32.2879 297.142C32.952 296.826 35.682 302.269 40.3319 313.677C44.924 325.77 47.6771 332.551 54.1595 340.638C57.6943 345.294 60.7687 348.357 62.7904 350.446C64.833 352.512 65.8426 353.622 65.6348 353.989Z" fill="white"/>
<path d="M159.07 237.55C159.307 237.806 158.682 239.183 156.775 241.353C154.865 243.48 151.592 246.419 146.43 248.674C137.597 252.212 127.553 251.561 119.112 247.035C114.194 244.327 111.027 240.622 110.004 237.552C108.942 234.447 109.647 232.758 109.917 232.822C110.345 232.808 110.42 234.326 111.747 236.533C113.055 238.754 115.866 241.462 120.524 243.689C128.201 247.803 137.325 248.394 145.332 245.183C150.118 243.439 153.387 241.168 155.539 239.638C157.686 238.077 158.791 237.243 159.07 237.55Z" fill="white"/>
<path d="M91.4698 438.779H323.663C324.719 438.779 325.576 437.818 325.576 436.633V430.283C325.576 429.097 324.719 428.136 323.663 428.136H91.4698C90.4132 428.136 89.5566 429.097 89.5566 430.283V436.633C89.5566 437.818 90.4132 438.779 91.4698 438.779Z" fill="#2E363A"/>
<path d="M145.313 428.153H320.5L327.745 397.314L351.712 295.031C353.058 289.314 349.965 284.689 344.868 284.689H188.179C186.661 284.689 185.172 285.074 183.74 285.813C180.333 287.484 177.469 290.985 176.524 295.031L145.313 428.153Z" fill="#4A5258"/>
<path d="M145.313 428.153H320.5L327.745 397.314C322.791 398.277 317.78 398.951 312.74 399.306C281.098 401.458 248.856 389.283 224.774 366.089C203.498 345.594 188.837 316.715 183.74 285.813C180.333 287.484 177.469 290.985 176.524 295.031L145.313 428.153Z" fill="#3A4146"/>
<path d="M173.944 428.16H145.31L145.825 426.008C152.583 425.367 164.036 426.201 173.944 428.16Z" fill="#3A4146"/>
<path d="M263.936 362.387C266.348 354.223 263.33 345.755 257.195 343.474C251.06 341.193 244.132 345.963 241.72 354.128C239.308 362.293 242.326 370.76 248.461 373.041C254.596 375.322 261.524 370.552 263.936 362.387Z" fill="#3A4146"/>
<path d="M262.072 361.695C264.08 354.899 261.568 347.851 256.461 345.953C251.355 344.054 245.588 348.024 243.581 354.82C241.573 361.616 244.085 368.664 249.192 370.562C254.298 372.461 260.065 368.49 262.072 361.695Z" fill="white"/>
<path d="M136.843 434.432C136.854 440.478 105.172 445.778 83.5039 440.192C78.4361 438.873 71.6052 435.564 64.009 430.787C39.0917 415.113 6.07912 383.85 1.04458 356.905C0.301696 352.849 -0.0310326 349.03 0.00226809 345.472C0.20193 318.004 20.8167 304.618 20.8167 304.618C20.9387 304.83 21.0606 305.041 21.2049 305.265C21.2049 305.278 21.2159 305.278 21.2159 305.29C21.2714 305.452 21.3268 305.614 21.3934 305.775C25.9288 318.104 39.9233 353.894 53.7404 364.829C53.4521 365.128 53.186 365.389 52.9531 365.65C52.8865 365.725 52.8312 365.812 52.8312 365.911C50.6466 371.36 86.7863 412.873 86.7863 412.873C86.7863 412.873 91.1998 415.834 97.2323 413.819C103.287 411.803 114.676 407.872 116.106 413.732C117.514 419.616 91.5658 426.943 101.668 425.848C110.051 424.965 128.659 427.292 134.825 431.571C136.089 432.429 136.843 433.4 136.843 434.432Z" fill="#FEC9AC"/>
<path opacity="0.5" d="M53.7401 364.829C53.4518 365.128 53.1857 365.389 52.9528 365.65C52.8862 365.725 52.8309 365.812 52.8309 365.911C43.2054 357.029 31.7393 350.672 19.5855 347.612C13.165 345.982 6.58887 345.285 0.00195487 345.472C0.201617 318.004 20.8164 304.618 20.8164 304.618C20.9383 304.83 21.0603 305.041 21.2046 305.265C21.2046 305.278 21.2156 305.278 21.2156 305.29C21.2711 305.452 21.3264 305.614 21.393 305.775C25.9285 318.104 39.923 353.894 53.7401 364.829Z" fill="#FFAB90"/>
<path d="M137.008 434.438C137.029 440.484 105.349 445.79 83.6611 440.198C78.6119 438.883 71.7732 435.562 64.1674 430.782C48.8495 421.149 30.4424 405.591 17.3827 388.788H67.065C76.4175 400.763 86.9421 412.88 86.9421 412.88C86.9421 412.88 91.3733 415.844 97.4026 413.812C99.6184 413.071 102.537 412.091 105.435 411.398L102.494 423.97C99.3838 425.451 97.9779 426.264 101.834 425.858C101.898 425.858 101.983 425.833 102.068 425.833C107.096 425.356 115.618 425.977 122.989 427.435C128.017 428.438 132.512 429.849 134.984 431.57C136.262 432.43 137.008 433.41 137.008 434.438Z" fill="#FEC9AC"/>
<path d="M627.917 475.955V476.948C627.917 480.84 625.1 484 621.617 484H79.7604C76.2769 484 73.4602 480.84 73.4602 476.948V475.955C73.4602 472.063 70.6436 468.903 67.1736 468.903H22.4192C18.9494 468.903 16.1326 465.743 16.1326 461.851V460.187C16.1326 456.294 18.9494 453.134 22.4192 453.134H32.9919C36.4618 453.134 39.2786 449.974 39.2786 446.082C39.2786 442.174 42.0953 439.014 45.5787 439.014H601.165C604.635 439.014 607.452 442.174 607.452 446.082C607.452 448.035 606.744 449.791 605.615 451.073C604.472 452.34 602.907 453.134 601.165 453.134H597.273C593.803 453.134 590.987 456.294 590.987 460.187V461.851C590.987 465.743 593.803 468.903 597.273 468.903H621.617C625.1 468.903 627.917 472.063 627.917 475.955Z" fill="#CE704C"/>
<path d="M621.616 468.903H597.273C595.461 468.903 593.84 468.029 592.692 466.651H17.8382C18.986 468.029 20.6068 468.903 22.4186 468.903H67.173C70.643 468.903 73.4596 472.063 73.4596 475.955V476.948C73.4596 480.84 76.2762 484 79.7598 484H621.616C625.1 484 627.916 480.84 627.916 476.948V475.955C627.916 472.063 625.1 468.903 621.616 468.903Z" fill="#C16244"/>
<path d="M463.61 300.406C462.906 300.406 462.27 300.316 461.977 300.131V299.663C462.27 299.48 462.906 299.388 463.627 299.388C464.349 299.388 464.967 299.48 465.277 299.663V300.131C464.967 300.316 464.349 300.406 463.61 300.406Z" fill="#F3F6FD"/>
<path d="M431.712 240.249V315.561C431.712 318.713 433.99 321.269 436.8 321.269H543.207C546.017 321.269 548.295 318.713 548.295 315.561V240.249H431.712Z" fill="#F6F6FE"/>
<path d="M548.295 240.249V229.04C548.295 225.887 546.017 223.332 543.207 223.332H436.8C433.99 223.332 431.712 225.887 431.712 229.04V240.249H548.295Z" fill="#64D3FF"/>
<path d="M462.642 257.166V263.862C462.642 265.504 461.458 266.832 460.011 266.832H447.465C446.001 266.832 444.818 265.504 444.818 263.862V257.166C444.818 255.542 446.001 254.214 447.465 254.214H460.011C461.458 254.214 462.642 255.542 462.642 257.166ZM486.824 257.166V263.862C486.824 265.504 485.641 266.832 484.193 266.832H471.647C470.184 266.832 469 265.504 469 263.862V257.166C469 255.542 470.184 254.214 471.647 254.214H484.193C485.641 254.214 486.824 255.542 486.824 257.166ZM511.007 257.166V263.862C511.007 265.504 509.823 266.832 508.376 266.832H495.83C494.366 266.832 493.182 265.504 493.182 263.862V257.166C493.182 255.542 494.366 254.214 495.83 254.214H508.376C509.823 254.214 511.007 255.542 511.007 257.166ZM535.189 257.166V263.862C535.189 265.504 534.005 266.832 532.558 266.832H520.012C518.548 266.832 517.364 265.504 517.364 263.862V257.166C517.364 255.542 518.548 254.214 520.012 254.214H532.558C534.005 254.214 535.189 255.542 535.189 257.166Z" fill="#D1DCF8"/>
<path d="M462.643 277.402V284.098C462.643 285.74 461.459 287.068 460.012 287.068H447.466C446.002 287.068 444.818 285.74 444.818 284.098V277.402C444.818 275.778 446.002 274.45 447.466 274.45H460.012C461.459 274.45 462.643 275.778 462.643 277.402ZM486.825 277.402V284.098C486.825 285.74 485.642 287.068 484.194 287.068H471.648C470.185 287.068 469.001 285.74 469.001 284.098V277.402C469.001 275.778 470.185 274.45 471.648 274.45H484.194C485.642 274.45 486.825 275.778 486.825 277.402ZM511.008 277.402V284.098C511.008 285.74 509.824 287.068 508.377 287.068H495.83C494.367 287.068 493.183 285.74 493.183 284.098V277.402C493.183 275.778 494.367 274.45 495.83 274.45H508.377C509.824 274.45 511.008 275.778 511.008 277.402ZM535.19 277.402V284.098C535.19 285.74 534.006 287.068 532.559 287.068H520.013C518.549 287.068 517.365 285.74 517.365 284.098V277.402C517.365 275.778 518.549 274.45 520.013 274.45H532.559C534.006 274.45 535.19 275.778 535.19 277.402Z" fill="#D1DCF8"/>
<path d="M462.643 297.638V304.334C462.643 305.976 461.459 307.304 460.012 307.304H447.466C446.002 307.304 444.818 305.976 444.818 304.334V297.638C444.818 296.014 446.002 294.686 447.466 294.686H460.012C461.459 294.686 462.643 296.014 462.643 297.638ZM486.825 297.638V304.334C486.825 305.976 485.642 307.304 484.194 307.304H471.648C470.185 307.304 469.001 305.976 469.001 304.334V297.638C469.001 296.014 470.185 294.686 471.648 294.686H484.194C485.642 294.686 486.825 296.014 486.825 297.638ZM511.008 297.638V304.334C511.008 305.976 509.824 307.304 508.377 307.304H495.83C494.367 307.304 493.183 305.976 493.183 304.334V297.638C493.183 296.014 494.367 294.686 495.83 294.686H508.377C509.824 294.686 511.008 296.014 511.008 297.638ZM535.19 297.638V304.334C535.19 305.976 534.006 307.304 532.559 307.304H520.013C518.549 307.304 517.365 305.976 517.365 304.334V297.638C517.365 296.014 518.549 294.686 520.013 294.686H532.559C534.006 294.686 535.19 296.014 535.19 297.638Z" fill="#D1DCF8"/>
<path d="M456.137 223.309V231.688C456.137 234.315 458.027 236.454 460.37 236.454C462.713 236.454 464.619 234.315 464.619 231.688V223.309H456.137Z" fill="#42C1F4"/>
<path d="M463.343 217.414V229.83C463.343 232.457 461.436 234.596 459.094 234.596C456.751 234.596 454.861 232.457 454.861 229.83V217.414C454.861 214.786 456.751 212.647 459.094 212.647C460.257 212.647 461.323 213.191 462.099 214.043C462.874 214.913 463.343 216.091 463.343 217.414Z" fill="#E4ECF9"/>
<path d="M516.667 223.309V231.688C516.667 234.315 518.557 236.454 520.9 236.454C523.242 236.454 525.149 234.315 525.149 231.688V223.309H516.667Z" fill="#42C1F4"/>
<path d="M523.872 217.414V229.83C523.872 232.457 521.966 234.596 519.623 234.596C517.28 234.596 515.39 232.457 515.39 229.83V217.414C515.39 214.786 517.28 212.647 519.623 212.647C520.787 212.647 521.853 213.191 522.628 214.043C523.404 214.913 523.872 216.091 523.872 217.414Z" fill="#E4ECF9"/>
<path d="M553.474 113.824C581.492 113.824 604.205 88.3438 604.205 56.9121C604.205 25.4804 581.492 0 553.474 0C525.455 0 502.742 25.4804 502.742 56.9121C502.742 88.3438 525.455 113.824 553.474 113.824Z" fill="#D1DCF8"/>
<path d="M553.473 107.495C578.375 107.495 598.563 84.8484 598.563 56.912C598.563 28.9756 578.375 6.32865 553.473 6.32865C528.571 6.32865 508.383 28.9756 508.383 56.912C508.383 84.8484 528.571 107.495 553.473 107.495Z" fill="#F3F6FD"/>
<path d="M573.196 58.1137H547.425C546.852 58.1137 546.388 57.5932 546.388 56.9501C546.388 56.3069 546.852 55.7864 547.425 55.7864H573.196C573.769 55.7864 574.233 56.3069 574.233 56.9501C574.233 57.5932 573.769 58.1137 573.196 58.1137Z" fill="#D1DCF8"/>
<path d="M553.462 64.1784C553.176 64.1784 552.943 63.9181 552.943 63.5965V16.1964C552.943 15.8748 553.176 15.6145 553.462 15.6145C553.748 15.6145 553.981 15.8748 553.981 16.1964V63.5965C553.981 63.9181 553.748 64.1784 553.462 64.1784Z" fill="#FE4C40"/>
<path d="M536.758 80.452C536.643 80.452 536.525 80.4088 536.43 80.3201C536.207 80.1167 536.175 79.7508 536.357 79.502L556.993 51.1991C557.173 50.9503 557.503 50.9128 557.722 51.1173C557.945 51.3207 557.977 51.6866 557.795 51.9355L537.159 80.2383C537.058 80.3792 536.908 80.452 536.758 80.452Z" fill="#D1DCF8"/>
<path d="M553.463 58.9152C554.409 58.9152 555.175 58.0553 555.175 56.9945C555.175 55.9338 554.409 55.0739 553.463 55.0739C552.517 55.0739 551.751 55.9338 551.751 56.9945C551.751 58.0553 552.517 58.9152 553.463 58.9152Z" fill="white"/>
<path d="M598.557 56.9118C598.557 84.8618 578.372 107.506 553.479 107.506C535.783 107.506 520.474 96.0789 513.089 79.4628C521.366 90.6566 533.854 97.801 547.836 97.801C572.73 97.801 592.935 75.1339 592.935 47.2072C592.935 39.155 591.255 31.5217 588.247 24.7497C594.699 33.5001 598.557 44.6939 598.557 56.9118Z" fill="#E4ECF9"/>
<path d="M492.228 218.141C492.935 218.129 493.584 219.595 493.945 222.555C494.01 225.069 494.091 227.584 494.251 230.054C494.14 233.035 493.805 234.261 493.183 234.596C492.471 234.966 491.428 233.315 490.961 230.33C490.794 227.75 490.712 225.205 490.647 222.658C490.886 219.643 491.491 218.155 492.228 218.141ZM492.451 185.114C493.155 185.138 493.768 186.634 494.013 189.622L493.892 197.196C493.553 200.169 492.894 201.639 492.172 201.633C491.45 201.627 490.855 200.143 490.593 197.146L490.714 189.535C491.07 186.548 491.712 185.09 492.451 185.114ZM475.287 172.225C475.287 171.435 476.603 170.722 479.266 170.395H486.034C488.695 170.722 490.012 171.435 490.012 172.245C490.012 173.054 488.695 173.749 486.034 174.096H479.266C476.603 173.749 475.287 173.054 475.287 172.225ZM445.856 172.225C445.856 171.435 447.172 170.722 449.834 170.395H456.599C459.258 170.722 460.575 171.435 460.575 172.245C460.575 173.054 459.258 173.749 456.599 174.096H449.834C447.172 173.749 445.856 173.054 445.856 172.225ZM416.404 172.225C416.404 171.435 417.722 170.722 420.385 170.395H427.155C429.816 170.722 431.133 171.435 431.133 172.245C431.133 173.054 429.816 173.749 427.155 174.096H420.385C417.722 173.749 416.404 173.054 416.404 172.225ZM414.372 141.525C415.076 141.525 415.712 143.002 416.004 145.987V153.576C415.712 156.559 415.076 158.035 414.355 158.035C413.633 158.035 413.014 156.559 412.705 153.576V145.987C413.014 143.002 413.633 141.525 414.372 141.525ZM414.372 108.506C415.076 108.506 415.712 109.982 416.004 112.968V120.556C415.712 123.539 415.076 125.015 414.355 125.015C413.633 125.015 413.014 123.539 412.705 120.556V112.968C413.014 109.982 413.633 108.506 414.372 108.506ZM414.372 75.486C415.076 75.486 415.712 76.9626 416.004 79.948V87.5365C415.712 90.5192 415.076 91.9958 414.355 91.9958C413.633 91.9958 413.014 90.5192 412.705 87.5365V79.948C413.014 76.9626 413.633 75.486 414.372 75.486ZM396.308 62.6912C396.308 61.9011 397.625 61.1877 400.286 60.8606H407.05C409.709 61.1877 411.025 61.9011 411.025 62.7107C411.025 63.5208 409.709 64.2148 407.05 64.5614H400.286C397.625 64.2148 396.308 63.5208 396.308 62.6912ZM366.875 62.6912C366.875 61.9011 368.191 61.1877 370.853 60.8606H377.616C380.275 61.1877 381.592 61.9011 381.592 62.7107C381.592 63.5208 380.275 64.2148 377.616 64.5614H370.853C368.191 64.2148 366.875 63.5208 366.875 62.6912ZM342.968 62.6912C342.968 61.9011 343.789 61.1877 345.452 60.8606H349.676C351.336 61.1877 352.158 61.9011 352.158 62.7107C352.158 63.5208 351.336 64.2148 349.676 64.5614H345.452C343.789 64.2148 342.968 63.5208 342.968 62.6912Z" fill="#BBCAEA"/>
<path d="M310.888 134.555L308.753 123.917L299.127 123.249C297.967 120.773 296.535 118.511 294.886 116.495L297.559 106.1L289.339 100.275L282.113 107.44C279.79 106.63 277.354 106.148 274.862 106.034L270.199 96.5634L260.709 98.9605L260.12 109.758C257.913 111.059 255.897 112.666 254.1 114.516L244.834 111.517L239.633 120.732L246.02 128.839C245.3 131.453 244.87 134.185 244.768 136.981L236.326 142.212L238.462 152.851L248.088 153.518C249.248 155.995 250.68 158.257 252.328 160.265L249.654 170.66L257.876 176.493L265.102 169.328C267.432 170.136 269.867 170.618 272.359 170.732L277.016 180.204L286.506 177.807L287.101 167.008C289.308 165.707 291.325 164.1 293.115 162.252L302.381 165.251L307.58 156.028L301.194 147.921C301.915 145.314 302.344 142.582 302.447 139.787L310.888 134.555ZM278.189 161.212C266.982 164.043 255.85 156.145 253.326 143.572C250.803 130.999 257.843 118.511 269.05 115.68C280.258 112.849 291.39 120.746 293.913 133.319C296.437 145.893 289.397 158.381 278.189 161.212Z" fill="#E2E8ED"/>
<path d="M273.621 155.751C282.141 155.751 289.047 148.003 289.047 138.446C289.047 128.888 282.141 121.141 273.621 121.141C265.102 121.141 258.196 128.888 258.196 138.446C258.196 148.003 265.102 155.751 273.621 155.751Z" fill="#E2E8ED"/>
<path d="M387.557 50.5455L383.037 35.9795L369.415 36.7709C367.431 33.4994 365.096 30.578 362.49 28.0424L364.762 12.9537L352.379 6.2445L343.248 17.612C339.867 16.8921 336.376 16.6528 332.858 16.9393L324.952 4.46908L311.959 9.54305L312.673 24.8217C309.757 27.0477 307.153 29.6675 304.893 32.5902L291.443 30.0411L285.45 43.9263L295.583 54.1708C294.945 57.9732 294.731 61.8898 294.987 65.8364L283.871 74.7056L288.391 89.2716L302.013 88.48C303.997 91.7515 306.332 94.6728 308.935 97.1987L306.663 112.287L319.049 119.006L328.18 107.639C331.57 108.355 335.061 108.595 338.579 108.308L346.476 120.782L359.469 115.708L358.764 100.426C361.68 98.1999 364.284 95.5799 366.535 92.6609L379.985 95.2097L385.975 81.3146L375.842 71.0703C376.484 67.2776 376.697 63.3611 376.441 59.4144L387.557 50.5455ZM345.413 93.8818C330.067 99.8744 313.296 90.7763 307.955 73.5612C302.613 56.3461 310.723 37.5319 326.068 31.5392C341.414 25.5465 358.184 34.6444 363.526 51.8595C368.868 69.0747 360.758 87.8891 345.413 93.8818Z" fill="#E2E8ED"/>
<path d="M335.743 87.1855C347.792 87.1855 357.56 76.2273 357.56 62.7097C357.56 49.1921 347.792 38.2339 335.743 38.2339C323.693 38.2339 313.925 49.1921 313.925 62.7097C313.925 76.2273 323.693 87.1855 335.743 87.1855Z" fill="#E2E8ED"/>
<path d="M428.337 203.484C451.74 195.535 464.968 167.807 457.882 141.552C450.796 115.297 426.08 100.458 402.676 108.407C379.273 116.356 366.045 144.084 373.131 170.339C380.217 196.594 404.933 211.433 428.337 203.484Z" fill="#FE4C40"/>
<path d="M428.537 188.771C444.697 180.697 451.963 159.455 444.766 141.326C437.569 123.197 418.634 115.046 402.474 123.12C386.314 131.194 379.048 152.435 386.245 170.564C393.442 188.693 412.376 196.845 428.537 188.771Z" fill="#E4ECF9"/>
<path d="M393.504 155.947C393.504 169.578 403.355 180.629 415.506 180.629C427.657 180.629 437.507 169.578 437.507 155.947C437.507 142.315 427.657 131.265 415.506 131.265C403.355 131.265 393.504 142.315 393.504 155.947Z" fill="#FE4C40"/>
<path d="M403.979 155.947C403.979 163.088 409.139 168.877 415.505 168.877C421.87 168.877 427.03 163.088 427.03 155.947C427.03 148.806 421.87 143.017 415.505 143.017C409.139 143.017 403.979 148.806 403.979 155.947Z" fill="#E4ECF9"/>
<path d="M413.72 157.947H420.959L413.72 149.829V157.947Z" fill="#22252D"/>
<path d="M460.65 105.303H468.931V102.961H462.737V96.0131H460.65V105.303Z" fill="#2E363A"/>
<path d="M464.44 101.051H472.72V98.7068H466.527V91.7617H464.44V101.051Z" fill="#2E363A"/>
<path d="M465.091 98.6679L415.015 154.843L416.49 156.499L466.567 100.324L465.091 98.6679Z" fill="#2E363A"/>
</svg>
