<svg width="20" height="20" viewBox="0 0 20 20" fill="none" xmlns="http://www.w3.org/2000/svg">
<path fill-rule="evenodd" clip-rule="evenodd" d="M1.66699 2.49984C1.66699 2.0396 2.04009 1.6665 2.50033 1.6665H8.33366C8.7939 1.6665 9.16699 2.0396 9.16699 2.49984V8.33317C9.16699 8.79341 8.7939 9.1665 8.33366 9.1665H2.50033C2.04009 9.1665 1.66699 8.79341 1.66699 8.33317V2.49984ZM3.33366 3.33317V7.49984H7.50033V3.33317H3.33366Z" fill="#FF8B6A"/>
<path d="M3.33366 7.49984V3.33317H7.50033V7.49984H3.33366Z" fill="#FF8B6A"/>
<path fill-rule="evenodd" clip-rule="evenodd" d="M10.833 2.49984C10.833 2.0396 11.2061 1.6665 11.6663 1.6665H17.4997C17.9599 1.6665 18.333 2.0396 18.333 2.49984V8.33317C18.333 8.79341 17.9599 9.1665 17.4997 9.1665H11.6663C11.2061 9.1665 10.833 8.79341 10.833 8.33317V2.49984ZM12.4997 3.33317V7.49984H16.6663V3.33317H12.4997Z" fill="#FF8B6A"/>
<path d="M12.4997 7.49984V3.33317H16.6663V7.49984H12.4997Z" fill="#FF8B6A"/>
<path fill-rule="evenodd" clip-rule="evenodd" d="M10.833 11.6668C10.833 11.2066 11.2061 10.8335 11.6663 10.8335H17.4997C17.9599 10.8335 18.333 11.2066 18.333 11.6668V17.5002C18.333 17.9604 17.9599 18.3335 17.4997 18.3335H11.6663C11.2061 18.3335 10.833 17.9604 10.833 17.5002V11.6668ZM12.4997 12.5002V16.6668H16.6663V12.5002H12.4997Z" fill="#FF8B6A"/>
<path d="M12.4997 16.6668V12.5002H16.6663V16.6668H12.4997Z" fill="#FF8B6A"/>
<path fill-rule="evenodd" clip-rule="evenodd" d="M1.66699 11.6668C1.66699 11.2066 2.04009 10.8335 2.50033 10.8335H8.33366C8.7939 10.8335 9.16699 11.2066 9.16699 11.6668V17.5002C9.16699 17.9604 8.7939 18.3335 8.33366 18.3335H2.50033C2.04009 18.3335 1.66699 17.9604 1.66699 17.5002V11.6668ZM3.33366 12.5002V16.6668H7.50033V12.5002H3.33366Z" fill="#FF8B6A"/>
<path d="M3.33366 16.6668V12.5002H7.50033V16.6668H3.33366Z" fill="#FF8B6A"/>
</svg>
