<svg width="151" height="133" viewBox="0 0 151 133" fill="none" xmlns="http://www.w3.org/2000/svg">
<path d="M66.4505 132.942C55.9349 132.939 45.5701 130.441 36.2076 125.653C26.8451 120.866 18.752 113.925 12.5933 105.402C6.43454 96.8784 2.38585 87.0154 0.779828 76.6232C-0.826198 66.2309 0.0562667 55.6059 3.35473 45.621C6.65319 35.6361 12.2735 26.5762 19.754 19.1857C27.2345 11.7951 36.3617 6.28471 46.3857 3.10722C56.4098 -0.0702601 67.0447 -0.824185 77.4168 0.907383C87.7888 2.63895 97.6021 6.8066 106.05 13.068C107.181 13.9867 107.914 15.3063 108.096 16.7518C108.278 18.1973 107.895 19.6573 107.027 20.8276C106.159 21.9979 104.874 22.7884 103.438 23.0343C102.002 23.2802 100.526 22.9626 99.3184 22.1476C89.3468 14.7444 77.1694 10.9211 64.7557 11.2962C52.3419 11.6712 40.4176 16.2227 30.9111 24.2145C21.4046 32.2062 14.8718 43.1711 12.3691 55.3357C9.86643 67.5003 11.5402 80.1535 17.1199 91.249C22.6995 102.345 31.8586 111.234 43.1161 116.479C54.3736 121.724 67.0713 123.018 79.1556 120.152C91.2399 117.287 102.004 110.429 109.708 100.687C117.412 90.9458 121.604 78.8906 121.607 66.4712C121.599 63.5626 121.363 60.6591 120.9 57.7875C120.785 57.0446 120.817 56.2863 120.995 55.5559C121.173 54.8255 121.493 54.1372 121.937 53.5305C122.381 52.9238 122.94 52.4104 123.582 52.0197C124.225 51.629 124.938 51.3687 125.681 51.2535C126.424 51.1384 127.182 51.1707 127.912 51.3486C128.643 51.5265 129.331 51.8466 129.938 52.2904C130.544 52.7343 131.058 53.2934 131.448 53.9357C131.839 54.578 132.099 55.2909 132.215 56.0338C132.72 59.4894 132.957 62.979 132.922 66.4712C132.907 84.0959 125.899 100.994 113.436 113.457C100.974 125.919 84.0752 132.927 66.4505 132.942Z" fill="#5564D7"/>
<path d="M73.5228 87.6854C72.0249 87.6791 70.5906 87.0789 69.5345 86.0165L42.6632 59.1452C41.7364 58.063 41.2521 56.6709 41.3071 55.2472C41.3621 53.8234 41.9523 52.4728 42.9598 51.4653C43.9673 50.4578 45.3179 49.8676 46.7417 49.8126C48.1654 49.7576 49.5575 50.2419 50.6397 51.1687L73.5228 74.0234L141.663 5.91168C142.745 4.9849 144.137 4.50061 145.561 4.55561C146.985 4.6106 148.335 5.20082 149.343 6.20832C150.35 7.21583 150.94 8.5664 150.995 9.99017C151.05 11.4139 150.566 12.806 149.639 13.8882L77.5111 86.0165C76.455 87.0789 75.0207 87.6791 73.5228 87.6854Z" fill="#FF8B6A"/>
</svg>
