<svg width="20" height="20" viewBox="0 0 20 20" fill="none" xmlns="http://www.w3.org/2000/svg">
<path fill-rule="evenodd" clip-rule="evenodd" d="M1.66699 5.83301C1.66699 4.4523 2.78628 3.33301 4.16699 3.33301H15.8337C17.2144 3.33301 18.3337 4.4523 18.3337 5.83301V15.833C18.3337 17.2137 17.2144 18.333 15.8337 18.333H4.16699C2.78628 18.333 1.66699 17.2137 1.66699 15.833V5.83301ZM7.50033 10.833C7.50033 10.3728 7.87342 9.99967 8.33366 9.99967H14.167C14.6272 9.99967 15.0003 10.3728 15.0003 10.833C15.0003 11.2932 14.6272 11.6663 14.167 11.6663H8.33366C7.87342 11.6663 7.50033 11.2932 7.50033 10.833ZM5.00033 14.1663C5.00033 13.7061 5.37342 13.333 5.83366 13.333H10.8337C11.2939 13.333 11.667 13.7061 11.667 14.1663C11.667 14.6266 11.2939 14.9997 10.8337 14.9997H5.83366C5.37342 14.9997 5.00033 14.6266 5.00033 14.1663Z" fill="#FF8B6A"/>
<path fill-rule="evenodd" clip-rule="evenodd" d="M5.83333 1.66699C5.3731 1.66699 5 2.04009 5 2.50033V5.83366C5 6.2939 5.3731 6.66699 5.83333 6.66699C6.29357 6.66699 6.66667 6.2939 6.66667 5.83366V2.50033C6.66667 2.04009 6.29357 1.66699 5.83333 1.66699ZM14.1667 1.66699C13.7064 1.66699 13.3333 2.04009 13.3333 2.50033V5.83366C13.3333 6.2939 13.7064 6.66699 14.1667 6.66699C14.6269 6.66699 15 6.2939 15 5.83366V2.50033C15 2.04009 14.6269 1.66699 14.1667 1.66699Z" fill="#FF8B6A"/>
</svg>
