<svg width="20" height="20" viewBox="0 0 20 20" fill="none" xmlns="http://www.w3.org/2000/svg">
<path fill-rule="evenodd" clip-rule="evenodd" d="M4.33366 1.16634C4.49104 0.956503 4.73803 0.833008 5.00033 0.833008H15.0003C15.2626 0.833008 15.5096 0.956503 15.667 1.16634L18.167 4.49967C18.2752 4.64392 18.3337 4.81937 18.3337 4.99967V16.6663C18.3337 17.3294 18.0703 17.9653 17.6014 18.4341C17.1326 18.9029 16.4967 19.1663 15.8337 19.1663H4.16699C3.50395 19.1663 2.86807 18.9029 2.39923 18.4341C1.93038 17.9653 1.66699 17.3294 1.66699 16.6663V4.99967C1.66699 4.81937 1.72547 4.64392 1.83366 4.49967L4.33366 1.16634ZM5.41699 2.49967L3.33366 5.27745V16.6663C3.33366 16.8874 3.42146 17.0993 3.57774 17.2556C3.73402 17.4119 3.94598 17.4997 4.16699 17.4997H15.8337C16.0547 17.4997 16.2666 17.4119 16.4229 17.2556C16.5792 17.0993 16.667 16.8874 16.667 16.6663V5.27745L14.5837 2.49967H5.41699Z" fill="#828FA2"/>
<path fill-rule="evenodd" clip-rule="evenodd" d="M1.66699 4.99967C1.66699 4.53944 2.04009 4.16634 2.50033 4.16634H17.5003C17.9606 4.16634 18.3337 4.53944 18.3337 4.99967C18.3337 5.45991 17.9606 5.83301 17.5003 5.83301H2.50033C2.04009 5.83301 1.66699 5.45991 1.66699 4.99967Z" fill="#828FA2"/>
<path fill-rule="evenodd" clip-rule="evenodd" d="M6.66699 7.49967C7.12723 7.49967 7.50033 7.87277 7.50033 8.33301C7.50033 8.99605 7.76372 9.63193 8.23256 10.1008C8.7014 10.5696 9.33728 10.833 10.0003 10.833C10.6634 10.833 11.2993 10.5696 11.7681 10.1008C12.2369 9.63193 12.5003 8.99605 12.5003 8.33301C12.5003 7.87277 12.8734 7.49967 13.3337 7.49967C13.7939 7.49967 14.167 7.87277 14.167 8.33301C14.167 9.43808 13.728 10.4979 12.9466 11.2793C12.1652 12.0607 11.1054 12.4997 10.0003 12.4997C8.89526 12.4997 7.83545 12.0607 7.05405 11.2793C6.27265 10.4979 5.83366 9.43808 5.83366 8.33301C5.83366 7.87277 6.20676 7.49967 6.66699 7.49967Z" fill="#828FA2"/>
</svg>
