<svg width="6" height="4" viewBox="0 0 6 4" fill="none" xmlns="http://www.w3.org/2000/svg">
<path fill-rule="evenodd" clip-rule="evenodd" d="M5.93277 1.7006C3.97664 -0.566866 2.02052 -0.566866 0.0643919 1.7006C0.0229434 1.74996 0 1.8141 0 1.8806C0 1.9471 0.0229434 2.01123 0.0643919 2.0606C2.02052 4.32806 3.97831 4.32806 5.93777 2.0606C5.97854 2.01057 6.00059 1.94606 5.99967 1.87956C5.99875 1.81306 5.97491 1.7493 5.93277 1.7006ZM5.44313 1.88324C4.55578 2.86383 3.74124 3.27273 2.99983 3.27273C2.2578 3.27273 1.4432 2.86314 0.556413 1.8806C1.44326 0.89795 2.25745 0.488467 2.99858 0.488467C3.74038 0.488467 4.55536 0.898685 5.44313 1.88324Z" fill="#F2F2F2"/>
<path d="M2.9999 2.63785C3.44442 2.63785 3.80477 2.29887 3.80477 1.88072C3.80477 1.46257 3.44442 1.12359 2.9999 1.12359C2.55538 1.12359 2.19502 1.46257 2.19502 1.88072C2.19502 2.29887 2.55538 2.63785 2.9999 2.63785Z" fill="#F2F2F2"/>
</svg>
