<svg width="7" height="3" viewBox="0 0 7 3" fill="none" xmlns="http://www.w3.org/2000/svg">
<mask id="mask0_0_938" style="mask-type:alpha" maskUnits="userSpaceOnUse" x="0" y="0" width="7" height="3">
<path fill-rule="evenodd" clip-rule="evenodd" d="M0.239451 0.057825C0.33864 -0.0279872 0.488515 -0.0170286 0.574206 0.0823015C1.50482 1.16105 2.39722 1.65493 3.25118 1.65493C4.1052 1.65493 4.99844 1.16098 5.93071 0.0821501C6.01648 -0.0171077 6.16637 -0.0279399 6.26548 0.0579559C6.3646 0.143852 6.37542 0.293948 6.28965 0.393206C5.31511 1.52094 4.30234 2.13028 3.25118 2.13028C2.19995 2.13028 1.18796 1.52088 0.215009 0.393055C0.129319 0.293725 0.140262 0.143637 0.239451 0.057825Z" fill="white"/>
<path fill-rule="evenodd" clip-rule="evenodd" d="M1.16459 0.773825C1.25727 0.866639 1.25727 1.01712 1.16459 1.10994L0.405142 1.87047C0.312461 1.96328 0.162193 1.96328 0.0695115 1.87047C-0.0231705 1.77765 -0.0231705 1.62717 0.0695115 1.53436L0.828958 0.773825C0.92164 0.68101 1.07191 0.68101 1.16459 0.773825Z" fill="white"/>
<path fill-rule="evenodd" clip-rule="evenodd" d="M5.339 0.773825C5.24632 0.866639 5.24632 1.01712 5.339 1.10994L6.09849 1.87047C6.19117 1.96328 6.34145 1.96328 6.43413 1.87047C6.52682 1.77765 6.52682 1.62717 6.43413 1.53436L5.67465 0.773825C5.58196 0.68101 5.43169 0.68101 5.339 0.773825Z" fill="white"/>
<path fill-rule="evenodd" clip-rule="evenodd" d="M2.55346 1.57213C2.67226 1.62761 2.72365 1.76901 2.66826 1.88798L2.21435 2.86278C2.15895 2.98174 2.01774 3.03321 1.89895 2.97774C1.78015 2.92227 1.72876 2.78086 1.78415 2.66189L2.23806 1.68709C2.29346 1.56813 2.43467 1.51666 2.55346 1.57213Z" fill="white"/>
<path fill-rule="evenodd" clip-rule="evenodd" d="M3.94618 1.56914C3.82739 1.62461 3.77599 1.76603 3.83139 1.88499L4.28531 2.85981C4.3407 2.97877 4.48191 3.03024 4.60071 2.97477C4.71951 2.91929 4.77091 2.77788 4.71551 2.65892L4.26159 1.6841C4.20619 1.56514 4.06498 1.51367 3.94618 1.56914Z" fill="white"/>
</mask>
<g mask="url(#mask0_0_938)">
<rect x="-4.70007" y="-4.23922" width="15.9492" height="11.5032" fill="#E8F5FE"/>
<g opacity="0.25">
<rect x="-4.70007" y="-4.23922" width="15.9492" height="11.5032" fill="#2D2D2D"/>
</g>
</g>
</svg>
