<svg width="168" height="182" viewBox="0 0 168 182" fill="none" xmlns="http://www.w3.org/2000/svg">
<circle cx="41.5" cy="41.5" r="41.5" fill="#F8F8F8"/>
<path d="M36.2402 145.051V82.9614L81.124 113.632L129 79.2211V145.051H36.2402Z" fill="#FF8B6A"/>
<path d="M39.2326 64.4803L32.5 68.2206M32.5 68.2206C32.5 94.2208 32.5 108.798 32.5 134.798M32.5 68.2206L87.1085 107.12M32.5 134.798L60.9264 115.349M32.5 134.798H72.1473M129 134.798C129 108.798 129 94.2208 129 68.2206M129 134.798L114.039 124.325M129 134.798H104.314M129 68.2206L81.124 41.2904L65.4147 50.2671M129 68.2206C107.674 83.4117 95.7174 91.9288 74.3915 107.12" stroke="#2D2D2D" stroke-width="1.5"/>
<path d="M45.9658 53.267V74.1972C45.9658 75.8541 47.309 77.1972 48.9658 77.1972H111.788C113.444 77.1972 114.788 75.8541 114.788 74.1972V53.267C114.788 51.6101 113.444 50.267 111.788 50.267H48.9658C47.309 50.267 45.9658 51.6101 45.9658 53.267Z" fill="white"/>
<path d="M55.6895 73.2361H71.3988" stroke="#E04343" stroke-width="1.5"/>
<path d="M55.6895 79.2211H93.0926" stroke="#2D2D2D" stroke-width="1.5"/>
<path d="M55.6895 88.1969H100.573" stroke="#2D2D2D" stroke-width="1.5"/>
<path d="M55.6895 95.6781H87.1081" stroke="#2D2D2D" stroke-width="1.5"/>
<path d="M67.6592 116.655L79.6282 116.655" stroke="#2D2D2D" stroke-width="1.5"/>
<path d="M45.9658 77.1972V53.267C45.9658 51.6101 47.309 50.267 48.9658 50.267H111.788C113.444 50.267 114.788 51.6101 114.788 53.267V77.1972" stroke="#2D2D2D" stroke-width="1.5"/>
<circle cx="154" cy="168" r="13.25" fill="white" stroke="#2D2D2D" stroke-width="1.5"/>
<path d="M148 167.5L153.217 171L160 165" stroke="#2D2D2D" stroke-width="1.5"/>
</svg>
