<svg width="248" height="208" viewBox="0 0 248 208" fill="none" xmlns="http://www.w3.org/2000/svg">
<path d="M189.407 47.029C202.394 47.029 212.922 36.5012 212.922 23.5145C212.922 10.5278 202.394 0 189.407 0C176.42 0 165.893 10.5278 165.893 23.5145C165.893 36.5012 176.42 47.029 189.407 47.029Z" fill="#ECEEF9"/>
<path d="M218.913 42.2304C227.19 42.2304 233.899 35.5206 233.899 27.2436C233.899 18.9666 227.19 12.2568 218.913 12.2568C210.636 12.2568 203.926 18.9666 203.926 27.2436C203.926 35.5206 210.636 42.2304 218.913 42.2304Z" fill="#ECEEF9"/>
<path d="M233.9 35.3469C238.376 35.3469 242.004 31.7188 242.004 27.2433C242.004 22.7678 238.376 19.1396 233.9 19.1396C229.425 19.1396 225.797 22.7678 225.797 27.2433C225.797 31.7188 229.425 35.3469 233.9 35.3469Z" fill="#ECEEF9"/>
<path d="M178.448 64.2943C180.659 64.2943 182.452 62.5021 182.452 60.2912C182.452 58.0803 180.659 56.2881 178.448 56.2881C176.238 56.2881 174.445 58.0803 174.445 60.2912C174.445 62.5021 176.238 64.2943 178.448 64.2943Z" fill="#ECEEF9"/>
<path d="M137.107 25.1871C142.038 25.1871 146.035 21.1901 146.035 16.2596C146.035 11.329 142.038 7.33203 137.107 7.33203C132.177 7.33203 128.18 11.329 128.18 16.2596C128.18 21.1901 132.177 25.1871 137.107 25.1871Z" fill="#ECEEF9"/>
<path d="M19.834 97.7252C19.834 59.5354 101.458 -22.6602 124.461 28.5764C161.109 110.208 229.088 59.5354 229.088 97.7252C229.088 135.915 182.245 166.874 124.461 166.874C66.6771 166.874 19.834 135.915 19.834 97.7252Z" fill="#ECEEF9"/>
<path d="M60.5007 126.294C60.8654 126.114 61.239 125.951 61.6165 125.795C61.5936 125.781 61.5673 125.772 61.5476 125.753C60.2506 124.62 58.9726 123.466 57.6918 122.316C56.1689 120.993 54.9773 119.946 53.3005 119.116C52.1594 118.653 50.6009 118.298 49.2693 118.371C45.6831 118.346 42.53 120.751 39.8405 122.854C36.7667 125.311 33.7068 127.815 31.094 130.732C30.0581 131.856 29.42 132.685 28.457 134.04C27.809 135.029 27.3846 135.641 27.3672 136.552C27.7306 139.296 29.0302 142.61 30.7267 145.319C30.796 145.441 30.7869 145.57 30.7375 145.686C30.7519 145.7 30.7695 145.711 30.7827 145.725C31.1801 145.18 31.5754 144.67 31.9896 144.203C31.9509 144.171 31.9141 144.137 31.8908 144.093C31.4374 143.482 31.0625 142.821 30.7328 142.142C30.1046 140.704 29.6209 139.178 29.5273 137.614C29.4344 133.151 35.3705 128.617 38.7215 125.999C40.7124 124.475 42.9705 123.336 45.3174 122.404C48.2994 121.155 50.33 120.076 53.5562 121.531C56.0658 122.682 58.1393 124.527 60.3872 126.069C60.4588 126.139 60.488 126.216 60.5007 126.294ZM105.083 181.722C105.083 181.72 105.083 181.718 105.082 181.717C105.081 181.72 105.078 181.727 105.077 181.731C105.078 181.728 105.082 181.724 105.083 181.722Z" fill="black"/>
<path d="M105.083 181.721C105.109 181.671 105.097 181.661 105.08 181.704C105.08 181.708 105.081 181.713 105.082 181.717C105.093 181.687 105.089 181.691 105.083 181.721ZM27.9876 158.08C28.8468 159.756 29.8966 160.821 30.899 162.207C32.2643 160.379 33.6351 158.555 34.9735 156.71C37.2378 153.537 39.5321 150.018 40.9135 146.813C41.457 145.658 42.3123 143.467 42.1092 143.268C41.9407 142.949 39.525 142.484 38.5322 142.509C34.2988 142.408 32.9401 144.387 30.6085 147.657C28.0323 151.11 26.2846 154.508 27.9876 158.08ZM63.953 124.998C64.8727 124.748 65.8354 124.541 66.8105 124.408C66.7985 124.338 66.7844 124.269 66.7603 124.207C66.7463 124.139 66.6684 123.906 66.633 123.8C66.162 122.384 64.955 121.405 64.4194 121.538C63.0138 121.929 62.1774 123.605 62.6728 125.393C63.0952 125.249 63.521 125.113 63.953 124.998ZM69.0681 166.564C68.9821 166.526 68.8061 166.443 68.7212 166.401C68.5568 166.34 68.3671 166.335 68.2042 166.277C67.8037 166.514 67.8023 166.488 67.5146 166.735C66.3379 167.824 66.3937 169.002 68.0377 169.382C69.3616 169.562 70.2206 168.51 69.6339 167.28C69.3975 166.846 69.4279 166.857 69.0681 166.564ZM54.8671 135.463C54.8905 135.596 54.9319 135.634 54.9743 135.729C60.3387 134.691 65.7968 134.167 71.2382 133.652C73.2309 133.378 77.4127 133.079 77.6201 132.946C77.9352 131.171 76.2545 128.11 74.1074 126.67C71.1405 124.621 67.5433 124.987 64.1874 125.866C61.5359 126.588 59.4723 127.618 57.623 129.302C56.176 130.622 55.4116 131.551 54.9602 133.341C54.7531 134.218 54.6357 134.609 54.8671 135.463ZM51.4532 176.321C50.9602 176.014 50.9576 175.996 50.7627 176.018C50.6696 176.03 48.9104 176.841 48.1415 177.305C48.0597 177.348 47.9833 177.366 47.9113 177.372C48.1359 177.685 48.3154 178.036 48.5513 178.34C48.5923 178.412 48.6026 178.487 48.5967 178.56C49.0568 178.537 49.517 178.513 49.9772 178.491C50.9521 178.448 51.9275 178.417 52.9027 178.382C52.7785 178.146 52.7443 177.821 52.6481 177.723C52.3789 177.108 51.7608 176.513 51.4532 176.321ZM55.8662 151.742C56.2704 152.184 57.8933 151.257 58.275 150.722C58.5069 150.261 58.681 149.794 58.4137 149.066C58.429 149.091 58.2498 148.704 58.0775 148.454C58.0505 148.407 58.0375 148.358 58.0317 148.309C57.2736 148.679 56.525 149.107 55.779 149.608C55.4342 149.845 55.0869 150.097 54.7399 150.356C55.1976 150.927 55.7113 151.648 55.8662 151.742ZM66.0541 169.241C65.3425 169.748 64.6208 170.247 63.8884 170.735C64.6915 170.463 65.4666 170.176 65.6979 170.054C65.9685 169.941 66.2347 169.82 66.5011 169.698C66.3773 169.604 66.2586 169.502 66.1524 169.384C66.1145 169.337 66.0864 169.289 66.0541 169.241ZM48.1725 139.382C48.0804 139.476 47.9773 139.589 47.93 139.641C47.8859 139.696 47.845 139.752 47.8074 139.811C48.5043 141.196 49.9838 143.226 51.0833 144.558C51.1164 144.591 51.1313 144.627 51.1509 144.662C51.3152 144.551 51.4791 144.44 51.6451 144.332C51.2539 143.837 50.9872 143.234 50.6233 142.713C49.7665 141.42 49.1528 140.317 48.1725 139.382ZM48.0965 138.115C48.5678 137.87 49.0741 137.687 49.5361 137.427C48.654 136.397 47.2491 135.049 46.8229 135.117C46.5244 135.036 45.9872 135.496 45.3068 135.989C44.3218 136.639 42.9458 137.976 43.4592 138.666C43.962 139.714 44.7387 140.886 45.1528 140.958C45.1539 140.957 45.154 140.957 45.1551 140.957C45.5891 140.764 46.1812 140.303 46.819 139.683C46.8395 139.664 46.8615 139.657 46.8826 139.641C47.0708 139.192 47.4425 138.807 47.8402 138.517C47.8544 138.355 47.9487 138.197 48.0965 138.115ZM84.4893 158.272C84.4818 158.283 84.4741 158.294 84.4656 158.307C84.4576 158.329 84.4501 158.352 84.4431 158.374C84.3458 158.512 84.547 159.118 84.7745 159.36C85.1347 159.707 86.0357 159.456 87.0909 158.85C87.3825 158.74 87.7425 158.376 88.0768 158.189C87.7341 157.472 87.3593 156.774 86.9445 156.102C86.943 156.104 86.942 156.106 86.9405 156.107C86.168 156.871 85.2932 157.541 84.4893 158.272ZM105.076 181.731C105.074 181.735 105.07 181.739 105.068 181.743C105.065 181.753 105.063 181.757 105.06 181.77C105.069 181.751 105.072 181.743 105.076 181.731ZM29.7762 147.272C29.9387 147.046 30.0972 146.825 30.2541 146.606C30.1873 146.588 30.1245 146.558 30.0748 146.511C29.7066 146.231 29.7643 146.26 29.2943 145.995C28.5984 145.659 28.0553 145.496 27.4824 145.502C27.335 145.518 27.3863 145.515 27.4967 145.494C27.4131 145.495 27.1456 145.578 27.0712 145.598C27.0164 145.627 26.9544 145.668 26.9205 145.69C26.896 145.712 26.8741 145.733 26.8582 145.75C26.8559 145.753 26.8539 145.756 26.8517 145.759C26.6369 146.321 27.8189 147.458 28.9326 148.455C29.2061 148.054 29.4892 147.659 29.7762 147.272ZM155.907 101.11C153.89 104.897 152.894 109.322 152.531 113.833C153.612 114.337 154.693 114.841 155.771 115.35C157.008 115.898 158.252 116.434 159.5 116.961C159.514 116.936 159.528 116.91 159.541 116.887C160.452 115.114 161.408 113.363 162.417 111.638C164.044 108.948 165.786 105.674 166.928 103.214C167.163 102.478 167.216 102.803 166.879 102.163C164.594 100.428 161.717 98.8327 158.683 97.2275C157.676 98.4701 156.691 99.7266 155.907 101.11Z" fill="black"/>
<path d="M151.573 116.79C151.52 117.693 151.488 118.597 151.479 119.499C151.548 123.486 151.895 127.517 150.924 131.436C150.486 133.377 149.883 135.361 148.547 136.912C147.142 138.511 145.391 139.831 143.436 140.721C147.457 142.235 151.412 143.733 155.129 145.13C155.761 145.334 155.926 145.297 156.063 145.205C156.541 144.923 157.352 143.231 157.911 142.099C159.558 138.609 161.254 135.223 162.698 131.972C163.674 129.77 164.598 127.545 165.533 125.326C166.081 124.336 165.211 123.143 164.404 122.616C161.536 121.035 158.36 120.016 155.399 118.601C154.124 117.998 152.848 117.394 151.573 116.79ZM156.983 139.483C157.183 139.743 157.162 140.087 157 140.359C156.732 140.902 156.388 141.407 156.035 141.901C155.627 142.515 154.851 143.098 154.08 142.725C152.991 142.191 151.857 141.736 150.784 141.177C150.355 140.931 150.398 140.38 150.6 140.001C150.976 139.177 151.361 138.356 151.764 137.543C151.908 137.278 152.311 137.226 152.507 137.422C152.583 137.291 152.715 137.189 152.87 137.171C153.665 137.264 154.402 137.757 155.122 138.092C155.789 138.48 156.509 138.87 156.983 139.483Z" fill="#FFC95F"/>
<path d="M113.868 129.528C113.682 129.068 113.519 128.597 113.486 128.102C113.383 126.822 113.677 125.52 114.26 124.367C114.705 123.574 115.351 122.906 115.962 122.227C117.361 120.743 118.326 119.537 119.417 117.736C121.438 114.659 122.302 111.271 123.888 107.791C124.11 107.316 124.354 106.85 124.608 106.389C122.812 106.259 120.758 106.241 118.811 106.35C118.735 106.405 118.648 106.446 118.551 106.45C118.216 106.466 117.883 106.504 117.55 106.542C117.046 107.521 116.471 108.484 115.985 109.478C113.771 113.794 111.153 117.908 108.929 122.22C108.223 123.566 107.51 124.909 106.855 126.278C106.787 126.466 106.567 126.849 106.559 127.124C106.625 127.115 106.693 127.115 106.762 127.142C107.06 127.384 107.349 127.642 107.638 127.903C109.019 128.472 111.256 128.963 112.931 129.319C113.243 129.389 113.556 129.459 113.868 129.528Z" fill="black"/>
<path d="M131.133 96.7587C132.815 95.1038 135.4 93.6747 136.934 92.4897C138.372 91.3627 139.524 89.9485 141.051 88.9148C141.057 88.9107 141.063 88.9069 141.069 88.9029C139.339 88.6426 137.483 88.4358 135.882 88.1379C134 87.853 131.922 87.183 130.623 87.5999C130.019 87.7566 129.219 90.0825 128.58 91.6738C127.108 95.2741 125.558 98.8824 123.375 102.171C124.477 102.175 125.581 102.225 126.677 102.326C127.914 100.315 129.434 98.448 131.133 96.7587ZM63.3476 60.7054C69.3964 58.0539 75.3706 55.3046 81.2137 52.3892C86.0365 50.0306 91.0071 47.8429 96.1247 45.8875C95.858 45.8033 95.6968 45.7504 95.2959 45.6542C93.8508 45.2645 91.6147 45.0109 90.533 44.9684C88.2753 44.7799 86.5202 45.2844 84.2257 45.7128C80.5439 46.4696 76.873 47.2578 73.2135 48.0772C63.1673 50.3239 52.9251 52.037 42.9364 54.4338C42.5912 54.5361 42.5763 54.5252 42.3652 54.6131C42.7658 54.9617 44.2015 55.4724 45.2301 55.8023C47.4193 56.5017 49.5587 57.2888 51.6965 58.0764C54.0433 58.9064 56.2518 59.942 58.5097 60.9036C59.2898 61.2428 60.0623 61.5926 60.821 61.9598C61.6259 61.4995 62.4826 61.0956 63.3476 60.7054Z" fill="#FFC95F"/>
<path d="M69.1633 165.585C69.6973 164.865 70.2362 164.148 70.7813 163.436C71.7746 162.179 72.62 160.831 73.3941 159.45C73.808 158.65 74.2043 157.96 74.557 157.276C72.7555 159.839 70.8462 162.936 68.9629 165.521C69.0308 165.543 69.0976 165.564 69.1633 165.585Z" fill="black"/>
<path d="M62.1483 74.6903C61.9015 74.7177 61.6356 74.7453 61.3593 74.7701C60.7614 76.5388 59.8289 78.2832 59.0649 80.0297C58.1039 82.0567 57.2609 84.112 56.1123 86.0958C55.5909 87.0022 55.0538 87.9044 54.4995 88.8015C54.2692 89.2208 54.1946 89.2633 54.1994 89.508C54.2142 89.5121 54.2331 89.5176 54.2549 89.5239C54.3246 89.5314 54.4318 89.5405 54.4859 89.5312C57.0412 89.2267 60.3247 88.1814 63.3106 87.316C67.5503 85.9994 71.6313 84.3955 75.7577 82.8788C81.2627 80.8497 86.0208 78.6388 91.0684 76.2226C93.2895 75.1746 95.5066 74.118 97.632 72.9598C98.9323 72.2384 99.8468 71.7651 100.694 70.8772C101.392 70.1704 102.056 69.179 102.563 68.1277C102.566 68.1054 102.587 68.0426 102.626 67.9941C102.719 67.7876 102.808 67.58 102.892 67.3717C102.898 67.3573 102.903 67.3419 102.909 67.3271C92.8028 69.5846 82.5454 71.2944 72.3209 73.1098C68.9435 73.6983 65.5668 74.3259 62.1483 74.6903Z" fill="#FFC95F"/>
<path d="M153.658 25.9692C153.64 25.9605 153.627 25.948 153.611 25.9375C151.905 26.4607 150.212 27.0153 148.527 27.5932C151.535 29.5165 153.576 33.0126 154.055 36.1879C154.852 40.9042 152.698 45.4726 151.62 50.0111C151.051 52.235 150.536 54.7113 150.56 57.032C153.244 56.3874 155.919 55.7101 158.6 55.0578C160.766 54.5548 162.923 54.0219 165.07 53.4603C165.084 53.4268 165.1 53.3934 165.116 53.3615C165.242 53.0754 165.341 52.7795 165.423 52.4805C165.734 51.3513 165.864 49.7955 165.906 48.3203C165.954 44.4683 164.406 40.4638 162.637 36.8589C160.616 32.5072 157.564 28.4409 153.658 25.9692Z" fill="black"/>
<path d="M211.884 21.2989C210.086 20.1743 207.95 19.9287 205.668 19.4369C201.037 18.5984 196.656 18.6142 191.816 18.8667C183.612 19.1313 176.189 20.5683 168.27 22.2955C164.044 23.2522 159.811 24.2055 155.632 25.3256C155.346 25.4082 155.064 25.4993 154.779 25.5838C155.61 26.1587 156.409 26.7744 157.15 27.4466C160.405 30.3941 162.55 34.1636 164.266 38.012C166.227 42.1758 167.412 46.7526 166.627 51.2912C166.575 51.5616 166.445 52.4542 166.201 53.1573C171.876 51.6411 177.48 49.9122 182.982 47.9113C189.125 45.6748 194.887 43.1715 200.65 39.8139C205.093 37.3133 209.114 33.7141 211.94 29.8315C213.1 28.1664 214.185 26.3231 214.001 24.9544C213.83 23.6141 212.645 21.8795 211.884 21.2989ZM195.918 34.9121C192.875 39.006 184.454 39.7366 180.569 36.3357C178.153 34.3513 177.877 30.7431 179.711 28.3436C180.757 27.1043 182.241 26.2746 183.789 25.6358C183.852 25.5625 183.934 25.5021 184.032 25.4722C185.442 24.9021 186.944 24.4391 188.493 24.3679C190.67 24.3204 192.908 24.9198 194.619 26.176C195.904 27.1772 196.719 28.5998 197.182 30.0694C197.561 31.7476 196.958 33.5244 195.918 34.9121ZM139.755 44.053C137.905 40.1493 135.262 36.2956 131.872 34.0651C131.768 34.0143 131.707 33.9378 131.677 33.8522C122.939 36.8839 114.104 39.6789 105.409 42.8138C94.7894 46.6601 84.6489 52.3501 74.7592 58.1528C71.9326 59.7486 69.0535 61.2648 66.1772 62.7831C64.3486 63.7558 62.0772 64.8736 60.7867 65.8626C60.5657 66.0948 60.1556 66.0233 60.0247 65.7789C59.1637 66.5747 58.5027 67.422 58.4897 68.275C58.392 68.8875 59.6487 69.3911 61.2663 69.4882C65.0054 69.7354 69.9315 69.2635 74.1063 68.9317C85.3821 67.9996 96.6817 67.2165 107.869 65.5658C118.653 64.1157 128.974 61.933 139.82 59.8742C140.785 59.6988 141.746 59.5061 142.705 59.3068C143.282 57.2143 143.414 55.2474 143.005 53.1163C142.365 49.7687 141.185 47.0993 139.755 44.053Z" fill="#FF8B6A"/>
<path d="M150.86 37.7724C150.344 34.531 148.928 31.8318 146.146 29.7437C145.788 29.4676 145.421 29.2321 145.052 29.0234C143.721 29.49 142.394 29.9662 141.073 30.4574C138.304 31.509 135.514 32.512 132.715 33.4907C132.749 33.5154 132.784 33.5393 132.819 33.5604C133.423 33.9812 133.985 34.4505 134.526 34.9377C137.835 37.9036 139.873 41.8077 141.596 45.6918C143.133 49.3102 144.578 53.153 144.126 57.0922C144.045 57.7675 143.906 58.4363 143.721 59.0942C144.913 58.8372 146.101 58.564 147.287 58.2838C147.22 55.683 147.88 53.0481 148.484 50.5296C149.576 46.1785 151.453 41.8423 150.86 37.7724Z" fill="black"/>
<path d="M137.515 93.0903C136.074 94.2224 134.393 95.1252 133.235 96.0697C130.963 97.8803 129.097 100.087 127.633 102.437C128.432 102.534 129.227 102.649 130.011 102.806C131.72 103.187 133.196 104.125 134.754 104.844C135.714 105.33 136.68 105.806 137.648 106.278C138.254 105.165 138.86 104.051 139.438 102.925C140.723 100.451 141.781 98.1178 143.011 95.417C143.909 93.4937 145.132 90.1811 144.601 89.645C143.922 89.4271 143.132 89.2529 142.285 89.1016C141.844 89.3672 141.436 89.643 141.077 89.9187C139.812 90.8998 138.781 92.1103 137.515 93.0903Z" fill="#FFC95F"/>
<path d="M118.875 130.71C119.39 130.898 119.899 131.098 120.409 131.297C120.469 131.171 120.542 131.047 120.581 130.923C124.143 122.984 127.135 114.831 130.328 106.754C130.349 106.672 130.398 106.608 130.456 106.555C129.242 106.041 128.048 105.753 126.501 105.584C126.429 105.576 126.352 105.57 126.278 105.563C125.755 106.496 125.291 107.447 124.89 108.401C124.075 110.305 123.452 112.28 122.586 114.164C121.658 116.196 120.505 118.135 119.168 119.948C117.946 121.645 116.258 123.014 115.356 124.532C114.643 125.923 114.336 128.003 115.148 129.454C115.202 129.55 115.206 129.657 115.178 129.757C116.421 130.038 117.66 130.334 118.875 130.71ZM155.163 100.624C155.938 99.2666 156.908 98.0337 157.9 96.8142C154.016 94.772 149.936 92.6931 146.542 90.2686C146.542 90.5771 146.495 90.9012 146.424 91.2132C146.007 93.1726 145.15 95.0169 144.354 96.8598C143.128 99.554 141.919 102.256 140.542 104.886C140.091 105.767 139.621 106.639 139.156 107.514C143.28 109.545 147.461 111.471 151.634 113.413C152.092 109.009 152.973 104.561 155.163 100.624Z" fill="black"/>
<path d="M142.235 140.269C145.021 139.253 147.542 137.323 148.927 134.738C149.942 132.508 150.537 129.363 150.659 126.512C150.765 123.271 150.393 120.026 150.625 116.787C150.637 116.644 150.65 116.501 150.663 116.358C144.701 113.53 138.755 110.669 132.923 107.596C132.634 107.431 132.355 107.285 132.079 107.146C131.553 108.86 130.79 110.533 130.17 112.226C127.505 119.032 125.049 125.945 121.98 132.587C124.046 133.422 126.093 134.301 128.186 135.072C132.758 136.724 137.53 138.501 142.235 140.269Z" fill="#FFC95F"/>
<path d="M192.322 23.3912C190.611 22.0223 188.373 21.3691 186.195 21.4208C184.646 21.4984 183.145 22.003 181.735 22.6242C181.636 22.6569 181.554 22.7226 181.491 22.8026C179.943 23.4987 178.459 24.4028 177.414 25.7534C175.579 28.3681 175.855 32.3002 178.272 34.4626C182.157 38.1688 190.577 37.3726 193.62 32.9114C194.661 31.399 195.263 29.4628 194.885 27.6339C194.422 26.0326 193.606 24.4823 192.322 23.3912ZM193.853 30.2682C193.187 32.5799 191.48 34.4238 189.133 35.1022C185.575 36.3745 181.381 36.1224 178.773 33.5374C176.883 31.6729 176.701 28.4928 178.113 26.3487C178.665 25.589 179.611 24.7987 180.783 24.1858C181.537 23.7921 181.754 23.667 182.414 23.4045C182.585 23.3365 182.777 23.2832 182.9 23.1435C183.285 23.0114 183.732 22.8652 183.914 22.8029C185.095 22.412 186.313 22.302 187.302 22.4312C189.288 22.7012 190.885 23.3219 192.184 24.6649C193.066 25.6364 193.798 27.0577 194.021 28.3901C194.083 28.6332 193.95 29.994 193.853 30.2682ZM105.082 181.717C105.082 181.713 105.081 181.709 105.08 181.704C105.076 181.713 105.072 181.728 105.068 181.743C105.071 181.739 105.074 181.735 105.076 181.731C105.078 181.727 105.081 181.72 105.082 181.717Z" fill="black"/>
<path d="M97.1416 42.9122C95.2089 42.096 93.1435 41.611 91.0513 41.4638C89.6669 41.3141 88.273 41.3536 86.9239 41.7201C81.8287 42.9328 76.8037 44.4216 71.7648 45.8454C65.3361 47.617 58.8793 49.2844 52.4235 50.9539C49.7412 51.6853 47.0449 52.3688 44.3861 53.183C43.3047 53.5941 40.1462 54.0404 41.7432 55.6759C42.7191 56.4968 43.953 56.9181 45.1032 57.4329C46.6096 58.0536 48.0845 58.7461 49.5591 59.4384C52.7805 60.8825 55.8417 62.6375 58.9055 64.3842C59.0897 64.476 59.2673 64.5879 59.444 64.7022C58.8547 65.2538 58.3834 65.9509 57.976 66.6338C56.4696 69.5216 58.9177 70.2764 61.2654 70.4642C59.0723 75.7806 56.9248 80.9485 54.3707 85.8342C53.0638 88.5367 49.7838 92.0151 55.4867 90.9723C59.9087 90.233 64.2593 89.1074 68.5142 87.6998C72.6571 86.2834 76.8275 84.9356 80.9101 83.351C85.1934 81.6818 89.3458 79.7055 93.4965 77.7353C95.8533 76.6279 98.2004 75.4936 100.466 74.2085C102.22 73.2897 103.786 72.0266 104.847 70.337C105.604 69.208 106.189 67.9728 106.686 66.7097C106.741 66.595 106.795 66.4576 106.823 66.3229C107.051 66.2873 107.28 66.2569 107.508 66.2206C118.55 64.6133 129.422 62.1172 140.341 59.8595C141.235 59.68 142.126 59.4844 143.015 59.2825C143.02 59.2823 143.024 59.2847 143.028 59.2844C143.1 59.2794 143.16 59.2613 143.214 59.2367C144.592 58.9214 145.964 58.5791 147.334 58.2278C147.396 58.9603 147.514 59.6891 147.7 60.4112C148.124 62.1586 148.921 63.9051 150.367 65.036C153.252 67.2938 156.811 68.4502 159.758 70.6166C159.968 70.7458 160.169 70.8847 160.363 71.031C160.398 71.4311 160.418 71.832 160.407 72.2342C160.114 75.1189 158.953 77.904 156.669 79.9065C155.316 81.1145 153.331 82.3812 151.585 83.0062C149.975 83.5505 148.26 83.6738 146.641 84.1913C145.383 84.5657 144.185 85.1283 143.071 85.8229C140.796 85.4146 138.499 85.125 136.23 84.6874C134.361 84.4275 131.583 83.2522 130.02 84.723C129.346 85.4969 129.058 86.5178 128.677 87.4527C127.953 89.4365 127.223 91.419 126.419 93.3721C125.459 95.6355 124.712 97.4321 123.462 99.6792C123.092 100.344 122.691 100.99 122.291 101.637C121.337 101.658 120.387 101.711 119.445 101.795C119.395 101.814 119.353 101.843 119.315 101.874C118.876 101.923 118.422 101.936 118 102.046C117.732 102.138 117.642 102.434 117.71 102.666C116.505 104.857 115.481 107.143 114.291 109.343C112.613 112.483 110.847 115.575 109.23 118.747C108.377 120.421 107.533 122.1 106.714 123.791C106.335 124.851 105.18 126.198 105.769 127.314C106.088 127.8 106.596 128.074 107.125 128.297C109.488 130.503 112.271 132.234 115.048 133.87C119.991 136.853 125.331 139.033 130.784 140.881C130.801 141.262 131.256 141.342 131.583 141.363C131.942 141.418 132.303 141.462 132.663 141.506C133.28 141.706 133.898 141.906 134.517 142.1C138.405 143.411 142.292 144.743 146.287 145.698C148.104 146.167 149.93 146.618 151.815 146.685C153.332 146.804 154.856 146.76 156.367 146.584C156.718 146.546 157.198 146.542 157.357 146.211C158.447 145.987 159.045 144.625 159.533 143.673C160.328 142.073 161.066 140.446 161.803 138.819C164.155 133.705 166.629 128.586 168.443 123.261C168.635 120.372 165.392 119.337 163.239 118.381C162.443 118.039 161.651 117.686 160.858 117.335C160.879 117.289 160.898 117.243 160.915 117.199C161.137 116.744 161.361 116.289 161.588 115.836C162.371 114.274 163.187 112.728 164.036 111.201C165.44 108.745 166.701 106.215 167.899 103.653C168.269 102.706 169.117 101.643 168.567 100.616C168.15 99.7711 167.263 99.3381 166.521 98.8239C164.315 97.3939 162.069 96.0267 159.782 94.7321C160.848 93.3434 161.904 91.947 162.751 90.4099C163.995 88.1341 164.991 85.6634 165.297 83.0731C165.494 79.9778 165.249 76.753 163.934 73.9058C163.315 72.5456 162.386 71.4499 161.292 70.5148C161.135 69.2409 160.769 67.991 160.231 66.8284C159.178 64.4126 157.186 62.6252 155.338 60.8159C154.004 59.5782 152.942 58.2121 152.042 56.9824C153.587 56.565 155.131 56.1461 156.678 55.7372C165.327 53.552 173.833 50.849 182.108 47.5099C188.026 45.0831 193.818 42.2921 199.19 38.8058C203.613 36.0076 207.427 32.262 210.371 27.9388C211.605 25.9204 213.208 23.5479 212.503 21.0924C212.071 19.7478 211.44 18.3789 210.375 17.4208C208.299 15.853 205.56 15.5443 203.083 14.9905C197.161 13.9087 191.11 14.3054 185.143 14.7456C178.69 15.2793 172.357 16.7097 166.062 18.1718C160.566 19.5487 155.02 20.8021 149.673 22.6931C148.189 23.2197 146.715 23.7701 145.243 24.3284C144.266 23.8069 143.204 23.4645 142.075 23.3616C140.486 23.2992 138.864 24.0335 137.969 25.3679C137.536 25.9985 137.14 26.7607 137.039 27.5368C132.274 29.4326 127.508 31.3287 122.654 32.9935C115.522 35.6198 108.316 38.0811 101.349 41.1287C99.9798 41.7368 98.6236 42.3736 97.2744 43.0254C97.2404 42.9825 97.1989 42.9423 97.1416 42.9122ZM128.831 89.7429C129.501 87.9412 130.339 85.3077 130.972 85.1303C132.334 84.6584 134.512 85.4169 136.485 85.7393C138.163 86.0767 140.109 86.3106 141.922 86.6054C141.916 86.6099 141.909 86.6143 141.903 86.6189C140.303 87.7892 139.095 89.3904 137.588 90.6665C135.98 92.0082 133.27 93.6262 131.507 95.5C129.725 97.4127 128.133 99.527 126.836 101.804C125.687 101.689 124.53 101.633 123.374 101.627C125.662 97.9047 127.288 93.8194 128.831 89.7429ZM151.837 125.105C151.71 128.171 151.09 131.551 150.033 133.948C148.592 136.727 145.967 138.802 143.067 139.894C138.168 137.993 133.199 136.083 128.439 134.308C126.261 133.479 124.129 132.533 121.979 131.636C125.174 124.496 127.731 117.065 130.505 109.748C131.151 107.928 131.945 106.129 132.492 104.288C132.78 104.436 133.071 104.594 133.372 104.771C139.444 108.075 145.634 111.15 151.842 114.19C151.828 114.344 151.814 114.498 151.802 114.651C151.56 118.133 151.948 121.621 151.837 125.105ZM115.605 129.259C114.749 127.653 115.073 125.352 115.824 123.812C116.774 122.133 118.553 120.618 119.839 118.74C121.248 116.735 122.463 114.589 123.44 112.342C124.353 110.257 125.009 108.072 125.867 105.965C126.289 104.909 126.779 103.857 127.33 102.825C127.407 102.833 127.489 102.84 127.565 102.848C129.194 103.035 130.451 103.354 131.731 103.922C131.669 103.981 131.618 104.052 131.596 104.143C128.232 113.079 125.081 122.1 121.328 130.884C121.288 131.021 121.211 131.158 121.147 131.297C120.61 131.077 120.073 130.856 119.531 130.648C118.251 130.232 116.946 129.905 115.636 129.594C115.666 129.483 115.661 129.364 115.605 129.259ZM139.154 106.706C139.631 105.757 140.112 104.809 140.575 103.853C141.985 100.998 143.225 98.0651 144.481 95.1404C145.297 93.1397 146.175 91.1377 146.602 89.0107C146.675 88.6722 146.723 88.3204 146.723 87.9853C150.202 90.6173 154.382 92.8741 158.362 95.091C157.346 96.4149 156.352 97.7534 155.558 99.227C153.313 103.501 152.411 108.329 151.941 113.109C147.665 111.001 143.38 108.91 139.154 106.706ZM143.957 93.9814C142.668 97.0394 141.559 99.6816 140.212 102.482C139.606 103.757 138.971 105.018 138.335 106.279C137.32 105.744 136.308 105.205 135.301 104.654C133.669 103.84 132.121 102.778 130.33 102.347C129.508 102.169 128.674 102.039 127.837 101.93C129.371 99.2689 131.328 96.7703 133.709 94.7203C134.923 93.6509 136.685 92.6289 138.196 91.347C139.523 90.2374 140.604 88.8669 141.93 87.7562C142.306 87.4439 142.734 87.1316 143.197 86.831C144.084 87.0024 144.912 87.1996 145.624 87.4464C146.18 88.0532 144.899 91.8037 143.957 93.9814ZM106.781 126.597C106.706 126.566 106.631 126.565 106.558 126.576C106.568 126.26 106.808 125.82 106.883 125.603C107.601 124.029 108.382 122.485 109.155 120.937C111.592 115.98 114.459 111.249 116.885 106.286C117.418 105.144 118.047 104.037 118.599 102.911C118.964 102.868 119.329 102.824 119.696 102.805C119.802 102.8 119.898 102.754 119.981 102.69C122.114 102.565 124.363 102.586 126.331 102.735C126.053 103.266 125.786 103.801 125.543 104.347C123.805 108.348 122.858 112.244 120.644 115.782C119.449 117.853 118.392 119.239 116.859 120.946C116.19 121.726 115.482 122.494 114.995 123.406C114.356 124.732 114.034 126.229 114.147 127.7C114.183 128.27 114.362 128.81 114.566 129.34C114.223 129.26 113.881 129.18 113.539 129.099C111.705 128.691 109.253 128.126 107.741 127.471C107.424 127.172 107.108 126.875 106.781 126.597ZM109.714 129.184C110.265 129.34 110.819 129.482 111.376 129.615C114.336 130.345 117.744 130.952 120.216 131.979C126.018 134.54 131.973 136.714 137.91 138.936C139.132 139.407 140.352 139.885 141.571 140.363C140.99 140.51 140.405 140.622 139.822 140.687C137.371 140.848 135.239 140.834 133.005 140.567C127.904 138.891 123.053 137.172 118.185 134.47C115.322 132.944 111.97 130.879 109.714 129.184ZM154.906 145.749C153.992 145.849 152.035 145.742 151.58 145.699C149.775 145.608 148.037 145.108 146.291 144.679C143.011 143.884 139.802 142.835 136.606 141.757C137.69 141.768 138.774 141.733 139.853 141.644C140.933 141.531 141.985 141.282 142.996 140.923C147.104 142.542 151.205 144.177 155.341 145.715C155.196 145.726 155.051 145.74 154.906 145.749ZM166.148 120.916C166.988 121.483 167.894 122.766 167.323 123.83C166.35 126.216 165.388 128.607 164.371 130.975C162.868 134.469 161.102 138.109 159.387 141.861C158.806 143.078 157.961 144.897 157.463 145.199C157.321 145.298 157.149 145.338 156.491 145.119C152.621 143.617 148.504 142.006 144.316 140.379C146.352 139.422 148.176 138.004 149.638 136.284C151.03 134.618 151.657 132.485 152.113 130.398C153.124 126.185 152.762 121.852 152.691 117.566C152.7 116.596 152.734 115.624 152.789 114.654C154.117 115.303 155.445 115.952 156.773 116.601C159.855 118.122 163.162 119.216 166.148 120.916ZM167.564 100.897C167.91 101.592 167.856 101.239 167.615 102.038C166.445 104.708 164.659 108.263 162.992 111.183C161.959 113.055 160.978 114.957 160.045 116.88C160.031 116.906 160.017 116.933 160.003 116.961C158.724 116.389 157.449 115.808 156.181 115.212C155.077 114.66 153.969 114.113 152.861 113.565C153.233 108.669 154.254 103.865 156.32 99.7542C157.124 98.2523 158.133 96.8884 159.165 95.5397C162.275 97.2822 165.223 99.0138 167.564 100.897ZM161.378 71.9427C163.448 74.1399 164.327 77.4383 164.371 80.5609C164.623 84.7564 163.162 88.1361 160.892 91.6772C160.293 92.5709 159.641 93.4279 158.984 94.2816C158.925 94.2492 158.868 94.2153 158.809 94.183C155.84 92.5314 152.843 90.9157 149.995 89.0602C148.537 88.1026 147.618 87.3306 146.296 86.4036C146.159 86.3472 146.021 86.3745 145.904 86.4422C145.752 86.3724 145.579 86.3193 145.374 86.2898C145.071 86.2199 144.766 86.1561 144.461 86.093C145.477 85.5629 146.59 85.1222 147.71 84.8726C149.773 84.395 151.936 84.1556 153.777 83.0236C156.143 81.7178 158.349 79.9911 159.712 77.6163C160.638 75.9051 161.23 73.9908 161.38 72.0493C161.38 72.0137 161.378 71.9781 161.378 71.9427ZM58.5089 62.9945C56.251 61.7513 54.0425 60.4125 51.6957 59.3394C49.5577 58.3212 47.4183 57.3038 45.2293 56.3995C44.2007 55.9729 42.7649 55.3126 42.3644 54.8618C42.5755 54.7483 42.5904 54.7623 42.9356 54.6303C52.9243 51.5317 63.1665 49.317 73.2127 46.4124C76.8722 45.3533 80.5431 44.3341 84.2249 43.3558C86.5194 42.802 88.2745 42.1498 90.5322 42.3932C91.6137 42.4483 93.85 42.7761 95.2951 43.2799C95.6962 43.4044 95.8574 43.4726 96.1239 43.5815C91.0065 46.1096 86.0357 48.9379 81.2129 51.987C75.37 55.7562 69.3956 59.3104 63.3468 62.7383C62.4818 63.2428 61.6251 63.7649 60.8202 64.3601C60.0615 63.8852 59.289 63.433 58.5089 62.9945ZM105.754 66.5401C105.644 66.8195 105.529 67.0972 105.409 67.3728C105.364 67.4347 105.335 67.5197 105.329 67.5506C104.69 68.9485 103.895 70.2376 103.097 71.1221C102.126 72.2379 101.133 72.7611 99.7142 73.5731C97.3981 74.871 94.9991 76.0121 92.5973 77.1405C87.1346 79.7536 81.9929 82.1228 76.1041 84.1216C71.6903 85.6136 67.3132 87.2352 62.8057 88.4292C59.6381 89.1833 56.1444 90.144 53.4828 90.1767C53.426 90.1813 53.3169 90.1521 53.2462 90.1308C53.2245 90.1184 53.2057 90.1079 53.191 90.0999C53.2137 89.7554 53.2953 89.7073 53.5794 89.1543C54.2506 87.9803 54.905 86.7968 55.5434 85.6046C56.9486 82.9968 58.0478 80.2412 59.2648 77.544C60.2479 75.21 61.4036 72.9049 62.2184 70.514C62.5052 70.5219 62.7817 70.5242 63.0386 70.5238C66.5941 70.5401 70.1367 70.1802 73.6753 69.8754C84.3921 68.9052 95.1308 68.0887 105.776 66.4799C105.769 66.4999 105.761 66.5208 105.754 66.5401ZM155.131 62.0352C156.499 63.4045 157.855 64.6396 158.689 66.0722C159.384 67.2339 159.866 68.4226 160.141 69.626C158.399 68.4029 156.4 67.4571 154.575 66.4885C152.033 65.0707 149.941 64.0409 149.006 61.3198C148.598 60.2896 148.383 59.158 148.301 57.9763C149.276 57.722 150.25 57.4661 151.222 57.2043C151.208 57.2466 151.199 57.291 151.198 57.3366C152.07 59.1425 153.727 60.6025 155.131 62.0352ZM153.333 22.4646C157.513 21.244 161.745 20.2052 165.972 19.1627C173.891 17.2806 181.313 15.7146 189.517 15.4261C194.357 15.1509 198.738 15.1337 203.369 16.0474C205.651 16.5833 207.787 16.851 209.586 18.0766C210.347 18.7092 211.531 20.5995 211.702 22.0603C211.886 23.5518 210.801 25.5606 209.642 27.3751C206.815 31.606 202.795 35.5283 198.352 38.2532C192.588 41.9122 186.827 44.64 180.683 47.0773C175.182 49.2578 169.577 51.1419 163.902 52.7941C164.146 52.0281 164.276 51.0552 164.328 50.7606C165.113 45.8147 163.929 40.8272 161.967 36.2896C160.252 32.096 158.106 27.9881 154.852 24.7762C154.111 24.0437 153.312 23.3728 152.48 22.7462C152.765 22.6539 153.047 22.5546 153.333 22.4646ZM151.312 23.1313C151.328 23.1428 151.341 23.1564 151.359 23.1658C155.265 25.8593 158.317 30.2906 160.338 35.0328C162.107 38.9613 163.655 43.325 163.607 47.5227C163.565 49.1303 163.435 50.8256 163.124 52.0563C163.042 52.3821 162.944 52.7046 162.817 53.0163C162.801 53.0511 162.786 53.0875 162.771 53.124C160.624 53.7361 158.467 54.3167 156.301 54.865C153.62 55.5757 150.945 56.3139 148.261 57.0163C148.237 54.4874 148.753 51.7888 149.322 49.3655C150.399 44.4196 152.553 39.4412 151.756 34.3017C151.277 30.8415 149.236 27.0317 146.229 24.9358C147.913 24.3058 149.606 23.7015 151.312 23.1313ZM143.953 24.8223C142.006 25.5714 140.064 26.3356 138.125 27.1064C138.948 24.4645 141.417 23.7718 143.953 24.8223ZM141.072 26.9482C142.392 26.4129 143.719 25.8939 145.05 25.3856C145.42 25.6131 145.787 25.8696 146.144 26.1705C148.927 28.4461 150.343 31.3873 150.858 34.9196C151.452 39.3547 149.574 44.0801 148.482 48.8217C147.879 51.5663 147.219 54.4374 147.285 57.2717C146.1 57.577 144.912 57.8749 143.72 58.1549C143.904 57.4379 144.044 56.709 144.125 55.9732C144.577 51.6806 143.131 47.4928 141.595 43.5497C139.871 39.3171 137.834 35.0628 134.525 31.8306C133.983 31.2997 133.422 30.7882 132.817 30.3296C132.783 30.3066 132.748 30.2806 132.714 30.2536C135.513 29.1873 138.302 28.0941 141.072 26.9482ZM105.408 40.4139C114.103 36.9977 122.938 33.9519 131.675 30.6482C131.706 30.7415 131.767 30.8249 131.87 30.8803C135.26 33.3108 137.904 37.5105 139.754 41.7645C141.184 45.0841 142.364 47.9931 143.004 51.6411C143.413 53.9633 143.281 56.1067 142.703 58.3871C141.744 58.6042 140.783 58.8143 139.818 59.0055C128.973 61.2489 118.651 63.6274 107.867 65.2077C96.6802 67.0064 85.3806 67.8599 74.1049 68.8756C69.93 69.2372 65.0039 69.7514 61.2648 69.4821C59.6472 69.3764 58.3906 68.8275 58.4882 68.16C58.5013 67.2306 59.1623 66.3073 60.0232 65.4401C60.1541 65.7064 60.5644 65.7842 60.7852 65.5313C62.0757 64.4535 64.3471 63.2354 66.1757 62.1754C69.0522 60.5207 71.9313 58.8686 74.7577 57.1296C84.6476 50.806 94.7882 44.6055 105.408 40.4139Z" fill="black"/>
<path d="M178.272 34.4626C182.157 38.1688 190.577 37.3726 193.621 32.9114C194.661 31.399 195.264 29.4628 194.885 27.6339C194.422 26.0324 193.606 24.4823 192.322 23.3912C190.611 22.0222 188.373 21.3692 186.196 21.4208C184.646 21.4984 183.145 22.003 181.735 22.6242C181.636 22.6569 181.554 22.7226 181.492 22.8026C179.944 23.4987 178.459 24.4028 177.414 25.7533C175.579 28.3681 175.855 32.3 178.272 34.4626ZM178.114 26.3485C178.666 25.5889 179.611 24.7985 180.783 24.1856C181.538 23.7919 181.754 23.6668 182.415 23.4043C182.586 23.3363 182.777 23.283 182.9 23.1433C183.285 23.0113 183.733 22.865 183.914 22.8027C185.095 22.4119 186.313 22.3018 187.302 22.431C189.289 22.701 190.886 23.3217 192.184 24.6648C193.066 25.6364 193.799 27.0575 194.021 28.3899C194.083 28.6329 193.95 29.9937 193.853 30.2679C193.187 32.5796 191.48 34.4234 189.133 35.1019C185.575 36.3742 181.381 36.1221 178.773 33.5371C176.883 31.6727 176.702 28.4926 178.114 26.3485ZM18.0906 85.6406C20.053 85.1207 32.25 83.9153 31.6346 80.6615C31.2638 79.6053 30.219 78.9888 29.3979 78.3019C27.8587 77.1033 26.248 75.9871 24.8411 74.629C23.421 73.4229 22.2563 71.4111 22.5629 70.8169C23.2849 68.8694 32.4631 72.6322 35.3991 73.5343C36.7437 73.8836 38.2143 74.3824 39.5879 73.9301C40.4311 73.6433 41.1773 72.7402 40.8731 71.8217C40.4955 70.741 39.4411 70.095 38.6047 69.3854C37.2833 68.3427 35.6672 67.1628 34.623 66.3873C32.3526 64.7825 30.9542 63.054 32.3491 62.5079C33.43 62.1287 34.8372 62.4649 36.4256 62.7537C38.9044 63.3152 41.3478 64.0232 43.7426 64.8746C47.1975 66.0464 50.5839 67.4324 54.1082 68.3907C54.66 68.5342 55.0344 67.5914 54.4025 67.4432C47.7815 65.6159 41.5214 62.4251 34.6718 61.4641C32.8697 61.1499 30.3454 61.5808 30.9283 63.9765C31.4673 65.3304 32.7576 66.2048 33.8648 67.0767C35.7292 68.5147 37.7473 69.7926 39.6167 71.6262C40.1503 72.2143 39.9719 72.6326 39.7012 72.8355C38.0841 73.8101 34.6723 72.1646 32.3353 71.413C29.9416 70.613 27.5232 69.8128 25.0353 69.367C22.2734 68.8852 20.5937 70.3807 22.1823 73.0306C23.5389 75.2319 25.733 76.7497 27.7468 78.306C29.1536 79.3711 31.1985 80.8883 30.5878 81.246C30.2362 81.8241 28.6221 82.3819 27.1586 82.8248C22.9155 84.0671 19.0666 84.3113 14.744 85.4078C10.4248 86.4571 6.33164 88.3574 2.71233 90.9342C1.94297 91.4948 1.19258 92.0871 0.521524 92.764C0.208574 93.0507 -0.294245 93.567 0.223 93.9052C0.728486 94.1335 0.999258 93.5117 1.33243 93.2485C2.26548 92.3704 2.72895 92.0365 3.75701 91.3207C8.17139 88.3027 12.752 86.6116 18.0906 85.6406ZM52.8384 73.7736C48.7059 75.45 45.0068 78.0293 41.1595 80.2557C37.5246 82.4216 33.9465 84.6801 30.4604 87.079C29.4103 87.7945 28.3593 88.5097 27.3319 89.2577C27.1713 89.3755 26.9827 89.4797 26.9268 89.6846C26.827 89.9684 27.053 90.292 27.3621 90.2655C27.6326 90.2456 27.8173 90.0081 28.0382 89.8747C34.87 85.0175 42.0589 80.6878 49.3177 76.5047C50.7757 75.683 51.8348 75.1684 53.2062 74.6002C53.6272 74.3286 53.3556 73.5922 52.8384 73.7736ZM42.4762 88.6458C42.248 88.8132 41.9265 88.9115 41.8369 89.206C41.6945 89.6039 42.168 89.9495 42.5142 89.7115C45.821 87.616 49.0727 85.349 51.7478 82.4667C54.1691 79.8258 56.4996 77.0707 58.2979 73.9592C58.6327 73.3778 57.8166 72.9711 57.4828 73.5263C55.3969 77.058 53.0436 79.8134 50.1042 82.8414C47.7058 85.164 45.3814 86.775 42.4762 88.6458ZM154.141 136.563C153.979 136.582 153.842 136.692 153.763 136.833C153.559 136.622 153.139 136.678 152.989 136.963C152.569 137.836 152.169 138.719 151.777 139.605C151.567 140.012 151.522 140.605 151.969 140.869C153.086 141.47 154.267 141.959 155.4 142.534C156.202 142.934 157.011 142.308 157.436 141.647C157.803 141.117 158.162 140.573 158.44 139.99C158.609 139.697 158.631 139.328 158.423 139.048C157.929 138.389 157.18 137.97 156.485 137.553C155.735 137.192 154.968 136.663 154.141 136.563ZM157.594 139.627C157.593 139.628 157.593 139.628 157.593 139.629C157.593 139.628 157.593 139.628 157.594 139.627C157.594 139.628 157.594 139.628 157.594 139.628C157.52 139.768 157.307 140.171 157.237 140.27C156.657 141.256 156.222 141.746 156.023 141.696C155.722 141.584 153.649 140.588 152.597 140.068C152.6 140.059 152.602 140.049 152.605 140.04C153.025 139.016 153.29 138.495 153.805 137.396C153.81 137.387 153.811 137.375 153.816 137.366C154.095 137.63 154.284 137.545 154.771 137.815C155.723 138.249 156.701 138.81 157.243 139.271C157.478 139.478 157.56 139.57 157.594 139.627ZM105.082 181.717C105.082 181.713 105.081 181.708 105.08 181.704C105.076 181.713 105.073 181.728 105.069 181.743C105.071 181.739 105.075 181.734 105.077 181.731C105.078 181.727 105.081 181.72 105.082 181.717Z" fill="black"/>
<path d="M13.4569 168.178C14.1821 167.276 14.9063 166.233 15.5866 165.787C17.2776 164.724 19.3719 164.888 21.6734 165.656C22.54 165.9 24.5022 167.062 25.818 167.408C28.5221 168.124 31.416 166.565 33.3351 164.735C34.6386 163.506 35.4489 161.964 36.7759 161.798C37.693 161.707 40.1223 162.26 41.4627 163.236C42.1372 163.692 42.3096 163.821 42.965 164.361C43.0534 164.448 43.1756 164.491 43.2991 164.484C43.6933 164.476 43.9838 163.941 43.684 163.642C42.1847 162.35 40.4326 161.312 38.4586 160.981C38.4396 160.977 38.4199 160.974 38.4007 160.97C38.4219 160.934 38.4412 160.897 38.4528 160.856C40.2759 156.208 43.1613 151.861 47.0849 148.357C50.325 145.311 54.3689 142.426 58.411 140.831C63.3118 139.049 68.2384 139.306 73.3136 139.948C79.2587 140.667 84.8548 142.658 89.1362 146.448C91.8753 148.753 93.7408 151.144 95.0622 154.494C96.1627 157.178 97.0454 159.54 97.6155 162.532C98.1644 165.784 98.1958 168.863 97.9023 172.336C97.7101 174.389 97.3506 176.616 97.0334 178.282C96.9852 178.471 96.9591 178.696 97.097 178.842C95.437 178.708 93.7756 178.593 92.113 178.496C92.1163 178.483 92.1224 178.47 92.1253 178.457C92.2587 178.058 92.3716 177.653 92.4642 177.243C92.8394 175.574 92.9984 173.857 92.8871 172.149C92.1361 162.305 89.466 150.558 79.3467 146.445C75.3879 144.819 71.1506 143.855 66.8558 144C63.978 144.083 61.0651 144.591 58.4308 145.782C54.8441 147.461 51.7067 150.135 49.4078 153.354C47.2121 156.911 46.0348 161.053 45.4292 165.165C45.0584 167.871 45.2831 170.624 45.7024 173.311C45.9369 174.731 46.2464 176.146 46.7831 177.485C46.9012 177.763 47.0095 178.202 47.3289 178.251C47.4037 178.374 47.481 178.496 47.5577 178.618C47.0696 178.645 46.5813 178.67 46.0931 178.698C45.9608 178.705 45.8374 178.764 45.7441 178.857C45.4507 179.129 45.5978 179.698 46.0423 179.664C61.3862 178.87 76.796 178.643 92.1425 179.472C94.6889 179.642 97.0845 179.798 99.3474 179.989C101.375 180.119 103.763 180.657 104.914 181.515C105.043 181.612 105.073 181.663 105.081 181.704C105.099 181.661 105.11 181.671 105.085 181.721C105.091 181.691 105.095 181.687 105.084 181.717C105.084 181.718 105.084 181.72 105.084 181.721C105.083 181.724 105.079 181.728 105.078 181.731C105.073 181.743 105.07 181.751 105.062 181.77C105.064 181.757 105.067 181.753 105.07 181.742C105.06 181.759 105.052 181.775 105.033 181.797C104.802 182.139 103.822 182.633 103.012 182.949C98.984 184.578 95.2645 185.021 90.9671 185.499C85.7563 186.056 80.532 186.481 75.3067 186.873C74.7857 186.853 74.0008 187.155 74.2504 187.801C74.4847 188.126 74.9489 188.173 75.3059 188.297C76.5225 188.652 77.8893 189.009 78.7515 189.338C80.7319 190.02 80.9809 191.393 80.0696 192.346C78.6819 193.685 75.7053 194.4 73.6209 194.766C70.0203 195.203 66.3889 194.994 62.7815 194.76C58.5824 194.528 54.9441 194.347 50.8863 193.863C46.7806 193.433 42.6851 192.806 38.5868 192.373C38.3471 192.402 38.155 192.632 38.1402 192.87C38.124 193.075 38.272 193.28 38.476 193.318C39.2457 193.412 40.015 193.509 40.7842 193.607C43.867 193.999 46.9485 194.401 50.0369 194.747C54.1956 195.257 58.3787 195.496 62.5609 195.716C66.5251 195.956 70.5427 196.247 74.4815 195.585C76.6339 195.051 78.9908 194.57 80.6764 193.034C81.5993 192.151 81.8901 190.601 81.0008 189.594C80.2752 188.779 79.2084 188.419 78.1969 188.099C77.7786 187.963 77.3174 187.837 76.8658 187.714C81.6107 187.357 86.3529 186.953 91.0843 186.447C95.1544 186.001 99.2679 185.469 103.088 183.919C108.797 181.786 105.132 179.78 101.224 179.221C100.051 179.099 98.8763 178.992 97.701 178.893C97.8689 178.774 97.9879 178.564 97.9801 178.346C98.1077 177.675 98.2245 177.002 98.3347 176.329C98.7038 174.079 98.9741 171.811 99.0385 169.531C99.0784 166.944 98.9717 164.34 98.4822 161.794C97.9187 159.076 96.9568 156.458 95.897 153.898C93.9506 148.861 89.7576 145.015 85.1083 142.442C80.9301 140.194 76.209 139.192 71.5157 138.768C67.0206 138.264 62.3909 138.361 58.107 139.95C56.1638 140.75 54.3101 141.744 52.5457 142.884C52.448 142.443 52.0471 142.052 51.8698 141.64C51.2405 140.586 50.6028 139.534 49.8789 138.542C49.6348 138.26 49.3587 137.805 49.0304 137.498C49.1395 137.437 49.2452 137.38 49.3408 137.348C49.7535 137.153 50.1881 136.976 50.5147 136.646C50.7695 136.392 50.8212 135.974 50.5649 135.702C49.9753 134.933 49.2808 134.247 48.5928 133.566C47.9876 132.972 47.0558 132.507 46.2333 132.938C45.2199 133.573 44.2452 134.332 43.4034 135.183C42.8482 135.839 42.2772 136.722 42.5277 137.614C42.7966 138.348 43.1894 139.034 43.6357 139.673C43.9144 140.048 44.1776 140.472 44.6052 140.691C45.0868 140.963 45.6594 140.789 46.0595 140.45C46.4484 140.155 46.8422 139.863 47.2011 139.532C47.301 139.703 47.409 139.87 47.491 140.035C48.381 141.533 49.3756 142.966 50.4557 144.334C47.7507 146.34 45.2822 148.682 43.0727 151.193C41.373 153.216 39.9763 155.48 38.7781 157.83C38.3335 158.705 37.9534 159.61 37.5887 160.521C37.5371 160.621 37.5074 160.732 37.5133 160.842C36.8468 160.793 36.1778 160.869 35.5964 161.233C34.7251 161.743 34.1116 162.561 33.4437 163.297C32.5276 164.289 31.9017 164.868 30.9283 165.459C29.2286 166.403 27.5224 167.062 25.5209 166.273C24.5667 165.883 22.4447 164.738 20.9793 164.395C18.9436 163.933 16.5676 163.829 14.8489 165.2C14.0599 165.798 13.3304 166.907 12.9701 167.334C12.1625 168.324 11.1421 169.303 10.4094 169.823C8.85143 170.842 7.62785 171.28 5.81475 171.396C5.40067 171.419 4.98503 171.42 4.5711 171.391C4.56217 171.39 4.53912 171.388 4.47954 171.384C4.12284 171.316 3.66157 171.292 3.53771 171.722C3.38265 172.325 4.0802 172.343 4.50368 172.356C5.19496 172.404 5.89126 172.376 6.57784 172.284C8.12252 172.099 9.60401 171.481 10.8851 170.608C11.8426 169.914 12.6865 169.072 13.4569 168.178ZM87.4895 155.1C87.91 155.835 88.2902 156.599 88.6375 157.383C88.2985 157.587 87.9335 157.986 87.638 158.106C86.5682 158.77 85.6546 159.044 85.2894 158.665C85.0588 158.399 84.8548 157.737 84.9533 157.586C84.9605 157.561 84.968 157.536 84.9762 157.512C84.9846 157.498 84.9925 157.486 85.0002 157.474C85.815 156.674 86.7023 155.941 87.4854 155.105C87.487 155.103 87.4881 155.101 87.4895 155.1ZM55.5035 148.55C56.2599 148.002 57.0191 147.533 57.7876 147.128C57.7934 147.182 57.8066 147.236 57.834 147.287C58.0087 147.56 58.1904 147.984 58.1749 147.956C58.4458 148.753 58.2694 149.264 58.0343 149.769C57.6472 150.354 56.0018 151.368 55.5918 150.885C55.4347 150.782 54.9139 149.992 54.4501 149.368C54.8018 149.085 55.1539 148.809 55.5035 148.55ZM50.0079 178.484C49.5413 178.509 49.0747 178.535 48.6083 178.561C48.6143 178.48 48.6037 178.398 48.5624 178.32C48.3232 177.987 48.1412 177.602 47.9136 177.26C47.9866 177.254 48.0639 177.234 48.1469 177.187C48.9264 176.679 50.7102 175.792 50.8046 175.779C51.0021 175.755 51.0048 175.774 51.5047 176.11C51.8165 176.32 52.4432 176.971 52.716 177.644C52.8135 177.751 52.8482 178.107 52.9741 178.365C51.9854 178.404 50.9965 178.438 50.0079 178.484ZM91.1417 178.44C84.4166 178.075 77.675 177.992 70.9409 178.021C65.244 178.029 59.5471 178.121 53.854 178.33C53.9919 177.999 53.7389 177.55 53.6243 177.22C53.2295 176.293 52.5297 175.513 51.6627 175.003C51.1883 174.683 50.6026 174.805 50.1295 175.062C49.3093 175.469 48.4926 175.888 47.7141 176.372C47.6332 176.42 47.5783 176.48 47.5359 176.545C46.5189 173.653 46.1729 170.153 46.2206 167.089C46.4662 162.821 47.7113 158.514 49.5783 154.869C50.5732 153.018 52.0832 151.39 53.6828 150.008C54.337 150.962 55.0043 152.303 56.3419 151.927C56.9062 151.795 57.3905 151.445 57.877 151.145C58.5382 150.746 59.0201 150.105 59.1796 149.346C59.3681 148.651 59.2701 147.905 58.9636 147.257C58.8637 147.085 58.7861 146.858 58.6479 146.705C60.8671 145.69 63.1867 145.194 65.7752 145.008C70.2526 144.677 74.8512 145.673 78.8031 147.301C82.4672 148.768 85.1124 151.275 87.0301 154.333C86.9572 154.359 86.8903 154.4 86.8385 154.458C86.1105 155.202 85.354 155.919 84.5676 156.601C84.2538 156.869 84.0254 157.233 83.9744 157.647C83.9001 158.18 84.1507 158.73 84.4092 159.184C84.7123 159.655 85.2901 159.834 85.8277 159.799C86.8424 159.698 87.7593 159.142 88.5848 158.576C88.6997 158.472 88.8611 158.372 89.0096 158.262C90.7507 162.581 91.521 167.463 91.9037 171.926C92.0481 174.338 91.8584 176.303 91.1417 178.44ZM46.9764 138.484C46.9553 138.5 46.9332 138.507 46.9125 138.527C46.2718 139.178 45.6771 139.661 45.2413 139.864C45.2402 139.864 45.24 139.864 45.2389 139.865C44.823 139.79 44.0431 138.56 43.5379 137.461C43.0224 136.737 44.4045 135.335 45.3937 134.653C46.0773 134.135 46.6166 133.654 46.9165 133.738C47.3446 133.667 48.7557 135.081 49.6415 136.161C49.1773 136.433 48.669 136.626 48.1955 136.883C48.047 136.97 47.9523 137.135 47.9379 137.304C47.5387 137.609 47.1654 138.013 46.9764 138.484ZM47.9053 138.662C47.943 138.601 47.9841 138.541 48.0283 138.484C48.076 138.429 48.1793 138.31 48.272 138.213C49.2566 139.193 49.8728 140.35 50.7334 141.706C51.0989 142.252 51.3668 142.885 51.7596 143.404C51.5929 143.518 51.4283 143.634 51.2634 143.75C51.2438 143.713 51.2289 143.675 51.1956 143.641C50.0912 142.244 48.6053 140.115 47.9053 138.662ZM166.805 176.167C159.897 175.542 152.984 174.893 146.049 174.677C142.047 174.622 137.988 174.374 134.02 174.959C133.559 175.12 133.604 175.912 134.152 175.876C137.879 175.413 141.646 175.558 145.391 175.626C152.619 175.827 159.256 176.461 166.51 177.114C167.067 177.253 167.434 176.318 166.805 176.167ZM158.556 180.608C158.86 180.34 158.695 179.765 158.258 179.801C154.956 179.689 151.603 179.4 148.317 179.763C147.851 179.924 147.904 180.717 148.449 180.681C150.907 180.481 153.375 180.58 155.837 180.661C156.627 180.689 157.417 180.723 158.207 180.767C158.338 180.76 158.464 180.701 158.556 180.608Z" fill="black"/>
<path d="M76.0919 152.219C75.3807 152.739 74.9635 153.558 74.4745 154.271C73.4905 155.823 72.5336 157.392 71.5507 158.945C70.4792 160.708 69.3243 162.447 68.2598 164.202C68.2125 164.214 68.1655 164.231 68.1209 164.262C67.0201 164.837 65.9107 166.186 66.0087 167.466C64.799 168.336 63.6302 169.262 62.3894 170.089C62.0339 170.37 61.5731 170.54 61.2859 170.894C60.6554 172.556 64.487 170.831 65.0927 170.623C65.8991 170.288 66.699 169.937 67.4778 169.543C67.5559 169.498 67.6175 169.431 67.6631 169.355C68.7772 169.712 70.0838 169.365 70.7492 168.285C71.3552 167.223 71.1087 165.704 70.2316 164.856C70.6976 164.177 71.1679 163.502 71.6422 162.829C73.7271 159.95 75.4006 156.755 76.6811 153.443C76.7642 153.135 76.8837 152.817 76.8406 152.495C76.773 152.166 76.3652 152.043 76.0919 152.219ZM65.9461 169.252C65.7116 169.386 64.9257 169.7 64.1114 169.997C64.8539 169.464 65.5856 168.917 66.3072 168.363C66.34 168.415 66.3683 168.468 66.4069 168.519C66.5146 168.648 66.6349 168.76 66.7605 168.863C66.4905 168.996 66.2205 169.128 65.9461 169.252ZM68.3185 168.517C66.6517 168.102 66.5951 166.812 67.7881 165.62C68.0798 165.35 68.0813 165.379 68.4872 165.119C68.6523 165.182 68.8447 165.188 69.0115 165.255C69.0974 165.301 69.276 165.392 69.363 165.433C69.7278 165.754 69.6971 165.742 69.9367 166.217C70.5319 167.563 69.6607 168.714 68.3185 168.517ZM73.749 157.649C72.9641 159.161 72.107 160.635 71.0999 162.011C70.5471 162.79 70.0007 163.574 69.4593 164.362C69.3928 164.339 69.3249 164.316 69.2562 164.292C71.1658 161.463 73.1016 158.074 74.9282 155.271C74.5704 156.019 74.1686 156.774 73.749 157.649ZM54.3039 131.162C53.9562 132.419 53.5785 133.981 54.3905 135.123C54.456 135.174 54.5291 135.197 54.6029 135.205C54.6947 135.332 54.8524 135.408 55.08 135.343C61.8999 133.942 69.7625 133.381 77.0817 132.542C77.6303 132.457 78.3319 132.484 78.6408 131.936C79.109 130.748 78.6825 129.356 78.2353 128.216C77.4406 126.46 76.1816 124.894 74.5687 123.826C72.6076 122.514 70.283 122.2 67.9757 122.391C67.9425 122.208 67.8837 122.025 67.8464 121.849C67.382 119.996 65.4507 117.424 63.4254 119.041C62.3017 119.836 61.734 121.198 61.7277 122.557C60.9783 121.864 60.2301 121.17 59.4872 120.47C57.4574 118.636 55.4571 116.467 52.7647 115.664C50.3508 114.889 47.6801 115.132 45.3527 116.089C43.0435 117.111 41.0976 118.77 39.1342 120.325C34.5666 124.173 29.8822 128.19 26.9065 133.451C26.1812 134.708 26.4001 136.163 26.7905 137.492C27.4258 139.682 28.1618 141.899 29.2759 143.895C28.167 143.415 26.8699 143.282 26.0779 144.274C25.354 145.503 26.6118 146.691 27.3932 147.535C27.7106 147.86 28.032 148.181 28.3666 148.488C28.3741 148.495 28.3851 148.498 28.3932 148.505C26.7165 151.345 25.6399 154.487 26.8899 157.79C27.5618 159.53 28.7811 160.987 29.8699 162.479C30.04 162.663 30.1436 162.949 30.3846 163.043C30.4611 163.074 30.539 163.077 30.6144 163.065C30.7747 163.329 31.2173 163.404 31.4435 163.025C35.8173 156.764 40.5674 150.521 42.9194 143.162C43.3055 141.952 43.1428 141.279 41.8488 140.873C40.6017 140.469 39.2681 140.341 37.9616 140.355C35.5563 140.433 33.9967 141.255 32.7098 142.52C31.6449 140.939 31.1707 139.641 30.7361 137.839C30.4288 136.258 30.3371 135.451 30.9583 133.988C31.8888 131.836 34.023 129.472 36.1605 127.569C38.0498 125.881 39.4536 124.679 41.5561 123.349C43.6332 122.076 45.317 121.458 47.546 120.492C48.8369 119.929 50.0532 119.57 50.978 119.737C54.4687 120.251 56.8304 122.887 59.8047 124.955C58.8271 125.536 57.911 126.218 57.088 127.016C55.8554 128.153 54.7677 129.527 54.3039 131.162ZM64.5885 119.494C65.1264 119.354 66.3385 120.382 66.8117 121.867C66.8473 121.978 66.9256 122.222 66.9395 122.294C66.9638 122.359 66.9779 122.431 66.9898 122.504C66.0104 122.644 65.0436 122.861 64.1198 123.123C63.686 123.244 63.2583 123.386 62.8342 123.537C62.3365 121.662 63.1768 119.904 64.5885 119.494ZM26.8525 144.766C26.8547 144.763 26.8565 144.76 26.859 144.756C26.875 144.739 26.8968 144.716 26.9213 144.693C26.9552 144.669 27.0172 144.626 27.072 144.595C27.1463 144.574 27.4138 144.486 27.4975 144.485C27.3871 144.507 27.336 144.51 27.4832 144.494C28.0561 144.487 28.5992 144.66 29.2951 145.016C29.7651 145.297 29.7074 145.266 30.0756 145.564C30.1251 145.613 30.1881 145.645 30.2549 145.665C30.098 145.896 29.9396 146.131 29.777 146.37C29.49 146.781 29.207 147.199 28.9335 147.625C27.8198 146.568 26.6377 145.362 26.8525 144.766ZM38.5332 141.32C39.526 141.293 41.9415 141.787 42.1102 142.124C42.3132 142.335 41.4578 144.659 40.9145 145.883C39.533 149.281 37.2388 153.014 34.9744 156.378C33.6361 158.334 32.2653 160.268 30.9 162.206C29.8976 160.737 28.8477 159.608 27.9885 157.831C26.2855 154.043 28.0332 150.44 30.6096 146.778C32.941 143.312 34.2999 141.212 38.5332 141.32ZM53.6773 119.486C50.4369 117.96 48.3976 119.091 45.4026 120.402C43.0453 121.38 40.7775 122.574 38.7778 124.173C35.4123 126.919 29.4503 131.675 29.5436 136.357C29.6375 137.997 30.1234 139.598 30.7543 141.107C31.0856 141.819 31.462 142.512 31.9174 143.153C31.9407 143.199 31.9777 143.235 32.0166 143.268C31.6005 143.759 31.2035 144.293 30.8043 144.865C30.7911 144.85 30.7736 144.838 30.759 144.824C30.8085 144.703 30.8178 144.567 30.7482 144.439C29.0444 141.597 27.7391 138.121 27.3739 135.243C27.3913 134.287 27.8178 133.646 28.4685 132.607C29.4357 131.187 30.0765 130.317 31.117 129.138C33.7411 126.078 36.8143 123.452 39.9017 120.875C42.603 118.669 45.7696 116.146 49.3715 116.172C50.7089 116.095 52.2741 116.468 53.4203 116.953C55.1045 117.824 56.3013 118.923 57.8307 120.31C59.1172 121.516 60.4007 122.726 61.7034 123.916C61.7233 123.936 61.7498 123.944 61.7727 123.96C61.3936 124.123 61.0182 124.294 60.652 124.483C60.6391 124.401 60.6098 124.32 60.5377 124.247C58.2802 122.629 56.1976 120.693 53.6773 119.486ZM57.7625 127.637C59.6198 125.872 61.6926 124.791 64.3556 124.033C67.7261 123.111 71.339 122.727 74.3189 124.877C76.4754 126.388 78.1635 129.599 77.847 131.46C77.6386 131.599 73.4387 131.913 71.4372 132.201C65.9721 132.741 60.4902 133.291 55.1025 134.38C55.0597 134.279 55.0183 134.24 54.9947 134.1C54.7622 133.204 54.8801 132.794 55.0883 131.875C55.5415 129.997 56.3091 129.022 57.7625 127.637ZM25.836 172.013C30.3092 174.356 34.884 175.777 39.7964 173.818C40.1083 173.614 40.0727 173.056 39.6735 172.979C38.793 173.084 37.9373 173.471 37.0512 173.615C36.0671 173.795 34.4616 173.847 33.2943 173.655C30.8849 173.301 29.2007 172.509 27.0221 171.475C25.8267 170.897 24.6458 170.247 23.349 169.925C21.8976 169.57 20.3542 169.572 18.9243 170.023C17.0275 170.641 15.093 172.298 13.6129 172.802C12.2973 173.27 11.1363 173.374 9.54787 173.346C8.80783 173.323 8.6352 173.307 7.99472 173.238C7.86945 173.213 7.73978 173.239 7.63113 173.305C7.28086 173.49 7.26581 174.1 7.70043 174.186C10.0038 174.431 12.4629 174.43 14.5838 173.386C15.9047 172.772 17.633 171.514 18.5734 171.145C21.1402 170.126 23.3224 170.704 25.836 172.013ZM41.7961 176.248C41.9531 176.075 41.9543 175.788 41.79 175.619C41.6409 175.467 41.3894 175.462 41.2141 175.571C40.6908 175.864 40.1618 176.147 39.6171 176.398C35.979 178.224 33.1989 178.322 28.8869 177.121C27.5409 176.785 26.127 176.313 24.7335 176.603C24.0569 176.734 23.3131 176.926 22.7758 177.363C22.428 177.76 22.9036 178.332 23.3578 178.04C23.9516 177.739 24.592 177.526 25.4056 177.468C26.1775 177.441 27.8156 177.844 28.9439 178.161C31.1643 178.719 33.4843 179.143 35.766 178.722C36.857 178.554 37.8924 178.152 38.9048 177.725C39.8772 177.27 40.9379 176.891 41.7961 176.248Z" fill="black"/>
<path d="M247.293 179.311C246.638 178.039 245.669 176.944 244.854 175.77C242.376 172.249 239.067 169.449 235.857 166.62C232.592 163.901 229.087 161.467 225.451 159.272C225.379 159.233 225.307 159.221 225.236 159.222C225.583 158.981 225.93 158.741 226.269 158.49C228.462 156.999 230.529 154.866 232.353 153.584C234.653 152.122 237.242 151.425 239.973 150.277C240.315 150.124 240.707 149.95 240.827 149.565C240.952 149.142 240.509 148.851 240.122 148.885C237.812 148.999 235.51 149.301 233.192 149.27C228.472 149.315 224.32 148.747 219.597 147.952C213.175 146.905 208.01 146.731 202.436 149.423C202.389 149.306 202.295 149.211 202.144 149.182C200.451 148.857 198.738 148.758 197.023 148.791C197.328 148.519 198.222 147.786 198.032 147.949C199.783 146.533 201.785 145.485 203.776 144.45C210.293 141.247 217.052 137.717 221.397 131.692C223.329 129.027 225.138 126.249 226.562 123.276C227.878 120.467 228.769 117.486 229.644 114.518C230.345 112.11 230.991 109.678 231.328 107.19C231.483 105.883 231.65 104.544 231.376 103.242C231.048 101.539 230.223 100.227 228.27 100.731C227.042 100.968 226.202 101.989 225.362 102.834C221.406 106.999 219.171 112.384 215.767 116.955C212.323 121.702 209.54 126.165 205.123 129.959C200.595 134.034 195.778 137.776 191.254 141.858C189.817 143.157 188.347 144.433 187.082 145.905C185.736 147.471 184.63 149.22 183.467 150.92C183.161 151.441 182.948 151.416 182.805 151.94C182.801 152.009 182.816 152.068 182.839 152.123C180.581 153.523 178.678 155.454 177.319 158.014C177.196 158.262 177.032 158.5 176.929 158.758C174.814 160.056 172.817 161.529 170.981 163.151C171.039 162.779 171.095 162.406 171.16 162.034C171.34 160.724 171.917 158.581 172.53 156.887C172.54 156.881 172.55 156.879 172.56 156.873C172.711 156.713 172.99 156.567 173.229 156.404C173.297 156.441 173.374 156.462 173.459 156.454C174.269 156.174 174.941 155.517 175.56 154.937C176.499 153.93 177.146 152.696 178.024 151.638C180.501 148.432 185.643 145.69 188.136 141.795C188.851 140.687 189.378 139.473 189.808 138.227C189.947 138.229 190.088 138.178 190.185 138.076C194.203 135.311 197.959 130.337 200.89 125.905C203.661 121.86 206.325 117.724 208.306 113.224C211.014 107.382 212.822 101.132 213.783 94.7675C214.436 90.7603 214.583 86.6889 214.002 82.6639C213.655 80.485 213.414 78.1927 212.333 76.2329C212.054 75.8003 211.811 75.2313 211.265 75.1057C208.757 74.8235 207.997 83.0693 207.288 84.995C206.304 88.8695 204.981 92.6489 203.408 96.3226C203.052 97.134 202.449 98.4377 201.891 99.6221C201.729 99.4564 201.49 99.3904 201.257 99.5588C200.816 99.9603 200.817 100.366 200.654 100.6C200.158 101.604 199.575 102.565 198.951 103.495C197.306 105.89 195.501 108.056 193.132 110.155C191.322 111.766 189.502 113.309 187.819 114.521C184.81 116.587 181.799 118.795 179.782 121.898C177.984 124.427 176.903 127.359 176.023 130.312C175.148 133.106 174.583 135.979 173.894 138.821C173.278 137.714 172.521 136.815 171.891 135.868C171.505 135.217 171.42 135.057 171.343 134.282C171.331 134.159 171.365 133.201 171.141 132.712C170.936 132.26 170.399 132.151 169.957 132.285C165.777 134.263 162.367 142.392 160.778 146.624C159.553 149.885 158.478 153.247 158.19 156.735C158.03 159.123 158.319 161.514 158.698 163.869C159.15 166.242 159.626 168.646 160.41 170.929C155.502 170.522 150.589 170.18 145.665 169.977C135.364 169.472 125.045 169.254 114.732 169.447C111.11 169.522 107.49 169.684 103.876 169.938C103.324 169.975 103.112 170.881 103.825 170.903C114.256 170.169 124.726 170.277 135.174 170.528C149.504 170.909 163.17 171.999 177.407 173.497C183.722 174.141 190.061 174.57 196.365 175.308C197.159 175.48 197.956 175.521 198.543 175.786C194.093 177.332 189.312 177.239 184.493 178.271C183.749 178.449 181.326 179.075 182.558 180.136C185.111 181.243 188.098 181.3 190.83 181.767C196.962 182.64 203.133 183.189 209.274 183.984C215.832 184.864 222.353 186.04 228.779 187.622C231.264 188.238 233.724 188.952 236.175 189.695C238.377 190.352 241.512 191.37 240.964 192.878C240.306 194.264 236.739 195.755 234.675 196.672C230.022 198.644 225.151 200.025 220.234 201.158C200.602 205.957 179.595 204.676 159.565 202.358C153.008 201.59 146.457 200.766 139.918 199.855C138.593 199.667 137.273 199.446 135.944 199.29C135.388 199.244 134.274 199.003 134.341 199.882C134.42 200.326 134.913 200.53 135.212 200.821C135.69 201.202 136 201.494 136.161 201.8C136.632 202.776 136.659 203.65 135.963 204.16C135.222 204.634 132.585 205.539 130.871 205.824C125.787 206.827 119.427 206.945 113.816 207.024C107.148 207.044 100.478 207.039 93.8134 206.819C79.2273 206.382 64.9579 204.864 50.3606 202.574C42.5712 201.301 34.7982 199.797 27.2559 197.44C25.226 196.846 22.5803 195.942 21.0369 195.419C19.3513 194.825 17.4933 193.859 17.198 192.965C16.218 189.404 24.1324 187.797 28.0236 187.511C29.1545 187.434 30.2867 187.379 31.4191 187.332C32.2401 187.32 33.7592 187.135 33.4296 185.972C33.2711 185.551 32.8218 185.327 32.4761 185.074C31.6554 184.554 30.782 184.123 29.9467 183.627C29.7992 183.542 29.6546 183.451 29.5084 183.364C29.1595 183.114 29.2125 183.195 28.9271 182.908C28.8727 182.827 28.7843 182.704 28.7686 182.705C28.7225 182.587 28.6948 182.465 28.6841 182.339C28.6868 182.318 28.6893 182.297 28.692 182.276C29.0783 181.768 30.7254 181.25 31.8113 181.153C32.6383 181.058 33.4723 181.036 34.3041 181.061C34.8266 181.188 35.2766 180.652 34.9306 180.226C34.8393 180.146 34.7208 180.092 34.5965 180.103C33.914 180.076 33.2299 180.078 32.5482 180.125C30.5167 180.243 26.4515 181.132 28.1131 183.506C29.2484 184.717 31.3778 185.368 32.3825 186.254C31.533 186.443 30.1808 186.38 29.0769 186.482C26.5071 186.585 23.9533 187.022 21.5021 187.804C19.2752 188.484 16.6567 189.569 16.1653 192.107C15.4634 195.659 23.3086 197.027 25.7727 198.017C35.2108 201.055 45.0009 202.788 54.7893 204.25C66.5796 205.916 78.4336 207.198 90.3368 207.658C98.6477 208.007 106.969 208.035 115.286 207.974C119.961 207.828 134.384 207.81 137.178 204.128C137.862 202.779 137.256 201.3 136.224 200.326C141.222 201.002 147.326 201.879 152.624 202.505C176.226 205.479 200.62 207.608 223.86 201.238C228.354 200.101 232.769 198.612 236.977 196.659C239.018 195.597 243.429 193.897 241.496 191.106C239.98 189.61 237.727 189.196 235.768 188.534C232.864 187.661 229.94 186.849 226.983 186.173C214.148 183.051 200.939 182.257 187.903 180.373C186.67 180.187 184.453 179.813 183.603 179.516C184.9 179.002 187.198 178.773 189.003 178.526C191.339 178.207 193.683 177.922 195.998 177.468C196.963 177.247 197.957 177.077 198.863 176.667C199.313 176.474 199.828 176.118 199.697 175.56C199.317 174.22 194.423 174.204 193.111 173.971C189.809 173.664 186.507 173.366 183.206 173.063C186.219 171.079 189.259 169.089 192.203 166.968C192.492 167.153 192.928 166.897 193.255 166.863C193.386 166.824 194.061 166.698 194.235 166.665C196.331 166.399 198.456 166.313 200.569 166.314C204.606 166.519 208.666 166.073 212.575 165.044C212.64 165.376 213.127 165.57 213.401 165.773C214.723 166.6 216.103 167.331 217.509 168.006C219.983 169.193 222.508 170.275 225.063 171.276C227.293 172.144 229.57 172.925 231.667 174.091C234.184 175.472 236.509 177.18 239.065 178.494C241.003 179.436 243.051 180.231 245.172 180.639C246.158 180.837 247.831 180.759 247.293 179.311ZM207.605 148.598C213.32 147.42 219.829 149.175 226.068 149.89C229.369 150.284 233.651 150.278 237.047 150.079C234.033 151.218 231.339 151.825 228.208 152.05C224.097 152.067 219.971 152.471 216.113 153.983C212.376 155.315 208.633 156.633 204.871 157.893C203.748 158.257 202.638 158.658 201.541 159.093C202.122 158.459 202.675 157.799 203.195 157.113C203.788 156.291 204.744 155.157 204.07 154.136C203.889 153.933 203.609 153.872 203.356 153.808C202.236 153.586 201.105 153.422 199.976 153.25C199.335 153.149 198.691 153.057 198.045 152.983C201.241 151.047 203.968 149.426 207.605 148.598ZM229.762 101.921C230.163 102.322 230.378 103.087 230.536 104.214C230.661 107.703 229.477 111.766 228.352 115.58C227.508 118.374 226.607 121.156 225.447 123.465C223.608 127.004 221.372 130.474 218.995 133.2C214.452 138.362 207.874 141.286 201.608 144.555C199.9 145.451 198.289 146.516 196.817 147.763C196.541 148.059 195.903 148.446 195.72 148.841C194.053 148.937 192.39 149.14 190.746 149.394C190.595 149.415 190.445 149.442 190.295 149.466C191.566 147.821 193.477 146.697 195.448 145.284C198.988 142.643 202.498 139.937 205.759 136.954C211.093 132.303 215.649 126.863 219.75 121.112C223.096 116.485 225.646 111.358 227.939 106.144C228.562 104.743 229.182 103.34 229.762 101.921ZM188.205 146.014C193.783 140.36 200.237 135.662 206.092 130.31C210.227 126.732 213.171 122.091 216.357 117.703C219.017 114.186 220.954 110.203 223.468 106.59C224.636 105.046 226.682 102.377 228.046 101.764C228.366 101.656 228.643 101.6 228.885 101.594C228.752 101.869 228.683 102.214 228.541 102.451C227.697 104.439 226.985 106.036 226.191 107.775C223.543 113.795 220.134 119.45 216.018 124.58C212.791 128.934 208.123 133.767 203.65 137.622C199.731 140.987 196.071 143.763 191.753 146.772C190.729 147.593 189.703 148.543 189.057 149.694C187.375 150.055 185.772 150.593 184.288 151.325C185.645 149.432 186.705 147.606 188.205 146.014ZM178.614 157.637C182.331 151.347 189.552 150.046 196.888 149.75C198.574 149.733 199.714 149.763 201.255 150.032C200.87 150.245 200.482 150.469 200.091 150.71C199.204 151.218 198.319 151.732 197.448 152.267C197.331 152.336 197.245 152.449 197.204 152.577C197.163 152.695 197.179 152.806 197.225 152.9C195.626 152.758 194.021 152.747 192.426 153.008C187.593 153.732 182.832 155.422 178.497 157.841C178.537 157.774 178.572 157.704 178.614 157.637ZM183.924 156.324C188.646 154.43 193.492 153.239 198.235 153.999C199.487 154.192 201.172 154.378 202.412 154.631C196.521 156.473 190.886 159.089 185.659 162.37C181.67 164.808 177.75 167.395 174.172 170.413C173.599 170.937 172.941 171.408 172.473 172.03C169.904 171.78 167.335 171.538 164.764 171.306C169.369 164.812 176.433 159.136 183.924 156.324ZM190.178 132.887C189.697 135.715 188.825 139.21 187.089 141.701C185.383 144.145 182.235 146.455 179.644 148.627C177.74 150.167 176.207 152.704 174.973 154.227C174.361 154.842 174.197 154.971 173.534 155.406C173.508 155.422 173.48 155.438 173.453 155.454C173.337 155.385 173.217 155.381 173.097 155.417C173.719 153.88 174.41 152.361 174.921 150.788C175.054 150.784 175.187 150.732 175.28 150.634C177.196 148.723 178.624 146.393 179.832 143.986C181.796 140.09 183.742 136.186 185.559 132.218C186.968 129.197 187.93 126.698 189.5 123.767C189.712 123.349 189.93 122.948 190.153 122.56C190.38 125.775 190.581 129.48 190.178 132.887ZM210.998 76.066C211.019 76.0776 211.04 76.0902 211.057 76.104C212.189 77.405 212.902 81.2045 213.166 83.921C213.764 88.2266 213.161 93.4004 212.349 97.5594C210.918 104.894 208.434 111.582 204.909 117.911C203.219 120.895 201.255 123.716 199.332 126.552C197.467 129.215 196.015 131.382 193.818 133.652C192.577 134.985 191.491 135.925 190.23 136.901C190.264 136.787 190.298 136.673 190.331 136.559C190.642 135.494 190.883 134.411 191.057 133.319C191.086 133.289 191.111 133.256 191.131 133.219C191.541 132.663 191.94 132.098 192.338 131.534C193.422 129.992 194.545 128.478 195.599 126.915C198.779 121.998 201.762 116.921 204.153 111.569C207.378 104.039 209.669 96.0978 211.029 88.0216C211.496 85.2962 211.596 82.5259 211.428 79.7681C211.357 78.6044 211.232 77.4445 211.075 76.2893C211.06 76.2106 211.016 76.1454 210.961 76.0891C210.974 76.0825 210.986 76.0715 210.998 76.066ZM190.982 121.221C192.011 119.65 193.137 118.258 194.349 116.769C193.444 119.149 192.509 121.03 191.347 123.417C191.305 123.501 191.261 123.584 191.218 123.668C191.168 122.845 191.096 122.027 190.982 121.221ZM201.424 105.285C201.847 103.89 202.226 102.415 202.173 100.948C202.257 100.902 202.33 100.838 202.375 100.756C202.695 100.088 203.007 99.4159 203.319 98.7444C204.189 96.9128 204.965 95.0396 205.688 93.1455C207.043 89.6387 208.077 86.0122 208.885 82.3428C209.248 80.7971 209.47 79.204 210.053 77.7206C210.115 77.5729 210.173 77.4351 210.229 77.3022C211.165 84.0765 209.798 90.8438 207.968 97.6135C206.638 102.607 204.783 108.018 202.802 112.319C200.817 116.627 198.381 120.709 195.911 124.753C194.484 127.038 192.863 129.192 191.316 131.395C191.306 131.411 191.293 131.426 191.284 131.442C191.353 130.594 191.383 129.743 191.362 128.89C191.337 127.731 191.328 126.558 191.294 125.387C191.337 125.35 191.375 125.308 191.403 125.256C192.638 123.069 193.656 120.762 194.668 118.465C195.008 117.657 195.37 116.852 195.601 116.004C195.656 115.832 195.61 115.609 195.45 115.51C195.429 115.497 195.41 115.494 195.39 115.483C195.418 115.448 195.445 115.414 195.474 115.379C197.925 112.316 200.312 109.101 201.424 105.285ZM174.673 139.608C176.432 132.247 177.766 124.43 183.056 119.374C184.994 117.517 186.961 116.303 189.252 114.597C193.059 111.627 196.719 108.393 199.456 104.38C200.054 103.55 200.704 102.473 201.202 101.543C201.047 104.063 200.065 106.628 199 108.748C197.545 111.367 195.762 113.544 194.098 115.639C191.949 118.219 189.863 120.863 188.386 123.898C184.964 131.05 181.987 138.087 178.121 145.241C177.216 146.819 176.422 148.019 175.361 149.21C175.436 148.87 175.5 148.526 175.548 148.177C175.828 145.404 175.476 142.512 174.423 139.924C174.532 139.865 174.626 139.761 174.673 139.608ZM170.373 134.164C170.38 134.432 170.39 134.725 170.468 135.1C170.969 136.88 172.178 137.686 172.939 139.177C173.776 140.684 174.132 141.865 174.429 143.643C174.699 145.357 174.812 146.864 174.496 148.768C173.843 152.012 171.448 156.189 170.629 159.889C170.37 160.993 170.186 162.113 170.004 163.232C169.974 163.483 169.873 163.849 169.929 164.111C168.039 165.937 166.122 167.825 164.601 169.973C164.59 166.397 165.546 163.278 166.551 159.723C167.397 156.728 168.107 153.691 168.638 150.625C169.354 146.673 169.094 142.65 169.266 138.662C169.314 137.112 169.824 135.716 170.373 134.164ZM161.357 170.701C159.717 165.175 158.44 159.123 159.537 153.954C160.227 150.613 161.432 147.406 162.705 144.25C163.914 141.341 165.749 137.623 167.755 135.293C168.295 134.688 169.252 133.761 169.677 133.425C169.392 134.107 169.13 134.799 168.91 135.505C168.156 137.744 168.219 140.13 168.236 142.462C168.235 145.093 168.129 147.73 167.728 150.333C167.112 154.475 165.617 159.369 164.468 163.816C163.921 166.222 163.445 168.714 163.689 171.184C163.693 171.195 163.702 171.199 163.706 171.209C162.911 171.139 162.115 171.072 161.32 171.005C161.364 170.913 161.383 170.81 161.357 170.701ZM187.785 168.906C186.114 170.022 184.429 171.116 182.791 172.28C182.516 172.518 182.132 172.675 181.883 172.941C181.45 172.901 181.017 172.863 180.584 172.822C178.274 172.599 175.963 172.371 173.653 172.145C176.68 169.245 180.098 167.032 183.793 164.615C189.983 160.613 196.016 157.533 203.021 155.423C203.089 155.41 203.161 155.395 203.234 155.379C203.196 155.454 203.145 155.549 203.076 155.677C201.746 157.758 199.946 159.508 197.89 161.326C194.696 164.171 191.49 166.428 187.785 168.906ZM206.062 165.264C203.223 165.548 200.369 165.214 197.526 165.428C196.287 165.491 195.046 165.567 193.825 165.784C196.066 164.104 198.229 162.327 200.258 160.397C200.361 160.469 200.494 160.499 200.639 160.446C204.328 158.936 208.165 157.828 211.91 156.464C215.136 155.371 218.297 154 221.677 153.447C223.367 153.097 226.51 153.118 228.694 152.971C229.985 152.865 231.264 152.673 232.527 152.403C232.189 152.596 231.859 152.802 231.541 153.03C229.434 154.663 227.698 156.418 225.741 157.742C219.879 162.103 213.043 164.534 206.062 165.264ZM239.31 177.484C236.768 176.143 234.447 174.429 231.912 173.078C229.888 171.981 227.7 171.239 225.561 170.402C222.654 169.259 219.781 168.022 216.985 166.626C215.931 166.086 214.889 165.517 213.887 164.884C213.817 164.84 213.743 164.787 213.669 164.735C215.824 164.102 217.925 163.286 219.946 162.306C219.916 162.483 219.971 162.667 220.154 162.764C229.191 167.356 236.994 173.109 244.607 179.5C242.673 179.021 241.171 178.419 239.31 177.484ZM246.282 179.74C246.272 179.65 246.235 179.562 246.162 179.489C241.186 175.223 235.956 171.256 230.52 167.593C227.465 165.554 224.236 163.793 220.999 162.065C220.908 162.022 220.817 161.969 220.725 161.924C222.118 161.211 223.471 160.418 224.77 159.545C224.67 159.749 224.683 159.996 224.93 160.137C229.999 163.195 234.28 166.355 238.577 170.415C241.167 172.66 243.428 175.372 245.17 177.907C245.578 178.51 246.062 179.077 246.377 179.736C246.351 179.738 246.313 179.739 246.282 179.74Z" fill="black"/>
<path d="M185.987 195.407C183.742 195.965 181.042 196.065 178.408 196.221C175.45 196.382 172.497 196.612 169.542 196.816C168.781 196.9 167.99 196.86 167.245 197.006C166.942 197.117 166.801 197.562 167.043 197.8C167.136 197.881 167.251 197.935 167.377 197.923C168.34 197.862 169.304 197.796 170.267 197.728C173.453 197.501 176.639 197.267 179.829 197.107C181.537 197.002 183.249 196.874 184.939 196.598C185.93 196.379 187.142 196.267 187.792 195.394C188.394 194.526 187.695 193.597 187.228 192.848C186.481 191.73 185.738 190.516 184.496 189.892C183.109 189.144 181.623 189.896 180.278 190.365C179.862 190.515 179.449 190.669 179.034 190.823C179.035 190.279 178.922 189.741 178.639 189.248C178.395 188.758 177.918 188.475 177.426 188.281C176.108 187.709 174.753 187.226 173.377 186.812C171.251 186.248 168.815 185.653 166.716 186.587C165.809 187.062 165.448 188.063 165.185 188.99C164.459 191.201 163.194 193.213 161.191 193.29C159.479 193.428 157.734 193.385 156.035 193.522C155.574 193.681 155.62 194.477 156.167 194.439C158.143 194.351 160.328 194.49 162.243 194.036C163.382 193.745 164.187 192.795 164.861 191.887C165.412 190.997 165.831 190.028 166.156 189.035C166.456 188.148 166.414 188.027 166.932 187.543C168.226 186.566 172.019 187.288 174.623 188.255C175.354 188.543 177.112 189.088 177.664 189.596C177.926 189.934 178.123 190.622 178.068 191.277C178.055 191.294 178.037 191.306 178.026 191.324C177.938 191.455 177.932 191.604 177.98 191.732C177.956 191.809 177.934 191.886 177.9 191.958C177.595 192.753 177.35 193.21 176.895 194.139C176.655 194.48 177.001 194.963 177.401 194.816C177.947 194.537 178.13 193.551 178.453 193.028C178.642 192.665 178.792 192.273 178.895 191.872C180.236 191.386 181.898 190.685 182.847 190.543C183.401 190.417 184.33 190.907 184.572 191.135C185.578 191.983 186.605 193.637 187.055 194.629C187.075 194.934 187.058 195.079 185.987 195.407ZM137.868 159.131C138.412 158.65 138.822 158.046 139.292 157.497C140.541 156.196 141.624 155.291 142.927 155.183C145.664 154.872 146.587 157.107 147.614 159.976C148.065 161.293 148.869 162.696 150.36 162.954C151.017 163.024 151.652 162.747 152.295 162.65C153.223 162.47 153.845 162.346 154.974 162.251C155.227 162.22 155.52 162.268 155.71 162.063C155.929 161.859 155.93 161.457 155.647 161.307C155.34 161.189 154.988 161.314 154.666 161.318C153.431 161.418 151.551 161.858 150.768 162.003C150.34 162 149.867 161.787 149.312 161.167C148.404 159.922 147.888 157.029 146.543 155.511C145.307 154.159 143.246 153.851 141.591 154.556C139.942 155.318 138.73 156.722 137.607 158.102C136.851 158.866 136.661 158.912 136.081 158.386C134.997 157.142 133.52 153.977 130.979 154.716C129.715 155.22 128.853 156.416 128.311 157.622C127.952 158.372 127.738 159.178 127.566 159.989C127.528 160.106 127.538 160.238 127.594 160.347C127.802 160.731 128.385 160.569 128.488 160.184C128.877 158.062 129.924 156.137 131.198 155.63C132.28 155.214 133.719 156.676 134.595 158.102C135.396 159.402 136.474 160.344 137.868 159.131ZM115.602 153.213C116.06 154.66 117.53 152.766 118.006 152.214C119.353 150.447 121.459 148.57 122.038 149.271C122.221 149.375 122.201 150.058 122.225 150.979C122.169 151.763 122.521 152.456 123.409 152.174C125.119 151.495 126.236 150.276 127.646 150.273C128.698 150.17 130.315 150.95 130.727 151.717C131.055 152.213 131.28 152.702 131.357 152.991C131.422 153.188 131.43 153.437 131.641 153.539C131.875 153.664 132.18 153.544 132.31 153.323C132.477 153.046 132.308 152.735 132.225 152.457C132.017 151.846 131.69 151.28 131.282 150.781C130.742 150.112 129.926 149.736 129.121 149.491C127.151 148.816 125.364 150.016 123.76 151.015C123.468 151.157 123.34 151.222 123.201 151.251C123.198 151.044 123.194 149.584 123.063 149.05C122.844 148.298 121.982 148.046 121.283 148.227C119.479 148.72 117.658 151.28 116.636 152.374C117.038 150.529 117.823 148.516 117.085 146.678C115.797 143.827 112.117 145.743 110.519 147.315C110.031 147.798 109.65 148.375 109.293 148.957C109.183 149.149 109.019 149.344 109.074 149.579C109.164 150.011 109.765 150.002 109.955 149.648C110.865 147.955 112.103 146.985 113.702 146.361C116.335 145.537 116.726 147.687 116.225 150.048C116.069 151.108 115.565 152.133 115.602 153.213ZM134.852 163.396C135.317 163.235 135.266 162.442 134.72 162.478C130.535 162.477 126.348 162.496 122.168 162.733C120.998 162.793 119.828 162.85 118.657 162.903C118.526 162.91 118.401 162.969 118.308 163.062C118.006 163.33 118.168 163.905 118.606 163.869C122.237 163.7 125.867 163.483 129.502 163.463C131.28 163.418 133.091 163.525 134.852 163.396ZM123.113 164.965C122.848 164.978 122.617 165.209 122.604 165.473C122.586 165.727 122.806 165.953 123.062 165.931C123.901 165.944 124.74 165.962 125.579 165.979C126.172 165.964 126.295 165.003 125.63 165.013C124.791 164.996 123.952 164.978 123.113 164.965ZM7.07465 46.6607C7.76107 46.5272 8.44765 46.3943 9.13423 46.2615C12.2885 45.6534 15.4423 45.0362 18.5707 44.3048C20.1466 43.9355 21.7195 43.5512 23.2784 43.1158C24.629 42.6834 26.3701 42.2386 26.9578 40.7932C27.3308 39.5657 26.3893 38.7932 26.3424 37.8426C25.1685 30.5919 31.3642 24.4077 38.083 21.2956C44.601 18.4762 53.4986 21.934 58.41 27.6363C59.2537 28.5491 60.0185 29.5301 60.8357 30.466C61.4467 31.2971 62.9393 32.2181 63.6427 31.0157C63.9718 30.3697 63.8095 29.6317 63.8631 28.9379C63.9895 27.6839 64.0569 27.0049 64.5293 25.7949C65.2578 23.9666 66.9635 22.0373 69.0143 20.8892C70.9776 19.787 74.3454 20.4895 76.1958 22.1709C77.2308 22.9878 77.8046 23.664 78.4206 24.612C79.1866 25.7672 80.7489 28.8633 81.9731 26.3696C83.354 23.4925 86.6213 21.7327 89.5868 22.342C91.3411 22.8638 92.9991 24.1867 94.3961 25.8918C95.1636 26.8813 95.9195 28.5746 96.2873 29.8343C96.4302 30.346 96.5573 30.8619 96.6774 31.3793C96.7031 31.5005 96.7804 31.6068 96.8905 31.6648C97.2462 31.8576 97.7177 31.4773 97.6249 31.085C96.9987 28.098 95.6813 25.1312 93.1986 23.2413C91.7558 22.0555 90.0432 21.0864 88.1146 21.2785C85.1263 21.3716 82.3559 23.4204 81.0882 26.0808C81.0291 26.2085 80.992 26.2719 80.9644 26.3097C80.9189 26.2877 80.8396 26.2495 80.7881 26.217C80.7372 26.1748 80.6613 26.1094 80.6329 26.071C80.5061 25.9384 80.4046 25.7846 80.2935 25.6392C79.8811 25.156 78.9663 23.4158 78.193 22.627C76.4743 20.7742 74.0988 19.3635 71.5124 19.3807C69.8325 19.3602 68.2796 20.0588 67.0223 21.1422C65.7549 22.1581 64.6579 23.4095 63.9362 24.8714C63.323 26.0364 63.0657 27.3358 62.9249 28.6342C62.8682 29.0547 62.8975 30.461 62.8713 30.3946C62.8657 30.4445 62.829 30.5499 62.8048 30.6173C62.7984 30.619 62.7905 30.6202 62.7836 30.622C62.7669 30.6239 62.7498 30.6257 62.723 30.627C62.7026 30.627 62.6927 30.6275 62.6789 30.6278C62.6719 30.6248 62.6541 30.6207 62.6212 30.6149C62.5237 30.5724 62.3501 30.4943 62.3078 30.4541C61.3973 29.7899 60.1557 27.9616 59.0729 26.8559C53.8514 21.0152 44.7 17.1231 37.1931 20.6926C31.052 23.7162 24.8852 29.4796 25.2469 36.8454C25.2817 37.9528 25.5578 39.0166 26.042 40.0106C26.1889 40.368 26.0081 40.9694 25.2273 41.3705C24.1808 41.9818 22.2243 42.4269 20.6688 42.8287C17.7349 43.5677 14.7741 44.1938 11.8065 44.7812C10.165 45.1063 8.52071 45.4181 6.8782 45.7387C6.68911 45.799 6.52965 45.9642 6.50425 46.1633C6.42304 46.4811 6.76719 46.7783 7.07465 46.6607Z" fill="black"/>
<path d="M29.82 43.339C29.9646 42.9391 29.4873 42.5971 29.1427 42.8335C26.6647 44.6155 24.1484 46.3433 21.651 48.0979C20.9613 48.5808 20.2719 49.0645 19.5833 49.5491C19.4676 49.6189 19.3795 49.7302 19.3389 49.8588C19.1949 50.2583 19.671 50.6012 20.0162 50.3642C22.7164 48.4612 25.4333 46.5817 28.1333 44.6782C28.6156 44.3371 29.0965 43.9943 29.5754 43.6487C29.6912 43.5789 29.7796 43.4676 29.82 43.339ZM30.0424 48.7918C30.5886 48.0007 31.1302 47.2064 31.6791 46.4173C32.0003 45.9551 32.3287 45.4977 32.6643 45.0457C32.7302 44.938 32.7559 44.8061 32.7305 44.6821C32.6447 44.2508 32.0359 44.2583 31.8492 44.6128C30.94 45.8365 30.0957 47.1065 29.2272 48.3589C29.1325 48.5145 29.114 48.7418 29.2387 48.8854C29.4307 49.1724 29.8898 49.0701 30.0424 48.7918Z" fill="black"/>
<path d="M141.196 55.6497C140.86 54.1781 140.209 52.7472 139.506 51.4235C139.303 51.2725 139.023 51.5371 139.135 51.7519C139.769 53.0828 140.339 54.2784 140.692 55.5956C140.793 56.0702 140.658 56.1503 140.083 56.5204C138.693 57.1671 136.481 57.4971 134.953 57.7845C131.734 58.3184 128.492 58.6938 125.268 59.1931C120.058 60.1091 114.811 60.7554 109.551 61.2892C109.177 61.3828 108.751 61.4137 108.445 61.6701C108.136 62.0246 107.813 62.4238 107.563 62.5754C106.027 63.5914 104.168 63.6754 102.25 63.9203C95.3018 64.5289 88.3223 64.7248 81.351 64.8634C78.36 64.9095 75.3686 64.9375 72.3772 64.9557C71.8675 64.9622 71.3568 64.949 70.8479 64.983C70.6311 64.9844 70.3407 65.0739 70.3843 65.3421C70.4663 65.5834 70.788 65.6 70.9884 65.7047C71.363 65.8135 71.7411 66.0752 72.1278 66.0887C72.5684 65.8272 72.2153 65.624 71.7581 65.4524C74.5116 65.3794 77.6852 65.4308 80.5221 65.3585C87.1064 65.2524 93.6931 65.0468 100.262 64.5703C101.937 64.4413 103.621 64.3049 105.268 63.9623C106.424 63.7022 107.652 63.3237 108.437 62.3825C108.794 61.9074 108.8 61.9438 109.408 61.8011C114.232 61.2544 119.736 60.6718 124.75 59.7511C128.18 59.2096 131.634 58.8184 135.059 58.2444C136.492 57.8847 141.367 57.5108 141.196 55.6497ZM70.0698 66.9073C69.4006 66.5275 68.6853 66.3932 67.9523 66.0854C67.7139 66.0512 67.5497 66.4175 67.7788 66.541C68.4393 66.803 69.1107 67.0358 69.7797 67.2745C69.9762 67.3193 70.166 67.0888 70.0698 66.9073ZM69.4951 68.3631C68.4834 67.8922 67.4889 67.378 66.4284 67.0217C65.892 66.8739 65.5665 66.6301 65.0326 66.5655C64.841 66.6157 64.759 66.9101 64.9513 67.0123C66.5423 67.5514 67.9652 68.1685 69.5608 68.9446C69.7148 69.0512 69.9382 68.999 69.995 68.8102C70.0759 68.5125 69.6817 68.4777 69.4951 68.3631ZM162.6 43.6074C162.203 42.215 161.802 40.7749 161.159 39.484C160.964 39.3316 160.67 39.5988 160.787 39.8125C161.839 42.281 162.678 45.2993 162.741 47.9638C162.728 48.2905 163.222 48.2352 163.224 47.9384C163.176 46.4791 162.957 45.0226 162.6 43.6074ZM160.236 46.8976C160.202 46.3534 160.145 45.8104 160.051 45.2731C159.956 44.9664 160 44.4349 159.779 44.2184C159.598 44.122 159.368 44.3123 159.412 44.5083C159.599 45.4445 159.742 46.4123 159.769 47.2024C159.773 47.3303 159.762 47.5052 159.915 47.5478C160.313 47.6441 160.268 47.153 160.236 46.8976ZM157.81 47.1496C157.763 46.7639 157.672 46.3857 157.578 46.0092C157.566 45.9489 157.526 45.8953 157.472 45.8664C157.291 45.7698 157.06 45.9603 157.104 46.1563C157.185 46.481 157.265 46.8065 157.314 47.1378C157.351 47.2794 157.305 47.4776 157.456 47.5583C157.714 47.675 157.891 47.3768 157.81 47.1496ZM208.671 23.6708C207.761 25.8096 206.61 27.572 205.146 29.213C205.021 29.4503 205.355 29.6484 205.525 29.4533C206.322 28.5258 207.117 27.5855 207.741 26.5298C208.24 25.6435 208.713 24.7318 209.11 23.7972C209.17 23.5311 208.784 23.4471 208.671 23.6708ZM205.58 25.0222C205.19 25.5386 204.99 25.8177 204.516 26.3113C204.45 26.3773 204.412 26.4863 204.451 26.575C204.693 26.9841 205.044 26.3886 205.232 26.2058C205.452 25.8734 205.981 25.4323 206.021 25.0568C205.978 24.8412 205.673 24.8448 205.58 25.0222ZM122.133 122.967C120.871 125.049 120.402 127.308 119.092 129.238C118.739 129.792 118.077 129.814 117.223 129.263C116.837 129.142 116.691 129.644 117.104 129.781C117.65 130.118 118.38 130.298 118.973 129.98C119.9 129.255 120.263 128.039 120.764 127.015C121.33 125.755 121.713 124.685 122.314 123.546C122.389 123.361 122.599 123.212 122.574 123.001C122.53 122.787 122.227 122.788 122.133 122.967ZM117.966 127.228C117.734 127.106 117.782 127.126 117.594 126.96C117.341 126.76 117.284 126.461 117.045 126.346C116.849 126.301 116.658 126.532 116.755 126.713C116.998 127.078 117.279 127.442 117.676 127.647C117.862 127.76 118.127 127.813 118.214 127.556C118.276 127.376 118.114 127.275 117.966 127.228ZM118.867 125.706C118.775 125.561 118.761 125.358 118.638 125.24C118.443 125.086 118.15 125.355 118.267 125.568C118.366 125.801 118.443 126.071 118.609 126.262C118.742 126.37 118.952 126.266 118.995 126.113C119.041 125.963 118.918 125.838 118.867 125.706ZM161.769 107.99C161.615 108.1 161.587 108.316 161.491 108.472C160.36 110.671 158.517 114.451 156.505 113.781C156.077 113.616 155.689 113.367 155.296 113.134C155.241 113.105 155.175 113.102 155.117 113.12C154.925 113.17 154.843 113.465 155.035 113.567C155.674 113.937 156.341 114.415 157.114 114.363C158.053 114.218 158.822 113.529 159.412 112.822C160.137 111.925 160.725 110.926 161.275 109.915C161.55 109.324 161.964 108.747 162.114 108.12C162.085 107.966 161.895 107.908 161.769 107.99ZM156.228 111.819C155.958 111.445 155.684 111.076 155.407 110.708C155.193 110.499 154.839 110.853 155.047 111.068C155.387 111.504 155.514 111.722 155.856 112.147C155.928 112.209 156.042 112.2 156.12 112.153C156.23 112.086 156.291 111.938 156.228 111.819ZM156.841 110.055C156.693 109.846 156.348 110.052 156.406 110.284C156.551 110.653 156.564 111.129 156.816 111.431C156.997 111.527 157.227 111.337 157.183 111.141C157.05 110.786 156.983 110.402 156.841 110.055ZM40.1343 145.6C39.9877 145.572 39.8659 145.676 39.7891 145.79C39.2193 146.619 38.6773 147.467 38.1026 148.293C36.361 150.88 34.4432 153.352 32.8579 156.041C32.0265 157.36 30.6354 160.192 30.136 159.125C29.751 158.398 29.3063 157.521 29.1078 156.916C29.0359 156.603 28.5633 156.781 28.6342 157.063C28.9495 157.94 29.3537 158.801 29.8427 159.594C30.7704 160.538 31.7242 158.719 32.1835 158.062C34.1939 154.433 37.4571 150.181 39.5244 146.993C39.4182 147.288 39.3134 147.589 39.2533 147.839C39.2513 147.959 39.3676 148.044 39.4799 148.038C39.8648 147.934 39.8268 147.364 40.002 147.06C40.1213 146.677 40.3043 146.3 40.3373 145.898C40.3419 145.767 40.2776 145.619 40.1343 145.6ZM37.2738 146.096C36.9579 146.737 36.6058 147.367 36.309 148.014C36.285 148.103 36.3328 148.206 36.4146 148.248C36.5333 148.308 36.6831 148.252 36.7488 148.14C37.065 147.533 37.3684 146.92 37.6815 146.312C37.8535 146.023 37.4324 145.82 37.2738 146.096ZM34.9416 147.005C34.8554 146.754 34.4728 146.88 34.4734 147.12C34.4854 147.956 34.4513 148.79 34.3767 149.623C34.3772 149.761 34.3251 149.908 34.3635 150.042C34.4118 150.208 34.6461 150.219 34.7519 150.102C35.0061 149.137 34.9493 148.012 34.9416 147.005ZM73.4639 131.359C73.3017 131.273 73.1154 131.415 73.1028 131.585C72.529 131.557 71.7871 131.514 71.1493 131.516C68.3432 131.518 65.535 131.787 62.7924 132.388C61.2752 132.724 59.7721 133.12 58.273 133.528C57.7755 133.64 57.4455 133.784 57.119 133.719C57.1217 133.711 57.1234 133.704 57.1277 133.694C57.1775 133.497 57.3113 133.345 57.4685 133.056C57.6067 132.739 57.9648 132.435 57.9919 132.098C57.9519 131.882 57.6426 131.886 57.5511 132.064C55.1756 135.368 58.0273 134.005 60.0457 133.539C62.6976 132.838 65.0764 132.339 67.8048 132.126C69.2062 132.025 70.6138 131.972 72.0185 132.018C72.6308 132.012 73.0362 132.119 73.5522 132.062C73.9392 131.911 73.7609 131.509 73.4639 131.359ZM74.08 130.656C73.7032 130.204 73.3026 129.773 72.9163 129.329C72.7026 129.119 72.3479 129.474 72.5568 129.688C72.9791 130.134 73.3534 130.652 73.7982 131.063C73.8545 131.088 73.9249 131.082 73.9788 131.053C74.1297 130.997 74.201 130.776 74.08 130.656ZM74.8035 130.191C74.6235 129.914 74.4738 129.604 74.265 129.352C74.0699 129.199 73.7764 129.468 73.8935 129.68C74.0822 129.952 74.2264 130.265 74.4321 130.52C74.4776 130.56 74.547 130.573 74.6054 130.558C74.7665 130.537 74.8822 130.338 74.8035 130.191Z" fill="white"/>
<path d="M128.56 28.8915C127.178 28.7109 125.749 28.7667 124.351 28.7345C123.591 28.7336 122.832 28.7411 122.072 28.7541C122.007 28.7579 121.943 28.7872 121.898 28.8338C121.786 28.9351 121.79 29.1381 121.929 29.212C123.705 29.2592 125.506 29.1726 127.288 29.2808C127.326 29.2828 127.365 29.2844 127.405 29.286C119.072 32.0483 108.926 35.5817 100.038 38.5399C97.5535 39.3154 95.458 39.9517 93.0113 38.9372C91.3152 38.4451 89.6126 37.8375 87.8265 37.8316C84.1013 37.9611 80.4488 38.9111 76.8569 39.8466C74.3873 40.5661 71.9397 41.3646 69.5234 42.2466C69.1619 42.4201 68.7034 42.4603 68.4057 42.7253C68.301 42.894 68.448 43.1389 68.6584 43.0639C73.5321 41.2333 78.9013 39.5771 83.8186 38.742C85.2355 38.5131 87.1499 38.2268 88.3594 38.3364C90.228 38.5036 92.001 39.1821 93.794 39.693C95.9686 40.4184 98.2488 39.5381 100.349 38.9336C107.159 36.6422 113.955 34.3106 120.767 32.0249C122.99 31.2664 125.215 30.5084 127.436 29.7424C127.824 29.5636 128.323 29.54 128.631 29.2372C128.705 29.1289 128.68 28.9551 128.56 28.8915ZM131.038 26.0315C129.637 25.6181 128.552 25.2248 127.226 24.6294C126.822 24.5022 126.295 24.0776 125.918 24.0696C125.727 24.1198 125.645 24.4142 125.837 24.5165C127.227 25.2314 128.684 25.8156 130.174 26.2857C130.509 26.3699 130.841 26.5356 131.182 26.563C131.248 26.5558 131.31 26.516 131.347 26.4621C131.534 26.2219 131.26 26.0588 131.038 26.0315ZM131.294 22.1316C131.037 21.9919 130.764 22.4117 131.033 22.5643C131.923 23.1353 132.802 23.7233 133.677 24.3158C133.859 24.4128 134.089 24.222 134.045 24.0259C133.248 23.291 132.192 22.7697 131.294 22.1316ZM217.49 27.6373C211.159 38.288 203.159 43.7721 192.087 48.5993C191.198 48.997 189.911 49.5918 189.179 49.7055C188.872 49.8232 188.313 49.66 188.236 50.0628C188.249 50.4091 188.659 50.2569 188.881 50.234C189.97 50.0979 190.953 49.5982 191.947 49.166C200.419 45.5042 208.702 40.6875 214.263 33.1317C215.59 31.4222 216.875 29.6513 217.93 27.7636C217.982 27.5038 217.609 27.4092 217.49 27.6373ZM210.89 39.6546C208.735 41.9354 206.53 43.8878 204.041 45.5909C203.865 45.782 204.112 46.0796 204.332 45.9297C206.166 44.7213 207.837 43.2922 209.42 41.7751C210.013 41.1459 210.862 40.5291 211.293 39.8038C211.31 39.5875 211.025 39.5009 210.89 39.6546ZM211.89 44.5115C211.196 45.1418 210.714 45.5119 210.009 46.0354C209.847 46.1854 209.595 46.2688 209.5 46.4749C209.459 46.5929 209.531 46.7375 209.657 46.7607C209.951 46.7591 210.157 46.4487 210.402 46.3115C211.028 45.8471 211.639 45.3617 212.213 44.835C212.449 44.6052 212.122 44.2762 211.89 44.5115ZM107.444 69.1113C105.913 71.8417 104.352 74.251 102.075 76.3117C96.7484 80.9696 89.9376 84.1842 83.4601 87.3978C83.0988 87.6303 82.2175 87.8223 81.7776 88.1425C81.4794 88.9697 83.1772 87.9783 83.4594 87.9075C88.48 85.4446 93.5419 82.9889 98.1968 79.8724C100.028 78.5778 101.869 77.2604 103.423 75.6325C104.985 74.0053 106.244 72.1193 107.369 70.1714C107.524 69.8288 107.84 69.5179 107.885 69.146C107.838 68.9339 107.54 68.9315 107.444 69.1113ZM86.2302 88.2601C84.4459 89.5312 82.6451 90.7786 80.8759 92.0707C80.7442 92.1453 80.6924 92.3405 80.8044 92.4542C80.879 92.5299 81.0048 92.5327 81.0924 92.4782C82.2086 91.6729 83.3237 90.8661 84.4513 90.0768C85.1394 89.5837 85.8581 89.1207 86.5215 88.5987C86.6981 88.407 86.4505 88.1108 86.2302 88.2601ZM86.7719 90.3278C86.3088 90.8179 85.8152 91.2939 85.3893 91.8129C85.3084 91.9554 85.4282 92.1494 85.5938 92.1331C86.0002 91.9394 86.76 90.9595 87.1509 90.5683C87.2768 90.3295 86.9412 90.1337 86.7719 90.3278ZM169.158 117.659C167.971 116.561 165.971 116.099 164.838 115.361C164.37 114.977 164.457 114.84 164.575 114.305C164.945 113.217 165.519 112.252 166.048 111.092C167.004 109.085 167.955 107.073 168.797 105.015C169.359 103.565 169.952 102.053 169.974 100.48C169.958 99.7027 169.662 98.9056 168.986 98.4725C168.024 97.8181 167.058 97.1254 166.051 96.5608C165.813 96.5324 165.648 96.8886 165.877 97.0164C167.009 97.8275 168.576 98.5694 169.202 99.4173C169.983 100.973 168.988 103.128 168.295 105.017C167.19 107.69 165.941 110.262 164.622 112.978C163.702 114.845 163.645 115.622 165.767 116.393C168.366 117.301 171.126 119.296 170.325 121.891C169.514 124.228 168.262 126.4 167.085 128.726C166.885 129.119 166.652 129.494 166.454 129.888C166.374 130.015 166.379 130.208 166.522 130.287C166.927 130.397 167.2 129.893 167.489 129.683C168.33 128.886 169.167 128.085 170.021 127.302C170.068 127.257 170.097 127.193 170.1 127.128C169.957 126.503 169.368 127.331 169.132 127.502C168.666 127.952 167.937 128.63 167.376 129.155C168.396 127.227 169.405 125.289 170.287 123.294C171.39 121.146 171.081 119.18 169.158 117.659Z" fill="black"/>
<path d="M171.224 117.179C170.775 116.475 170.288 115.787 169.692 115.199C169.53 115.076 169.415 114.829 169.198 114.816C169 114.82 168.856 115.086 169.005 115.237C170.532 116.671 171.648 118.652 172.243 120.566C172.267 120.943 172.793 120.855 172.74 120.502C172.39 119.332 171.887 118.205 171.224 117.179ZM173.281 116.464C173.138 116.048 172.986 115.634 172.812 115.229C172.719 115.072 172.702 114.81 172.504 114.753C172.309 114.708 172.118 114.938 172.215 115.12C172.477 115.684 172.655 116.168 172.814 116.631C172.873 116.81 172.922 117.106 173.179 117.024C173.444 116.939 173.366 116.659 173.281 116.464ZM116.224 137.456C116.214 137.147 116.18 136.84 116.123 136.537C116.118 136.369 115.998 136.206 115.816 136.268C115.586 136.333 115.615 136.58 115.664 136.761C115.705 137.052 115.736 137.236 115.738 137.406C115.748 137.627 115.743 137.849 115.726 138.07C114.991 137.464 113.097 135.123 111.812 134.046C110.062 132.502 108.057 131.271 105.954 130.271C104.829 129.639 103.184 129.271 102.703 128.381C102.586 128.257 102.791 127.691 103.026 127.184C103.605 125.839 104.386 124.236 105.137 122.758C105.904 121.237 106.705 119.732 107.572 118.265C107.69 118.004 107.972 117.781 107.977 117.488C107.935 117.278 107.629 117.273 107.536 117.454C105.793 120.281 104.321 123.272 102.921 126.282C102.236 127.839 101.522 128.758 103.489 129.671C106.686 131.119 109.738 132.635 112.158 135.071C113.001 135.906 113.811 136.773 114.602 137.658C115.343 138.622 116.313 139.286 116.224 137.456ZM110.083 136.136C109.373 135.413 108.614 134.719 107.743 134.193C107.409 134.037 106.887 133.644 106.542 133.651C106.35 133.701 106.268 133.996 106.46 134.098C107.667 134.634 108.468 135.261 109.406 136.175C109.567 136.295 109.673 136.548 109.89 136.558C110.088 136.553 110.232 136.287 110.083 136.136ZM107.47 137.124C107.152 136.759 106.817 136.409 106.483 136.058C106.27 135.848 105.915 136.203 106.124 136.417C106.458 136.768 106.792 137.118 107.11 137.484C107.203 137.578 107.365 137.557 107.452 137.466C107.541 137.376 107.565 137.218 107.47 137.124ZM131.125 82.8356C130.691 82.7912 130.238 83.0061 129.809 83.0924C129.054 83.284 128.3 83.7216 128.036 84.4948C127.801 85.0928 127.607 85.7062 127.431 86.3241C127.405 86.4274 127.349 86.5383 127.406 86.6408C127.508 86.8322 127.802 86.7518 127.853 86.5594C128.303 85.1162 128.451 83.9265 129.64 83.6355C130.1 83.4892 130.569 83.3737 131.044 83.2822C131.236 83.2327 131.317 82.9379 131.125 82.8356ZM128.728 81.3316C128.539 81.1629 128.318 81.3945 128.138 81.4729C127.771 81.6872 127.385 81.9284 127.168 82.3067C126.954 82.7644 126.838 83.263 126.702 83.7482C126.671 83.9676 126.541 84.206 126.607 84.4232C126.709 84.6148 127.004 84.5342 127.054 84.3418C127.304 83.3055 127.432 82.3754 128.066 82.054C128.283 81.853 128.997 81.7289 128.728 81.3316ZM104.002 161.293C103.119 162.025 102.368 162.928 101.544 163.734C101.543 163.723 101.542 163.714 101.542 163.702C101.42 162.059 101.185 160.425 100.925 158.799C100.3 155.48 99.3031 152.2 97.8017 149.169C96.6556 147.081 95.0687 145.237 93.2183 143.741C90.2245 141.36 86.8049 139.436 83.1339 138.33C81.092 137.678 78.9569 137.505 76.8413 137.25C76.6036 137.243 76.348 137.112 76.1227 137.204C75.9503 137.3 75.938 137.599 76.1574 137.645C78.6796 137.982 81.2353 138.157 83.6558 139.008C87.8262 140.473 92.0644 142.915 95.1566 146.286C98.0506 149.517 99.3174 153.831 100.299 158.137C100.647 159.93 100.921 162.062 101.055 163.666C101.014 164.708 101.395 164.596 102.009 163.924C102.729 163.163 103.462 162.415 104.213 161.685C104.387 161.52 104.244 161.216 104.002 161.293ZM105.125 162.607C103.759 163.418 102.652 164.591 101.581 165.749C101.355 166.052 100.987 166.294 100.855 166.647C100.837 166.863 101.123 166.949 101.258 166.796C102.554 165.321 103.887 163.899 105.416 162.946C105.593 162.754 105.345 162.458 105.125 162.607ZM106.368 165.471C106.24 165.255 105.967 165.421 105.78 165.452C105.076 165.647 104.404 165.941 103.729 166.217C103.389 166.269 103.347 166.786 103.746 166.711C104.435 166.43 105.119 166.128 105.836 165.925C106.068 165.863 106.506 165.814 106.368 165.471ZM55.0294 113.197C54.7757 112.607 54.422 112.065 54.0841 111.52C53.4811 110.679 52.9635 109.699 52.2544 108.967C52.057 108.924 51.8691 109.152 51.9643 109.334C52.2787 109.771 52.5891 110.211 52.8945 110.654C53.438 111.446 54.1449 112.479 54.504 113.267C52.9433 112.738 51.3636 112.253 49.7205 112.063C47.9794 111.887 46.1216 111.401 44.4192 112C43.2607 112.513 42.2342 113.262 41.2086 113.996C39.0565 115.508 37.0056 117.158 35.0324 118.897C32.6715 120.983 30.2765 123.031 27.9443 125.15C26.4384 126.536 24.8505 127.888 23.6969 129.596C23.2355 130.256 23.2289 131.102 23.4072 131.861C23.6646 133.167 23.9338 134.471 24.2268 135.77C24.5727 137.249 24.9623 138.718 25.3209 140.195C25.4037 140.494 25.8576 140.339 25.7946 140.048C25.1575 137.506 24.5091 134.967 24.0155 132.393C23.7613 131.149 23.5553 130.436 24.3098 129.513C25.3291 128.099 27.0312 126.6 28.4822 125.279C30.9225 123.077 33.4147 120.933 35.8825 118.762C38.6003 116.484 41.5833 113.959 44.6249 112.416C46.2483 111.923 48.0775 112.379 49.9417 112.592C51.2399 112.765 52.503 113.121 53.7423 113.538C54.1361 113.609 54.6401 114.014 55.0055 113.771C55.1788 113.626 55.102 113.377 55.0294 113.197ZM56.6603 113.093C55.7983 110.997 54.8034 108.949 53.6408 107.004C53.4792 106.586 52.9961 106.732 53.1123 107.119C54.0135 108.559 54.7631 110.094 55.487 111.629C55.7415 112.201 55.9894 112.775 56.2275 113.354C56.2564 113.409 56.31 113.448 56.3704 113.46C56.566 113.504 56.7569 113.274 56.6603 113.093ZM58.6491 112.753C58.511 111.884 58.5005 110.975 58.3323 110.122C58.1836 109.912 57.8392 110.118 57.8973 110.35C58.0212 111.709 58.1971 113.063 58.3624 114.417C58.3669 114.51 58.3896 114.61 58.48 114.654C59.2009 114.894 58.6087 113.141 58.6491 112.753ZM22.4663 127.756C21.2322 128.694 20.3948 130.115 20.0215 131.608C19.7869 132.669 19.8049 133.768 19.9 134.844C19.9429 135.06 20.2468 135.057 20.3405 134.879C20.3971 134.842 20.3672 134.576 20.3576 134.514C20.1833 132.451 20.4787 130.769 21.685 129.176C21.8692 128.84 22.447 128.4 22.8454 127.997C22.9703 127.76 22.6362 127.561 22.4663 127.756ZM25.3499 159.797C24.5425 157.849 23.9556 155.099 24.4465 153.107C24.6019 152.292 24.8709 151.297 25.15 150.737C25.2174 150.553 25.3888 150.386 25.3712 150.183C25.3283 149.969 25.024 149.97 24.9305 150.149C24.158 151.655 23.7853 153.388 23.7871 155.076C23.8295 156.91 24.343 158.718 25.0675 160.393C25.1691 160.584 25.4639 160.504 25.5144 160.311C25.5595 160.126 25.3938 159.971 25.3499 159.797ZM22.8573 156.01C22.7731 155.398 22.738 155.077 22.7325 154.509C22.7014 154.219 22.8579 153.871 22.7116 153.614C22.5618 153.465 22.2951 153.608 22.2904 153.807C22.2157 154.558 22.2629 155.312 22.3691 156.057C22.4003 156.212 22.4006 156.389 22.4815 156.527C22.5766 156.671 22.8071 156.618 22.8833 156.48C22.9716 156.332 22.867 156.167 22.8573 156.01ZM20.9094 154.215C20.7596 154.066 20.4928 154.209 20.4881 154.407C20.4788 154.589 20.412 154.782 20.4511 154.96C20.4994 155.127 20.7336 155.137 20.8394 155.02C20.9587 154.894 20.9181 154.703 20.9511 154.544C20.963 154.433 21.0025 154.302 20.9094 154.215ZM79.4106 126.436C79.0094 125.376 78.5205 124.257 77.6934 123.468C77.4696 123.375 77.2344 123.697 77.4117 123.875C78.068 124.6 78.5983 125.628 78.978 126.697C79.1295 126.966 79.55 126.694 79.4106 126.436ZM79.725 124.274C79.5762 124.064 79.232 124.27 79.29 124.503C79.4141 124.715 79.3722 125.156 79.6571 125.203C80.1651 125.173 79.828 124.546 79.725 124.274Z" fill="black"/>
</svg>
