<svg width="48" height="12" viewBox="0 0 48 12" fill="none" xmlns="http://www.w3.org/2000/svg">
<g filter="url(#filter0_iii_0_878)">
<mask id="mask0_0_878" style="mask-type:alpha" maskUnits="userSpaceOnUse" x="0" y="0" width="48" height="12">
<path fill-rule="evenodd" clip-rule="evenodd" d="M2.685 0.660393C2.61776 0.660393 2.55138 0.663663 2.48599 0.670035C2.30474 0.687699 2.14351 0.55488 2.12587 0.373375C2.10823 0.19187 2.24086 0.0304113 2.42212 0.0127471C2.5087 0.00430925 2.59639 0 2.685 0H2.91669C3.09879 0 3.24642 0.147834 3.24642 0.330196C3.24642 0.512559 3.09879 0.660393 2.91669 0.660393H2.685ZM3.97707 0.330196C3.97707 0.147834 4.12469 0 4.3068 0H4.77018C4.95228 0 5.09991 0.147834 5.09991 0.330196C5.09991 0.512559 4.95228 0.660393 4.77018 0.660393H4.3068C4.12469 0.660393 3.97707 0.512559 3.97707 0.330196ZM5.83056 0.330196C5.83056 0.147834 5.97818 0 6.16029 0H6.62367C6.80577 0 6.9534 0.147834 6.9534 0.330196C6.9534 0.512559 6.80577 0.660393 6.62367 0.660393H6.16029C5.97818 0.660393 5.83056 0.512559 5.83056 0.330196ZM7.68405 0.330196C7.68405 0.147834 7.83167 0 8.01378 0H8.47716C8.65926 0 8.80689 0.147834 8.80689 0.330196C8.80689 0.512559 8.65926 0.660393 8.47716 0.660393H8.01378C7.83167 0.660393 7.68405 0.512559 7.68405 0.330196ZM9.53754 0.330196C9.53754 0.147834 9.68517 0 9.86727 0H10.3306C10.5128 0 10.6604 0.147834 10.6604 0.330196C10.6604 0.512559 10.5128 0.660393 10.3306 0.660393H9.86727C9.68517 0.660393 9.53754 0.512559 9.53754 0.330196ZM11.391 0.330196C11.391 0.147834 11.5387 0 11.7208 0H12.1841C12.3662 0 12.5139 0.147834 12.5139 0.330196C12.5139 0.512559 12.3662 0.660393 12.1841 0.660393H11.7208C11.5387 0.660393 11.391 0.512559 11.391 0.330196ZM13.2445 0.330196C13.2445 0.147834 13.3921 0 13.5743 0H14.0376C14.2197 0 14.3674 0.147834 14.3674 0.330196C14.3674 0.512559 14.2197 0.660393 14.0376 0.660393H13.5743C13.3921 0.660393 13.2445 0.512559 13.2445 0.330196ZM15.098 0.330196C15.098 0.147834 15.2456 0 15.4277 0H15.8911C16.0732 0 16.2209 0.147834 16.2209 0.330196C16.2209 0.512559 16.0732 0.660393 15.8911 0.660393H15.4277C15.2456 0.660393 15.098 0.512559 15.098 0.330196ZM16.9515 0.330196C16.9515 0.147834 17.0991 0 17.2812 0H17.7446C17.9267 0 18.0743 0.147834 18.0743 0.330196C18.0743 0.512559 17.9267 0.660393 17.7446 0.660393H17.2812C17.0991 0.660393 16.9515 0.512559 16.9515 0.330196ZM18.805 0.330196C18.805 0.147834 18.9526 0 19.1347 0H19.5981C19.7802 0 19.9278 0.147834 19.9278 0.330196C19.9278 0.512559 19.7802 0.660393 19.5981 0.660393H19.1347C18.9526 0.660393 18.805 0.512559 18.805 0.330196ZM20.6585 0.330196C20.6585 0.147834 20.8061 0 20.9882 0H21.4516C21.6337 0 21.7813 0.147834 21.7813 0.330196C21.7813 0.512559 21.6337 0.660393 21.4516 0.660393H20.9882C20.8061 0.660393 20.6585 0.512559 20.6585 0.330196ZM22.512 0.330196C22.512 0.147834 22.6596 0 22.8417 0H23.3051C23.4872 0 23.6348 0.147834 23.6348 0.330196C23.6348 0.512559 23.4872 0.660393 23.3051 0.660393H22.8417C22.6596 0.660393 22.512 0.512559 22.512 0.330196ZM24.3655 0.330196C24.3655 0.147834 24.5131 0 24.6952 0H25.1586C25.3407 0 25.4883 0.147834 25.4883 0.330196C25.4883 0.512559 25.3407 0.660393 25.1586 0.660393H24.6952C24.5131 0.660393 24.3655 0.512559 24.3655 0.330196ZM26.2189 0.330196C26.2189 0.147834 26.3666 0 26.5487 0H27.012C27.1942 0 27.3418 0.147834 27.3418 0.330196C27.3418 0.512559 27.1942 0.660393 27.012 0.660393H26.5487C26.3666 0.660393 26.2189 0.512559 26.2189 0.330196ZM28.0724 0.330196C28.0724 0.147834 28.2201 0 28.4022 0H28.8655C29.0476 0 29.1953 0.147834 29.1953 0.330196C29.1953 0.512559 29.0476 0.660393 28.8655 0.660393H28.4022C28.2201 0.660393 28.0724 0.512559 28.0724 0.330196ZM29.9259 0.330196C29.9259 0.147834 30.0735 0 30.2557 0H30.719C30.9011 0 31.0488 0.147834 31.0488 0.330196C31.0488 0.512559 30.9011 0.660393 30.719 0.660393H30.2557C30.0735 0.660393 29.9259 0.512559 29.9259 0.330196ZM31.7794 0.330196C31.7794 0.147834 31.927 0 32.1091 0H32.5725C32.7546 0 32.9023 0.147834 32.9023 0.330196C32.9023 0.512559 32.7546 0.660393 32.5725 0.660393H32.1091C31.927 0.660393 31.7794 0.512559 31.7794 0.330196ZM33.6329 0.330196C33.6329 0.147834 33.7805 0 33.9626 0H34.426C34.6081 0 34.7557 0.147834 34.7557 0.330196C34.7557 0.512559 34.6081 0.660393 34.426 0.660393H33.9626C33.7805 0.660393 33.6329 0.512559 33.6329 0.330196ZM35.4864 0.330196C35.4864 0.147834 35.634 0 35.8161 0H36.2795C36.4616 0 36.6092 0.147834 36.6092 0.330196C36.6092 0.512559 36.4616 0.660393 36.2795 0.660393H35.8161C35.634 0.660393 35.4864 0.512559 35.4864 0.330196ZM37.3399 0.330196C37.3399 0.147834 37.4875 0 37.6696 0H38.133C38.3151 0 38.4627 0.147834 38.4627 0.330196C38.4627 0.512559 38.3151 0.660393 38.133 0.660393H37.6696C37.4875 0.660393 37.3399 0.512559 37.3399 0.330196ZM39.1934 0.330196C39.1934 0.147834 39.341 0 39.5231 0H39.9865C40.1686 0 40.3162 0.147834 40.3162 0.330196C40.3162 0.512559 40.1686 0.660393 39.9865 0.660393H39.5231C39.341 0.660393 39.1934 0.512559 39.1934 0.330196ZM41.0469 0.330196C41.0469 0.147834 41.1945 0 41.3766 0H41.84C42.0221 0 42.1697 0.147834 42.1697 0.330196C42.1697 0.512559 42.0221 0.660393 41.84 0.660393H41.3766C41.1945 0.660393 41.0469 0.512559 41.0469 0.330196ZM42.9004 0.330196C42.9004 0.147834 43.048 0 43.2301 0H43.6935C43.8756 0 44.0232 0.147834 44.0232 0.330196C44.0232 0.512559 43.8756 0.660393 43.6935 0.660393H43.2301C43.048 0.660393 42.9004 0.512559 42.9004 0.330196ZM44.7538 0.330196C44.7538 0.147834 44.9015 0 45.0836 0H45.3153C45.4039 0 45.4916 0.00430925 45.5781 0.0127471C45.7594 0.0304113 45.892 0.19187 45.8744 0.373375C45.8568 0.55488 45.6955 0.687699 45.5143 0.670035C45.4489 0.663663 45.3825 0.660393 45.3153 0.660393H45.0836C44.9015 0.660393 44.7538 0.512559 44.7538 0.330196ZM1.44559 0.655874C1.56119 0.796777 1.54085 1.00485 1.40014 1.12062C1.29754 1.20503 1.20336 1.29935 1.11906 1.40209C1.00345 1.54299 0.795668 1.56337 0.654961 1.4476C0.514254 1.33183 0.493907 1.12376 0.609515 0.982856C0.721077 0.846883 0.845704 0.722083 0.981488 0.610364C1.12219 0.494596 1.32998 0.514971 1.44559 0.655874ZM46.5547 0.655874C46.6703 0.514971 46.8781 0.494596 47.0188 0.610364C47.1546 0.722083 47.2792 0.846883 47.3907 0.982856C47.5064 1.12376 47.486 1.33183 47.3453 1.4476C47.2046 1.56337 46.9968 1.54299 46.8812 1.40209C46.7969 1.29935 46.7027 1.20503 46.6001 1.12062C46.4594 1.00485 46.4391 0.796777 46.5547 0.655874ZM0.372855 2.12883C0.554107 2.1465 0.686742 2.30795 0.669102 2.48946C0.662739 2.55493 0.659474 2.62141 0.659474 2.68874V2.95408C0.659474 3.13644 0.511845 3.28428 0.329737 3.28428C0.147628 3.28428 0 3.13644 0 2.95408V2.68874C0 2.60001 0.00430325 2.51219 0.0127294 2.42549C0.030369 2.24399 0.191603 2.11117 0.372855 2.12883ZM47.6274 2.12883C47.8087 2.11117 47.9699 2.24399 47.9875 2.42549C47.996 2.51219 48.0003 2.60001 48.0003 2.68874V2.95408C48.0003 3.13644 47.8526 3.28428 47.6705 3.28428C47.4884 3.28428 47.3408 3.13644 47.3408 2.95408V2.68874C47.3408 2.62141 47.3375 2.55493 47.3312 2.48946C47.3135 2.30795 47.4462 2.1465 47.6274 2.12883ZM0.329737 4.2159C0.511845 4.2159 0.659474 4.36374 0.659474 4.5461V5.07677C0.659474 5.25913 0.511845 5.40697 0.329737 5.40697C0.147628 5.40697 0 5.25913 0 5.07677V4.5461C0 4.36374 0.147628 4.2159 0.329737 4.2159ZM47.6705 4.2159C47.8526 4.2159 48.0003 4.36374 48.0003 4.5461V5.07677C48.0003 5.25913 47.8526 5.40697 47.6705 5.40697C47.4884 5.40697 47.3408 5.25913 47.3408 5.07677V4.5461C47.3408 4.36374 47.4884 4.2159 47.6705 4.2159ZM0.329737 6.33859C0.511845 6.33859 0.659474 6.48643 0.659474 6.66879V7.19946C0.659474 7.38182 0.511845 7.52966 0.329737 7.52966C0.147628 7.52966 0 7.38182 0 7.19946V6.66879C0 6.48643 0.147628 6.33859 0.329737 6.33859ZM47.6705 6.33859C47.8526 6.33859 48.0003 6.48643 48.0003 6.66879V7.19946C48.0003 7.38182 47.8526 7.52966 47.6705 7.52966C47.4884 7.52966 47.3408 7.38182 47.3408 7.19946V6.66879C47.3408 6.48643 47.4884 6.33859 47.6705 6.33859ZM0.329737 8.46128C0.511845 8.46128 0.659474 8.60912 0.659474 8.79148V9.05682C0.659474 9.12415 0.662739 9.19063 0.669102 9.2561C0.686742 9.43761 0.554107 9.59906 0.372855 9.61673C0.191603 9.63439 0.030369 9.50157 0.0127293 9.32007C0.00430325 9.23337 0 9.14555 0 9.05682V8.79148C0 8.60912 0.147628 8.46128 0.329737 8.46128ZM47.6705 8.46128C47.8526 8.46128 48.0003 8.60912 48.0003 8.79148V9.05682C48.0003 9.14555 47.996 9.23337 47.9875 9.32007C47.9699 9.50157 47.8087 9.63439 47.6274 9.61673C47.4462 9.59906 47.3135 9.43761 47.3312 9.2561C47.3375 9.19063 47.3408 9.12415 47.3408 9.05682V8.79148C47.3408 8.60912 47.4884 8.46128 47.6705 8.46128ZM0.654961 10.298C0.795668 10.1822 1.00345 10.2026 1.11906 10.3435C1.20336 10.4462 1.29754 10.5405 1.40014 10.6249C1.54085 10.7407 1.56119 10.9488 1.44559 11.0897C1.32998 11.2306 1.12219 11.251 0.981487 11.1352C0.845703 11.0235 0.721077 10.8987 0.609514 10.7627C0.493907 10.6218 0.514254 10.4137 0.654961 10.298ZM47.3453 10.298C47.486 10.4137 47.5064 10.6218 47.3907 10.7627C47.2792 10.8987 47.1546 11.0235 47.0188 11.1352C46.8781 11.251 46.6703 11.2306 46.5547 11.0897C46.4391 10.9488 46.4594 10.7407 46.6001 10.6249C46.7027 10.5405 46.7969 10.4462 46.8812 10.3435C46.9968 10.2026 47.2046 10.1822 47.3453 10.298ZM2.12587 11.3722C2.14351 11.1907 2.30474 11.0579 2.48599 11.0755C2.55138 11.0819 2.61776 11.0852 2.685 11.0852H2.91668C3.09879 11.0852 3.24642 11.233 3.24642 11.4154C3.24642 11.5977 3.09879 11.7456 2.91668 11.7456H2.685C2.59639 11.7456 2.50869 11.7413 2.42211 11.7328C2.24086 11.7151 2.10823 11.5537 2.12587 11.3722ZM45.8744 11.3722C45.892 11.5537 45.7594 11.7151 45.5781 11.7328C45.4916 11.7413 45.4039 11.7456 45.3153 11.7456H45.0836C44.9015 11.7456 44.7538 11.5977 44.7538 11.4154C44.7538 11.233 44.9015 11.0852 45.0836 11.0852H45.3153C45.3825 11.0852 45.4489 11.0819 45.5143 11.0755C45.6955 11.0579 45.8568 11.1907 45.8744 11.3722ZM3.97706 11.4154C3.97706 11.233 4.12469 11.0852 4.3068 11.0852H4.77018C4.95228 11.0852 5.09991 11.233 5.09991 11.4154C5.09991 11.5977 4.95228 11.7456 4.77018 11.7456H4.3068C4.12469 11.7456 3.97706 11.5977 3.97706 11.4154ZM5.83056 11.4154C5.83056 11.233 5.97818 11.0852 6.16029 11.0852H6.62367C6.80577 11.0852 6.9534 11.233 6.9534 11.4154C6.9534 11.5977 6.80577 11.7456 6.62367 11.7456H6.16029C5.97818 11.7456 5.83056 11.5977 5.83056 11.4154ZM7.68405 11.4154C7.68405 11.233 7.83167 11.0852 8.01378 11.0852H8.47715C8.65926 11.0852 8.80689 11.233 8.80689 11.4154C8.80689 11.5977 8.65926 11.7456 8.47715 11.7456H8.01378C7.83167 11.7456 7.68405 11.5977 7.68405 11.4154ZM9.53753 11.4154C9.53753 11.233 9.68516 11.0852 9.86727 11.0852H10.3306C10.5128 11.0852 10.6604 11.233 10.6604 11.4154C10.6604 11.5977 10.5128 11.7456 10.3306 11.7456H9.86727C9.68516 11.7456 9.53753 11.5977 9.53753 11.4154ZM11.391 11.4154C11.391 11.233 11.5387 11.0852 11.7208 11.0852H12.1841C12.3662 11.0852 12.5139 11.233 12.5139 11.4154C12.5139 11.5977 12.3662 11.7456 12.1841 11.7456H11.7208C11.5387 11.7456 11.391 11.5977 11.391 11.4154ZM13.2445 11.4154C13.2445 11.233 13.3921 11.0852 13.5743 11.0852H14.0376C14.2197 11.0852 14.3674 11.233 14.3674 11.4154C14.3674 11.5977 14.2197 11.7456 14.0376 11.7456H13.5743C13.3921 11.7456 13.2445 11.5977 13.2445 11.4154ZM15.098 11.4154C15.098 11.233 15.2456 11.0852 15.4277 11.0852H15.8911C16.0732 11.0852 16.2209 11.233 16.2209 11.4154C16.2209 11.5977 16.0732 11.7456 15.8911 11.7456H15.4277C15.2456 11.7456 15.098 11.5977 15.098 11.4154ZM16.9515 11.4154C16.9515 11.233 17.0991 11.0852 17.2812 11.0852H17.7446C17.9267 11.0852 18.0743 11.233 18.0743 11.4154C18.0743 11.5977 17.9267 11.7456 17.7446 11.7456H17.2812C17.0991 11.7456 16.9515 11.5977 16.9515 11.4154ZM18.805 11.4154C18.805 11.233 18.9526 11.0852 19.1347 11.0852H19.5981C19.7802 11.0852 19.9278 11.233 19.9278 11.4154C19.9278 11.5977 19.7802 11.7456 19.5981 11.7456H19.1347C18.9526 11.7456 18.805 11.5977 18.805 11.4154ZM20.6585 11.4154C20.6585 11.233 20.8061 11.0852 20.9882 11.0852H21.4516C21.6337 11.0852 21.7813 11.233 21.7813 11.4154C21.7813 11.5977 21.6337 11.7456 21.4516 11.7456H20.9882C20.8061 11.7456 20.6585 11.5977 20.6585 11.4154ZM22.512 11.4154C22.512 11.233 22.6596 11.0852 22.8417 11.0852H23.3051C23.4872 11.0852 23.6348 11.233 23.6348 11.4154C23.6348 11.5977 23.4872 11.7456 23.3051 11.7456H22.8417C22.6596 11.7456 22.512 11.5977 22.512 11.4154ZM24.3655 11.4154C24.3655 11.233 24.5131 11.0852 24.6952 11.0852H25.1586C25.3407 11.0852 25.4883 11.233 25.4883 11.4154C25.4883 11.5977 25.3407 11.7456 25.1586 11.7456H24.6952C24.5131 11.7456 24.3655 11.5977 24.3655 11.4154ZM26.2189 11.4154C26.2189 11.233 26.3666 11.0852 26.5487 11.0852H27.0121C27.1942 11.0852 27.3418 11.233 27.3418 11.4154C27.3418 11.5977 27.1942 11.7456 27.0121 11.7456H26.5487C26.3666 11.7456 26.2189 11.5977 26.2189 11.4154ZM28.0724 11.4154C28.0724 11.233 28.2201 11.0852 28.4022 11.0852H28.8655C29.0477 11.0852 29.1953 11.233 29.1953 11.4154C29.1953 11.5977 29.0477 11.7456 28.8655 11.7456H28.4022C28.2201 11.7456 28.0724 11.5977 28.0724 11.4154ZM29.9259 11.4154C29.9259 11.233 30.0735 11.0852 30.2557 11.0852H30.719C30.9011 11.0852 31.0488 11.233 31.0488 11.4154C31.0488 11.5977 30.9011 11.7456 30.719 11.7456H30.2557C30.0735 11.7456 29.9259 11.5977 29.9259 11.4154ZM31.7794 11.4154C31.7794 11.233 31.927 11.0852 32.1091 11.0852H32.5725C32.7546 11.0852 32.9023 11.233 32.9023 11.4154C32.9023 11.5977 32.7546 11.7456 32.5725 11.7456H32.1091C31.927 11.7456 31.7794 11.5977 31.7794 11.4154ZM33.6329 11.4154C33.6329 11.233 33.7805 11.0852 33.9626 11.0852H34.426C34.6081 11.0852 34.7557 11.233 34.7557 11.4154C34.7557 11.5977 34.6081 11.7456 34.426 11.7456H33.9626C33.7805 11.7456 33.6329 11.5977 33.6329 11.4154ZM35.4864 11.4154C35.4864 11.233 35.634 11.0852 35.8161 11.0852H36.2795C36.4616 11.0852 36.6092 11.233 36.6092 11.4154C36.6092 11.5977 36.4616 11.7456 36.2795 11.7456H35.8161C35.634 11.7456 35.4864 11.5977 35.4864 11.4154ZM37.3399 11.4154C37.3399 11.233 37.4875 11.0852 37.6696 11.0852H38.133C38.3151 11.0852 38.4627 11.233 38.4627 11.4154C38.4627 11.5977 38.3151 11.7456 38.133 11.7456H37.6696C37.4875 11.7456 37.3399 11.5977 37.3399 11.4154ZM39.1934 11.4154C39.1934 11.233 39.341 11.0852 39.5231 11.0852H39.9865C40.1686 11.0852 40.3162 11.233 40.3162 11.4154C40.3162 11.5977 40.1686 11.7456 39.9865 11.7456H39.5231C39.341 11.7456 39.1934 11.5977 39.1934 11.4154ZM41.0469 11.4154C41.0469 11.233 41.1945 11.0852 41.3766 11.0852H41.84C42.0221 11.0852 42.1697 11.233 42.1697 11.4154C42.1697 11.5977 42.0221 11.7456 41.84 11.7456H41.3766C41.1945 11.7456 41.0469 11.5977 41.0469 11.4154ZM42.9004 11.4154C42.9004 11.233 43.048 11.0852 43.2301 11.0852H43.6935C43.8756 11.0852 44.0232 11.233 44.0232 11.4154C44.0232 11.5977 43.8756 11.7456 43.6935 11.7456H43.2301C43.048 11.7456 42.9004 11.5977 42.9004 11.4154Z" fill="#C1D0DC"/>
</mask>
<g mask="url(#mask0_0_878)">
<rect x="-2.26196" y="-13.0191" width="52.5694" height="37.8311" fill="#E8F5FE"/>
<g opacity="0.05">
<rect x="-2.26196" y="-13.0191" width="52.5694" height="37.8311" fill="#2D2D2D"/>
</g>
</g>
</g>
<defs>
<filter id="filter0_iii_0_878" x="-3.03439" y="-2.02292" width="54.0688" height="16.8027" filterUnits="userSpaceOnUse" color-interpolation-filters="sRGB">
<feFlood flood-opacity="0" result="BackgroundImageFix"/>
<feBlend mode="normal" in="SourceGraphic" in2="BackgroundImageFix" result="shape"/>
<feColorMatrix in="SourceAlpha" type="matrix" values="0 0 0 0 0 0 0 0 0 0 0 0 0 0 0 0 0 0 127 0" result="hardAlpha"/>
<feOffset dx="-3" dy="-2"/>
<feGaussianBlur stdDeviation="2"/>
<feComposite in2="hardAlpha" operator="arithmetic" k2="-1" k3="1"/>
<feColorMatrix type="matrix" values="0 0 0 0 0 0 0 0 0 0 0 0 0 0 0 0 0 0 0.4 0"/>
<feBlend mode="normal" in2="shape" result="effect1_innerShadow_0_878"/>
<feColorMatrix in="SourceAlpha" type="matrix" values="0 0 0 0 0 0 0 0 0 0 0 0 0 0 0 0 0 0 127 0" result="hardAlpha"/>
<feOffset dx="3" dy="3"/>
<feGaussianBlur stdDeviation="1.5"/>
<feComposite in2="hardAlpha" operator="arithmetic" k2="-1" k3="1"/>
<feColorMatrix type="matrix" values="0 0 0 0 1 0 0 0 0 1 0 0 0 0 1 0 0 0 0.25 0"/>
<feBlend mode="normal" in2="effect1_innerShadow_0_878" result="effect2_innerShadow_0_878"/>
<feColorMatrix in="SourceAlpha" type="matrix" values="0 0 0 0 0 0 0 0 0 0 0 0 0 0 0 0 0 0 127 0" result="hardAlpha"/>
<feOffset dx="3" dy="3"/>
<feGaussianBlur stdDeviation="1"/>
<feComposite in2="hardAlpha" operator="arithmetic" k2="-1" k3="1"/>
<feColorMatrix type="matrix" values="0 0 0 0 1 0 0 0 0 1 0 0 0 0 1 0 0 0 0.4 0"/>
<feBlend mode="normal" in2="effect2_innerShadow_0_878" result="effect3_innerShadow_0_878"/>
</filter>
</defs>
</svg>
