<svg width="20" height="20" viewBox="0 0 20 20" fill="none" xmlns="http://www.w3.org/2000/svg">
<path fill-rule="evenodd" clip-rule="evenodd" d="M2.50033 11.6665C2.96056 11.6665 3.33366 12.0396 3.33366 12.4998V15.8332C3.33366 16.0542 3.42146 16.2661 3.57774 16.4224C3.73402 16.5787 3.94598 16.6665 4.16699 16.6665H15.8337C16.0547 16.6665 16.2666 16.5787 16.4229 16.4224C16.5792 16.2661 16.667 16.0542 16.667 15.8332V12.4998C16.667 12.0396 17.0401 11.6665 17.5003 11.6665C17.9606 11.6665 18.3337 12.0396 18.3337 12.4998V15.8332C18.3337 16.4962 18.0703 17.1321 17.6014 17.6009C17.1326 18.0698 16.4967 18.3332 15.8337 18.3332H4.16699C3.50395 18.3332 2.86807 18.0698 2.39923 17.6009C1.93038 17.1321 1.66699 16.4962 1.66699 15.8332V12.4998C1.66699 12.0396 2.04009 11.6665 2.50033 11.6665Z" fill="#2D2D2D"/>
<path fill-rule="evenodd" clip-rule="evenodd" d="M5.24408 7.74408C5.56951 7.41864 6.09715 7.41864 6.42259 7.74408L10 11.3215L13.5774 7.74408C13.9028 7.41864 14.4305 7.41864 14.7559 7.74408C15.0814 8.06951 15.0814 8.59715 14.7559 8.92259L10.5893 13.0893C10.2638 13.4147 9.73618 13.4147 9.41074 13.0893L5.24408 8.92259C4.91864 8.59715 4.91864 8.06951 5.24408 7.74408Z" fill="#2D2D2D"/>
<path fill-rule="evenodd" clip-rule="evenodd" d="M10.0003 1.6665C10.4606 1.6665 10.8337 2.0396 10.8337 2.49984V12.4998C10.8337 12.9601 10.4606 13.3332 10.0003 13.3332C9.54009 13.3332 9.16699 12.9601 9.16699 12.4998V2.49984C9.16699 2.0396 9.54009 1.6665 10.0003 1.6665Z" fill="#2D2D2D"/>
</svg>
