<svg width="10" height="10" viewBox="0 0 10 10" fill="none" xmlns="http://www.w3.org/2000/svg">
<g clip-path="url(#clip0_530_296108)">
<path fill-rule="evenodd" clip-rule="evenodd" d="M3.16686 2.70815C3.16686 1.69559 3.9877 0.874751 5.00026 0.874751C6.01281 0.874751 6.83365 1.69559 6.83365 2.70815C6.83365 3.72071 6.01281 4.54155 5.00026 4.54155C3.9877 4.54155 3.16686 3.72071 3.16686 2.70815ZM1.33878 7.28662C1.88375 5.95343 3.33912 5.04156 5.00026 5.04156C6.66139 5.04156 8.11674 5.95341 8.66173 7.28658C8.78415 7.58605 8.65773 7.8919 8.42687 8.05745C7.49337 8.72687 6.29767 9.12504 5.00023 9.12504C3.70282 9.12504 2.50714 8.72689 1.57366 8.05749C1.34279 7.89194 1.21637 7.5861 1.33878 7.28662Z" fill="#2D2D2D"/>
</g>
<defs>
<clipPath id="clip0_530_296108">
<rect width="9.33333" height="9.33333" fill="white" transform="scale(1.07147)"/>
</clipPath>
</defs>
</svg>
