<svg width="20" height="20" viewBox="0 0 20 20" fill="none" xmlns="http://www.w3.org/2000/svg">
<path fill-rule="evenodd" clip-rule="evenodd" d="M1.66699 5.00065C1.66699 4.54041 2.04009 4.16732 2.50033 4.16732H17.5003C17.9606 4.16732 18.3337 4.54041 18.3337 5.00065C18.3337 5.46089 17.9606 5.83398 17.5003 5.83398H2.50033C2.04009 5.83398 1.66699 5.46089 1.66699 5.00065Z" fill="#2D2D2D"/>
<path fill-rule="evenodd" clip-rule="evenodd" d="M8.33366 2.50065C8.11265 2.50065 7.90068 2.58845 7.7444 2.74473C7.58812 2.90101 7.50033 3.11297 7.50033 3.33398V4.16732H12.5003V3.33398C12.5003 3.11297 12.4125 2.90101 12.2562 2.74473C12.1 2.58845 11.888 2.50065 11.667 2.50065H8.33366ZM14.167 4.16732V3.33398C14.167 2.67094 13.9036 2.03506 13.4348 1.56622C12.9659 1.09738 12.33 0.833984 11.667 0.833984H8.33366C7.67062 0.833984 7.03473 1.09738 6.56589 1.56622C6.09705 2.03506 5.83366 2.67094 5.83366 3.33398V4.16732H4.16699C3.70675 4.16732 3.33366 4.54041 3.33366 5.00065V16.6673C3.33366 17.3304 3.59705 17.9662 4.06589 18.4351C4.53473 18.9039 5.17062 19.1673 5.83366 19.1673H14.167C14.83 19.1673 15.4659 18.9039 15.9348 18.4351C16.4036 17.9662 16.667 17.3304 16.667 16.6673V5.00065C16.667 4.54041 16.2939 4.16732 15.8337 4.16732H14.167ZM5.00033 5.83398V16.6673C5.00033 16.8883 5.08812 17.1003 5.2444 17.2566C5.40068 17.4129 5.61265 17.5006 5.83366 17.5006H14.167C14.388 17.5006 14.6 17.4129 14.7562 17.2566C14.9125 17.1003 15.0003 16.8883 15.0003 16.6673V5.83398H5.00033Z" fill="#2D2D2D"/>
<path fill-rule="evenodd" clip-rule="evenodd" d="M8.33366 8.33398C8.7939 8.33398 9.16699 8.70708 9.16699 9.16732V14.1673C9.16699 14.6276 8.7939 15.0006 8.33366 15.0006C7.87342 15.0006 7.50033 14.6276 7.50033 14.1673V9.16732C7.50033 8.70708 7.87342 8.33398 8.33366 8.33398Z" fill="#2D2D2D"/>
<path fill-rule="evenodd" clip-rule="evenodd" d="M11.667 8.33398C12.1272 8.33398 12.5003 8.70708 12.5003 9.16732V14.1673C12.5003 14.6276 12.1272 15.0006 11.667 15.0006C11.2068 15.0006 10.8337 14.6276 10.8337 14.1673V9.16732C10.8337 8.70708 11.2068 8.33398 11.667 8.33398Z" fill="#2D2D2D"/>
</svg>
