<svg width="270" height="270" viewBox="0 0 270 270" fill="none" xmlns="http://www.w3.org/2000/svg">
<path d="M208.844 135.156C208.72 136.587 209.255 143.683 207.419 143.456C207.328 143.433 207.242 143.395 207.165 143.343C206.01 143.957 204.734 144.31 203.428 144.374C193.929 145.189 184.42 145.729 174.916 146.367C172.162 146.453 169.548 147.069 166.854 147.387C163.873 147.425 160.914 147.819 157.928 147.652C156.966 147.533 156.124 147.474 155.228 147.301C155.173 147.295 155.119 147.278 155.071 147.251C155.023 147.224 154.981 147.187 154.948 147.143C154.915 147.098 154.891 147.048 154.879 146.994C154.866 146.94 154.865 146.884 154.875 146.83C154.885 146.776 154.907 146.724 154.938 146.678C154.969 146.633 155.009 146.594 155.056 146.565C155.103 146.535 155.155 146.516 155.21 146.508C155.264 146.5 155.32 146.503 155.373 146.518C155.809 146.603 156.249 146.66 156.691 146.691C156.48 146.183 156.691 145.368 156.615 144.86C156.561 142.857 156.162 140.88 156 138.888C155.859 136.647 156.054 134.346 155.46 132.165C155.422 131.955 155.357 131.752 155.265 131.56C155.225 131.591 155.179 131.613 155.13 131.626C155.081 131.639 155.03 131.642 154.98 131.635C154.929 131.628 154.881 131.611 154.837 131.585C154.794 131.559 154.756 131.525 154.725 131.484C154.684 131.429 154.658 131.364 154.65 131.295C154.285 131.127 153.894 131.025 153.494 130.993C153.975 131.241 154.958 131.257 154.882 131.992C154.87 132.063 154.843 132.132 154.804 132.193C154.765 132.254 154.714 132.306 154.654 132.347C154.594 132.388 154.526 132.416 154.455 132.43C154.384 132.444 154.31 132.444 154.239 132.429C151.975 131.903 149.652 131.669 147.327 131.733C143.277 131.614 139.227 131.344 135.194 131.306C129.005 131.009 122.973 132.175 116.79 131.943C116.596 131.994 116.389 131.966 116.215 131.865C116.04 131.764 115.914 131.598 115.862 131.403C115.813 131.25 115.813 131.086 115.862 130.933C114.684 130.982 113.507 131.009 112.33 130.993C103.663 130.993 95.0986 132.483 86.4533 132.888C82.6301 132.888 78.7583 132.969 74.9621 133.142C72.2702 133.546 69.5517 133.747 66.8296 133.741C66.8674 134.281 66.9106 134.821 66.9214 135.361C66.9455 135.455 66.9506 135.553 66.9363 135.648C66.922 135.744 66.8888 135.836 66.8384 135.918C66.7881 136.001 66.7217 136.072 66.6432 136.129C66.5647 136.185 66.4757 136.225 66.3814 136.247C66.2906 136.266 66.1969 136.266 66.106 136.247C65.9475 136.214 65.8048 136.128 65.701 136.004C64.621 136.15 65.161 134.125 64.9018 133.444C64.6534 131.166 64.5184 128.849 64.4212 126.576C64.4212 125.793 64.3132 124.918 64.6696 124.2C64.1296 118.47 63.9838 112.692 63.7246 106.963C63.6274 105.588 63.5464 104.211 63.4816 102.832C63.4727 102.699 63.5164 102.568 63.6032 102.467C63.6901 102.366 63.8133 102.303 63.946 102.292C64.0617 102.281 64.1773 102.313 64.27 102.384C64.2268 100.639 64.108 98.8897 63.9568 97.1455C63.9305 97.1088 63.9138 97.0661 63.9082 97.0213C63.7678 95.8603 63.6706 94.6993 63.6058 93.5329C63.4438 91.9129 63.271 90.3253 63.1144 88.7377C63.0766 86.8045 63.0551 84.8713 63.0335 82.9381C63.0011 82.3279 62.9902 81.7771 62.9794 81.1777C62.6392 75.8965 62.6284 70.6315 62.5312 65.3557C62.5312 62.8393 62.5636 60.2689 62.5312 57.7633C62.5368 57.6693 62.5789 57.5811 62.6485 57.5176C62.718 57.454 62.8097 57.4201 62.9038 57.4231C62.9511 57.4245 62.9977 57.4353 63.0407 57.4548C63.0838 57.4744 63.1226 57.5023 63.1547 57.537C63.1869 57.5717 63.2118 57.6124 63.2281 57.6568C63.2444 57.7013 63.2516 57.7485 63.2494 57.7957V58.1251C63.443 56.8234 63.8061 55.5526 64.3294 54.3451L64.027 54.4747C63.9759 54.47 63.9262 54.4552 63.8808 54.4311C63.8354 54.4071 63.7952 54.3743 63.7626 54.3346C63.73 54.2949 63.7055 54.2492 63.6907 54.2C63.6758 54.1509 63.6708 54.0992 63.676 54.0481C63.682 53.9724 63.7104 53.9001 63.7575 53.8405C63.8046 53.7809 63.8683 53.7366 63.9407 53.7133C64.2917 53.5027 64.6426 53.2813 64.9882 53.0545C65.2751 52.5751 65.5983 52.1184 65.9548 51.6883C66.0366 51.5808 66.1558 51.5078 66.2887 51.4838C66.4217 51.4598 66.5588 51.4866 66.673 51.5587C66.7319 51.6004 66.7818 51.6533 66.8198 51.7145C66.8578 51.7758 66.8832 51.844 66.8944 51.9151C67.2033 51.7581 67.5226 51.6228 67.8502 51.5101C69.8158 50.9701 71.8301 50.7865 73.8227 50.4301C73.7065 50.3598 73.6179 50.2517 73.5717 50.124C73.5255 49.9962 73.5245 49.8565 73.5689 49.7281C73.6117 49.6031 73.6936 49.4951 73.8025 49.4202C73.9114 49.3454 74.0416 49.3075 74.1736 49.3123C74.8432 49.3123 75.5128 49.4095 76.1878 49.4311C78.8819 49.3311 81.5691 49.095 84.2392 48.7237C87.328 48.4213 90.4384 48.4483 93.5326 48.2431C95.0986 48.1243 96.6646 48.2431 98.2252 48.0865C99.397 48.0163 100.677 47.7301 101.8 48.1837H102.88C104.414 48.2269 106.066 47.8219 107.54 48.3403C108.507 48.4429 111.806 47.9731 113.734 48.2053H113.837C113.837 47.6653 114.452 47.6653 114.857 47.6653C119.798 47.4277 124.761 47.5033 129.707 47.4493C134.416 47.3359 139.141 46.0237 143.85 46.7149C143.914 46.7271 143.975 46.752 144.029 46.7882C144.083 46.8243 144.129 46.871 144.165 46.9254C144.201 46.9798 144.225 47.0408 144.237 47.1048C144.249 47.1689 144.247 47.2346 144.233 47.2981C144.226 47.3476 144.21 47.3952 144.185 47.4385C147.56 47.2279 155.643 46.1371 156.648 47.3251H158.451C163.414 46.9309 168.371 46.4017 173.355 46.3261H173.404C174.152 46.3055 174.9 46.3525 175.64 46.4665C175.666 46.4603 175.694 46.4603 175.721 46.4665L177.702 46.3747C177.739 46.3309 177.784 46.2952 177.835 46.2701C177.887 46.245 177.942 46.231 177.999 46.2289C179.787 46.1965 181.574 46.0885 183.356 45.9643L185.937 45.7375C188.448 45.5377 190.986 45.4081 193.497 45.3595C195.117 45.3595 196.737 45.2353 198.39 45.2731C198.479 45.2224 198.58 45.198 198.683 45.2027C198.785 45.2075 198.884 45.2413 198.968 45.3001C199.324 45.3001 199.675 45.3433 200.048 45.3919C200.133 45.4266 200.208 45.4825 200.266 45.5543C200.323 45.6261 200.362 45.7115 200.377 45.8023C201.668 46.5475 202.478 48.0217 203.239 49.2583L203.271 49.3177C203.46 49.5499 203.639 49.7929 203.811 50.0413C204.533 51.1891 205.108 52.4227 205.523 53.7133C206.549 56.2027 206.393 58.9189 206.63 61.5487C206.825 63.5683 206.9 65.5933 206.97 67.6183C207.073 67.6252 207.168 67.6711 207.238 67.7465C207.307 67.8218 207.345 67.9209 207.343 68.0233V71.6521C207.559 75.5023 207.915 79.3417 207.764 83.1973C207.624 84.1045 208.04 87.8467 207.408 89.0023C207.408 89.6449 207.365 90.2767 207.348 90.9139V94.2835C207.392 98.5009 207.683 102.702 208.131 106.893C208.391 110.37 208.229 113.864 208.493 117.32C208.52 120.02 208.542 122.72 208.769 125.458C208.844 128.703 208.806 131.938 208.844 135.156ZM138.952 130.042C141.225 130.113 143.493 130.215 145.761 130.291C143.704 130.145 141.485 129.967 139.481 129.983L138.941 130.042H138.952Z" fill="white"/>
<path d="M162.178 143.067C161.606 142.889 161.039 142.684 160.483 142.452L160.294 142.371C160.261 141.588 160.234 140.81 160.218 140.027C160.206 138.533 160.052 137.043 159.759 135.578C159.496 134.248 158.926 132.998 158.096 131.927C157.626 131.346 157.097 130.814 156.519 130.34C155.814 129.719 155.034 129.19 154.197 128.763C153.64 128.493 153.065 128.266 152.474 128.082C152.348 128.013 152.218 127.95 152.086 127.893C151.141 127.485 150.151 127.191 149.137 127.019C147.953 126.825 146.756 126.726 145.557 126.722C143.219 126.651 140.886 126.484 138.537 126.516C133.85 126.587 129.163 126.56 124.465 126.56C123.233 126.56 121.997 126.56 120.76 126.592C119.351 126.63 117.952 126.705 116.543 126.776C114.151 126.894 111.753 127.051 109.355 127.191H109.042H109.118L108.356 127.235H108.675L105.77 127.418C100.91 127.731 96.0174 128.082 91.1412 128.363C88.6842 128.504 86.2272 128.568 83.7756 128.66C81.513 128.741 79.2612 128.822 77.004 128.844C74.7468 128.865 72.4896 128.687 70.2324 128.763L69.1524 128.801C69.0606 127.132 68.958 125.458 68.7906 123.8C68.5206 121.219 68.2074 118.643 67.9158 116.067C67.6782 113.907 67.3758 111.791 67.1922 109.641C66.9492 106.941 66.7656 104.274 66.6036 101.579C66.4416 98.8846 66.2094 96.2548 66.0636 93.5872C65.9178 90.9196 65.7126 88.387 65.583 85.7788C65.4534 83.1706 65.3454 80.4274 65.259 77.7544C65.2617 77.7185 65.2617 77.6824 65.259 77.6464V77.4844L65.2266 75.7672C65.2266 73.6396 65.3562 71.5174 65.502 69.3898C65.6528 67.3587 65.9178 65.3377 66.2958 63.3364C66.366 63.007 66.4416 62.683 66.5118 62.359C66.7771 61.2398 67.0998 60.135 67.4784 59.0488L67.3434 59.389L67.5216 58.9408C67.7862 58.3306 68.0616 57.7528 68.4072 57.1804C68.7096 56.689 69.0174 56.2084 69.3576 55.744C69.5628 55.4902 69.7788 55.2526 70.0056 55.015C70.2324 54.7774 70.3674 54.6964 70.5456 54.5398C70.8156 54.3526 71.091 54.1726 71.3718 53.9998C71.9118 53.7244 72.4518 53.4598 72.9918 53.2114C74.5614 52.5922 76.1508 52.0162 77.76 51.4834C78.9966 51.3754 80.2332 51.3052 81.4698 51.2296C84.6126 51.073 87.7662 51.0676 90.9144 51.0082C94.0626 50.9488 97.065 50.8732 100.143 50.7814C104.771 50.6464 109.399 50.4574 114.026 50.4574C116.267 50.4574 118.514 50.4898 120.749 50.6356C123.082 50.7868 125.404 50.9812 127.732 51.1756C130.21 51.3538 132.683 51.397 135.167 51.3538C137.36 51.3214 139.552 51.2458 141.745 51.1756C146.54 51.0172 151.33 50.8174 156.114 50.5762H155.779L157.907 50.4736L160.067 50.3764C161.897 50.3332 163.723 50.3008 165.553 50.29C167.384 50.2792 169.074 50.29 170.834 50.2522C173.183 50.1874 175.527 50.1064 177.881 50.0794C180.236 50.0524 182.525 49.9822 184.853 49.9012C189.362 49.7446 193.882 49.588 198.396 49.6258L198.509 49.6636C198.682 49.723 198.844 49.804 199.012 49.8742C199.179 49.9444 199.46 50.128 199.676 50.2576C199.897 50.7436 200.081 51.2404 200.275 51.7372C200.561 52.5958 200.815 53.4544 201.031 54.3346C201.344 55.7062 201.609 57.0778 201.787 58.4764C202.144 61.4032 202.327 64.33 202.495 67.2676C202.667 71.4112 202.792 75.5512 202.867 79.6876C202.916 83.0842 202.981 86.4808 202.986 89.872C202.986 93.031 203.105 96.1846 203.229 99.3382V98.917C203.386 103.35 203.515 107.778 203.548 112.217C203.548 116.494 203.499 120.771 203.548 125.048C203.548 127.11 203.596 129.173 203.602 131.241C203.602 133.099 203.521 134.946 203.396 136.798C203.359 137.203 203.337 137.613 203.267 138.008C203.197 138.402 203.116 138.812 203.045 139.212L202.937 139.611L202.786 139.741L202.619 139.876C200.308 140.15 198 140.421 195.696 140.691C194 140.87 192.305 141.048 190.615 141.231C188.789 141.404 186.964 141.55 185.139 141.696C181.683 141.971 178.222 142.155 174.766 142.333C171.158 142.517 167.551 142.689 163.966 143.035L163.031 143.138L162.178 143.067ZM198.455 49.6798L198.639 49.7446L198.455 49.6798ZM206.059 57.3478H206.113C206.15 57.58 206.183 57.8176 206.215 58.0552C206.167 57.8284 206.113 57.5908 206.059 57.3478Z" fill="#FF8B6A"/>
<path d="M129.762 110.883C129.503 110.83 129.257 110.726 129.039 110.575C128.911 110.484 128.803 110.368 128.72 110.235C128.24 110.424 127.775 110.656 127.284 110.818C127.124 110.865 126.953 110.86 126.796 110.805C126.639 110.749 126.503 110.646 126.408 110.51C126.312 110.374 126.261 110.211 126.262 110.045C126.263 109.878 126.317 109.716 126.414 109.582C126.078 109.742 125.706 109.813 125.334 109.787C125.169 109.746 125.021 109.652 124.916 109.517C124.81 109.383 124.753 109.218 124.753 109.047C124.753 108.876 124.81 108.711 124.916 108.577C125.021 108.442 125.169 108.348 125.334 108.307V108.253C124.627 108.383 123.601 109.02 123.174 108.14C123.093 107.94 123.091 107.717 123.17 107.516C123.248 107.315 123.4 107.152 123.596 107.06C123.644 107.038 123.695 107.022 123.747 107.011C123.288 106.871 122.883 106.606 122.899 106.072C122.953 105.796 123.045 105.44 123.369 105.375C123.685 105.378 124 105.399 124.314 105.44C128.04 105.672 131.809 104.867 135.497 104.479C138.737 104.16 141.939 103.987 145.098 103.193C145.87 102.988 146.629 102.739 147.372 102.448C147.577 102.344 147.806 102.297 148.035 102.31C148.265 102.323 148.487 102.397 148.679 102.524C149.278 103.129 148.63 103.863 148.009 104.117C147.906 104.516 147.383 104.5 147.053 104.603C143.262 105.801 139.344 106.553 135.378 106.844C135.334 106.996 135.233 107.125 135.098 107.206C133.71 107.972 132.29 108.685 130.848 109.366C132.3 109.155 133.731 108.826 135.168 108.647C135.194 108.565 135.247 108.494 135.318 108.445C135.39 108.396 135.476 108.372 135.562 108.377C136.102 108.377 136.642 108.458 137.209 108.507C137.371 108.507 137.527 108.571 137.642 108.685C137.758 108.8 137.823 108.955 137.825 109.117C137.826 109.204 137.809 109.289 137.775 109.369C137.74 109.448 137.689 109.519 137.625 109.576C137.415 109.719 137.193 109.842 136.961 109.943C135.491 110.441 133.966 110.759 132.419 110.888C131.539 111.033 130.642 111.031 129.762 110.883Z" fill="white"/>
<path d="M132.699 110.646C131.399 110.466 130.128 110.116 128.919 109.604C128.69 109.491 128.508 109.299 128.406 109.064C128.381 108.985 128.372 108.901 128.379 108.818C128.387 108.735 128.41 108.654 128.449 108.581C128.488 108.507 128.541 108.441 128.605 108.388C128.669 108.335 128.743 108.295 128.822 108.27H128.908C129.297 108.184 129.448 108.546 129.762 108.632C130.178 108.313 130.645 108.066 131.144 107.903C130.064 105.554 144.698 104.55 146.399 103.119C146.507 103.058 146.626 103.02 146.749 103.006C146.872 102.992 146.996 103.002 147.115 103.036C147.234 103.071 147.345 103.128 147.442 103.205C147.539 103.282 147.619 103.378 147.679 103.486C147.703 103.527 147.723 103.57 147.738 103.615C147.976 104.204 147.285 104.695 146.966 104.998C145.772 106.175 144.458 107.225 143.046 108.13C139.984 109.993 136.301 111.24 132.699 110.646Z" fill="white"/>
<path d="M133.142 119.772C131.009 119.626 128.778 119.232 126.926 118.152C125.846 117.164 124.556 116.494 123.686 115.296C123.249 114.885 122.606 114.507 122.606 113.832C122.596 113.553 122.685 113.279 122.857 113.059C123.029 112.839 123.273 112.686 123.546 112.628C124.042 112.172 124.585 111.77 125.166 111.429C126.726 110.808 128.341 109.615 130.069 109.809C130.137 109.848 130.196 109.9 130.244 109.961C130.291 110.023 130.326 110.094 130.346 110.169C130.367 110.244 130.371 110.323 130.361 110.4C130.35 110.478 130.325 110.552 130.285 110.619C130.21 110.749 130.089 110.845 129.946 110.89C129.802 110.934 129.648 110.922 129.513 110.857C127.806 111.672 126.392 113.017 124.745 113.913C125.73 114.938 126.803 115.874 127.952 116.71C128.523 116.922 129.106 117.103 129.696 117.25C131.635 117.871 133.806 117.488 135.68 118.249C136.997 119.578 133.989 119.88 133.142 119.772Z" fill="white"/>
<path d="M143.202 113.146C143.958 113.924 142.3 115.112 141.803 115.668C144.282 114.41 146.047 112.088 147.743 109.993C145.956 109.993 143.963 109.582 142.219 109.782C141.039 109.914 139.881 110.19 138.768 110.603C138.666 110.798 138.525 110.969 138.352 111.105L138.288 111.17C139.092 111.316 138.714 112.131 138.336 112.536C138.784 112.142 139.621 112.104 139.702 112.833C139.869 112.808 140.04 112.838 140.188 112.92C140.365 113.014 140.498 113.172 140.561 113.362C140.744 113.184 140.989 113.084 141.244 113.084C141.499 113.084 141.745 113.184 141.927 113.362C142.305 113.109 142.797 112.758 143.202 113.146ZM134.718 119.454C133.735 119.454 132.742 119.13 131.797 119.2C131.68 119.311 131.527 119.376 131.366 119.382C131.205 119.387 131.047 119.334 130.923 119.232C130.799 119.129 130.716 118.985 130.691 118.826C130.666 118.667 130.7 118.504 130.787 118.368C129.853 119.373 128.503 118.401 129.459 117.288C128.973 117.828 127.893 117.731 127.839 116.899C127.417 117.267 126.829 117.726 126.278 117.321C126.098 117.184 125.977 116.985 125.938 116.762C125.899 116.54 125.945 116.311 126.067 116.122C125.101 116.446 124.852 115.339 125.463 114.734C124.782 115.193 123.783 114.815 124.123 113.897C124.464 112.979 125.365 112.482 126.046 111.845C126.509 111.293 127.019 110.782 127.569 110.317C128.719 109.663 130.161 110.198 131.435 109.95C133.26 109.847 135.069 109.558 136.835 109.086C139.319 108.384 141.733 107.466 144.352 107.676C145.815 107.773 147.225 108.259 148.672 108.416C150.335 108.508 150.103 109.761 149.158 110.7C147.635 112.525 146.323 114.577 144.433 116.068C141.668 118.255 138.282 119.713 134.713 119.437L134.718 119.454Z" fill="white"/>
<path d="M140.676 117.061C140.585 117.052 140.497 117.025 140.417 116.982C140.337 116.94 140.266 116.882 140.208 116.811C140.151 116.741 140.107 116.66 140.081 116.573C140.055 116.486 140.046 116.395 140.055 116.305C140.052 116.276 140.052 116.247 140.055 116.218C140.281 115.613 140.881 115.235 141.345 114.814C141.197 114.922 141.025 114.991 140.843 115.014C140.716 115.022 140.589 114.996 140.476 114.938C140.368 115.125 140.19 115.261 139.981 115.317C139.773 115.372 139.55 115.343 139.363 115.235C139.184 115.135 139.05 114.968 138.991 114.771C138.93 114.756 138.872 114.732 138.818 114.701C138.698 114.635 138.596 114.541 138.52 114.427C138.443 114.314 138.396 114.183 138.381 114.047C138.23 114.064 138.078 114.043 137.938 113.986C137.797 113.93 137.673 113.84 137.576 113.723C137.49 113.62 137.429 113.499 137.396 113.37C137.364 113.24 137.36 113.104 137.387 112.973L137.338 112.94C137.152 113.132 136.898 113.241 136.631 113.245C136.364 113.248 136.107 113.145 135.916 112.959C135.724 112.773 135.615 112.519 135.611 112.252C135.608 111.985 135.71 111.728 135.897 111.536C135.941 111.491 135.99 111.449 136.042 111.412C136.582 111.104 137.214 110.98 137.76 110.683C138.462 110.068 139.482 108.966 140.46 109.457C141.091 109.204 141.88 108.426 142.533 108.977C143.116 108.604 144.153 107.54 144.661 108.55C144.823 108.575 144.969 108.66 145.071 108.788C145.187 108.93 145.243 109.112 145.228 109.295C145.47 109.089 145.732 108.909 146.011 108.755C146.093 108.72 146.181 108.701 146.27 108.699C146.359 108.698 146.448 108.715 146.531 108.748C146.614 108.781 146.689 108.83 146.753 108.893C146.816 108.955 146.867 109.03 146.902 109.112C146.95 109.226 146.967 109.351 146.95 109.474C147.193 109.322 147.701 109.052 147.809 109.474C147.987 109.636 147.858 109.884 147.809 110.068C147.194 111.485 146.308 112.769 145.201 113.848C144.14 114.858 143.001 115.783 141.793 116.612C141.481 116.882 141.088 117.04 140.676 117.061ZM165.159 90.579C165.197 90.0768 165.597 89.6934 165.634 89.1966C165.582 88.5101 165.385 87.8423 165.058 87.2367C164.731 86.631 164.279 86.1011 163.734 85.6812C162.715 85.1252 161.553 84.8872 160.398 84.9979C159.243 85.1086 158.148 85.5629 157.254 86.3022C156.873 86.8088 156.432 87.2675 155.941 87.6684C155.391 88.5859 154.954 89.5669 154.64 90.5898C154.601 90.7534 154.5 90.8952 154.357 90.9842C154.215 91.0732 154.043 91.1022 153.879 91.065C152.556 90.6762 154.478 88.068 154.743 87.285C154.816 87.0122 154.985 86.7747 155.218 86.6154C156.024 85.6689 156.952 84.8336 157.977 84.1314C160.677 82.9218 164.457 83.0514 166.353 85.6056C166.952 86.5478 167.377 87.5905 167.605 88.6836C167.703 89.2494 167.596 89.8312 167.304 90.3257C167.012 90.8201 166.555 91.1949 166.012 91.3836C165.836 91.4355 165.645 91.4152 165.483 91.3272C165.321 91.2391 165.201 91.0905 165.148 90.9138C165.122 90.8038 165.122 90.689 165.148 90.579H165.159Z" fill="white"/>
<path d="M157.081 94.9695C152.296 95.0019 152.761 90.2499 154.629 87.2259C155.007 86.6859 155.79 87.3771 155.304 87.8145C154.948 89.4669 154.1 91.5405 155.347 92.9931C157.766 94.2729 160.407 92.4531 162.815 91.9725C163.269 91.8537 164.781 91.4325 164.349 92.3613C162.341 94.1151 159.746 95.0466 157.081 94.9695Z" fill="white"/>
<path d="M155.681 93.96C154.504 93.3228 154.186 91.9134 154.245 90.6822C154.321 89.9964 154.034 88.6464 155.12 88.7922C156.043 89.073 155.363 90.0612 155.563 90.774C155.838 92.6964 156.848 92.394 158.371 92.7234C158.445 92.752 158.512 92.795 158.57 92.85C158.627 92.905 158.673 92.9709 158.705 93.0437C158.736 93.1166 158.753 93.195 158.754 93.2744C158.755 93.3538 158.741 93.4327 158.711 93.5064C158.695 93.5504 158.673 93.5922 158.646 93.6306C158.003 94.635 156.567 94.5 155.681 93.96ZM161.422 91.935C161.233 91.2546 161.611 90.6012 161.805 89.964C162.151 88.9655 162.112 87.8739 161.697 86.9022C161.476 86.1624 160.752 85.779 160.558 85.0662C160.487 84.5262 161.33 84.4506 161.26 85.0014C165.596 87.156 163.079 94.4298 161.422 91.935Z" fill="white"/>
<path d="M162.94 91.3519C163.005 90.7204 163.188 90.1067 163.48 89.5429C163.618 88.8657 163.611 88.1667 163.459 87.4925C163.306 86.8183 163.011 86.1845 162.594 85.6333C162.501 85.5333 162.433 85.4125 162.397 85.2809C162.36 85.1494 162.355 85.0109 162.383 84.8773C162.545 84.2833 163.534 84.3373 163.463 85.0177C165.332 86.2759 166.25 89.0731 165.17 91.1143C164.7 92.1781 163.253 92.8423 162.94 91.3519Z" fill="white"/>
<path d="M162.636 91.692C162.345 91.0386 162.761 90.2394 162.685 89.5968C162.728 88.3926 161.913 87.6258 161.416 86.7132C161.119 85.779 160.233 85.482 159.575 84.8718C159.428 84.6904 159.339 84.4702 159.316 84.2384C159.294 84.0066 159.339 83.7732 159.448 83.5671C159.556 83.361 159.723 83.1912 159.927 83.0786C160.131 82.9659 160.363 82.9154 160.595 82.9332C162.42 83.3814 163.635 85.2012 164.408 86.8104C164.64 87.1636 164.753 87.5816 164.732 88.0038C165.034 89.2944 165.272 90.9738 164.024 91.854C163.619 92.1618 162.842 92.34 162.636 91.692Z" fill="white"/>
<path d="M162.033 93.0476C161.266 92.2592 163.226 90.7958 163.393 89.9642C163.392 89.7379 163.475 89.5192 163.628 89.3522C163.781 89.1851 163.991 89.082 164.217 89.0635C164.442 89.0451 164.667 89.1126 164.844 89.2527C165.022 89.3927 165.14 89.5948 165.175 89.8184C165.192 89.9077 165.192 89.9991 165.175 90.0884C164.856 91.0179 164.297 91.8468 163.555 92.4914C163.129 92.8478 162.594 93.5498 162.033 93.0476Z" fill="white"/>
<path d="M158.317 94.9856C157.61 94.8884 156.924 94.6778 156.216 94.5644C156.095 94.5336 155.99 94.4566 155.924 94.3496C155.859 94.2427 155.838 94.1143 155.865 93.992C155.879 93.9311 155.904 93.8735 155.94 93.8225C155.976 93.7715 156.022 93.7282 156.074 93.695C156.127 93.6618 156.186 93.6395 156.247 93.6293C156.309 93.6191 156.372 93.6212 156.432 93.6356C157.944 93.8516 159.424 93.1658 160.92 92.9714C163.08 92.2532 165.288 91.2866 166.498 89.2184C166.471 88.7864 166.147 88.2194 166.606 87.9224C167.54 87.539 168.005 89.0024 167.826 89.699C167.475 91.4648 165.963 92.6852 164.559 93.6626C162.637 94.6292 160.434 94.8722 158.317 94.9856Z" fill="white"/>
<path d="M164.193 90.9144C164.036 90.6918 163.968 90.4177 164.004 90.1472C164.04 89.8767 164.177 89.6299 164.388 89.4564C164.535 89.3455 164.659 89.2061 164.752 89.0466C164.844 88.8871 164.904 88.7106 164.928 88.5276C164.765 88.4042 164.657 88.2218 164.628 88.0197C164.599 87.8176 164.65 87.6121 164.771 87.4476C164.808 87.4036 164.848 87.3621 164.89 87.3234C165.543 86.7834 166.386 87.5664 166.348 88.2792C166.443 88.2997 166.533 88.3388 166.613 88.3941C166.693 88.4494 166.761 88.52 166.814 88.6018C166.867 88.6835 166.903 88.7748 166.92 88.8705C166.937 88.9662 166.936 89.0644 166.915 89.1594C166.899 89.2224 166.877 89.2839 166.85 89.343C166.697 89.6064 166.516 89.8526 166.31 90.0774C165.781 90.6444 164.955 91.7352 164.193 90.9144ZM161.461 90.72C159.949 89.91 161.898 87.7176 162.26 86.6484C161.374 86.7942 160.64 88.0362 159.668 87.5772C159.576 87.527 159.496 87.4592 159.43 87.3777C159.365 87.2962 159.316 87.2026 159.287 87.1022C159.258 87.0019 159.249 86.8968 159.261 86.793C159.272 86.6892 159.304 86.5887 159.355 86.4972C159.437 86.355 159.559 86.2403 159.706 86.1678C159.916 86.0706 160.122 85.968 160.316 85.8654C161.202 85.374 162.244 84.7854 163.281 85.104C164.506 85.3146 165.225 88.101 163.491 87.9606C163.162 88.8894 162.816 91.1088 161.461 90.72ZM98.8695 96.6276C98.8565 96.4454 98.8986 96.2635 98.9902 96.1054C99.0818 95.9473 99.2187 95.8204 99.3832 95.741C99.5478 95.6616 99.7324 95.6334 99.9131 95.6601C100.094 95.6868 100.262 95.7671 100.397 95.8907C100.532 96.0142 100.626 96.1753 100.668 96.3531C100.71 96.5309 100.698 96.7173 100.633 96.888C100.567 97.0587 100.453 97.2059 100.303 97.3107C100.153 97.4154 99.9756 97.4728 99.7929 97.4754C99.5598 97.4788 99.3343 97.3928 99.1626 97.2352C98.9909 97.0775 98.886 96.8601 98.8695 96.6276Z" fill="white"/>
<path d="M111.684 97.2803C111.376 96.5999 111.759 95.9952 111.603 95.3202C111.365 94.0728 111.387 92.4149 110.296 91.5941C109.605 90.9515 108.676 90.8381 107.828 90.6491C107.007 90.5951 106.165 90.3899 105.398 90.7679C103.541 91.1945 102.423 93.0467 101.456 94.5479C100.868 95.4551 101.046 97.6637 99.5608 97.4369C98.308 97.0859 99.0208 95.7143 99.2476 94.8611C99.5346 93.6722 100.089 92.5642 100.868 91.6211C101.712 90.3656 102.929 89.4064 104.347 88.8785C105.765 88.3506 107.313 88.2805 108.773 88.6781C109.718 88.8941 110.793 88.9374 111.473 89.6934C112.003 90.0245 112.422 90.5057 112.677 91.0757C113.633 92.847 114.773 96.4758 112.397 97.599C112.259 97.6421 112.111 97.6335 111.98 97.5748C111.848 97.5161 111.743 97.4114 111.684 97.2803Z" fill="white"/>
<path d="M103.999 99.0307C102.055 99.0307 99.3118 98.7283 98.7502 96.4927C98.748 96.3899 98.7662 96.2877 98.8036 96.1919C98.841 96.096 98.8968 96.0085 98.9681 95.9343C99.0393 95.8601 99.1244 95.8006 99.2186 95.7593C99.3127 95.718 99.4141 95.6957 99.517 95.6935C99.6198 95.6914 99.722 95.7095 99.8178 95.7469C99.9137 95.7843 100.001 95.8402 100.075 95.9114C100.15 95.9826 100.209 96.0677 100.25 96.1619C100.292 96.2561 100.314 96.3575 100.316 96.4603C103.086 98.4853 106.758 96.7195 109.88 97.0381C109.936 97.0519 109.99 97.077 110.037 97.1118C110.084 97.1466 110.123 97.1905 110.153 97.2409C110.183 97.2912 110.202 97.347 110.21 97.4049C110.217 97.4628 110.214 97.5217 110.198 97.5781C110.18 97.6488 110.145 97.7138 110.096 97.7671C109.935 97.923 109.753 98.0557 109.556 98.1613C107.833 98.9443 105.84 99.0361 103.999 99.0307Z" fill="white"/>
<path d="M103.307 98.3718C103.164 98.3309 103.028 98.269 102.902 98.1882C102.683 98.3031 102.435 98.3539 102.188 98.3348C101.94 98.3157 101.703 98.2275 101.504 98.0802C101.424 98.0203 101.352 97.9514 101.288 97.875C101.076 97.9183 100.856 97.9074 100.649 97.8432C100.443 97.779 100.255 97.6636 100.105 97.5078C98.7389 96.9138 99.6947 95.8014 100.402 95.1048C101.575 93.3214 102.962 91.6892 104.533 90.2448C104.992 89.7912 105.667 89.2782 106.326 89.6508C106.548 89.7727 106.712 89.9777 106.783 90.2206C106.854 90.4636 106.825 90.7247 106.704 90.9468C106.704 90.9792 106.666 91.0062 106.65 91.0332C106.461 91.2816 106.267 91.5246 106.067 91.7676C106.342 92.5236 105.586 93.0312 105.219 93.5874C105.759 93.2364 106.51 92.7234 107.039 93.3606C107.114 93.4576 107.169 93.5684 107.2 93.6867C107.232 93.805 107.24 93.9285 107.224 94.0499C107.208 94.1714 107.168 94.2885 107.107 94.3945C107.045 94.5004 106.963 94.5932 106.866 94.6674C107.048 94.6893 107.22 94.7605 107.365 94.8734C107.509 94.9863 107.62 95.1366 107.685 95.3079C107.75 95.4792 107.767 95.6651 107.734 95.8453C107.701 96.0256 107.619 96.1934 107.498 96.3306C107.077 96.6924 106.617 97.0057 106.126 97.2648C105.251 97.7832 104.366 98.7228 103.307 98.3718Z" fill="white"/>
<path d="M101.013 98.145C99.933 98.0316 99.1123 96.8868 99.0312 95.8554C99.0376 95.7306 99.0904 95.6126 99.1791 95.5246C99.2678 95.4366 99.3862 95.3848 99.5111 95.3794C99.636 95.374 99.7584 95.4153 99.8544 95.4954C99.9504 95.5754 100.013 95.6884 100.03 95.8122C100.147 96.3667 100.474 96.8544 100.943 97.173C101.159 97.362 101.537 97.551 101.407 97.8912C101.377 97.9702 101.323 98.0374 101.252 98.0831C101.181 98.1288 101.097 98.1505 101.013 98.145Z" fill="white"/>
<path d="M104.792 99.5436C102.891 99.5484 101.055 98.8525 99.6353 97.5888C99.2735 97.2918 98.5229 96.5951 99.2249 96.2603C99.2777 96.2417 99.3337 96.2338 99.3896 96.237C99.4455 96.2403 99.5001 96.2547 99.5504 96.2793C99.6007 96.3039 99.6456 96.3383 99.6824 96.3805C99.7192 96.4227 99.7473 96.4718 99.7649 96.525C100.888 97.6698 102.611 97.8048 104.133 97.8696C105.254 97.9082 106.375 97.8794 107.492 97.7832C108.158 97.6311 108.848 97.6219 109.517 97.7562C109.987 97.9776 109.582 98.4527 109.301 98.6471C107.967 99.4841 106.315 99.576 104.792 99.5436Z" fill="white"/>
<path d="M106.746 98.7007C106.746 98.2687 107.205 98.2633 107.524 98.2363C108.394 98.0912 109.232 97.7971 110.002 97.3669C109.933 96.7782 110.091 96.1852 110.444 95.7093C110.797 95.2334 111.319 94.9107 111.903 94.8073C112.129 94.7985 112.348 94.8794 112.514 95.0322C112.68 95.185 112.779 95.3973 112.789 95.6227C112.797 95.6963 112.797 95.7705 112.789 95.8441C112.749 96.0004 112.669 96.1437 112.556 96.2599C112.596 96.33 112.62 96.4081 112.625 96.4884C112.631 96.5688 112.618 96.6494 112.589 96.7243C112.545 96.8526 112.464 96.9652 112.357 97.0483V97.1995C112.351 97.4215 112.281 97.6371 112.154 97.8195C112.028 98.0019 111.85 98.1431 111.644 98.2255C110.602 98.9113 109.343 98.8789 108.15 98.9869C107.664 98.9761 106.843 99.3595 106.746 98.7007Z" fill="white"/>
<path d="M102.789 99.5916C100.926 99.5106 98.7606 98.2632 98.9712 96.1572C98.9257 96.0966 98.8935 96.027 98.8767 95.953C98.8599 95.8791 98.8589 95.8025 98.8736 95.7281C98.8884 95.6537 98.9187 95.5833 98.9625 95.5214C99.0063 95.4595 99.0626 95.4075 99.1278 95.3688C99.2438 95.2857 99.3867 95.2494 99.5283 95.2671C99.6698 95.2847 99.7995 95.3551 99.8915 95.4641C99.9834 95.5731 100.031 95.7127 100.025 95.8552C100.018 95.9977 99.9582 96.1325 99.8568 96.2328C100.219 98.2308 102.605 98.1552 104.177 98.004C105.656 97.8906 107.163 98.112 108.621 97.7826C109.376 97.6371 110.095 97.3455 110.738 96.924C110.979 96.7168 111.266 96.5712 111.576 96.4997C111.885 96.4282 112.207 96.433 112.514 96.5136C113.054 96.3462 112.914 97.0914 112.817 97.4046C112.645 97.6786 112.419 97.9153 112.154 98.1008C111.889 98.2863 111.589 98.4168 111.272 98.4846C108.583 99.5052 105.662 99.6672 102.789 99.5916Z" fill="white"/>
<path d="M105.808 99.5058C104.923 99.3276 99.8682 99.198 100.667 97.686C101.008 97.2324 101.542 97.5456 101.747 97.9344C102.649 98.1072 103.648 98.1072 104.534 98.2368C105.721 98.277 106.909 98.1864 108.076 97.9668C108.854 97.9128 109.696 97.4754 110.436 97.7778C112.115 99.4302 106.667 99.7542 105.808 99.5058Z" fill="white"/>
<path d="M106.656 99.6348C105.323 99.6224 104.001 99.4038 102.735 98.9868C102.693 98.9696 102.654 98.9442 102.622 98.9121C102.589 98.8799 102.564 98.8416 102.546 98.7994C102.529 98.7572 102.52 98.712 102.52 98.6663C102.52 98.6206 102.529 98.5753 102.546 98.5332C102.58 98.4505 102.644 98.3837 102.725 98.3466C102.807 98.3095 102.899 98.3048 102.984 98.3334C103.825 98.5762 104.707 98.646 105.576 98.5386C106.88 98.589 108.184 98.4174 109.431 98.031C110.29 97.599 111.348 97.5396 111.926 96.6972C112.174 96.2382 112.234 95.6658 112.682 95.3418C112.738 95.2926 112.803 95.2555 112.874 95.2329C112.945 95.2102 113.02 95.2024 113.094 95.21C113.168 95.2176 113.24 95.2404 113.304 95.2771C113.369 95.3137 113.426 95.3633 113.47 95.4228C113.515 95.4757 113.55 95.536 113.573 95.601C114.291 98.8194 108.951 99.7536 106.656 99.6348ZM160.742 94.9962C159.765 95.0394 158.809 94.8072 157.837 94.818C157.158 94.823 156.482 94.7321 155.828 94.548C155.739 94.5786 155.644 94.5912 155.55 94.5853C155.456 94.5793 155.364 94.5548 155.279 94.5132C155.194 94.4715 155.118 94.4136 155.056 94.3426C154.994 94.2717 154.946 94.1892 154.915 94.0998C154.886 94.0166 154.874 93.9286 154.878 93.8406C154.898 93.6627 154.988 93.5001 155.127 93.3879C155.267 93.2757 155.445 93.223 155.623 93.2412H155.693C155.876 93.3096 156.07 93.3444 156.265 93.3438C157.772 93.0576 159.273 93.5652 160.78 93.4626C162.548 93.3709 164.293 93.0197 165.958 92.4204C166.66 91.848 166.498 90.876 166.536 90.0714C166.349 89.7373 166.226 89.3709 166.174 88.9914C166.255 87.5874 167.843 87.8196 168.334 88.878C169.015 89.904 168.788 91.362 168.194 92.3772L168.264 92.2746C166.779 94.8018 163.329 94.8018 160.742 94.9962ZM185.49 140.021C179.88 139.984 174.15 140.2 168.691 138.763C168.26 138.676 167.847 138.515 167.47 138.288C166.963 137.926 166.866 137.278 166.633 136.749C166.428 136.261 166.304 135.743 166.266 135.215C166.066 134.632 165.911 134.035 165.802 133.428C165.262 131.705 164.857 130.004 164.387 128.293C163.917 126.581 163.62 124.199 165.008 122.822C165.242 122.403 165.576 122.048 165.98 121.789C166.384 121.53 166.846 121.375 167.325 121.337C169.657 120.754 172.006 121.121 174.345 121.251C179.853 121.629 185.533 121.111 190.842 122.871C191.257 122.957 191.657 123.136 191.571 123.605C191.536 123.741 191.45 123.857 191.332 123.931C191.213 124.004 191.07 124.029 190.933 124C188.633 123.53 186.214 123.659 183.87 123.46C180.312 123.384 176.748 123.46 173.189 123.26C171.029 123.114 166.493 122.18 165.834 125.02C165.618 126.003 166.012 126.926 166.266 127.855C166.644 129.184 166.941 130.555 167.346 131.851C168.032 133.471 167.778 135.318 168.556 136.911C171.137 137.991 173.956 137.991 176.715 137.991C180.301 138.131 183.859 138.034 187.429 137.921C187.63 137.942 187.82 138.025 187.973 138.158C188.125 138.292 188.233 138.469 188.281 138.666C188.329 138.863 188.314 139.07 188.24 139.258C188.166 139.447 188.035 139.608 187.866 139.719C187.197 140.189 186.3 140.032 185.49 140.021Z" fill="white"/>
<path d="M186.743 139.687C186.587 139.562 186.467 139.399 186.394 139.213C186.32 139.027 186.297 138.825 186.326 138.628C186.355 138.43 186.435 138.244 186.559 138.086C186.682 137.929 186.844 137.807 187.029 137.732C187.991 135.626 189 133.483 190.113 131.431C190.866 129.754 191.491 128.023 191.981 126.252C192.088 125.732 191.996 125.19 191.723 124.734C191.45 124.278 191.016 123.941 190.507 123.79C188.768 123.282 186.878 123.25 185.188 122.683C185.136 122.687 185.085 122.7 185.037 122.72C184.605 122.72 184.653 122.18 185.107 122.18C187.645 121.343 192.667 121.327 193.92 124.168C194.676 125.539 194.26 127.197 193.785 128.59C193.477 129.62 193.116 130.632 192.705 131.625C191.9 133.499 190.896 135.286 189.918 137.068C189.54 138.407 188.46 140.632 186.743 139.687Z" fill="white"/>
<path d="M189.687 139.979C189.118 139.878 188.609 139.565 188.262 139.104C188.185 138.978 188.134 138.837 188.111 138.691C188.089 138.546 188.095 138.397 188.13 138.253C188.165 138.11 188.228 137.975 188.316 137.855C188.403 137.736 188.513 137.636 188.64 137.559C188.78 137.47 188.94 137.414 189.105 137.396C189.271 137.378 189.439 137.399 189.595 137.457C191.026 138.429 191.48 136.679 192.036 135.686C194.353 130.939 196.318 126.025 198.446 121.197C199.099 119.61 200.142 118.179 200.822 116.618C201.276 115.652 201.54 114.707 200.077 114.788C199.961 114.815 199.853 114.867 199.76 114.941C199.666 115.015 199.59 115.108 199.537 115.214C198.882 116.232 198.375 117.337 198.03 118.497C197.247 120.809 196.286 123.033 195.395 125.274C195.017 126.198 194.412 127.002 193.996 127.904C193.958 127.983 193.904 128.053 193.839 128.11C193.773 128.168 193.696 128.212 193.614 128.24C193.531 128.268 193.443 128.28 193.356 128.274C193.269 128.268 193.184 128.245 193.105 128.207C192.948 128.127 192.827 127.988 192.771 127.82C192.714 127.652 192.726 127.469 192.803 127.31V127.278C193.824 124.437 194.79 121.559 196.043 118.816C196.373 117.928 196.77 117.067 197.231 116.24C197.771 115.365 198.041 114.221 198.991 113.686C199.412 113.52 199.867 113.458 200.317 113.504C200.767 113.55 201.199 113.703 201.578 113.951C202.507 114.491 202.539 115.77 202.302 116.683C202.048 117.947 201.254 118.967 200.682 120.096C200.19 121.316 199.855 122.596 199.348 123.811C198.106 127.132 196.799 130.55 195.298 133.742C193.948 136.08 193.181 140.427 189.687 139.979ZM169.783 140.654C170.007 140.165 170.329 139.728 170.728 139.369C171.127 139.009 171.596 138.735 172.105 138.564C172.645 138.29 173.271 138.238 173.849 138.418C173.979 138.368 174.122 138.362 174.257 138.4C174.391 138.438 174.509 138.518 174.594 138.629C176.63 138.807 177.483 140.502 177.17 142.198L175.28 142.295C175.299 142.182 175.299 142.068 175.28 141.955C175.253 141.366 175.28 140.875 174.772 140.54C174.303 140.108 173.417 140.34 173.152 139.655C172.569 140.195 171.84 140.664 171.57 141.453C171.509 141.797 171.54 142.151 171.662 142.479L169.556 142.598C169.435 141.941 169.514 141.264 169.783 140.654ZM182.629 139.244C183.088 138.834 184.249 138.002 184.757 138.704C185.225 138.747 185.694 138.646 186.102 138.413C186.43 138.357 186.768 138.398 187.074 138.531C188.245 139.071 188.569 140.249 188.397 141.415C187.479 141.496 186.555 141.572 185.637 141.642C185.513 141.487 185.438 141.299 185.421 141.102C185.207 141.131 185.002 141.204 184.816 141.314C184.631 141.424 184.469 141.571 184.341 141.744C183.358 141.82 182.376 141.885 181.393 141.95C181.452 140.925 181.893 139.96 182.629 139.244ZM170.258 68.5797C172.486 68.6196 174.713 68.4914 176.922 68.1963C180.135 67.9047 183.358 67.8021 186.582 67.5915C188.613 67.4835 190.638 67.3161 192.668 67.1757C193.748 67.2513 194.612 66.6357 195.595 66.3441C195.87 65.8527 195.714 65.1831 195.762 64.6269C195.844 61.743 195.627 58.8585 195.114 56.0193C195.017 54.3993 195.055 52.7793 192.954 52.6443C187.236 52.7361 181.663 53.6379 176.009 54.3399C172.888 54.6531 169.745 54.7449 166.624 55.0365C166.246 58.1793 166.689 61.3491 166.424 64.3893C166.338 65.4207 166.008 66.9921 166.257 67.9479C167.488 68.4771 168.935 68.4339 170.258 68.5797ZM169.329 70.1997C166.996 70.0269 165.123 69.8055 164.599 67.1541C164.334 64.0221 164.761 60.8253 165.042 57.6933C165.101 56.6835 165.225 55.6737 165.247 54.6747C165.244 54.5232 165.271 54.3726 165.326 54.2317C165.382 54.0907 165.465 53.9623 165.571 53.8539C166.041 53.4057 166.683 53.6433 167.25 53.5785C171.397 52.6713 175.636 52.7523 179.827 52.1421C183.067 51.6615 193.937 49.7337 196.027 52.0449C196.417 52.4887 196.668 53.0368 196.75 53.6217C196.976 54.4492 197.094 55.3022 197.101 56.1597C197.28 58.7463 197.744 61.2897 197.485 63.8925C197.312 65.2263 197.825 67.0029 196.594 67.9317C195.529 68.4752 194.39 68.8574 193.213 69.0657C192.182 69.1629 191.053 69.0279 190.092 69.0657C185.772 69.4167 181.717 69.6813 177.472 69.8055C174.767 70.0794 172.049 70.211 169.329 70.1997Z" fill="white"/>
<path d="M169.203 69.0548C167.821 68.9576 165.482 68.882 165.023 67.2944C165.023 66.8462 165.445 66.4952 165.833 66.344C165.931 66.3235 166.032 66.3225 166.13 66.341C166.227 66.3595 166.321 66.3972 166.404 66.4519C166.487 66.5066 166.559 66.5772 166.615 66.6597C166.671 66.7422 166.71 66.835 166.73 66.9326C166.746 67.0164 166.746 67.1026 166.73 67.1864C168.35 67.5698 170.035 67.2404 171.66 67.0838H170.315C170.126 67.0703 169.945 66.9978 169.799 66.8766C169.652 66.7554 169.547 66.5914 169.498 66.4076C169.45 66.2238 169.459 66.0294 169.526 65.8515C169.594 65.6735 169.715 65.521 169.873 65.4152C169.736 65.2315 169.668 65.0065 169.678 64.778C169.693 64.58 169.768 64.3914 169.894 64.238C169.748 64.0966 169.644 63.9167 169.595 63.7189C169.546 63.5211 169.555 63.3136 169.619 63.1202C169.677 62.9512 169.771 62.7966 169.894 62.6666C169.789 62.6063 169.696 62.5255 169.622 62.4291C169.548 62.3326 169.494 62.2224 169.463 62.1048C169.431 61.9873 169.424 61.8647 169.441 61.7442C169.457 61.6237 169.498 61.5078 169.559 61.403C169.626 61.2847 169.718 61.1831 169.829 61.106C169.667 61.0144 169.538 60.8749 169.458 60.7066C169.378 60.5384 169.353 60.3496 169.385 60.1662C169.417 59.9827 169.505 59.8137 169.636 59.6823C169.768 59.5508 169.938 59.4634 170.121 59.432C169.955 59.342 169.831 59.1909 169.775 59.0108C169.736 58.9004 169.727 58.7813 169.75 58.6662C169.773 58.5511 169.826 58.4444 169.905 58.3574C169.715 58.3555 169.529 58.3033 169.365 58.2062C169.266 58.1443 169.185 58.0583 169.128 57.9563C169.071 57.8543 169.041 57.7397 169.041 57.623C168.837 57.6956 168.613 57.6893 168.413 57.6054C168.213 57.5215 168.052 57.366 167.961 57.1694C167.385 57.4178 166.739 57.4504 166.141 57.2612C165.961 57.1668 165.825 57.0049 165.763 56.8107C165.701 56.6165 165.719 56.4057 165.812 56.2244C165.884 56.0822 165.999 55.9668 166.141 55.895C165.666 55.355 166.141 54.7556 166.714 54.5882C167.864 54.2426 169.079 54.5882 170.261 54.3452C171.19 54.0806 172.189 54.0752 173.14 53.8538C173.786 53.7401 174.439 53.6643 175.094 53.627C175.25 53.5971 175.412 53.6099 175.561 53.6641C175.71 53.7183 175.842 53.8118 175.942 53.9348C177.973 53.8322 179.998 53.5892 182.028 53.3948C182.611 53.3516 183.648 53.0654 183.648 53.9618C184.334 54.0806 186.154 53.8862 185.732 55.0418C186.596 55.2254 189.026 54.8204 188.767 56.2298C188.925 56.238 189.081 56.2542 189.237 56.2784C189.514 56.3116 189.78 56.4017 190.02 56.543C190.108 56.6067 190.182 56.687 190.238 56.7793C190.294 56.8716 190.332 56.9742 190.348 57.0811C190.365 57.188 190.36 57.2971 190.334 57.4021C190.309 57.5072 190.262 57.6061 190.198 57.6932C190.069 57.8699 189.875 57.9882 189.658 58.0226C190.792 57.9308 191.618 59.189 190.355 59.7182C190.378 59.8703 190.349 60.0257 190.271 60.1585C190.193 60.2912 190.072 60.3932 189.928 60.4472C189.772 60.4905 189.613 60.523 189.453 60.5444C190.02 60.5748 190.58 60.6932 191.111 60.8954C191.197 60.9518 191.27 61.025 191.327 61.1105C191.383 61.1959 191.422 61.292 191.441 61.3929C191.459 61.4937 191.458 61.5973 191.435 61.6974C191.413 61.7975 191.37 61.8921 191.311 61.9754C191.239 62.0736 191.147 62.1548 191.041 62.213C190.258 62.5154 189.377 62.3534 188.551 62.375C189.388 62.5262 190.252 62.591 191.073 62.807C191.196 62.8409 191.306 62.9125 191.387 63.0117C191.468 63.1109 191.516 63.2329 191.524 63.3606C191.532 63.4883 191.501 63.6155 191.433 63.7243C191.366 63.8332 191.267 63.9184 191.149 63.968C192.013 64.211 192.92 64.1516 193.568 64.3568C193.807 64.4444 194.001 64.6233 194.109 64.8541C194.216 65.0849 194.227 65.3488 194.14 65.588C194.066 65.8192 193.906 66.0127 193.692 66.128C189.916 66.9786 186.088 67.5828 182.233 67.937C177.914 68.5513 173.564 68.9245 169.203 69.0548Z" fill="white"/>
<path d="M167.967 68.6064C167.811 68.574 167.654 68.5308 167.498 68.4876C167.353 68.4455 167.225 68.3614 167.129 68.246C167.033 68.1305 166.973 67.9891 166.958 67.8396C166.582 67.8666 166.205 67.8666 165.829 67.8396C165.635 67.7992 165.465 67.6844 165.355 67.5198C165.245 67.3552 165.204 67.154 165.24 66.9594C165.265 66.8526 165.312 66.7521 165.378 66.6646C165.444 66.5772 165.528 66.5046 165.624 66.4518C165.624 66.3065 165.655 66.1629 165.716 66.0306C165.541 65.9104 165.421 65.726 165.382 65.5178C165.342 65.3095 165.386 65.094 165.505 64.9182C165.516 64.899 165.528 64.8809 165.543 64.8642C165.458 64.7639 165.396 64.646 165.363 64.5189C165.329 64.3919 165.324 64.259 165.348 64.1298C165.245 64.0126 165.18 63.8669 165.16 63.7118C165.141 63.5567 165.169 63.3994 165.24 63.2604C165.295 63.1608 165.366 63.0713 165.451 62.9958C165.357 62.9408 165.275 62.8676 165.21 62.7805C165.145 62.6935 165.097 62.5943 165.071 62.4888C165.044 62.3832 165.039 62.2735 165.055 62.1658C165.071 62.0582 165.108 61.9549 165.165 61.8618C165.21 61.787 165.266 61.7196 165.332 61.662C165.21 61.5093 165.147 61.3176 165.154 61.122C165.159 61.023 165.183 60.9258 165.224 60.8358C165.118 60.6577 165.085 60.4449 165.133 60.243C165.182 60.0411 165.308 59.8662 165.483 59.7558C165.529 59.7261 165.578 59.7025 165.629 59.6856C165.576 59.6047 165.542 59.5121 165.532 59.4156C165.527 59.3726 165.527 59.3291 165.532 59.286C165.344 59.248 165.177 59.1398 165.066 58.9833C164.954 58.8269 164.907 58.6339 164.933 58.4436C165.062 57.801 165.845 57.8658 166.331 57.6552C166.283 56.91 169.031 56.775 169.631 56.6724C169.773 56.6605 169.914 56.7055 170.024 56.7976C170.133 56.8897 170.201 57.0214 170.214 57.1638C170.252 57.774 169.555 57.7578 169.134 57.882C169.254 57.8882 169.372 57.9195 169.479 57.9738C169.529 57.9989 169.574 58.0339 169.61 58.0766C169.646 58.1193 169.673 58.1688 169.69 58.2222C170.171 58.1413 170.662 58.1413 171.143 58.2222C171.21 58.259 171.27 58.3087 171.318 58.3685C171.366 58.4283 171.402 58.4971 171.424 58.5709C171.445 58.6446 171.452 58.7219 171.444 58.7983C171.435 58.8747 171.412 58.9487 171.375 59.016C171.336 59.0936 171.279 59.1607 171.208 59.2114C171.138 59.2622 171.056 59.2952 170.97 59.3076C171.026 59.3871 171.066 59.4767 171.087 59.5716C171.109 59.6664 171.111 59.7645 171.094 59.8603C171.078 59.9561 171.043 60.0476 170.991 60.1298C170.939 60.2119 170.871 60.283 170.792 60.339C170.742 60.3768 170.688 60.4077 170.63 60.4308H170.581C170.883 61.041 170.198 61.4244 169.695 61.5486H170.144C170.921 61.6026 170.732 62.4288 170.144 62.6286C170.5 62.6286 170.894 62.5746 171.116 62.9094C171.169 62.9856 171.204 63.0735 171.216 63.1658C171.228 63.2581 171.218 63.352 171.186 63.4395C171.154 63.527 171.102 63.6055 171.033 63.6684C170.964 63.7312 170.882 63.7765 170.792 63.8004C170.816 63.9312 170.801 64.0663 170.747 64.1879C170.693 64.3095 170.603 64.4117 170.489 64.4808C170.647 64.5096 170.79 64.5952 170.889 64.7215C170.989 64.8478 171.038 65.0061 171.029 65.1666C171.024 65.2563 171.002 65.3441 170.964 65.4258C171.059 65.4719 171.142 65.5392 171.207 65.6226C171.272 65.7059 171.316 65.8031 171.337 65.9064C171.358 66.0049 171.359 66.1067 171.338 66.2053C171.318 66.3039 171.277 66.3971 171.218 66.4788C171.478 66.8728 171.823 67.2031 172.228 67.4454C172.293 68.3256 171.256 68.385 170.608 68.493C169.733 68.6144 168.849 68.6523 167.967 68.6064ZM188.379 67.8072C187.515 67.764 186.657 67.6614 185.798 67.602C185.583 67.6192 185.371 67.5504 185.206 67.4106C185.042 67.2709 184.941 67.0717 184.923 66.8568C184.906 66.642 184.975 66.4292 185.115 66.2651C185.255 66.1011 185.454 65.9992 185.669 65.982C186.268 65.8686 186.905 66.0252 187.505 65.9442C187.999 65.8009 188.486 65.6315 188.963 65.4366L188.871 65.4798L189.125 65.3664C189.373 65.253 189.621 65.1396 189.875 65.037C189.762 64.9254 189.681 64.785 189.641 64.631C189.601 64.4769 189.604 64.3149 189.648 64.1622C188.99 64.1622 188.12 63.903 188.174 63.0822C188.056 63.0721 187.941 63.0387 187.836 62.984C187.731 62.9294 187.637 62.8545 187.561 62.7637C187.485 62.6729 187.427 62.568 187.392 62.455C187.356 62.3419 187.343 62.2229 187.353 62.1048C187.366 61.9616 187.412 61.8235 187.489 61.7022C187.566 61.5809 187.672 61.48 187.796 61.4082C187.731 61.3179 187.685 61.2149 187.661 61.1058C187.624 60.9368 187.64 60.7606 187.705 60.6005C187.771 60.4404 187.884 60.304 188.028 60.2094C187.892 60.0845 187.81 59.9105 187.8 59.7254C187.791 59.5402 187.856 59.359 187.98 59.2212C188.023 59.1742 188.072 59.1325 188.126 59.097C187.321 59.2212 186.322 58.6434 186.84 57.747C186.014 57.9468 184.524 57.882 184.767 56.667C184.13 56.667 183.406 56.9532 182.812 56.667C182.732 56.6133 182.663 56.5441 182.609 56.4635C182.556 56.3829 182.519 56.2924 182.501 56.1974C182.483 56.1025 182.484 56.0048 182.504 55.9102C182.524 55.8156 182.563 55.726 182.618 55.6464C182.642 55.6041 182.673 55.5658 182.709 55.533C182.602 55.5197 182.498 55.484 182.405 55.4282C182.312 55.3724 182.232 55.2977 182.169 55.209C182.11 55.1255 182.069 55.0309 182.047 54.9309C182.025 54.8309 182.023 54.7276 182.042 54.6269C182.06 54.5262 182.099 54.4303 182.155 54.3448C182.211 54.2593 182.284 54.186 182.369 54.129L180.593 54.237C180.483 54.2446 180.376 54.2094 180.292 54.1388C180.208 54.0683 180.155 53.9679 180.144 53.859C180.14 53.8051 180.146 53.7508 180.163 53.6994C180.18 53.6479 180.206 53.6002 180.241 53.559C180.276 53.5179 180.319 53.4841 180.368 53.4596C180.416 53.4351 180.468 53.4203 180.522 53.4162C181.948 53.319 183.368 53.1732 184.788 52.9572C185.782 52.7682 197.127 50.8242 194.827 53.5458C195.14 53.6536 195.436 53.8045 195.707 53.994C195.766 54.0592 195.81 54.1352 195.839 54.2178C195.868 54.3003 195.88 54.3878 195.875 54.4751C195.87 54.5624 195.848 54.6478 195.81 54.7265C195.772 54.8052 195.719 54.8756 195.653 54.9336L195.605 54.9768C195.713 56.208 195.275 57.4338 195.459 58.6596C195.803 59.9699 195.984 61.3174 195.999 62.6718C195.956 63.5196 195.502 64.2432 195.27 65.037C195.369 65.0954 195.455 65.1734 195.523 65.2663C195.591 65.3591 195.639 65.4649 195.664 65.577C196.555 65.874 196.717 67.197 195.664 67.4184C193.248 67.7205 190.814 67.8504 188.379 67.8072Z" fill="white"/>
<path d="M195.378 67.36C194.487 67.252 194.995 65.551 194.876 64.8976C194.935 62.2894 194.735 59.584 194.843 56.992C194.784 55.912 195.086 54.643 194.449 53.7142C194.222 53.5406 193.963 53.4123 193.688 53.3362C191.377 52.7962 188.984 53.1958 186.668 53.5198C183.374 53.9626 180.188 54.2596 176.948 54.6538H176.991C173.665 55.0372 170.327 55.2802 166.99 55.5718C166.872 55.5658 166.761 55.5161 166.677 55.4323C166.594 55.3486 166.545 55.2369 166.54 55.1189C166.534 55.0009 166.573 54.8851 166.648 54.7941C166.724 54.7032 166.83 54.6435 166.947 54.6268C175.123 54.0868 183.574 52.4668 191.517 51.9268C196.21 51.9754 196.102 53.8168 195.95 57.8344C195.95 60.4318 196.058 63.0238 196.031 65.6212C196.021 66.2314 196.253 67.36 195.378 67.36Z" fill="black"/>
<path d="M166.596 68.0404C166.231 67.5147 166.042 66.8872 166.056 66.2476C165.948 64.3522 166.056 62.4676 166.023 60.556C165.974 58.7759 166.03 56.9944 166.191 55.2208C166.188 55.1762 166.195 55.1315 166.21 55.0894C166.225 55.0473 166.249 55.0085 166.279 54.9754C166.309 54.9423 166.345 54.9155 166.386 54.8964C166.426 54.8774 166.47 54.8665 166.515 54.8644C166.605 54.8615 166.694 54.8944 166.76 54.9561C166.827 55.0177 166.867 55.1031 166.871 55.1938C166.876 55.2242 166.876 55.2552 166.871 55.2856C166.818 56.8195 166.843 58.3551 166.947 59.8864C167.006 61.636 166.947 63.3802 167.022 65.1298C167.076 66.1126 166.801 67.738 168.172 67.8298C170.138 67.9702 171.985 67.4572 173.913 67.4248C180.182 67.2952 186.451 66.5986 192.71 67.2898C193.267 67.2827 193.823 67.2212 194.368 67.1062C194.494 67.0941 194.621 67.1269 194.726 67.199C194.831 67.2711 194.907 67.3779 194.94 67.5004C195.086 68.4076 193.731 68.3536 193.126 68.4616C186.975 67.9216 180.803 68.386 174.647 68.5534C172.422 68.2294 168.162 69.7522 166.596 68.0404Z" fill="black"/>
<path d="M168.928 68.634C168.852 68.568 168.793 68.4841 168.758 68.3899C168.722 68.2956 168.71 68.194 168.723 68.094C168.4 65.6116 168.22 63.1127 168.183 60.6096C168.07 58.8438 168.124 57.0996 168.08 55.377C168.075 55.3414 168.077 55.3051 168.086 55.2703C168.096 55.2355 168.112 55.203 168.134 55.1747C168.156 55.1463 168.184 55.1229 168.216 55.1057C168.247 55.0885 168.282 55.0779 168.318 55.0746C168.39 55.0654 168.463 55.0853 168.521 55.1298C168.579 55.1744 168.616 55.24 168.626 55.3122C169.123 58.7304 169.096 62.1918 169.371 65.6316C169.322 66.2904 170.267 69.147 168.928 68.634ZM171.364 68.3478C171.276 68.313 171.199 68.2558 171.14 68.1819C171.081 68.108 171.043 68.02 171.029 67.9266C170.635 66.096 170.694 64.2006 170.548 62.3376C170.473 59.9832 170.381 57.6342 170.3 55.2798C170.3 55.1178 170.3 54.8694 170.543 54.9126C171.418 58.536 171.477 62.5752 171.774 66.3768C171.752 66.96 172.422 68.5098 171.364 68.3478ZM173.146 67.4568C172.741 63.3312 173.081 59.103 172.714 54.9558C172.729 54.8965 172.767 54.8457 172.819 54.8143C172.872 54.783 172.935 54.7737 172.994 54.7884C173.048 54.8033 173.094 54.8362 173.125 54.8816C173.157 54.9269 173.172 54.9818 173.167 55.0368C173.934 59.0868 173.869 63.2016 174.031 67.3002C174.023 67.4029 173.981 67.5 173.912 67.5763C173.843 67.6525 173.75 67.7036 173.649 67.7216C173.548 67.7395 173.443 67.7232 173.352 67.6753C173.261 67.6274 173.188 67.5505 173.146 67.4568ZM175.754 67.7106C175.538 67.5756 175.5 67.2678 175.473 67.0464C175.03 64.1682 175.387 61.2306 175.343 58.3524C175.306 57.1968 175.295 56.0142 175.16 54.8802C175.172 54.8293 175.197 54.7826 175.233 54.7446C175.269 54.7067 175.315 54.679 175.365 54.6642C176.002 54.4752 175.905 56.5272 176.051 56.943C176.402 59.697 176.132 62.4456 176.299 65.205C176.213 65.8152 176.958 68.256 175.754 67.7106ZM178.621 67.5C178.522 67.4037 178.444 67.2875 178.393 67.1591C178.342 67.0307 178.318 66.8929 178.324 66.7548C178.076 64.0548 178.357 61.3548 178.189 58.6548C178.119 57.483 178.022 56.268 177.908 55.1232C177.899 55.0881 177.898 55.0516 177.903 55.0158C177.908 54.9799 177.92 54.9455 177.939 54.9144C177.957 54.8833 177.982 54.8562 178.011 54.8345C178.04 54.8129 178.073 54.7973 178.108 54.7884H178.157C178.195 54.7877 178.233 54.7946 178.269 54.8086C178.304 54.8225 178.337 54.8434 178.365 54.87C178.392 54.8966 178.414 54.9283 178.429 54.9634C178.445 54.9986 178.453 55.0363 178.454 55.0746C178.621 56.349 178.853 57.618 178.994 58.8924C179.215 61.0038 179.156 63.1314 179.253 65.2482C179.161 65.8314 179.777 67.905 178.621 67.5ZM181.348 66.5712C181.057 63.4824 180.581 60.3936 180.392 57.2832C180.328 56.3145 180.311 55.343 180.344 54.3726C180.344 54.3096 180.369 54.2492 180.413 54.2046C180.458 54.1601 180.518 54.135 180.581 54.135C180.644 54.135 180.705 54.1601 180.749 54.2046C180.794 54.2492 180.819 54.3096 180.819 54.3726C181.078 56.7702 181.31 59.1948 181.694 61.5816C181.764 62.1702 182.963 68.1156 181.348 66.5712ZM183.94 66.771C183.886 63.2718 183.627 59.7942 183.454 56.3058C183.408 55.4893 183.408 54.6708 183.454 53.8542C183.463 53.794 183.493 53.7389 183.539 53.6991C183.585 53.6593 183.644 53.6374 183.705 53.6374C183.766 53.6374 183.825 53.6593 183.871 53.6991C183.917 53.7389 183.947 53.794 183.956 53.8542C184.01 55.7544 184.162 57.6504 184.41 59.535V59.4864C184.74 61.871 184.884 64.2777 184.842 66.6846C184.838 66.7433 184.822 66.8006 184.796 66.8532C184.769 66.9057 184.733 66.9525 184.688 66.9907C184.643 67.0289 184.591 67.0578 184.535 67.0757C184.479 67.0936 184.42 67.1002 184.361 67.095C184.266 67.093 184.173 67.0605 184.098 67.0022C184.022 66.9439 183.967 66.8629 183.94 66.771ZM187.272 67.068C186.867 65.88 187.169 64.4868 187.078 63.234C187.04 60.9714 186.953 58.7142 186.889 56.457C186.932 55.9656 186.548 52.6176 187.472 53.217C187.526 53.2685 187.56 53.3384 187.566 53.4133C187.572 53.4881 187.55 53.5626 187.504 53.622C187.504 57.591 188.125 61.5492 188.044 65.502C187.963 66.042 188.347 66.8898 187.742 67.1652C187.662 67.1946 187.576 67.201 187.493 67.1838C187.41 67.1666 187.333 67.1265 187.272 67.068ZM189.783 67.3488C189.324 63.7902 189.529 60.183 189.394 56.6136C189.346 55.323 189.281 54.0324 189.227 52.7472C189.219 52.6484 189.251 52.5505 189.315 52.4751C189.379 52.3996 189.471 52.3528 189.57 52.3449C189.668 52.3371 189.766 52.3688 189.842 52.4331C189.917 52.4974 189.964 52.589 189.972 52.6878C190.069 55.3878 190.35 58.0284 190.366 60.7014C190.393 62.8614 190.674 65.0592 190.55 67.2408C190.541 67.3309 190.502 67.4154 190.439 67.48C190.375 67.5445 190.291 67.5853 190.201 67.5954C190.111 67.6056 190.021 67.5844 189.945 67.5356C189.868 67.4868 189.811 67.4132 189.783 67.3272V67.3488ZM192.413 66.6144C192.24 64.4544 192.019 62.1702 192.067 60.0264C192.168 57.8378 192.139 55.6452 191.981 53.46C191.971 53.4137 191.97 53.3659 191.979 53.3193C191.988 53.2728 192.006 53.2286 192.033 53.1893C192.059 53.15 192.093 53.1165 192.133 53.0908C192.173 53.0651 192.218 53.0477 192.264 53.0397C192.311 53.0316 192.359 53.0331 192.405 53.0441C192.451 53.0551 192.494 53.0752 192.533 53.1034C192.571 53.1316 192.603 53.1672 192.627 53.2081C192.651 53.2489 192.666 53.2942 192.672 53.3412C192.675 53.3537 192.675 53.3666 192.672 53.379C193.012 56.4516 192.812 59.5458 193.061 62.6184C192.996 63.4662 193.828 66.8088 192.839 66.9384C192.742 66.9413 192.646 66.9107 192.569 66.8517C192.491 66.7928 192.436 66.709 192.413 66.6144ZM95.9741 83.3004C97.0217 82.269 97.9343 81.0162 99.2141 80.2656C100.647 79.6933 102.134 79.2663 103.653 78.9912C105.187 78.732 106.72 78.4512 108.259 78.2568C108.331 78.2551 108.401 78.2754 108.461 78.315C108.521 78.3545 108.567 78.4115 108.594 78.4782L108.869 78.354L108.918 78.3216L108.864 78.3594C110.3 77.1174 107.212 76.9446 106.445 77.1012C102.33 77.382 97.8803 79.488 95.9741 83.3004ZM94.8941 85.3848C94.4567 85.1742 94.6187 84.645 94.6673 84.2616C95.2073 80.6652 99.0521 77.841 102.346 76.8474C104.506 76.1724 107.017 75.5676 109.237 76.356C110.781 76.896 110.587 78.7158 109.237 79.38C107.617 80.2602 105.748 79.92 103.982 80.028C102.889 80.2781 101.821 80.6269 100.791 81.0702C99.1979 81.6102 98.0909 82.9764 96.9623 84.0834C96.4277 84.6396 95.8499 85.86 94.9157 85.3848H94.8941Z" fill="black"/>
<path d="M94.8614 83.9049C94.8938 83.4243 95.3636 83.0517 95.612 82.7115C96.1696 82.0059 96.8326 81.3903 97.5776 80.8863C97.5788 80.7788 97.6066 80.6733 97.6584 80.5791C97.7102 80.4849 97.7844 80.405 97.8746 80.3463C98.5979 79.7636 99.3818 79.2603 100.213 78.8451C101.93 77.9703 103.782 77.0145 105.753 77.0577C106.617 76.8633 107.465 76.4313 108.361 76.4691C109.317 76.4043 110.521 78.2727 109.171 78.4995C106.628 78.7425 103.96 78.9531 101.52 79.8549C99.41 80.7184 97.5112 82.0261 95.9522 83.6889C95.7416 83.8779 95.7524 84.2289 95.4446 84.3207C95.3871 84.3389 95.3266 84.3453 95.2667 84.3395C95.2068 84.3338 95.1486 84.316 95.0957 84.2873C95.0428 84.2585 94.9962 84.2194 94.9587 84.1723C94.9212 84.1252 94.8936 84.071 94.8776 84.0129C94.8664 83.978 94.8609 83.9416 94.8614 83.9049ZM98.8466 96.6273C98.7959 96.6072 98.7497 96.5771 98.7108 96.5389C98.6719 96.5007 98.641 96.4552 98.6199 96.4049C98.5987 96.3546 98.5879 96.3007 98.5878 96.2461C98.5878 96.1916 98.5987 96.1376 98.6198 96.0873C98.855 95.3403 99.1308 94.6066 99.446 93.8895C100.099 92.5017 100.629 90.9033 101.8 89.8665C103.28 88.2465 105.537 87.9657 107.611 87.8631C108.852 87.8669 110.064 88.2347 111.098 88.921C112.132 89.6074 112.941 90.582 113.427 91.7241C113.481 92.0265 113.778 92.5017 113.427 92.7069C113.357 92.7365 113.279 92.7402 113.207 92.7174C113.134 92.6947 113.073 92.6469 113.032 92.5827C112.773 92.2209 112.536 91.7727 112.276 91.4271C111.307 90.0817 109.846 89.1735 108.21 88.8999C106.05 88.8999 103.777 89.1591 102.243 90.7899C100.791 92.3343 100.126 94.4511 99.3812 96.3735C99.3643 96.4264 99.3368 96.4752 99.3003 96.517C99.2638 96.5588 99.2191 96.5927 99.169 96.6165C99.1188 96.6403 99.0643 96.6535 99.0089 96.6554C98.9534 96.6573 98.8982 96.6477 98.8466 96.6273Z" fill="black"/>
<path d="M105.866 94.7163C105.942 93.628 106.088 92.5458 106.303 91.4763C105.863 92.4957 105.712 93.6166 105.866 94.7163ZM108.885 97.7943C108.878 98.0454 108.858 98.296 108.825 98.5449L108.906 98.5179L109.041 98.4585C108.858 98.0535 109.041 97.5297 108.998 97.0977C109.03 96.1635 109.041 95.2401 109.025 94.3059C108.976 95.4939 108.949 96.6603 108.885 97.7943ZM107.524 98.6421C107.512 98.616 107.503 98.5889 107.497 98.5611C107.497 98.4963 107.497 98.4261 107.459 98.3613C107.452 98.4181 107.439 98.4742 107.421 98.5287C107.413 98.5584 107.402 98.5873 107.389 98.6151H107.524V98.6421ZM108.064 98.6421V98.6691C108.154 98.6746 108.244 98.6746 108.334 98.6691C108.313 98.6383 108.301 98.6032 108.296 98.5665C108.269 98.3883 108.253 98.2101 108.242 98.0265C108.226 98.2433 108.171 98.4555 108.08 98.6529L108.064 98.6421ZM107.281 99.5223C102.453 98.6421 103.501 88.5063 108.361 88.4037C108.631 88.4037 109.16 88.3443 109.149 88.7277C113.086 90.7689 112.816 100.349 107.286 99.5277L107.281 99.5223Z" fill="black"/>
<path d="M105.97 96.5091C105.43 95.8773 105.862 94.8891 105.792 94.1169C104.474 94.3005 106.499 89.4729 107.304 89.4837C107.339 89.4791 107.375 89.4815 107.41 89.4908C107.444 89.5002 107.477 89.5162 107.505 89.538C107.533 89.5598 107.557 89.587 107.575 89.618C107.593 89.649 107.604 89.6832 107.609 89.7186C107.613 89.7541 107.611 89.7901 107.602 89.8246C107.592 89.8591 107.576 89.8915 107.555 89.9198C107.533 89.9482 107.506 89.9719 107.475 89.9897C107.444 90.0076 107.409 90.0191 107.374 90.0237H107.325C106.936 90.4842 106.644 91.0187 106.467 91.5951C106.623 91.7139 106.559 91.9407 106.542 92.1351C106.418 93.1773 106.494 94.2411 106.424 95.2887C106.401 95.6305 106.425 95.9738 106.494 96.3093C106.477 96.3985 106.425 96.4774 106.35 96.529C106.276 96.5805 106.184 96.6005 106.094 96.5847C106.048 96.5693 106.005 96.5434 105.97 96.5091ZM107.363 99.0849C107.057 99.0792 106.757 98.9936 106.494 98.8365C106.447 98.7903 106.41 98.7352 106.384 98.6745C106.359 98.6138 106.346 98.5486 106.346 98.4828C106.346 98.417 106.359 98.3518 106.384 98.2911C106.41 98.2304 106.447 98.1753 106.494 98.1291C106.534 98.0868 106.582 98.0521 106.634 98.0265C106.931 97.8969 107.212 98.1075 107.514 98.0859C107.687 98.1124 107.864 98.0912 108.026 98.0246C108.188 97.958 108.328 97.8485 108.432 97.7079C108.497 97.4163 108.497 97.114 108.432 96.8223C108.065 96.7629 108.141 96.3201 108.114 96.0447C108.033 95.6451 108.341 95.1321 108.783 95.3913C108.855 94.9566 108.825 94.5114 108.697 94.0899C108.673 94.004 108.682 93.912 108.723 93.8328C108.764 93.7535 108.834 93.6929 108.918 93.6633C109.523 93.5661 109.399 94.4247 109.502 94.8027C109.545 95.2434 109.534 95.6877 109.469 96.1257C109.468 96.8964 109.422 97.6664 109.329 98.4315C109.048 99.1443 108 99.0471 107.363 99.0849ZM154.98 75.6003L154.835 75.8109C156.231 74.6074 157.925 73.8023 159.74 73.4802C161.555 73.158 163.423 73.3308 165.149 73.9803C165.226 74.0082 165.292 74.0622 165.334 74.1331C165.377 74.204 165.393 74.2874 165.381 74.3691C165.857 74.6579 166.369 74.883 166.904 75.0387C165.667 73.9209 164.252 72.7869 162.557 72.5763C160.228 72.3511 157.899 72.9955 156.017 74.3853C155.58 74.7018 155.224 75.1184 154.98 75.6003ZM153.9 77.9331C152.653 77.6253 153.36 76.1997 153.825 75.4977C154.206 74.7357 154.761 74.0736 155.445 73.5645C158.399 71.4045 162.875 70.5891 165.926 72.9813C166.669 73.5441 167.372 74.1595 168.027 74.8227C168.128 74.9141 168.209 75.0258 168.263 75.1505C168.318 75.2752 168.346 75.4101 168.345 75.5463C167.719 77.0745 165.176 75.4761 164.225 74.9739C161.768 73.6185 159.068 75.0981 156.951 76.4319C155.996 77.0367 155.067 77.9385 153.895 77.9331H153.9Z" fill="black"/>
<path d="M154.564 76.01C154.397 75.6482 154.824 75.3728 155.034 75.1352C155.494 74.6145 156.042 74.1793 156.654 73.85C156.741 73.364 157.383 73.2236 157.734 72.9482C158.772 72.4286 159.915 72.1532 161.075 72.1429C162.236 72.1326 163.383 72.3877 164.43 72.8888C165.17 73.2506 167.298 74.2226 167.001 75.2108C166.758 75.5996 166.32 75.3782 166.088 75.1136C164.527 74.0876 162.556 74.282 160.78 74.309C158.766 74.228 156.6 74.4062 155.11 75.902C155.094 75.9811 155.048 76.0509 154.981 76.0964C154.915 76.1418 154.833 76.1593 154.753 76.145C154.714 76.1366 154.677 76.1204 154.645 76.0971C154.612 76.0739 154.585 76.0442 154.564 76.01ZM167.573 88.9646C166.655 84.6446 161.374 82.1282 157.561 84.4556C156.087 85.1954 155.299 86.729 154.564 88.1222C154.338 88.4948 154.251 89.2832 153.657 89.0888C153.285 88.943 153.333 88.5164 153.517 88.2302C154.921 84.6554 157.545 82.22 161.584 82.6088C164.382 82.8248 167.416 85.001 168.145 87.7712C168.21 88.1114 168.237 88.4624 168.275 88.8026C168.287 88.8919 168.265 88.9825 168.214 89.0566C168.163 89.1307 168.086 89.183 167.998 89.2033C167.91 89.2235 167.818 89.2103 167.739 89.1662C167.661 89.122 167.601 89.0501 167.573 88.9646Z" fill="black"/>
<path d="M159.678 93.2144C161.892 92.2424 161.913 89.2778 161.638 87.2096C161.309 85.8488 160.148 84.137 158.576 84.5474C157.866 84.814 157.23 85.2452 156.719 85.8056C156.497 86.3456 156.33 86.9504 156.179 87.5228C155.52 89.888 157.043 93.1064 159.678 93.2144ZM159.219 94.343C156.816 93.6518 154.299 91.643 154.629 88.8998C154.698 87.5037 155.2 86.1639 156.065 85.0658C156.449 84.5906 156.983 84.3152 157.323 83.8076C157.317 83.7274 157.343 83.6479 157.395 83.5866C157.447 83.5254 157.521 83.4873 157.602 83.4809C157.682 83.4744 157.761 83.5001 157.822 83.5523C157.884 83.6044 157.922 83.6788 157.928 83.759C159.753 82.7816 161.778 84.542 162.399 86.2214C163.452 88.8296 162.761 94.2836 159.219 94.343Z" fill="black"/>
<path d="M156.804 87.437C156.998 86.5892 157.268 85.763 157.522 84.926C157.497 84.9454 157.467 84.9583 157.436 84.9638C157.073 85.7417 156.859 86.5805 156.804 87.437ZM157.641 92.4806C157.565 92.2012 157.545 91.9094 157.582 91.622C157.555 91.6547 157.523 91.6818 157.486 91.7019C157.449 91.7221 157.409 91.7347 157.368 91.7392C157.326 91.7438 157.284 91.74 157.244 91.7283C157.203 91.7165 157.166 91.6969 157.133 91.6706C157.059 91.5881 157.02 91.4793 157.025 91.3682C157.01 91.4121 156.981 91.45 156.942 91.4768C156.904 91.5036 156.859 91.518 156.812 91.518C156.765 91.518 156.72 91.5036 156.682 91.4768C156.644 91.45 156.615 91.4121 156.599 91.3682C155.443 92.5616 155.999 87.68 156.107 87.2264C156.107 86.7998 157.187 83.3654 157.668 84.6938C157.712 84.6455 157.765 84.6068 157.825 84.5804C157.874 84.5577 157.927 84.5459 157.981 84.5459C158.035 84.5459 158.089 84.5577 158.138 84.5804C158.246 84.1754 158.489 83.4032 158.98 83.9432C158.997 83.8287 159.06 83.7258 159.153 83.6569C159.246 83.5881 159.362 83.559 159.477 83.576C159.544 83.5873 159.607 83.6136 159.662 83.6529C159.717 83.6921 159.763 83.7434 159.796 83.8028C159.904 84.0782 159.725 84.3428 159.688 84.629H159.742C159.786 84.5555 159.85 84.4957 159.926 84.4566C160.002 84.4174 160.088 84.4005 160.174 84.4076C160.687 84.116 160.978 84.737 160.94 85.169C161.025 85.1782 161.105 85.2108 161.172 85.2633C161.239 85.3159 161.29 85.3861 161.318 85.466C162.145 85.655 161.977 86.8538 162.015 87.518C162.555 87.6962 162.312 88.4576 162.35 88.9058C162.327 89.5369 162.244 90.1644 162.101 90.7796C161.983 91.1306 161.902 91.6112 161.529 91.7678C161.475 91.8861 161.383 91.9827 161.267 92.0415C161.151 92.1004 161.019 92.1182 160.892 92.0918C160.792 92.1936 160.656 92.2518 160.514 92.2538C160.486 92.372 160.415 92.4757 160.315 92.5453C160.216 92.6149 160.094 92.6457 159.974 92.6318C159.905 92.6259 159.838 92.6037 159.779 92.567C159.701 92.5858 159.62 92.5858 159.542 92.567C159.451 92.5418 159.368 92.4931 159.302 92.4258C159.235 92.3585 159.188 92.275 159.164 92.1836C159.117 92.2802 159.034 92.3546 158.933 92.3909C158.832 92.4273 158.721 92.4226 158.624 92.378H158.597C158.566 92.5079 158.485 92.6204 158.372 92.6912C158.259 92.7619 158.122 92.7852 157.992 92.756C157.916 92.7415 157.844 92.7089 157.783 92.661C157.722 92.6131 157.673 92.5512 157.641 92.4806Z" fill="black"/>
<path d="M156.599 88.6199C155.951 88.2527 156.47 87.3077 156.475 86.7569C156.588 86.0441 156.718 85.3313 156.88 84.6293C156.907 84.5129 156.979 84.4118 157.08 84.3481C157.181 84.2844 157.303 84.2632 157.42 84.2891C157.498 84.3074 157.571 84.3459 157.629 84.4009C157.688 84.4558 157.731 84.5253 157.755 84.6023C158.09 84.6023 158.392 85.0559 158.068 85.2935C157.882 86.4043 157.628 87.5026 157.307 88.5821C157.288 88.6297 157.259 88.6731 157.224 88.7097C157.188 88.7464 157.145 88.7756 157.098 88.7957C157.051 88.8158 157 88.8263 156.949 88.8267C156.897 88.8271 156.847 88.8174 156.799 88.7981C156.713 88.765 156.642 88.7017 156.599 88.6199ZM159.251 93.7013C159.23 93.6584 159.216 93.613 159.207 93.5663C158.95 93.6748 158.66 93.6792 158.399 93.5785C158.138 93.4778 157.927 93.2798 157.809 93.0263C157.791 92.9879 157.777 92.9482 157.766 92.9075C157.226 92.5295 156.113 91.5305 156.869 90.8933C156.916 90.8691 156.968 90.8565 157.02 90.8565C157.073 90.8565 157.125 90.8691 157.172 90.8933C157.19 90.7805 157.247 90.6776 157.333 90.6018C157.418 90.5261 157.527 90.4822 157.641 90.4775C158.106 90.4775 158.252 90.9095 158.511 91.1957C159.018 90.9905 159.418 91.4603 159.591 91.8923C159.631 91.8468 159.681 91.8099 159.735 91.7836C159.79 91.7573 159.85 91.7423 159.911 91.7392C159.972 91.7362 160.032 91.7453 160.09 91.766C160.147 91.7868 160.199 91.8187 160.244 91.8599C160.304 91.9099 160.349 91.9752 160.374 92.0489C160.512 91.8135 160.671 91.5912 160.849 91.3847L160.887 91.3523C160.918 91.3273 160.952 91.3073 160.989 91.2929C161.119 90.9527 161.254 90.3857 161.735 90.5585C161.836 90.6006 161.919 90.6797 161.965 90.7798C162.011 90.8799 162.017 90.9937 161.983 91.0985C161.756 91.6871 161.621 92.4593 161.081 92.8265C160.757 93.4205 159.839 94.6301 159.251 93.7013ZM153.678 99.3227C154.369 99.1445 156.68 99.9167 156.124 100.872C156.037 100.982 155.91 101.054 155.771 101.072C155.632 101.09 155.491 101.053 155.379 100.97L155.341 100.937C155.304 100.887 155.26 100.842 155.211 100.802C155.076 101.142 154.882 101.466 154.774 101.817C154.272 103.12 153.674 104.383 152.987 105.597C150.999 108.837 149.126 112.218 146.274 114.777C142.673 117.85 138.034 120.302 133.196 120.177C127.072 120.582 122.396 115.733 119.323 110.997C118.243 109.07 117.309 107.05 115.829 105.403C115.829 105.462 115.791 105.516 115.775 105.576C115.733 105.678 115.654 105.76 115.554 105.807C115.455 105.854 115.341 105.862 115.235 105.83C114.695 105.587 115.084 104.922 115.289 104.566C115.624 104.28 116.051 104.075 116.418 103.821C116.458 103.748 116.519 103.688 116.592 103.647C116.665 103.606 116.747 103.587 116.831 103.591C116.914 103.595 116.995 103.622 117.064 103.669C117.132 103.717 117.187 103.782 117.22 103.859C117.254 103.935 117.265 104.02 117.253 104.102C117.241 104.185 117.207 104.263 117.153 104.327C117.099 104.391 117.029 104.438 116.95 104.464C116.87 104.491 116.785 104.494 116.704 104.474C129.183 105.473 141.674 103.502 153.662 100.154C153.786 100.148 153.909 100.128 154.029 100.095L153.721 100.008C153.633 99.9674 153.565 99.8933 153.532 99.8022C153.498 99.7112 153.502 99.6106 153.543 99.5225C153.566 99.4434 153.613 99.3735 153.678 99.3227ZM147.673 103.481C147.824 103.324 148.078 102.892 148.332 102.622C145.778 103.254 143.191 103.734 140.615 104.242C134.972 105.258 129.248 105.764 123.513 105.754C123.501 105.808 123.475 105.859 123.438 105.9C124.043 106.895 124.805 107.785 125.695 108.535C127.056 109.216 128.513 109.688 130.015 109.934C133.183 110.384 136.413 110.012 139.395 108.854C142.505 107.795 145.659 106.154 147.673 103.481ZM149.239 109.642C147.414 108.994 145.535 108.513 143.623 108.206C140.178 110.101 135.798 111.208 132.71 111.127C131.36 111.094 130.016 110.944 128.692 110.679C128.676 110.735 128.645 110.785 128.604 110.826C128.562 110.867 128.511 110.896 128.454 110.911C126.644 111.315 124.969 112.182 123.594 113.427C123.368 113.633 123.119 113.805 122.887 114.011C123.783 114.966 124.761 115.852 125.711 116.759C130.371 120.372 136.668 119.578 141.566 116.873C144.806 115.193 147.203 112.553 149.223 109.647L149.239 109.642ZM188.999 134.088C188.459 133.915 188.637 133.31 188.805 132.911C189.091 131.944 189.452 131.002 189.885 130.092C190.565 128.547 191.71 126.879 191.44 125.145C190.139 124.179 188.27 124.249 186.704 124.141C181.531 123.957 176.396 123.353 171.212 123.363C169.721 123.399 168.235 123.534 166.762 123.768C166.716 123.776 166.668 123.775 166.622 123.764C166.576 123.753 166.533 123.732 166.496 123.704C166.458 123.676 166.427 123.64 166.403 123.599C166.38 123.558 166.365 123.513 166.36 123.466C166.355 123.419 166.359 123.371 166.373 123.326C166.387 123.281 166.41 123.24 166.441 123.204C166.471 123.168 166.509 123.139 166.551 123.118C166.593 123.097 166.639 123.085 166.686 123.083C169.877 122.529 173.117 122.313 176.352 122.44C179.171 122.505 182.006 122.818 184.82 122.98C186.888 123.201 192.882 122.602 192.471 125.837C192.385 127.905 191.138 129.671 190.403 131.539C190.117 132.138 189.901 134.293 188.999 134.088Z" fill="black"/>
<path d="M182.228 138.483C178.985 138.563 175.741 138.467 172.508 138.197C171.531 138.153 170.58 137.937 169.614 137.824C169.26 137.825 168.915 137.715 168.626 137.511C167.416 136.668 167.573 135.081 167.189 133.812C166.995 132.818 166.563 131.776 166.358 130.815C166.291 129.902 166.137 128.998 165.899 128.115C165.595 126.981 165.542 125.794 165.742 124.637C165.794 124.223 165.952 123.828 166.201 123.492C166.208 123.47 166.219 123.45 166.234 123.432C166.249 123.414 166.267 123.399 166.288 123.389C166.308 123.378 166.331 123.372 166.354 123.37C166.377 123.369 166.4 123.372 166.422 123.379H166.476C166.495 123.394 166.511 123.412 166.522 123.433C166.534 123.454 166.541 123.477 166.543 123.5C166.546 123.524 166.544 123.548 166.537 123.571C166.53 123.593 166.519 123.615 166.503 123.633L166.471 123.665C166.447 124.063 166.447 124.461 166.471 124.859C166.525 125.652 166.514 126.338 166.628 127.083C166.843 127.716 167.023 128.359 167.168 129.011C167.195 130.934 168.091 132.764 168.383 134.622C168.528 135.389 168.518 136.458 169.387 136.782C172.876 137.219 176.391 137.414 179.906 137.365C182.417 137.219 184.977 137.711 187.374 136.825H187.342L187.515 136.739C187.558 136.118 188.184 133.661 188.935 133.844C189.291 133.941 189.275 134.346 189.221 134.638C189.086 135.178 188.768 135.642 188.681 136.182C188.562 136.577 188.638 136.863 188.498 137.219C187.688 138.548 183.697 138.548 182.228 138.44V138.483ZM189.745 137.878C189.804 136.566 190.625 135.378 191.127 134.184C191.943 131.63 193.547 129.47 194.292 126.9C195.296 123.725 196.819 120.738 198.072 117.66C198.477 116.661 198.849 115.652 199.233 114.647C199.249 114.608 199.273 114.572 199.304 114.542C199.334 114.512 199.37 114.488 199.41 114.472C199.45 114.456 199.492 114.448 199.535 114.448C199.578 114.449 199.62 114.458 199.659 114.474C199.7 114.491 199.736 114.515 199.767 114.546C199.797 114.577 199.822 114.613 199.838 114.653C199.855 114.694 199.863 114.737 199.863 114.78C199.863 114.823 199.854 114.866 199.838 114.906C198.887 117.504 197.84 120.155 196.905 122.736C196.155 124.718 195.447 126.695 194.789 128.676C193.649 131.004 192.591 133.369 191.522 135.696C191.217 136.358 190.959 137.04 190.749 137.738C190.738 137.857 190.686 137.968 190.601 138.053C190.516 138.138 190.405 138.19 190.285 138.201C190.166 138.212 190.047 138.18 189.948 138.113C189.849 138.045 189.778 137.945 189.745 137.829V137.878Z" fill="black"/>
<path d="M190.399 138.051C190.354 137.934 190.357 137.805 190.407 137.691C190.456 137.577 190.548 137.487 190.663 137.44C190.702 137.425 190.741 137.414 190.782 137.408C191.706 135.513 192.526 133.57 193.239 131.587C194.276 129.351 195.399 127.159 196.29 124.875C197.046 122.979 198.067 121.338 198.726 119.475C199.228 118.06 200.313 116.829 200.481 115.344C200.216 115.156 199.914 115.029 199.595 114.971C199.476 114.971 199.347 115.009 199.244 114.89C199.189 114.833 199.159 114.758 199.159 114.679C199.159 114.601 199.189 114.525 199.244 114.469C199.303 114.416 199.381 114.387 199.46 114.388C201.798 114.388 201.296 116.083 200.502 117.574C199.8 118.94 199.33 120.393 198.736 121.791C197.656 123.951 196.852 126.279 195.875 128.509C195.194 129.772 194.605 131.025 194.033 132.289C193.356 134.162 192.577 135.997 191.7 137.786C191.5 138.369 190.734 138.715 190.399 138.051ZM173.405 143.764C172.433 143.64 170.981 143.056 171.018 141.906C171.267 140.567 172.962 139.114 174.328 139.795C174.832 140.092 175.268 140.491 175.608 140.967C175.706 141.22 175.752 141.49 175.746 141.762C175.739 142.033 175.678 142.301 175.568 142.549C175.458 142.797 175.299 143.021 175.103 143.208C174.906 143.396 174.674 143.542 174.42 143.64C174.097 143.763 173.749 143.805 173.405 143.764ZM184.313 143.413C182.266 142.803 183.103 139.573 185.134 139.822C188.46 140.184 187.181 144.05 184.313 143.413Z" fill="black"/>
<path d="M190.545 137.748C190.183 137.532 190.286 137.106 190.496 136.825C190.88 135.842 191.387 134.805 191.744 133.833C193.024 130.064 194.67 126.429 196.658 122.979C196.575 122.911 196.516 122.818 196.49 122.714C196.464 122.61 196.471 122.501 196.512 122.402C197.138 120.825 198.056 119.378 198.58 117.758C198.823 117.261 199.611 113.88 200.384 115.117C202.22 114.987 199.563 118.94 199.304 119.702C199.319 119.663 199.337 119.625 199.358 119.588C198.372 121.888 197.258 124.131 196.02 126.306C195.259 128.282 194.26 130.161 193.499 132.138C192.935 133.822 192.28 135.475 191.538 137.09C191.355 137.468 191.031 138.024 190.545 137.748ZM178.373 137.97C177.93 137.775 178.001 137.219 177.968 136.825C177.925 133.499 178.076 130.167 178.114 126.835C178.114 125.701 178.038 124.572 178.044 123.444C178.042 123.393 178.05 123.342 178.068 123.295C178.086 123.247 178.114 123.204 178.149 123.168C178.184 123.131 178.227 123.103 178.274 123.083C178.321 123.064 178.371 123.054 178.422 123.055C178.472 123.053 178.522 123.062 178.569 123.08C178.615 123.098 178.658 123.125 178.694 123.16C178.73 123.195 178.759 123.236 178.779 123.282C178.799 123.328 178.81 123.377 178.811 123.428C178.811 124.119 178.811 124.805 178.854 125.49C178.962 129.033 179.016 132.575 178.978 136.118C178.843 136.712 179.437 138.191 178.373 137.97ZM182.213 137.565C181.457 136.064 181.851 134.233 181.797 132.597C181.797 129.627 181.905 126.608 182.121 123.66C182.061 122.958 183.201 123.206 182.807 123.822C182.985 128.077 182.682 132.332 182.85 136.582C182.893 136.938 182.736 138.094 182.213 137.565ZM185.679 138.029C185.431 137.856 185.453 137.489 185.431 137.235C185.349 136.3 185.319 135.361 185.339 134.422C185.357 130.851 185.624 127.285 186.138 123.752C186.193 123.687 186.271 123.647 186.355 123.64C186.439 123.633 186.522 123.659 186.587 123.714C186.647 123.762 186.687 123.83 186.699 123.906C186.711 123.982 186.694 124.06 186.651 124.124C186.705 127.904 186.295 131.684 186.381 135.464C186.268 136.118 187.035 138.623 185.679 138.029ZM189.179 131.382C188.703 131.317 188.72 130.788 188.768 130.421C188.865 129.459 188.914 128.541 188.957 127.602C189.038 126.408 189.098 125.21 189.195 124.016C189.211 123.924 189.262 123.843 189.338 123.789C189.414 123.736 189.508 123.714 189.6 123.73C189.686 123.746 189.763 123.792 189.816 123.861C189.87 123.93 189.897 124.015 189.891 124.103C189.589 125.237 190.545 131.501 189.179 131.382ZM174.334 137.16C174.01 135.621 174.296 133.963 174.226 132.381C174.051 129.357 174.067 126.325 174.275 123.303C174.226 123.25 174.194 123.183 174.182 123.112C174.17 123.041 174.179 122.967 174.207 122.901C174.236 122.834 174.282 122.777 174.342 122.737C174.402 122.696 174.472 122.673 174.545 122.672C174.643 122.671 174.738 122.71 174.808 122.778C174.879 122.847 174.92 122.94 174.923 123.039C174.926 123.057 174.926 123.075 174.923 123.093C175.122 125.015 175.004 126.981 175.101 128.919C175.257 131.195 175.275 133.478 175.155 135.756C175.079 136.258 175.355 137.014 174.852 137.333C174.76 137.371 174.656 137.375 174.561 137.343C174.466 137.311 174.385 137.246 174.334 137.16ZM170.64 136.749C170.408 132.3 170.489 127.742 170.694 123.282C170.688 123.251 170.688 123.219 170.694 123.188C170.7 123.157 170.713 123.128 170.73 123.102C170.748 123.076 170.77 123.053 170.797 123.036C170.823 123.019 170.853 123.007 170.883 123.001C170.946 122.988 171.012 123.001 171.066 123.036C171.119 123.072 171.157 123.127 171.17 123.19C171.178 123.229 171.178 123.27 171.17 123.309C171.461 126.009 171.278 128.709 171.391 131.409C171.483 133.029 171.558 134.687 171.515 136.328C171.618 136.82 170.991 137.252 170.64 136.749ZM168.237 135.583C167.276 131.803 168.07 127.721 167.946 123.838C167.778 123.417 168.486 123.298 168.486 123.757C168.696 126.457 168.637 129.157 168.75 131.895C168.75 132.683 168.804 133.461 168.869 134.228C168.896 134.692 169.085 136.177 168.237 135.583ZM133.677 199.092C133.229 195.696 133.677 192.234 133.607 188.832V185.495C133.626 185.373 133.686 185.262 133.777 185.179C133.868 185.096 133.985 185.047 134.108 185.039C134.231 185.031 134.352 185.066 134.453 185.137C134.553 185.208 134.627 185.312 134.66 185.43C134.736 189.21 134.66 193.039 134.617 196.803C134.617 197.521 134.617 198.25 134.714 198.963C134.718 199.086 134.679 199.207 134.604 199.305C134.53 199.403 134.424 199.473 134.304 199.503C134.167 199.529 134.025 199.5 133.908 199.424C133.791 199.347 133.709 199.228 133.677 199.092ZM142.933 217.355C141.367 212.101 141.583 206.523 141.14 201.101C140.805 195.561 139.866 190.074 139.666 184.523C139.662 184.462 139.67 184.4 139.689 184.342C139.709 184.283 139.74 184.229 139.781 184.183C139.821 184.137 139.871 184.099 139.926 184.072C139.982 184.045 140.042 184.03 140.103 184.026C140.227 184.019 140.349 184.061 140.442 184.143C140.535 184.225 140.592 184.34 140.6 184.464C140.789 189.324 141.68 194.141 142.085 198.995C142.517 203.639 142.593 208.31 143.165 212.938C143.36 214.331 143.608 215.714 143.867 217.096C143.891 217.217 143.868 217.343 143.802 217.449C143.737 217.554 143.634 217.63 143.515 217.663C143.395 217.696 143.268 217.682 143.158 217.625C143.048 217.568 142.964 217.472 142.922 217.355H142.933ZM206.448 237.114C205.686 237.011 204.93 236.882 204.169 236.768C204.057 236.745 203.958 236.681 203.889 236.59C203.82 236.499 203.788 236.385 203.796 236.271C203.937 235.451 205.233 236.018 205.811 235.964C209.175 236.563 212.523 235.229 213.273 231.676C213.56 228.976 213.338 226.919 210.228 226.551C209.175 226.362 208.09 226.471 207.096 226.865C206.666 227.296 206.141 227.619 205.562 227.81C205.465 227.834 205.363 227.831 205.268 227.801C205.173 227.771 205.087 227.715 205.022 227.64C204.956 227.564 204.913 227.472 204.897 227.373C204.881 227.274 204.892 227.173 204.93 227.081C205.163 226.357 206.124 226.287 206.55 225.763C207.744 224.224 206.88 222.048 205.892 220.644C204.444 218.797 202.112 217.82 200.038 216.864C198.796 216.576 197.501 216.601 196.271 216.938C195.041 217.274 193.914 217.911 192.991 218.792C192.759 219.137 192.197 219.332 191.911 218.921C191.83 218.774 191.809 218.601 191.851 218.439C191.893 218.276 191.996 218.136 192.138 218.046C192.452 217.66 192.684 217.214 192.818 216.734C193.137 215.4 192.532 214.11 192.078 212.884C191.625 211.658 191.339 210.281 190.361 209.363C189.398 208.423 188.371 207.55 187.289 206.75C185.026 205.729 182.466 205.556 180.026 205.243C177.477 204.973 174.982 205.583 172.574 206.372C170.218 207.042 168.052 208.255 166.25 209.914C164.511 211.21 164.09 213.332 163.205 215.168C162.395 216.761 160.197 216.459 159.381 215.033C157.761 212.042 156.784 208.742 155.726 205.524C154.189 201.179 152.927 196.742 151.946 192.24C151.838 191.484 150.914 189.027 151.946 188.967C152.062 188.977 152.17 189.032 152.246 189.121C152.322 189.21 152.36 189.326 152.351 189.443C152.351 189.443 152.351 189.48 152.351 189.497C152.059 190.577 152.572 191.705 152.772 192.78C153.171 194.562 153.684 196.333 154.154 198.083C155.391 201.895 156.919 205.61 158.199 209.423C158.928 211.161 159.462 213.03 160.488 214.628C160.834 215.06 161.655 215.406 162.065 214.887C162.692 214.142 162.886 213.084 163.264 212.231C163.622 211.302 164.174 210.46 164.884 209.763C169.026 205.551 175.959 203.429 181.77 204.325C186.565 204.995 187.969 205.281 191.414 208.856C192.343 209.86 192.694 211.215 193.121 212.484C193.661 213.861 194.26 215.325 193.909 216.804C196.037 215.676 198.521 215.147 200.81 216.005C202.619 216.875 204.536 217.722 206.016 219.099C207.587 220.719 208.716 223.187 207.987 225.45C211.2 224.953 214.721 226.411 214.38 230.159C214.812 234.608 210.708 237.854 206.448 237.114ZM209.164 211.68C208.376 211.566 208.727 210.6 208.678 210.06C208.77 209.064 208.716 208.059 208.516 207.079C207.117 202.419 201.042 200.55 197.3 203.693C197.296 203.768 197.267 203.839 197.219 203.896C197.17 203.954 197.104 203.993 197.031 204.01C196.958 204.026 196.881 204.019 196.813 203.988C196.745 203.957 196.688 203.905 196.652 203.839C196.442 202.872 198.812 201.873 199.584 201.544C204.833 199.535 210.887 204.611 209.817 210.141C209.736 210.659 209.974 211.68 209.164 211.68ZM222.275 220.579C222.202 220.576 222.13 220.557 222.064 220.525C221.998 220.493 221.939 220.448 221.891 220.392C221.843 220.337 221.807 220.272 221.785 220.202C221.762 220.132 221.755 220.058 221.762 219.985C221.881 218.511 222.162 217.031 221.984 215.552C221.859 213.932 220.785 212.398 219.095 212.263C218.096 212.198 216.8 212.263 216.119 213.078C216.126 213.146 216.119 213.215 216.098 213.279C216.077 213.344 216.043 213.404 215.997 213.455C215.952 213.505 215.896 213.546 215.834 213.573C215.771 213.601 215.704 213.615 215.636 213.615C215.568 213.615 215.5 213.601 215.438 213.573C215.376 213.546 215.32 213.505 215.275 213.455C215.229 213.404 215.195 213.344 215.174 213.279C215.153 213.215 215.145 213.146 215.153 213.078C215.147 213.041 215.147 213.003 215.153 212.965C216.13 210.551 220.828 210.702 222.173 212.808C223.458 214.536 223.323 216.842 223.037 218.862C222.869 219.418 223.123 220.557 222.275 220.579ZM128.186 244.123C123.218 244.123 121.506 238.383 121.058 234.3C121.02 233.96 120.971 233.377 121.425 233.323C121.474 233.32 121.523 233.327 121.569 233.343C121.616 233.359 121.658 233.384 121.695 233.417C121.731 233.449 121.761 233.489 121.783 233.533C121.804 233.577 121.816 233.625 121.819 233.674C121.826 233.739 121.812 233.805 121.781 233.863C122.051 237.103 123.174 240.964 126.155 242.665C130.475 244.285 134.919 241.115 137.193 237.654C138.041 236.315 138.273 234.749 138.699 233.253C138.768 233.137 138.878 233.051 139.007 233.012C139.136 232.973 139.275 232.984 139.396 233.042C139.487 233.092 139.562 233.167 139.612 233.258C139.708 233.514 139.769 233.78 139.796 234.052C140.287 237.044 141.34 240.213 144.013 241.909C145.318 242.602 146.806 242.87 148.271 242.677C149.736 242.483 151.103 241.837 152.183 240.829C153.643 239.273 154.845 237.494 155.742 235.559L156.746 233.399C156.806 233.281 156.909 233.192 157.033 233.148C157.158 233.104 157.294 233.11 157.414 233.164C157.534 233.219 157.629 233.317 157.678 233.439C157.728 233.561 157.729 233.697 157.68 233.82C156.309 237.308 154.511 241.202 151.044 243C145.212 245.829 140.06 241.671 139.094 235.775C137.7 240.343 133.035 244.177 128.186 244.123ZM87.8909 234.133C90.3641 234.106 92.3783 231.433 92.0543 229.046C91.8437 228.452 91.1255 228.382 90.5855 228.452C88.1285 228.949 86.7299 231.53 86.4491 233.852C86.9112 234.023 87.3982 234.118 87.8909 234.133ZM99.4145 244.393C96.4464 244.144 93.5464 243.369 90.8501 242.103C87.6803 240.991 85.0397 238.043 85.1909 234.543C76.2755 229.521 77.3069 219.423 85.8821 214.677C90.1373 212.139 95.3105 212.781 99.8897 213.986C102.731 214.796 105.412 216.087 107.817 217.803C108.951 218.554 110.079 219.31 111.192 220.088C112.612 221.027 114.864 223.187 116.376 221.362C119.076 217.247 119.616 212.182 120.696 207.484C121.846 202.392 122.683 197.234 123.201 192.04C123.412 189.518 123.617 186.996 123.866 184.48C124.017 183.546 123.903 182.504 124.314 181.64C124.665 181.245 125.318 181.802 124.935 182.212C124.325 186.581 124.395 191.019 123.855 195.404C123.423 199.459 122.764 203.487 121.878 207.468C120.707 212.522 120.215 218.106 117.056 222.393C114.119 225.093 110.679 220.822 108.114 219.44C105.533 217.668 102.849 216.016 99.8141 215.19C95.8991 214.185 91.6223 213.392 87.8153 215.033C79.4561 218.624 76.8695 228.053 85.3367 233.285C85.4794 232.191 85.8586 231.142 86.448 230.209C87.0373 229.276 87.8227 228.483 88.7495 227.885C90.0401 227.059 92.2487 226.805 93.0695 228.425C94.2143 232.076 90.0995 236.412 86.3681 235.04C86.6273 239.771 91.6709 241.337 95.4887 242.514C99.7655 243.848 104.193 242.962 108.395 241.893C112.337 240.662 115.83 238.334 119.34 236.217C119.46 236.15 119.601 236.131 119.735 236.164C119.868 236.197 119.984 236.28 120.059 236.396C120.122 236.508 120.143 236.64 120.117 236.767C120.091 236.894 120.021 237.007 119.918 237.087C117.241 239.014 114.384 240.678 111.386 242.055C109.78 242.794 108.082 243.314 106.337 243.599C104.076 244.163 101.75 244.428 99.4199 244.388L99.4145 244.393ZM73.7429 232.162C69.6119 232.097 68.2673 228.177 67.7651 224.699C67.0253 219.596 70.7297 214.515 75.5141 212.97C76.6917 212.705 77.8834 212.507 79.0835 212.376C79.2066 212.356 79.333 212.385 79.4348 212.457C79.5366 212.529 79.6054 212.639 79.6262 212.762C79.6469 212.886 79.6179 213.012 79.5455 213.114C79.4731 213.215 79.3632 213.284 79.2401 213.305H79.2131C77.6957 213.521 76.0703 213.651 74.7203 214.412C71.7017 216 69.2069 219.083 68.8829 222.512C68.7911 225.725 69.6389 230.256 73.1489 231.26C73.4459 231.471 74.1317 231.487 74.0723 231.951C74.0512 232.02 74.0065 232.078 73.9462 232.117C73.8859 232.156 73.8138 232.171 73.7429 232.162ZM69.0233 240.386C66.9983 240.386 64.5791 240.386 63.2939 238.534C61.1933 235.688 62.3759 231.066 65.6375 229.656C66.1775 229.451 68.4725 228.576 68.5859 229.419C68.6399 229.921 68.0459 229.899 67.7219 229.959C64.8005 230.25 62.8619 233.291 63.4397 236.072C63.5383 236.731 63.8081 237.354 64.2221 237.877C64.6362 238.4 65.18 238.805 65.7995 239.052C66.8795 239.403 67.9973 239.501 69.0665 239.76C69.1084 239.766 69.1486 239.78 69.1848 239.802C69.2211 239.824 69.2525 239.852 69.2772 239.887C69.3019 239.921 69.3194 239.96 69.3287 240.001C69.338 240.043 69.3388 240.085 69.3311 240.127C69.3174 240.199 69.2793 240.264 69.2233 240.311C69.1672 240.358 69.0966 240.385 69.0233 240.386ZM40.3169 225.817C34.9547 225.045 34.7171 218.257 36.5369 214.277C37.1741 212.598 38.7779 211.475 40.2737 210.584C41.1647 210.195 46.4081 207.014 46.7537 208.213C46.7803 208.327 46.762 208.446 46.7027 208.547C46.6433 208.647 46.5475 208.721 46.4351 208.753C44.8742 209.228 43.3793 209.898 41.9855 210.746C38.6213 212.366 37.0337 214.466 36.7421 218.187V218.16C36.2021 222.48 38.5079 225.574 43.0655 224.759C43.4705 224.818 44.3615 224.456 44.5019 224.953C44.5098 225.024 44.4925 225.095 44.453 225.154C44.4134 225.214 44.3543 225.257 44.2859 225.277C42.9737 225.531 41.6615 225.957 40.3169 225.817Z" fill="black"/>
<path d="M115.56 196.862C114.744 196.679 115.506 194.961 115.56 194.411C116.057 191.484 116.343 188.519 116.575 185.565C116.575 185.301 116.575 184.982 116.807 184.809C117.228 184.399 117.855 185.096 117.417 185.479C117.18 186.937 116.813 197.003 115.56 196.862ZM113.713 209.784C113.254 209.714 113.238 209.244 113.351 208.899C113.724 207.063 114.183 205.194 114.512 203.38C114.647 202.656 114.782 201.933 114.896 201.22C114.907 201.145 114.942 201.077 114.996 201.023C115.049 200.97 115.118 200.935 115.193 200.923C115.7 200.891 115.614 201.522 115.592 201.863C115.397 203.984 115.058 206.089 114.577 208.164C114.345 208.683 114.48 209.801 113.713 209.784ZM132.964 219.839C132.176 215.703 133.013 211.496 132.608 207.338C132.635 206.901 132.219 206.215 132.791 206.004C132.847 205.987 132.905 205.982 132.963 205.988C133.021 205.995 133.077 206.013 133.128 206.042C133.178 206.07 133.222 206.109 133.257 206.156C133.292 206.202 133.317 206.256 133.331 206.312C133.333 206.327 133.333 206.341 133.331 206.355C133.914 209.709 133.779 213.095 133.796 216.486C133.839 217.598 133.941 218.673 133.974 219.764C133.978 219.83 133.97 219.896 133.949 219.959C133.928 220.021 133.895 220.079 133.851 220.129C133.808 220.179 133.755 220.22 133.696 220.249C133.637 220.279 133.573 220.296 133.507 220.301C133.441 220.306 133.374 220.297 133.312 220.276C133.249 220.255 133.191 220.222 133.141 220.179C133.091 220.135 133.05 220.083 133.021 220.023C132.991 219.964 132.974 219.9 132.969 219.834L132.964 219.839ZM249.901 37.195C250.7 38.5126 248.821 39.3928 247.741 39.6142C245.662 40.0732 243.669 40.5214 241.617 41.0074C240.186 41.3476 238.512 41.4232 237.395 42.4708C237.176 42.6922 236.937 42.8928 236.682 43.0702C236.606 43.243 236.504 43.405 236.433 43.5454C235.051 46.3534 234.565 49.4855 233.085 52.2719C230.693 56.7647 228.636 61.4519 225.914 65.7719C223.959 68.974 221.837 72.3005 218.619 74.3633C216.974 75.9968 215.026 77.2936 212.884 78.181C211.451 78.4938 209.976 78.5595 208.521 78.3755C208.564 82.1554 208.47 85.9354 208.24 89.7154C207.873 98.1124 208.877 106.499 209.055 114.885C209.19 120.825 209.487 126.722 209.682 132.645V137.009C209.682 138.629 209.952 140.303 209.385 141.869C209.039 142.614 208.845 143.591 207.932 143.84C207.828 143.875 207.715 143.875 207.611 143.839C207.508 143.802 207.419 143.732 207.36 143.64C207.128 143.224 207.533 142.976 207.819 142.76C208.117 142.271 208.344 141.741 208.494 141.188C208.677 139.891 208.704 138.577 208.575 137.273C208.575 134.406 208.575 131.544 208.407 128.687C208.11 118.227 207.619 107.773 207.074 97.3295C206.841 90.2447 207.565 83.1761 207.371 76.0913C207.371 72.4516 206.879 68.8552 206.674 65.2264C206.366 63.7408 206.177 62.2331 206.107 60.7174C205.788 59.5024 205.886 58.1687 205.778 56.8943C205.778 56.8078 205.778 56.7268 205.751 56.6404C205.724 56.554 205.751 56.4677 205.724 56.3759C205.685 56.088 205.627 55.803 205.551 55.5226C204.865 52.9464 203.706 50.5202 202.133 48.3676C201.679 47.8023 201.167 47.2864 200.604 46.8286C199.809 46.3526 198.932 46.0303 198.018 45.8782C195.377 44.9818 192.618 45.6406 189.918 45.592C185.393 45.8188 180.959 46.1752 176.477 46.7044C168.48 47.0014 160.466 47.104 152.469 47.3956C147.069 47.4496 141.701 47.5037 136.312 47.6224C132.532 47.7413 128.779 47.8276 125.015 47.9032C123.422 48.0688 121.82 48.1157 120.22 48.0436C117.902 47.8976 115.576 47.9845 113.276 48.3028C111.461 48.427 109.636 48.3514 107.816 48.4C103.404 48.4 99.0033 48.4 94.5915 48.5998C91.3029 48.886 88.0089 49.1398 84.7095 49.1398C81.1509 49.3181 77.6409 50.1496 74.0931 50.2738L73.8717 50.3225C71.1069 50.9489 67.9317 51.1433 65.7069 53.0981C65.2857 53.6381 64.8429 54.2104 64.4325 54.7828C63.7385 56.1941 63.2823 57.7103 63.0825 59.2703C62.9259 59.9939 63.1149 60.7337 62.9637 61.4302C62.8827 61.6462 62.9637 62.089 62.7153 62.1592C62.2887 71.782 64.0059 81.3508 63.8979 90.979C64.0815 101.385 64.5729 111.774 64.8969 122.169C64.9671 125.998 65.0427 129.827 65.1561 133.655C66.5115 133.477 67.8561 133.288 69.2061 133.218C70.8261 133.148 72.3759 132.797 73.9797 132.915C74.4562 132.921 74.9306 132.979 75.3945 133.088C82.0221 132.415 88.6587 131.913 95.3043 131.582C96.7799 131.637 98.2575 131.591 99.7269 131.447C101.675 131.497 103.625 131.429 105.564 131.241C109.447 131.279 113.33 131.025 117.196 130.766C123.449 130.469 129.616 130.523 135.88 130.226C139.023 130.016 142.171 130.226 145.319 130.059C147.544 130.237 149.758 129.789 151.956 130.151C153.257 130.265 154.491 130.776 155.493 131.614C155.907 132.057 156.155 132.629 156.195 133.234C156.415 134.187 156.552 135.157 156.605 136.134C156.989 139.287 157.334 142.436 157.518 145.611C157.528 146.028 157.508 146.444 157.458 146.858C162.858 146.858 168.258 146.291 173.658 146C181.375 145.584 189.092 145.179 196.781 144.38L203.456 143.769C204.396 143.651 205.33 143.482 206.253 143.262C206.319 143.235 206.39 143.221 206.462 143.222C206.533 143.222 206.604 143.237 206.67 143.265C206.736 143.292 206.796 143.333 206.846 143.384C206.896 143.435 206.936 143.495 206.963 143.562C206.99 143.628 207.003 143.699 207.003 143.77C207.002 143.842 206.988 143.913 206.96 143.979C206.932 144.045 206.892 144.104 206.841 144.155C206.79 144.205 206.729 144.245 206.663 144.272C203.834 145.206 200.761 145.071 197.818 145.465C194.346 145.719 190.901 146.172 187.428 146.41C179.69 146.977 171.936 147.128 164.208 147.89C158.182 148.057 152.145 148.224 146.108 148.3C146.102 148.324 146.091 148.346 146.075 148.365C147.35 157.21 147.663 166.217 150.325 174.825C150.695 176.314 151.267 177.746 152.026 179.08C152.532 179.38 153.077 179.609 153.646 179.76C155.018 179.771 156.367 179.415 157.556 178.729C160.925 176.504 164.543 174.647 168.102 172.789C169.976 171.785 171.633 170.44 173.502 169.425C175.154 168.372 176.828 167.362 178.491 166.325C180.84 164.754 184.091 162.254 187.045 162.966C187.368 163.02 187.688 163.096 188.001 163.193C188.297 163.359 188.555 163.585 188.759 163.857C188.962 164.128 189.107 164.439 189.183 164.77L189.259 165.008C189.799 166.088 190.199 167.492 190.501 168.161C191.273 171.115 192.791 175.008 190.55 177.644C189.61 178.383 188.805 177.93 188.336 176.958C187.736 175.802 187.256 174.588 186.905 173.334C186.365 171.515 186.149 169.468 184.966 167.934C184.831 167.81 184.668 167.719 184.491 167.67C183.119 168.005 182.077 169.16 180.873 169.862C177.746 172.146 174.198 173.82 171.201 176.277C168.818 178.082 166.29 179.686 163.641 181.073C160.806 182.822 157.615 184.426 154.213 184.394L152.831 184.35C147.279 184.826 145.384 179.323 144.563 174.814C143.602 170.251 142.565 165.634 142.506 160.952C142.241 158.058 141.534 155.255 141.35 152.355C141.264 151.038 141.377 149.704 141.35 148.381C135.95 148.413 130.55 148.381 125.15 148.16H124.74C124.707 148.447 124.659 148.731 124.594 149.013C123.811 152.204 122.585 155.293 121.592 158.42C120.193 162.102 118.476 165.699 116.958 169.328C114.258 174.96 113.616 180.311 105.969 177.179C103.745 176.601 101.806 175.311 99.6621 174.522C97.5183 173.734 95.1261 173.604 93.2577 172.238C92.9553 175.273 91.0005 177.779 89.2995 180.187C88.1655 181.472 87.3663 183.783 85.3953 183.816C82.5981 183.632 84.3153 178.416 84.8553 176.796C86.2647 173.556 87.5175 170.035 90.0717 167.486C90.7305 166.784 91.6917 166.946 92.5611 167.124C98.1123 168.545 102.157 173.972 108.124 174.085C108.448 174.053 108.875 174.134 109.118 173.885C109.709 173.381 110.24 172.81 110.7 172.184C112.139 169.679 113.402 167.078 114.48 164.397C115.56 161.827 116.845 159.381 117.871 156.805C118.697 154.865 119.418 152.882 120.031 150.865C120.279 149.95 120.577 149.048 120.922 148.165C113.519 148.095 106.115 147.587 98.7171 147.792C92.8581 148.154 86.9721 148.489 81.1455 149.191C77.86 149.722 74.5377 149.993 71.2095 150.001C69.9098 149.9 68.6276 149.638 67.3917 149.223C67.2879 149.24 67.1823 149.24 67.0785 149.223C66.2739 148.943 65.3397 148.365 65.2695 147.431C65.1739 147.137 65.1052 146.835 65.0643 146.529C64.2219 144.687 64.3083 142.598 64.1949 140.589C63.8655 134.309 63.7899 128.018 63.6549 121.727C63.3039 111.288 62.8719 100.856 62.6829 90.4066V88.8839C60.7663 88.4456 58.948 87.6545 57.3207 86.551C55.034 85.1958 52.8774 83.6322 50.8785 81.8801C45.0141 76.8203 40.3539 70.4266 36.5631 63.7198C35.0511 61.1062 33.2367 58.6438 32.2431 55.771C32.0517 55.3606 31.9155 54.9267 31.8381 54.4804C30.3091 52.8621 28.3337 51.7344 26.1627 51.2404C24.5427 50.9272 22.7013 51.019 21.2595 50.1172C20.7789 49.6852 19.4343 48.7888 20.0769 48.0922C21.2163 47.5522 22.6203 48.2218 23.8083 48.292C25.9683 48.7186 28.1013 49.1992 30.2127 49.7878C27.9177 46.9096 26.6757 43.3078 25.5471 39.868C25.0071 38.1022 25.6767 37.4596 26.9835 38.9878C28.7169 41.2882 29.9589 43.9396 31.3197 46.4398C30.8823 43.2916 30.2397 39.6628 31.8921 36.7738C32.0811 36.4444 32.4915 36.0232 32.7615 36.5254C33.5931 38.032 33.1935 39.895 33.3717 41.5528C33.4851 43.6696 33.6741 45.7594 33.8523 47.8654C35.0835 45.457 36.3093 43.0054 38.2317 41.0776C39.0039 40.4458 39.9111 39.328 40.9695 39.3604C41.9307 39.7114 41.3583 40.9804 41.0019 41.623C39.9921 43.4644 38.7123 45.1384 37.6809 46.9582C36.5631 48.7726 35.1321 50.3818 34.1439 52.2772C34.1439 52.3474 34.0845 52.423 34.0521 52.4932C34.1061 52.5305 34.1475 52.5832 34.1709 52.6444C36.3309 58.6924 40.0245 63.925 43.6641 69.1414C46.7097 73.3858 50.4843 77.0254 54.4263 80.422C56.9191 82.2489 59.6639 83.7041 62.5749 84.742C62.2725 78.4294 61.5705 72.133 61.4949 65.8097C61.5424 63.1859 61.7498 60.5674 62.1159 57.9688C62.0454 57.8361 62.0298 57.6809 62.0727 57.5369C62.1213 57.0827 62.1213 56.6248 62.0727 56.1706C62.0727 51.7588 64.7187 49.6474 68.9307 49.3559C73.2021 48.8159 77.5113 48.5566 81.7989 48.3082H82.0743C84.7041 47.9194 87.3555 48.049 90.0015 47.8708C93.4953 47.4065 97.0215 47.4064 100.526 47.2444C106.288 47.2444 112.05 47.3255 117.806 46.7747C120.13 46.9529 122.464 46.9529 124.788 46.7747C127.213 46.6181 129.648 46.7746 132.068 46.6072C138.548 46.3372 145.071 46.3751 151.572 46.2347C160.18 45.9701 168.815 45.8944 177.411 45.4571C181.634 44.917 185.911 44.6632 190.139 44.431C191.948 44.431 193.746 44.2204 195.539 44.2204C196.267 44.3005 196.989 44.4304 197.699 44.6092C199.616 44.7496 201.609 45.0737 203.169 46.0997C204.87 47.5075 206.026 49.4653 206.436 51.6347L206.615 52.1422C207.032 53.1094 207.233 54.1563 207.203 55.2094V55.4093C207.387 57.7528 207.236 60.199 207.592 62.4292C208.024 66.3604 208.316 70.2989 208.467 74.2444C209.341 74.3957 210.226 74.4823 211.113 74.5037C211.916 74.2764 212.701 73.9894 213.462 73.6451C216.27 72.7973 218.322 70.6264 220.363 68.6662C223.139 65.5073 225.131 61.8136 227.129 58.1416C229.289 53.8756 231.39 49.5448 233.134 45.0844C233.361 44.6632 233.706 43.4644 234.128 42.6814C234.121 42.6349 234.124 42.5875 234.136 42.5421C234.148 42.4967 234.169 42.4542 234.198 42.4168C234.328 41.9293 234.386 41.4254 234.371 40.921C234.22 39.1946 233.775 37.5069 233.053 35.9314C232.513 34.2304 231.401 32.578 231.509 30.742C231.444 29.716 232.103 28.9708 233.129 29.4568C235.218 30.8338 235.872 33.7768 236.525 36.0664C237.001 33.2173 237.912 30.4581 239.225 27.8854C241.25 23.7058 241.823 25.9306 241.25 29.1328C240.834 31.8328 239.781 34.3276 238.998 36.9142C240.162 35.3025 241.473 33.8021 242.913 32.4322C244.533 30.8122 248.6 28.0474 246.035 32.6752C244.577 34.7218 242.741 36.493 241.175 38.4424C243.34 38.005 248.081 35.8882 249.901 37.195Z" fill="black"/>
</svg>
