<svg width="28" height="28" viewBox="0 0 28 28" fill="none" xmlns="http://www.w3.org/2000/svg">
<g clip-path="url(#clip0_43918_10704)">
<path d="M13.9994 15.1667C9.70885 15.1667 6.06043 17.5195 4.71951 20.7999C4.58631 21.1258 4.70789 21.486 5.01708 21.7077C7.44763 23.4506 10.5803 24.5 13.9993 24.5C17.4184 24.5 20.551 23.4506 22.9816 21.7076C23.2908 21.4859 23.4124 21.1257 23.2792 20.7998C21.9382 17.5195 18.2898 15.1667 13.9994 15.1667Z" stroke="#2D2D2D" stroke-width="1.8"/>
<path d="M18.0827 7.58333C18.0827 9.8385 16.2545 11.6667 13.9993 11.6667C11.7442 11.6667 9.91601 9.8385 9.91601 7.58333C9.91601 5.32817 11.7442 3.5 13.9993 3.5C16.2545 3.5 18.0827 5.32817 18.0827 7.58333Z" stroke="#2D2D2D" stroke-width="1.8"/>
<path d="M4.25 1H3C1.89543 1 1 1.89543 1 3V4.25" stroke="#2D2D2D" stroke-width="1.8" stroke-linecap="round"/>
<path d="M4.25 27H3C1.89543 27 1 26.1046 1 25V23.75" stroke="#2D2D2D" stroke-width="1.8" stroke-linecap="round"/>
<path d="M23.75 1H25C26.1046 1 27 1.89543 27 3V4.25" stroke="#2D2D2D" stroke-width="1.8" stroke-linecap="round"/>
<path d="M23.75 27H25C26.1046 27 27 26.1046 27 25V23.75" stroke="#2D2D2D" stroke-width="1.8" stroke-linecap="round"/>
</g>
<defs>
<clipPath id="clip0_43918_10704">
<rect width="28" height="28" fill="white"/>
</clipPath>
</defs>
</svg>
