<svg width="6" height="4" viewBox="0 0 6 4" fill="none" xmlns="http://www.w3.org/2000/svg">
<path fill-rule="evenodd" clip-rule="evenodd" d="M5.9328 1.70059C3.97666 -0.566862 2.02053 -0.566862 0.0643922 1.70059C0.0229435 1.74995 0 1.81409 0 1.88059C0 1.94708 0.0229435 2.01122 0.0643922 2.06058C2.02053 4.32803 3.97833 4.32803 5.9378 2.06058C5.97857 2.01056 6.00062 1.94605 5.9997 1.87955C5.99878 1.81305 5.97494 1.74928 5.9328 1.70059ZM5.44316 1.88323C4.55581 2.86381 3.74126 3.27271 2.99985 3.27271C2.25782 3.27271 1.44321 2.86312 0.556416 1.88058C1.44327 0.897944 2.25746 0.488464 2.9986 0.488464C3.7404 0.488464 4.55538 0.898679 5.44316 1.88323Z" fill="#2D2D2D"/>
<path d="M2.99987 2.63787C3.44438 2.63787 3.80472 2.29888 3.80472 1.88073C3.80472 1.46257 3.44438 1.12359 2.99987 1.12359C2.55537 1.12359 2.19502 1.46257 2.19502 1.88073C2.19502 2.29888 2.55537 2.63787 2.99987 2.63787Z" fill="#2D2D2D"/>
</svg>
