<svg width="32" height="32" viewBox="0 0 32 32" fill="none" xmlns="http://www.w3.org/2000/svg">
<path fill-rule="evenodd" clip-rule="evenodd" d="M16.0003 9.33398C16.4606 9.33398 16.8337 9.70708 16.8337 10.1673V21.834C16.8337 22.2942 16.4606 22.6673 16.0003 22.6673C15.5401 22.6673 15.167 22.2942 15.167 21.834V10.1673C15.167 9.70708 15.5401 9.33398 16.0003 9.33398Z" fill="#2D2D2D"/>
<path fill-rule="evenodd" clip-rule="evenodd" d="M9.33301 15.9993C9.33301 15.5391 9.7061 15.166 10.1663 15.166H21.833C22.2932 15.166 22.6663 15.5391 22.6663 15.9993C22.6663 16.4596 22.2932 16.8327 21.833 16.8327H10.1663C9.7061 16.8327 9.33301 16.4596 9.33301 15.9993Z" fill="#2D2D2D"/>
<rect x="0.5" y="0.5" width="31" height="31" stroke="#E2E8ED"/>
</svg>
