<svg width="40" height="40" viewBox="0 0 40 40" fill="none" xmlns="http://www.w3.org/2000/svg">
<path fill-rule="evenodd" clip-rule="evenodd" d="M20.0003 4.99935C11.7161 4.99935 5.00033 11.7151 5.00033 19.9993C5.00033 28.2836 11.7161 34.9993 20.0003 34.9993C28.2846 34.9993 35.0003 28.2836 35.0003 19.9993C35.0003 11.7151 28.2846 4.99935 20.0003 4.99935ZM1.66699 19.9993C1.66699 9.87413 9.8751 1.66602 20.0003 1.66602C30.1255 1.66602 38.3337 9.87413 38.3337 19.9993C38.3337 30.1246 30.1255 38.3327 20.0003 38.3327C9.8751 38.3327 1.66699 30.1246 1.66699 19.9993Z" fill="white"/>
<path fill-rule="evenodd" clip-rule="evenodd" d="M20.0003 4.99935C11.7161 4.99935 5.00033 11.7151 5.00033 19.9993C5.00033 28.2836 11.7161 34.9993 20.0003 34.9993C28.2846 34.9993 35.0003 28.2836 35.0003 19.9993C35.0003 11.7151 28.2846 4.99935 20.0003 4.99935ZM26.1788 13.8208C26.8297 14.4717 26.8297 15.527 26.1788 16.1779L22.3573 19.9993L26.1788 23.8208C26.8297 24.4717 26.8297 25.527 26.1788 26.1779C25.528 26.8287 24.4727 26.8287 23.8218 26.1779L20.0003 22.3564L16.1788 26.1779C15.528 26.8287 14.4727 26.8287 13.8218 26.1779C13.1709 25.527 13.1709 24.4717 13.8218 23.8208L17.6433 19.9993L13.8218 16.1779C13.1709 15.527 13.1709 14.4717 13.8218 13.8208C14.4727 13.17 15.528 13.17 16.1788 13.8208L20.0003 17.6423L23.8218 13.8208C24.4727 13.17 25.528 13.17 26.1788 13.8208Z" fill="white"/>
</svg>
