<svg width="40" height="12" viewBox="0 0 40 12" fill="none" xmlns="http://www.w3.org/2000/svg">
<path d="M14.0918 11.8281H17.3286L19.3553 0.202148H16.1164L14.0918 11.8281Z" fill="white"/>
<path d="M25.8851 4.87C24.7527 4.332 24.0598 3.973 24.0669 3.429C24.0669 2.946 24.6536 2.429 25.9219 2.429C26.9593 2.413 27.7953 2.62 28.6364 3.009L29.0759 0.489C28.4331 0.253 27.4274 0 26.1723 0C22.9723 0 20.7177 1.577 20.6993 3.837C20.6809 5.507 22.309 6.439 23.5375 6.995C24.7977 7.565 25.2218 7.928 25.2157 8.437C25.2075 9.216 24.209 9.572 23.2779 9.572C21.841 9.572 21.1163 9.355 19.8122 8.777L19.3574 11.38C20.1137 11.704 21.5129 11.986 22.9652 12C26.3696 12 28.5792 10.441 28.6048 8.028C28.616 6.706 27.7534 5.699 25.8851 4.87Z" fill="white"/>
<path d="M37.3793 0.212891H34.8763C34.1006 0.212891 33.5211 0.419891 33.1808 1.17689L28.3711 11.8309H31.7714C31.7714 11.8309 32.3274 10.3979 32.4531 10.0839C32.8251 10.0839 36.1283 10.0889 36.6005 10.0889C36.6976 10.4959 36.995 11.8309 36.995 11.8309H39.9998L37.3793 0.212891ZM33.3852 7.70589C33.5191 7.37089 34.8416 4.04989 35.1053 3.34689C35.5427 5.35089 35.1165 3.40689 36.0741 7.70589H33.3852Z" fill="white"/>
<path d="M11.3752 0.211079L8.20486 8.13908L7.86657 6.52808L6.7311 1.18608C6.53487 0.450079 5.96662 0.230078 5.26346 0.205078H0.0408812L0 0.447079C1.27038 0.748079 2.40586 1.18208 3.40132 1.72208L6.28038 11.8191L9.70725 11.8151L14.8062 0.212078H11.3752V0.211079Z" fill="white"/>
</svg>
