<svg width="20" height="20" viewBox="0 0 20 20" fill="none" xmlns="http://www.w3.org/2000/svg">
<path fill-rule="evenodd" clip-rule="evenodd" d="M0.833008 1.66732C0.833008 1.20708 1.2061 0.833984 1.66634 0.833984H9.99967C10.2207 0.833984 10.4326 0.921782 10.5889 1.07806L17.749 8.23815C18.2146 8.70656 18.476 9.34019 18.476 10.0007C18.476 10.6611 18.2146 11.2947 17.749 11.7632L17.158 11.1756L17.7473 11.7649L11.7726 17.7396C11.7725 17.7397 11.7727 17.7395 11.7726 17.7396C11.5405 17.9719 11.2645 18.1565 10.9612 18.2822C10.6577 18.408 10.3324 18.4728 10.0038 18.4728C9.6753 18.4728 9.34999 18.408 9.04649 18.2822C8.74307 18.1564 8.46741 17.9721 8.23527 17.7398C8.23521 17.7397 8.23533 17.7398 8.23527 17.7398L1.07743 10.5902C0.920938 10.4339 0.833008 10.2218 0.833008 10.0007V1.66732ZM16.567 10.5882C16.5673 10.5879 16.5675 10.5876 16.5678 10.5874C16.7225 10.4313 16.8093 10.2204 16.8093 10.0007C16.8093 9.78086 16.7225 9.56998 16.5678 9.41392C16.5675 9.41366 16.5673 9.41341 16.567 9.41315L9.6545 2.50065H2.49967V9.65519L9.41359 16.5611L9.41426 16.5617C9.49165 16.6392 9.58356 16.7007 9.68472 16.7426C9.78589 16.7845 9.89432 16.8061 10.0038 16.8061C10.1134 16.8061 10.2218 16.7845 10.323 16.7426C10.4241 16.7007 10.516 16.6392 10.5934 16.5617L16.567 10.5882Z" fill="#5564D7"/>
</svg>
