<svg width="20" height="20" viewBox="0 0 20 20" fill="none" xmlns="http://www.w3.org/2000/svg">
<path fill-rule="evenodd" clip-rule="evenodd" d="M1.66699 2.50033C1.66699 2.04009 2.04009 1.66699 2.50033 1.66699H8.33366C8.7939 1.66699 9.16699 2.04009 9.16699 2.50033V8.33366C9.16699 8.7939 8.7939 9.16699 8.33366 9.16699H2.50033C2.04009 9.16699 1.66699 8.7939 1.66699 8.33366V2.50033ZM3.33366 3.33366V7.50033H7.50033V3.33366H3.33366Z" fill="#828FA2"/>
<path fill-rule="evenodd" clip-rule="evenodd" d="M10.833 2.50033C10.833 2.04009 11.2061 1.66699 11.6663 1.66699H17.4997C17.9599 1.66699 18.333 2.04009 18.333 2.50033V8.33366C18.333 8.7939 17.9599 9.16699 17.4997 9.16699H11.6663C11.2061 9.16699 10.833 8.7939 10.833 8.33366V2.50033ZM12.4997 3.33366V7.50033H16.6663V3.33366H12.4997Z" fill="#828FA2"/>
<path fill-rule="evenodd" clip-rule="evenodd" d="M10.833 11.6663C10.833 11.2061 11.2061 10.833 11.6663 10.833H17.4997C17.9599 10.833 18.333 11.2061 18.333 11.6663V17.4997C18.333 17.9599 17.9599 18.333 17.4997 18.333H11.6663C11.2061 18.333 10.833 17.9599 10.833 17.4997V11.6663ZM12.4997 12.4997V16.6663H16.6663V12.4997H12.4997Z" fill="#828FA2"/>
<path fill-rule="evenodd" clip-rule="evenodd" d="M1.66699 11.6663C1.66699 11.2061 2.04009 10.833 2.50033 10.833H8.33366C8.7939 10.833 9.16699 11.2061 9.16699 11.6663V17.4997C9.16699 17.9599 8.7939 18.333 8.33366 18.333H2.50033C2.04009 18.333 1.66699 17.9599 1.66699 17.4997V11.6663ZM3.33366 12.4997V16.6663H7.50033V12.4997H3.33366Z" fill="#828FA2"/>
</svg>
