<svg width="494" height="598" viewBox="0 0 494 598" fill="none" xmlns="http://www.w3.org/2000/svg">
<path d="M249.953 302.655C249.953 303.424 248.671 304.118 246.077 304.437H239.492C236.903 304.118 235.622 303.424 235.622 302.636C235.622 301.848 236.903 301.17 239.492 300.833H246.077C248.671 301.17 249.951 301.846 249.951 302.655H249.953ZM278.615 302.655C278.615 303.424 277.333 304.118 274.739 304.437H268.154C265.565 304.118 264.284 303.424 264.284 302.636C264.284 301.848 265.565 301.17 268.154 300.833H274.739C277.333 301.17 278.613 301.846 278.613 302.655H278.615ZM307.277 302.655C307.277 303.424 305.995 304.118 303.401 304.437H296.816C294.226 304.118 292.946 303.424 292.946 302.636C292.946 301.848 294.226 301.17 296.816 300.833H303.401C305.995 301.17 307.275 301.846 307.275 302.655H307.277ZM326.579 317.215C325.893 317.215 325.275 315.776 324.99 312.866C325.079 310.6 324.541 308.759 323.361 307.178C322.201 305.2 321.217 304.209 321.515 303.432C321.706 302.775 323.486 302.459 325.814 304.849C327.534 307.012 328.341 310.219 328.203 312.866C327.902 315.776 327.3 317.215 326.579 317.215ZM326.579 349.369C325.893 349.369 325.275 347.93 324.99 345.023V337.636C325.277 334.731 325.893 333.292 326.598 333.292C327.302 333.292 327.902 334.731 328.203 337.633V345.023C327.902 347.93 327.3 349.369 326.579 349.369ZM326.579 381.523C325.893 381.523 325.275 380.084 324.99 377.177V369.79C325.277 366.885 325.893 365.446 326.598 365.446C327.302 365.446 327.902 366.885 328.203 369.787V377.177C327.902 380.084 327.3 381.523 326.579 381.523ZM333.532 409.867C333.472 410.237 333.09 410.548 332.318 410.617C331.556 410.684 330.381 410.472 329.056 409.561C326.932 407.789 325.516 405.149 325.115 402.214C325.05 400.392 325.389 399.428 325.635 398.683C325.915 397.959 326.244 397.6 326.598 397.6C326.949 397.6 327.274 397.959 327.551 398.683C327.845 399.385 328 400.604 328.291 401.668C328.54 403.65 329.548 405.475 330.976 406.673C332.493 408.334 333.675 409.004 333.532 409.867ZM362.189 410.025C362.189 410.794 360.909 411.491 358.317 411.81H351.73C349.14 411.488 347.86 410.794 347.86 410.006C347.86 409.218 349.14 408.543 351.73 408.206H358.317C360.909 408.543 362.191 409.218 362.191 410.028L362.189 410.025ZM390.851 410.025C390.851 410.794 389.57 411.491 386.979 411.81H380.392C377.802 411.488 376.522 410.794 376.522 410.006C376.522 409.218 377.802 408.543 380.392 408.206H386.979C389.57 408.543 390.853 409.218 390.853 410.028L390.851 410.025ZM419.513 410.025C419.513 410.794 418.232 411.491 415.641 411.81H409.053C406.464 411.488 405.184 410.794 405.184 410.006C405.184 409.218 406.464 408.543 409.053 408.206H415.641C418.232 408.543 419.515 409.218 419.515 410.028L419.513 410.025ZM448.175 410.025C448.175 410.794 446.894 411.491 444.303 411.81H437.715C435.126 411.488 433.846 410.794 433.846 410.006C433.846 409.218 435.126 408.543 437.715 408.206H444.303C446.894 408.543 448.177 409.218 448.177 410.028L448.175 410.025ZM465.061 392.67C465.749 392.67 466.368 394.109 466.652 397.019L466.645 400.759C466.617 402.23 466.332 403.681 465.804 405.028C464.19 408.082 462.389 408.329 462.037 407.761C461.553 407.118 462.269 405.856 462.862 403.581C463.22 402.667 463.418 401.678 463.435 400.674L463.44 397.019C463.741 394.109 464.342 392.67 465.064 392.67H465.061ZM465.061 360.516C465.749 360.516 466.368 361.952 466.652 364.862V372.249C466.365 375.154 465.749 376.59 465.045 376.59C464.34 376.59 463.741 375.154 463.44 372.249V364.862C463.741 361.952 464.342 360.516 465.064 360.516H465.061ZM465.061 328.362C465.749 328.362 466.368 329.798 466.652 332.708V340.095C466.365 343 465.749 344.436 465.045 344.436C464.34 344.436 463.741 343 463.44 340.095V332.708C463.741 329.798 464.342 328.362 465.064 328.362H465.061ZM465.061 296.208C465.749 296.208 466.368 297.644 466.652 300.554V307.941C466.365 310.846 465.749 312.282 465.045 312.282C464.34 312.282 463.741 310.846 463.44 307.941V300.554C463.741 297.644 464.342 296.208 465.064 296.208H465.061ZM465.061 264.054C465.749 264.054 466.368 265.49 466.652 268.4V275.787C466.365 278.692 465.749 280.128 465.045 280.128C464.34 280.128 463.741 278.692 463.44 275.787V268.4C463.741 265.49 464.342 264.054 465.064 264.054H465.061ZM465.061 231.9C465.749 231.9 466.368 233.336 466.652 236.246V243.633C466.365 246.538 465.749 247.974 465.045 247.974C464.34 247.974 463.741 246.538 463.44 243.633V236.246C463.741 233.336 464.342 231.9 465.064 231.9H465.061ZM465.061 199.746C465.749 199.746 466.368 201.182 466.652 204.092V211.479C466.365 214.384 465.749 215.82 465.045 215.82C464.34 215.82 463.741 214.384 463.44 211.479V204.092C463.741 201.182 464.342 199.746 465.064 199.746H465.061ZM465.061 167.592C465.749 167.592 466.368 169.028 466.652 171.938V179.325C466.365 182.23 465.749 183.666 465.045 183.666C464.34 183.666 463.741 182.23 463.44 179.325V171.938C463.741 169.028 464.342 167.592 465.064 167.592H465.061ZM454.124 143.568C454.124 143.182 454.444 142.817 455.089 142.506C455.729 142.23 456.642 141.845 458.266 141.949C460.872 142.454 463.199 144.084 464.746 146.491C465.534 147.991 465.706 149.312 465.63 150.167C465.553 151.03 465.267 151.456 464.928 151.518C464.175 151.66 463.59 150.328 462.14 148.6C461.086 146.959 459.5 145.847 457.724 145.502C456.778 145.156 455.734 144.985 455.089 144.653C454.444 144.342 454.124 143.969 454.124 143.568ZM425.462 143.568C425.462 142.799 426.745 142.102 429.337 141.783H435.924C438.511 142.105 439.793 142.799 439.793 143.586C439.793 144.374 438.511 145.049 435.924 145.387H429.337C426.745 145.049 425.462 144.374 425.462 143.565V143.568ZM411.75 122.726C412.438 122.726 413.057 124.165 413.341 127.075L413.348 134.396C413.186 136.754 413.42 138.217 412.768 138.621C412.249 139.015 410.673 138.04 410.14 134.543L410.128 127.075C410.429 124.165 411.031 122.726 411.753 122.726H411.75ZM411.75 90.5724C412.438 90.5724 413.057 92.0113 413.341 94.9186V102.306C413.057 105.211 412.438 106.649 411.736 106.649C411.031 106.649 410.429 105.211 410.128 102.309V94.9186C410.429 92.0113 411.031 90.5724 411.753 90.5724H411.75ZM411.75 58.4184C412.438 58.4184 413.057 59.8573 413.341 62.7646V70.152C413.057 73.0565 412.438 74.4954 411.736 74.4954C411.031 74.4954 410.429 73.0565 410.128 70.1546V62.7646C410.429 59.8573 411.031 58.4184 411.753 58.4184H411.75ZM405.478 29.4691C405.561 29.1074 405.97 28.826 406.744 28.8341C407.508 28.8367 408.655 29.161 409.916 30.1845C411.904 32.1451 413.124 34.9048 413.312 37.8667C413.085 41.0285 412.424 42.2852 411.736 42.3414C411.022 42.3977 410.451 40.7739 410.107 38.1212C409.978 36.1028 409.146 34.2226 407.79 32.8882C406.397 31.0982 405.275 30.3105 405.478 29.4691ZM376.835 29.1368C376.835 28.3678 378.118 27.6738 380.709 27.355H387.294C389.883 27.6738 391.166 28.3678 391.166 29.1556C391.166 29.9434 389.883 30.6213 387.297 30.9589H380.709C378.118 30.6213 376.835 29.9461 376.835 29.1368ZM348.173 29.1368C348.173 28.3678 349.456 27.6738 352.047 27.355H358.632C361.221 27.6738 362.504 28.3678 362.504 29.1556C362.504 29.9434 361.221 30.6213 358.635 30.9589H352.047C349.456 30.6213 348.173 29.9461 348.173 29.1368ZM319.511 29.1368C319.511 28.3678 320.794 27.6738 323.385 27.355H329.97C332.559 27.6738 333.842 28.3678 333.842 29.1556C333.842 29.9434 332.559 30.6213 329.973 30.9589H323.385C320.794 30.6213 319.511 29.9461 319.511 29.1368ZM290.849 29.1368C290.849 28.3678 292.132 27.6738 294.723 27.355H301.308C303.897 27.6738 305.18 28.3678 305.18 29.1556C305.18 29.9434 303.898 30.6213 301.311 30.9589H294.723C292.132 30.6213 290.849 29.9461 290.849 29.1368ZM262.187 29.1368C262.187 28.3678 263.47 27.6738 266.061 27.355H272.646C275.236 27.6738 276.518 28.3678 276.518 29.1556C276.518 29.9434 275.236 30.6213 272.649 30.9589H266.061C263.47 30.6213 262.187 29.9461 262.187 29.1368ZM233.525 29.1368C233.525 28.3678 234.808 27.6738 237.399 27.355H243.984C246.574 27.6738 247.856 28.3678 247.856 29.1556C247.856 29.9434 246.574 30.6213 243.987 30.9589H237.399C234.808 30.6213 233.525 29.9461 233.525 29.1368ZM204.863 29.1368C204.863 28.3678 206.146 27.6738 208.737 27.355H215.322C217.912 27.6738 219.194 28.3678 219.194 29.1556C219.194 29.9434 217.912 30.6213 215.325 30.9589H208.737C206.146 30.6213 204.863 29.9461 204.863 29.1368ZM176.201 29.1368C176.201 28.3678 177.484 27.6738 180.075 27.355H186.66C189.25 27.6738 190.532 28.3678 190.532 29.1556C190.532 29.9434 189.25 30.6213 186.663 30.9589H180.075C177.484 30.6213 176.201 29.9461 176.201 29.1368ZM147.539 29.1368C147.539 28.3678 148.822 27.6738 151.413 27.355H157.999C160.588 27.6738 161.87 28.3678 161.87 29.1556C161.87 29.9434 160.588 30.6213 158.001 30.9589H151.413C148.822 30.6213 147.539 29.9461 147.539 29.1368ZM133.741 49.9619C133.055 49.9619 132.437 48.523 132.153 45.6131L132.165 38.1319C132.384 36.4063 132.986 35.2568 133.509 34.6379C134.044 34.0109 134.512 33.8849 134.813 34.0752C135.465 34.4771 135.205 35.9401 135.375 38.3034L135.365 45.6131C135.064 48.523 134.46 49.9619 133.741 49.9619ZM129.136 80.1384C128.802 79.4016 129.733 78.3432 130.786 76.288C131.317 75.4842 131.718 74.5731 131.933 73.6085C132.174 72.6278 132.157 71.7114 132.153 70.3824C132.437 67.4778 133.055 66.0389 133.758 66.0389C134.46 66.0389 135.064 67.4778 135.365 70.3824C135.372 71.5131 135.401 73.094 135.043 74.5035C134.718 75.9275 134.147 77.2658 133.361 78.4423C131.164 80.9932 129.372 80.7949 129.134 80.1384H129.136ZM100.62 81.1808C100.62 80.4117 101.902 79.7178 104.494 79.3962H111.081C113.67 79.7178 114.951 80.4118 114.951 81.1995C114.951 81.9873 113.67 82.6625 111.081 83.0028H104.494C101.902 82.6625 100.62 81.9873 100.62 81.1808ZM71.9577 81.1808C71.9577 80.4117 73.2403 79.7178 75.8318 79.3962H82.4193C85.0084 79.7178 86.2887 80.4118 86.2887 81.1995C86.2887 81.9873 85.0084 82.6625 82.4193 83.0028H75.8318C73.2403 82.6625 71.9577 81.9873 71.9577 81.1808ZM51.493 94.5113C50.8147 94.4657 50.1627 93.1742 49.9238 90.0606C50.0741 87.0968 51.2602 84.3191 53.2247 82.3303C54.4715 81.2906 55.6132 80.9476 56.3775 80.9342C57.149 80.9182 57.5622 81.1968 57.6554 81.5639C57.8632 82.3839 56.7525 83.1958 55.3815 85.0017C54.0416 86.355 53.2328 88.2476 53.1315 90.2669C52.7948 92.9679 52.2191 94.5568 51.4907 94.5113H51.493ZM51.493 126.665C50.8052 126.665 50.1865 125.226 49.9023 122.319V114.932C50.1865 112.027 50.8051 110.588 51.5074 110.588C52.2096 110.588 52.8139 112.027 53.1148 114.929V122.319C52.8139 125.226 52.2096 126.665 51.4907 126.665H51.493ZM51.493 158.819C50.8052 158.819 50.1865 157.38 49.9023 154.473V147.086C50.1865 144.181 50.8051 142.742 51.5074 142.742C52.2096 142.742 52.8139 144.181 53.1148 147.083V154.473C52.8139 157.38 52.2096 158.819 51.4907 158.819H51.493ZM51.493 190.973C50.8052 190.973 50.1865 189.534 49.9023 186.627V179.24C50.1865 176.335 50.8051 174.896 51.5074 174.896C52.2096 174.896 52.8139 176.335 53.1148 179.237V186.627C52.8139 189.534 52.2096 190.973 51.4907 190.973H51.493ZM51.493 223.127C50.8052 223.127 50.1865 221.688 49.9023 218.781V211.394C50.1865 208.489 50.8051 207.05 51.5074 207.05C52.2096 207.05 52.8139 208.489 53.1148 211.391V218.781C52.8139 221.688 52.2096 223.127 51.4907 223.127H51.493ZM51.493 255.281C50.8052 255.281 50.1865 253.842 49.9023 250.935V243.548C50.1865 240.643 50.8051 239.204 51.5074 239.204C52.2096 239.204 52.8139 240.643 53.1148 243.545V250.935C52.8139 253.842 52.2096 255.281 51.4907 255.281H51.493ZM51.493 287.435C50.8052 287.435 50.1865 285.996 49.9023 283.089V275.702C50.1865 272.797 50.8051 271.358 51.5074 271.358C52.2096 271.358 52.8139 272.797 53.1148 275.699V283.089C52.8139 285.996 52.2096 287.435 51.4907 287.435H51.493ZM51.493 319.589C50.8052 319.589 50.1865 318.15 49.9023 315.243V307.856C50.1865 304.951 50.8051 303.512 51.5074 303.512C52.2096 303.512 52.8139 304.951 53.1148 307.853V315.243C52.8139 318.15 52.2096 319.589 51.4907 319.589H51.493ZM74.3223 330.275C74.3223 331.044 73.0421 331.738 70.4505 332.06H63.8631C61.2739 331.738 59.9937 331.044 59.9937 330.256C59.9937 329.469 61.2739 328.793 63.8631 328.453H70.4505C73.0421 328.793 74.3223 329.469 74.3223 330.275ZM102.984 330.275C102.984 331.044 101.704 331.738 99.1125 332.06H92.525C89.9359 331.738 88.6557 331.044 88.6557 330.256C88.6557 329.469 89.9359 328.793 92.525 328.453H99.1125C101.704 328.793 102.984 329.469 102.984 330.275ZM131.646 330.275C131.646 331.044 130.366 331.738 127.774 332.06H121.187C118.598 331.738 117.318 331.044 117.318 330.256C117.318 329.469 118.598 328.793 121.187 328.453H127.774C130.366 328.793 131.646 329.469 131.646 330.275ZM160.308 330.275C160.308 331.044 159.028 331.738 156.436 332.06H149.849C147.26 331.738 145.98 331.044 145.98 330.256C145.98 329.469 147.26 328.793 149.849 328.453H156.436C159.028 328.793 160.308 329.469 160.308 330.275ZM183.262 330.275C183.262 331.044 182.49 331.738 180.931 332.06H176.968C175.411 331.738 174.639 331.044 174.639 330.256C174.639 329.469 175.411 328.793 176.968 328.453H180.933C182.49 328.793 183.262 329.469 183.262 330.275Z" fill="#BBCAEA"/>
<path d="M365.197 120.558V150.287C365.197 152.391 363.707 154.087 361.858 154.087H326.356L321.034 162.876L315.713 154.087H310.706C310.265 154.084 309.828 153.984 309.421 153.791C309.014 153.598 308.645 153.317 308.335 152.964C308.025 152.611 307.78 152.193 307.614 151.734C307.449 151.275 307.365 150.783 307.37 150.287V120.558C307.37 118.455 308.86 116.762 310.706 116.762H361.858C363.707 116.762 365.195 118.455 365.195 120.558H365.197Z" fill="#64D3FF"/>
<path d="M332.239 131.387H332.241C333.28 131.387 334.236 130.685 334.936 129.415C335.437 128.498 336.065 128.005 336.71 128.005C337.355 128.005 337.981 128.498 338.473 129.393C339.182 130.679 340.14 131.381 341.177 131.381C342.218 131.381 343.174 130.679 343.873 129.409C344.365 128.517 344.991 128.024 345.634 128.021H345.636C346.281 128.021 346.904 128.514 347.396 129.404C348.103 130.69 349.061 131.387 350.095 131.387H350.1C351.137 131.387 352.095 130.685 352.792 129.415C353.287 128.517 353.915 128.021 354.56 128.021C355.202 128.021 355.825 128.514 356.318 129.404C357.027 130.69 357.982 131.387 359.019 131.387H359.021C360.06 131.387 361.016 130.685 361.715 129.415C361.776 129.277 361.788 129.119 361.75 128.972C361.712 128.824 361.627 128.698 361.51 128.618C361.394 128.537 361.255 128.509 361.121 128.537C360.986 128.565 360.866 128.649 360.784 128.771C360.292 129.664 359.666 130.157 359.021 130.157C358.376 130.157 357.751 129.666 357.259 128.777C356.552 127.491 355.596 126.794 354.56 126.794H354.557C353.518 126.794 352.563 127.493 351.863 128.763C351.369 129.664 350.743 130.157 350.098 130.157C349.453 130.157 348.83 129.666 348.338 128.777C347.628 127.491 346.673 126.794 345.639 126.794H345.634C344.597 126.794 343.639 127.496 342.942 128.763C342.45 129.658 341.824 130.151 341.177 130.151C340.532 130.151 339.909 129.658 339.416 128.766C338.707 127.477 337.749 126.778 336.71 126.778C335.671 126.778 334.714 127.475 334.016 128.747C333.512 129.664 332.886 130.157 332.241 130.157C331.597 130.157 330.971 129.666 330.479 128.777C329.772 127.491 328.816 126.794 327.78 126.794H327.777C326.738 126.794 325.783 127.493 325.083 128.763C324.589 129.664 323.963 130.157 323.318 130.157C322.673 130.157 322.05 129.666 321.558 128.777C320.848 127.491 319.893 126.794 318.859 126.794H318.854C317.817 126.794 316.86 127.496 316.162 128.763C315.67 129.658 315.042 130.151 314.399 130.151C313.754 130.151 313.126 129.658 312.637 128.763C312.555 128.639 312.434 128.553 312.299 128.524C312.163 128.495 312.023 128.524 311.906 128.605C311.788 128.686 311.703 128.814 311.666 128.963C311.628 129.112 311.642 129.271 311.705 129.409C312.403 130.679 313.358 131.381 314.399 131.381C315.438 131.381 316.394 130.679 317.094 129.409C317.586 128.517 318.211 128.024 318.854 128.021H318.856C319.501 128.021 320.125 128.514 320.617 129.404C321.324 130.69 322.281 131.387 323.316 131.387H323.32C324.357 131.387 325.315 130.685 326.012 129.415C326.507 128.517 327.135 128.021 327.78 128.021C328.422 128.021 329.046 128.514 329.538 129.404C330.247 130.69 331.202 131.387 332.239 131.387ZM359.019 143.653C360.082 143.686 361.016 142.954 361.715 141.681C361.776 141.544 361.788 141.386 361.75 141.238C361.712 141.091 361.627 140.965 361.51 140.885C361.394 140.804 361.255 140.775 361.121 140.804C360.986 140.832 360.866 140.916 360.784 141.038C360.292 141.93 359.666 142.423 359.021 142.423C358.376 142.423 357.751 141.933 357.259 141.044C356.552 139.757 355.596 139.061 354.56 139.061H354.557C353.518 139.061 352.563 139.763 351.863 141.033C351.369 141.93 350.743 142.426 350.098 142.426C349.453 142.426 348.83 141.933 348.338 141.044C347.628 139.757 346.673 139.061 345.639 139.061H345.634C344.597 139.061 343.639 139.763 342.942 141.033C342.45 141.925 341.824 142.418 341.177 142.418C340.532 142.418 339.909 141.925 339.416 141.033C338.707 139.744 337.749 139.045 336.71 139.045C336.006 139.045 335.342 139.366 334.766 139.966C334.308 140.449 334.408 141.298 334.933 141.681L334.948 141.66C335.44 140.765 336.065 140.272 336.71 140.272C337.355 140.272 337.981 140.765 338.473 141.66C339.182 142.946 340.14 143.648 341.177 143.648C342.218 143.648 343.174 142.946 343.873 141.676C344.365 140.784 344.991 140.291 345.634 140.291H345.636C346.281 140.291 346.904 140.781 347.396 141.671C348.103 142.957 349.061 143.653 350.095 143.653H350.1C351.137 143.653 352.095 142.951 352.792 141.681C353.287 140.784 353.915 140.288 354.56 140.288C355.202 140.288 355.825 140.781 356.318 141.671C357.027 142.957 357.982 143.653 359.019 143.653Z" fill="white"/>
<path d="M311.253 57.2823C325.077 57.2823 336.284 44.7099 336.284 29.2011C336.284 13.6923 325.077 1.11998 311.253 1.11998C297.428 1.11998 286.221 13.6923 286.221 29.2011C286.221 44.7099 297.428 57.2823 311.253 57.2823Z" fill="white"/>
<path d="M311.255 58.3997C296.9 58.3997 285.225 45.3023 285.225 29.2012C285.225 13.1001 296.902 0 311.255 0C325.605 0 337.282 13.1001 337.282 29.2012C337.282 45.3023 325.034 58.3997 311.255 58.3997ZM311.255 2.23739C298.001 2.23739 287.222 14.3327 287.222 29.2012C287.222 44.0697 298.001 56.1623 311.255 56.1623C324.508 56.1623 335.285 44.0671 335.285 29.2012C335.285 14.3353 324.506 2.24007 311.255 2.24007V2.23739Z" fill="#D1DCF8"/>
<path d="M311.039 53.4106C322.957 53.4106 332.619 42.5717 332.619 29.2013C332.619 15.8309 322.957 4.99204 311.039 4.99204C299.12 4.99204 289.459 15.8309 289.459 29.2013C289.459 42.5717 299.12 53.4106 311.039 53.4106Z" fill="#D1DCF8"/>
<path d="M311.214 30.2758C311.022 30.2756 310.833 30.213 310.672 30.0956C310.51 29.9782 310.383 29.811 310.304 29.614L303.119 11.6078C303.028 11.3402 303.031 11.0432 303.128 10.7782C303.226 10.5131 303.41 10.3 303.643 10.1829C303.877 10.0657 304.141 10.0535 304.382 10.1486C304.623 10.2437 304.823 10.4389 304.939 10.6941L311.718 27.6794L322.084 22.4865C322.324 22.3795 322.591 22.3806 322.83 22.4896C323.068 22.5986 323.26 22.807 323.365 23.0712C323.47 23.3354 323.48 23.6349 323.393 23.907C323.305 24.1792 323.127 24.4028 322.896 24.531L311.622 30.1794C311.495 30.2432 311.356 30.2761 311.216 30.2758H311.214Z" fill="white"/>
<path d="M89.7478 196.986H13.2681C9.74918 196.986 6.37439 195.418 3.88614 192.627C1.39789 189.835 0 186.049 0 182.102V132.188C0 128.24 1.39789 124.454 3.88614 121.663C6.37439 118.871 9.74918 117.303 13.2681 117.303H89.7478C93.2667 117.303 96.6415 118.871 99.1297 121.663C101.618 124.454 103.016 128.24 103.016 132.188V182.099C103.016 184.054 102.673 185.99 102.007 187.796C101.34 189.602 100.363 191.243 99.1306 192.626C97.8985 194.008 96.4357 195.105 94.8258 195.853C93.2159 196.601 91.4904 196.986 89.7478 196.986Z" fill="#F3F6FD"/>
<path d="M98.8647 117.303H4.15121C1.85826 117.303 0 119.388 0 121.96V130.62H103.016V121.96C103.016 119.388 101.158 117.303 98.8647 117.303Z" fill="#64D3FF"/>
<path opacity="0.55" d="M17.9603 156.778H13.2645C12.546 156.778 11.8345 156.619 11.1706 156.311C10.5068 156.003 9.9035 155.551 9.39534 154.981C8.88718 154.411 8.48408 153.735 8.20906 152.99C7.93403 152.246 7.79247 151.448 7.79247 150.642V145.371C7.79247 143.744 8.36874 142.183 9.3945 141.032C10.4203 139.881 11.8115 139.235 13.2621 139.235H17.9603C19.4109 139.235 20.8022 139.881 21.8279 141.032C22.8537 142.183 23.43 143.744 23.43 145.371V150.642C23.43 152.269 22.8537 153.83 21.8279 154.98C20.8022 156.131 19.4109 156.778 17.9603 156.778ZM41.026 156.778H36.3302C35.6118 156.778 34.9002 156.619 34.2364 156.311C33.5725 156.003 32.9692 155.551 32.4611 154.981C31.9529 154.411 31.5498 153.735 31.2748 152.99C30.9998 152.246 30.8582 151.448 30.8582 150.642V145.371C30.8582 143.744 31.4345 142.183 32.4602 141.032C33.486 139.881 34.8772 139.235 36.3279 139.235H41.026C41.7443 139.235 42.4556 139.394 43.1192 139.702C43.7828 140.01 44.3858 140.462 44.8937 141.032C45.4016 141.602 45.8044 142.278 46.0793 143.023C46.3542 143.767 46.4957 144.565 46.4957 145.371V150.642C46.4957 152.269 45.9194 153.83 44.8937 154.98C43.8679 156.131 42.4767 156.778 41.026 156.778ZM64.0917 156.778H59.3983C58.6799 156.778 57.9684 156.619 57.3045 156.311C56.6406 156.003 56.0373 155.551 55.5292 154.981C55.021 154.411 54.6179 153.735 54.3429 152.99C54.0679 152.246 53.9263 151.448 53.9263 150.642V145.371C53.9263 144.565 54.0678 143.767 54.3426 143.023C54.6175 142.278 55.0204 141.602 55.5283 141.032C56.0362 140.462 56.6392 140.01 57.3028 139.702C57.9664 139.394 58.6777 139.235 59.396 139.235H64.0941C65.5448 139.235 66.936 139.881 67.9618 141.032C68.9875 142.183 69.5638 143.744 69.5638 145.371V150.642C69.5638 152.269 68.9875 153.83 67.9618 154.98C66.936 156.131 65.5448 156.778 64.0941 156.778H64.0917ZM87.1575 156.778H82.4617C81.7432 156.778 81.0317 156.619 80.3678 156.311C79.7039 156.003 79.1007 155.551 78.5925 154.981C78.0843 154.411 77.6812 153.735 77.4062 152.99C77.1312 152.246 76.9896 151.448 76.9896 150.642V145.371C76.9896 143.744 77.5659 142.183 78.5917 141.032C79.6174 139.881 81.0086 139.235 82.4593 139.235H87.1575C88.6081 139.235 89.9993 139.881 91.0251 141.032C92.0509 142.183 92.6271 143.744 92.6271 145.371V150.642C92.6271 152.269 92.0509 153.83 91.0251 154.98C89.9993 156.131 88.6081 156.778 87.1575 156.778ZM17.9603 182.193H13.2645C12.5458 182.193 11.8341 182.034 11.1701 181.726C10.506 181.418 9.90269 180.966 9.3945 180.395C8.88631 179.825 8.48326 179.148 8.20837 178.403C7.93349 177.659 7.79216 176.86 7.79247 176.054V170.783C7.79247 169.156 8.36874 167.595 9.3945 166.444C10.4203 165.294 11.8115 164.647 13.2621 164.647H17.9603C19.4109 164.647 20.8022 165.294 21.8279 166.444C22.8537 167.595 23.43 169.156 23.43 170.783V176.054C23.43 177.681 22.8537 179.242 21.8279 180.393C20.8022 181.543 19.4109 182.19 17.9603 182.19V182.193ZM41.026 182.193H36.3302C35.6116 182.193 34.8998 182.034 34.2358 181.726C33.5718 181.418 32.9684 180.966 32.4602 180.395C31.952 179.825 31.549 179.148 31.2741 178.403C30.9992 177.659 30.8579 176.86 30.8582 176.054V170.783C30.8582 169.156 31.4345 167.595 32.4602 166.444C33.486 165.294 34.8772 164.647 36.3279 164.647H41.026C41.7443 164.647 42.4556 164.806 43.1192 165.114C43.7828 165.423 44.3858 165.875 44.8937 166.444C45.4016 167.014 45.8044 167.691 46.0793 168.435C46.3542 169.18 46.4957 169.978 46.4957 170.783V176.054C46.4957 177.681 45.9194 179.242 44.8937 180.393C43.8679 181.543 42.4767 182.19 41.026 182.19V182.193ZM64.0917 182.193H59.3983C58.6797 182.193 57.9679 182.034 57.3039 181.726C56.6399 181.418 56.0365 180.966 55.5283 180.395C55.0201 179.825 54.6171 179.148 54.3422 178.403C54.0673 177.659 53.926 176.86 53.9263 176.054V170.783C53.9263 169.978 54.0678 169.18 54.3426 168.435C54.6175 167.691 55.0204 167.014 55.5283 166.444C56.0362 165.875 56.6392 165.423 57.3028 165.114C57.9664 164.806 58.6777 164.647 59.396 164.647H64.0941C65.5448 164.647 66.936 165.294 67.9618 166.444C68.9875 167.595 69.5638 169.156 69.5638 170.783V176.054C69.5638 177.681 68.9875 179.242 67.9618 180.393C66.936 181.543 65.5448 182.19 64.0941 182.19L64.0917 182.193ZM87.1575 182.193H82.4617C81.743 182.193 81.0313 182.034 80.3672 181.726C79.7032 181.418 79.0998 180.966 78.5917 180.395C78.0835 179.825 77.6804 179.148 77.4055 178.403C77.1306 177.659 76.9893 176.86 76.9896 176.054V170.783C76.9896 169.156 77.5659 167.595 78.5917 166.444C79.6174 165.294 81.0086 164.647 82.4593 164.647H87.1575C88.6081 164.647 89.9993 165.294 91.0251 166.444C92.0509 167.595 92.6271 169.156 92.6271 170.783V176.054C92.6271 177.681 92.0509 179.242 91.0251 180.393C89.9993 181.543 88.6081 182.19 87.1575 182.19V182.193Z" fill="#D1DCF8"/>
<path d="M9.57721 143.415C9.57721 143.415 13.0596 147.584 15.3144 152.131C18.4624 145.902 23.9655 138.796 23.9655 138.796C23.9655 138.796 18.4266 141.673 15.3144 148.013C12.8757 145.216 9.57721 143.415 9.57721 143.415Z" fill="#FE4C40"/>
<path d="M413.076 103.633C425.752 99.3272 432.916 84.3092 429.078 70.089C425.24 55.8689 411.853 47.8315 399.177 52.137C386.502 56.4425 379.337 71.4605 383.175 85.6806C387.013 99.9008 400.4 107.938 413.076 103.633Z" fill="#FE4C40"/>
<path d="M413.185 95.6658C421.938 91.2925 425.874 79.7867 421.976 69.9669C418.077 60.1471 407.821 55.7319 399.068 60.1051C390.314 64.4784 386.379 75.9842 390.277 85.804C394.175 95.6238 404.431 100.039 413.185 95.6658Z" fill="#E4ECF9"/>
<path d="M406.126 64.5171C404.547 64.492 402.979 64.8193 401.514 65.4799C400.048 66.1405 398.714 67.1213 397.59 68.3653C396.465 69.6092 395.572 71.0915 394.963 72.726C394.353 74.3605 394.039 76.1147 394.039 77.8865C394.039 79.6582 394.353 81.4124 394.963 83.0469C395.572 84.6814 396.465 86.1637 397.59 87.4077C398.714 88.6516 400.048 89.6324 401.514 90.293C402.979 90.9536 404.547 91.2809 406.126 91.2558C409.258 91.2061 412.246 89.7757 414.445 87.2738C416.644 84.772 417.876 81.3998 417.876 77.8865C417.876 74.3731 416.644 71.0009 414.445 68.4991C412.246 65.9973 409.258 64.5668 406.126 64.5171Z" fill="#FE4C40"/>
<path d="M406.126 70.8833C405.296 70.8651 404.471 71.0328 403.7 71.3765C402.928 71.7203 402.225 72.2332 401.633 72.8853C401.04 73.5374 400.569 74.3155 400.248 75.1742C399.926 76.0329 399.761 76.9549 399.761 77.8862C399.761 78.8176 399.926 79.7395 400.248 80.5982C400.569 81.4569 401.04 82.2351 401.633 82.8871C402.225 83.5392 402.928 84.0521 403.7 84.3959C404.471 84.7396 405.296 84.9073 406.126 84.8891C407.761 84.8532 409.317 84.0997 410.462 82.7903C411.607 81.4809 412.248 79.7201 412.248 77.8862C412.248 76.0523 411.607 74.2915 410.462 72.9822C409.317 71.6728 407.761 70.9192 406.126 70.8833Z" fill="#E4ECF9"/>
<path d="M405.161 76.8028V81.1999L409.083 76.8028H405.161Z" fill="#22252D"/>
<path d="M430.578 105.318V110.35H431.71V106.585H435.063V105.318H430.578Z" fill="#2E363A"/>
<path d="M432.633 107.62V112.652H433.763V108.89H437.119V107.62H432.633Z" fill="#2E363A"/>
<path d="M405.863 78.4857L406.662 77.5895L433.784 108.017L432.985 108.913L405.863 78.4857Z" fill="#2E363A"/>
<path d="M490.385 316.154L490.313 293.325L439.491 293.518L439.56 316.347C439.591 326.95 447.084 335.87 457.323 338.691C458.386 338.983 459.122 339.894 459.124 340.942C459.127 341.987 458.398 342.906 457.335 343.206C447.115 346.106 439.677 355.082 439.708 365.685L439.777 388.514L490.605 388.321L490.533 365.492C490.502 354.889 483.009 345.969 472.77 343.147C471.707 342.853 470.971 341.942 470.969 340.897C470.966 339.852 471.695 338.933 472.755 338.632C482.978 335.733 490.416 326.757 490.383 316.154H490.385Z" fill="#E4ECF9"/>
<path d="M490.329 298.027L490.315 293.325L439.488 293.518L439.502 298.027H490.329ZM439.767 385.264L439.777 388.514L490.604 388.321L490.592 385.264H439.767Z" fill="#D1DCF8"/>
<path d="M491.472 293.411L438.318 293.614C438.116 293.615 437.916 293.571 437.729 293.485C437.542 293.399 437.372 293.272 437.229 293.113C437.086 292.953 436.972 292.763 436.894 292.554C436.816 292.345 436.776 292.121 436.775 291.894C436.774 291.667 436.814 291.443 436.89 291.233C436.967 291.024 437.08 290.833 437.222 290.672C437.365 290.512 437.534 290.384 437.72 290.296C437.907 290.209 438.107 290.164 438.309 290.163L491.46 289.959C491.662 289.959 491.862 290.003 492.049 290.089C492.236 290.175 492.406 290.301 492.549 290.461C492.692 290.621 492.806 290.811 492.884 291.02C492.962 291.229 493.002 291.453 493.003 291.68C493.003 291.906 492.964 292.131 492.887 292.34C492.811 292.55 492.698 292.741 492.556 292.901C492.413 293.062 492.244 293.19 492.058 293.277C491.871 293.365 491.671 293.41 491.469 293.411H491.472ZM438.617 388.718L491.77 388.514C491.972 388.513 492.172 388.557 492.359 388.643C492.546 388.73 492.716 388.856 492.859 389.016C493.003 389.175 493.116 389.365 493.194 389.574C493.272 389.783 493.313 390.008 493.313 390.234C493.314 390.461 493.275 390.685 493.198 390.895C493.121 391.105 493.008 391.295 492.866 391.456C492.724 391.617 492.554 391.745 492.368 391.832C492.182 391.919 491.982 391.965 491.78 391.965L438.626 392.169C438.218 392.17 437.826 391.99 437.537 391.667C437.248 391.345 437.084 390.906 437.083 390.449C437.082 389.991 437.243 389.552 437.53 389.227C437.818 388.902 438.209 388.719 438.617 388.718Z" fill="#8D7EA3"/>
<path d="M485.9 316.819L485.877 308.946L444.021 309.107L444.044 316.979C444.068 325.412 450.364 332.531 458.963 334.828C461.731 335.567 463.597 338.014 463.606 340.733L463.668 361.017C463.675 363.402 462.19 365.572 459.883 366.537L447.121 371.896C445.353 372.635 444.219 374.294 444.224 376.119L444.247 384.487L486.106 384.326L486.082 375.961C486.075 374.133 484.928 372.485 483.156 371.754L470.363 366.499C468.049 365.548 466.551 363.391 466.542 361.006L466.482 340.723C466.475 338 468.326 335.543 471.092 334.782C479.676 332.419 485.924 325.251 485.9 316.819Z" fill="#FFCF3D"/>
<path d="M384.895 201.731C382.37 204.025 379.817 206.287 377.295 208.596C375.565 210.171 373.896 211.826 372.291 213.559C372.871 213.398 373.452 213.218 374.03 213.055C375.219 212.715 376.308 212.814 377.163 213.918C377.961 214.96 377.844 216.099 377.455 217.302C377.335 217.709 377.335 218.374 377.555 218.668C379.222 220.898 379.251 222.428 377.424 224.689C376.829 225.44 376.597 225.895 377.046 226.967C377.395 227.781 377.237 229.084 376.917 229.995C375.828 233.004 374.249 235.573 371.593 237.251C369.766 238.403 368.259 240.196 366.446 241.367C364.531 242.588 362.746 244.035 360.513 244.686C360.159 244.8 359.81 244.936 359.469 245.094C353.073 252.773 332.986 273.486 312.507 287.462C301.252 292.864 288.182 288.78 280.888 277.749C272.896 265.675 267.051 251.096 267.051 251.096L301.684 242.082C301.684 242.082 307.082 252.251 311 253.213C314.217 253.992 338.236 234.729 349.013 228.789C349.864 227.414 350.565 225.928 351.1 224.365C351.723 222.556 351.769 220.507 352.361 218.701C353.276 215.871 354.451 213.138 355.509 210.354C356.133 208.711 356.713 207.053 357.379 205.424C358.311 203.13 358.294 200.721 358.208 198.283C358.177 197.257 358.12 195.954 359.164 195.531C360.238 195.092 361.022 196.053 361.672 196.898C363.255 198.934 363.355 201.423 363.066 203.912C362.804 206.27 362.34 208.596 361.977 210.957C361.92 211.332 361.949 211.737 361.906 212.519C363.761 211.477 365.46 210.826 366.881 209.706C371.39 206.123 375.771 202.364 380.252 198.72C381.006 198.103 381.907 197.68 382.776 197.257C384.037 196.654 385.404 196.962 385.896 197.859C386.459 198.915 386.01 200.721 384.893 201.731H384.895ZM234.754 552.885H252.806V585.864H234.754V552.885Z" fill="#FEC9AC"/>
<path d="M234.754 552.885V564.549C240.787 564.951 246.864 564.479 252.809 563.134V552.885H234.754Z" fill="#FFAB90"/>
<path d="M227.818 598H285.142C286.511 598 287.758 597.357 288.665 596.288C289.573 595.224 290.137 593.758 290.137 592.151C290.137 589.707 288.842 587.523 286.895 586.652C280.865 584 270.315 581.047 268.086 578.426C265.1 574.937 259.884 569.088 256.153 569.386C252.425 569.68 250.196 576.682 244.473 580.768C240.42 583.667 236.035 576.508 233.852 572.108C233.109 570.623 231.251 570.607 230.553 572.108C225.917 581.939 227.818 598 227.818 598Z" fill="#2E363A"/>
<path d="M188.402 552.885H206.454V585.864H188.402V552.885Z" fill="#FEC9AC"/>
<path d="M188.402 552.885V564.549C194.433 564.951 200.511 564.479 206.454 563.134V552.885H188.402Z" fill="#FFAB90"/>
<path d="M181.466 598H238.79C240.156 598 241.406 597.357 242.311 596.288C243.218 595.224 243.782 593.758 243.782 592.151C243.782 589.707 242.49 587.523 240.543 586.652C234.51 584 223.962 581.047 221.732 578.426C218.746 574.938 213.529 569.088 209.801 569.386C206.073 569.68 203.842 576.682 198.121 580.768C194.066 583.667 189.683 576.508 187.497 572.108C186.757 570.624 184.898 570.608 184.201 572.108C179.565 581.939 181.466 598 181.466 598ZM272.404 322.807C272.404 322.821 272.389 322.837 272.404 322.85C271.809 327.041 273.772 556.398 264.751 559.445C257.554 561.851 239.523 559.458 232.243 558.341C231.811 558.284 231.417 558.212 231.059 558.153C231.02 558.153 230.996 558.153 230.958 558.14C229.8 557.966 229.119 557.834 229.119 557.834L228.923 550.176L227.896 510.064C227.896 510.064 225.95 518.853 223.468 528.802C222.407 533.065 221.247 537.561 220.086 541.65C217.876 549.539 215.705 555.977 214.396 556.674C210.83 558.558 179.692 554.078 178.557 551.771C177.408 549.445 182.515 326.961 182.579 323.793L272.404 322.807Z" fill="#3A4146"/>
<path d="M247.299 358.758C247.299 358.758 246.855 493.36 231.057 558.153C231.033 558.212 231.019 558.285 231.007 558.341L230.959 558.14L228.922 550.176L227.895 510.064C227.895 510.064 225.948 518.853 223.467 528.802L222.762 526.031C226.156 473.058 234.821 417.024 247.299 358.758Z" fill="#2E363A"/>
<path d="M214.17 557.397L212.149 555.964C219.857 542.315 225.468 455.413 246.006 354.315L248.335 354.913C227.608 456.948 222.348 542.907 214.17 557.397Z" fill="#2E363A"/>
<path d="M180.142 436.456C191.96 407.075 208.31 380.192 228.22 357.622C241.011 343.142 255.951 330.128 272.398 322.853C272.386 322.84 272.398 322.826 272.396 322.813L182.581 323.801C182.581 323.801 181.296 379.899 180.145 436.456H180.142Z" fill="#2E363A"/>
<path d="M270.724 253.074L270.898 253.904L273.16 264.612L273.206 264.772L274.584 271.249L280.369 329.662H176.61C176.624 329.418 176.624 329.139 176.639 328.863C176.77 324.536 177.03 319.49 177.365 314.153C178.392 297.835 180.09 279.043 180.831 271.2C181.062 268.824 181.179 267.457 181.179 267.457C173.522 270.011 166.719 270.681 160.918 270.289C145.368 269.311 136.842 260.804 136.842 260.804C136.942 260.413 137.045 260.005 137.145 259.63C138.915 252.765 141.511 246.177 145.18 240.335C148.677 234.818 150.807 228.146 151.765 221.364C156.277 216.627 157.364 210.494 157.249 203.09C157.218 200.845 157.684 198.83 158.45 196.941C159.191 195.459 159.945 194.028 160.715 192.627C162.773 189.342 165.298 186.233 166.965 182.702C172.896 174.535 179.701 168.482 187.65 165.376C191.084 163.471 196.248 161.633 202.442 160.039C215.406 156.687 232.826 154.377 248.055 154.506C262.472 154.605 274.902 156.898 279.702 162.544C287.637 171.917 294.191 197.769 298.036 217.589C299.023 222.868 298.968 222.559 299.398 225.057C300.676 232.393 301.474 238.235 301.677 240.952C302.443 251.219 270.724 253.074 270.724 253.074Z" fill="#FF8B6A"/>
<path d="M299.402 225.056C300.679 232.398 301.465 238.232 301.668 240.957C302.44 251.222 270.723 253.081 270.723 253.081L270.902 253.907L273.166 264.611L273.205 264.767L274.583 271.24L280.368 329.664C253.545 339.846 216.349 336.328 176.614 329.664C176.628 329.41 176.628 329.139 176.64 328.871L177.438 328.914C201.662 325.605 222.757 308.625 239.768 289.016C247.261 280.385 254.398 270.731 257.271 259.116C261.181 243.301 256.638 226.461 257.663 210.091C259.055 216.437 261.016 223.111 265.585 227.157C272.813 233.545 283.227 230.962 292.05 228.068C294.555 227.243 297.113 226.407 299.402 225.056Z" fill="#FF8B6A"/>
<path d="M251.11 94.3667C245.502 106.414 242.041 119.868 241.016 133.589C240.355 142.469 240.768 151.762 244.133 159.728C248.903 171.019 258.854 177.94 268.921 181.97C272.588 183.441 276.407 184.623 280.276 184.47C284.145 184.318 288.103 182.694 290.704 179.283C293.305 175.872 294.239 170.518 292.357 166.493C291.22 164.063 289.262 162.37 287.549 160.478C285.836 158.586 284.243 156.172 284.253 153.391C284.27 148.369 289.305 145.167 289.926 140.202C290.458 135.936 287.566 132.191 284.645 129.64C281.724 127.089 278.337 124.675 277.087 120.626C275.559 115.655 277.828 110.318 278.79 105.152C280.095 98.1261 278.836 90.4814 275.396 84.5651C273.278 80.921 265.744 71.9715 261.383 74.2866C259.374 75.3584 257.965 80.72 256.905 82.8449C254.979 86.69 252.933 90.4493 251.11 94.3667Z" fill="#2E363A"/>
<path d="M252.189 168.125V168.157C252.184 168.413 252.145 168.666 252.072 168.908C252.057 168.937 252.057 168.969 252.057 169.004C251.58 179.157 246.882 196.892 231.913 196.892C231.464 196.892 231.012 196.876 230.563 196.841C212.42 195.59 203.167 166.059 202.441 160.038C203.37 159.795 204.328 159.567 205.312 159.339C205.443 159.307 205.575 159.272 205.718 159.24H205.747L206.996 158.948C218.425 156.394 232.376 154.653 245.126 154.521C244.923 156.263 244.777 157.857 244.863 158.541C244.909 158.851 245.054 159.291 245.255 159.843C246.315 162.544 251.651 167.667 252.189 168.123V168.125Z" fill="#FF8B6A"/>
<path d="M263.283 130.312C260.02 146.207 249.026 148.045 246.532 148.241C246.212 148.292 246.024 148.292 246.024 148.292C246.024 148.292 245.486 151.609 245.126 154.521C244.923 156.263 244.777 157.857 244.863 158.541C244.908 158.851 245.054 159.291 245.255 159.843C246.315 162.544 251.651 167.667 252.188 168.123V168.16C252.174 168.24 252.131 168.5 252.071 168.91C252.057 168.94 252.057 168.972 252.057 169.007C251.245 173.578 246.647 194.698 230.737 193.605C213.724 192.436 204.994 161.764 205.312 159.342C205.312 159.227 205.355 159.178 205.414 159.194C205.513 159.229 205.615 159.245 205.718 159.243H205.746C206.066 159.243 206.487 159.146 206.996 158.951C209.012 158.219 212.274 156.201 214.985 154.655C218.671 152.619 217.19 125.663 217.19 125.663C206.184 122.877 208.894 112.432 209.172 109.112C209.432 105.744 212.043 103.418 218.033 94.924C224.007 86.43 255.408 82.9011 260.223 89.214C265.053 95.543 266.997 112.319 263.283 130.315V130.312Z" fill="#FEC9AC"/>
<path d="M247.038 137.665C247.145 138.182 246.149 139.109 243.796 139.13C241.819 138.849 240.003 138.345 238.193 136.826C237.175 135.749 236.951 134.323 237.159 133.573C237.352 132.766 237.773 132.565 237.995 132.678C238.489 132.927 238.513 133.937 239.738 134.752C240.765 135.652 242.514 136.279 244.033 136.44C245.874 136.877 246.932 137.035 247.038 137.665ZM235.031 106.633C234.923 106.558 234.906 106.277 235.078 105.811C235.248 105.355 235.616 104.704 236.32 104.101C236.933 103.636 237.627 103.325 238.356 103.188C239.085 103.052 239.832 103.094 240.546 103.311C241.37 103.627 241.888 104.112 242.17 104.484C242.447 104.867 242.504 105.141 242.418 105.253C242.227 105.521 241.589 104.996 240.249 104.704C239.694 104.534 239.113 104.501 238.545 104.607C237.977 104.714 237.436 104.957 236.96 105.32C235.759 106.087 235.289 106.821 235.031 106.633ZM252.572 103.276C252.457 103.045 253.023 102.236 254.626 101.821C255.989 101.604 257.378 101.804 258.648 102.4C260.117 103.257 260.504 104.2 260.344 104.401C260.158 104.667 259.515 104.222 258.206 103.739C257.126 103.232 255.943 103.062 254.783 103.246C253.415 103.346 252.701 103.595 252.572 103.276ZM246.412 127.975C246.514 127.866 246.854 128.19 247.491 128.715C247.807 128.967 248.22 129.264 248.705 129.385C249.166 129.505 249.823 129.401 250.162 128.956C250.776 128.294 250.336 126.311 250.183 124.768C249.968 123.15 249.682 121.547 249.333 119.964C248.592 116.204 248.122 114.342 248.389 114.216C248.612 114.109 249.519 115.789 250.501 119.599C251.042 122.051 251.428 124.543 251.657 127.056C251.69 127.499 251.712 127.973 251.638 128.49C251.566 128.999 251.368 129.559 251.012 129.974C250.116 130.899 249.113 130.797 248.428 130.529C247.875 130.279 247.388 129.875 247.014 129.355C246.445 128.562 246.321 128.072 246.412 127.975Z" fill="#4F2D2A"/>
<path d="M256.306 116.207C257.07 116.207 257.689 114.883 257.689 113.249C257.689 111.615 257.07 110.291 256.306 110.291C255.543 110.291 254.923 111.615 254.923 113.249C254.923 114.883 255.543 116.207 256.306 116.207Z" fill="#4F2D2A"/>
<path d="M240.088 117.831C240.852 117.831 241.471 116.507 241.471 114.873C241.471 113.239 240.852 111.915 240.088 111.915C239.325 111.915 238.705 113.239 238.705 114.873C238.705 116.507 239.325 117.831 240.088 117.831Z" fill="#4F2D2A"/>
<path d="M256.723 66.5855C247.369 59.2088 235.632 55.913 224.511 57.5985L224.375 57.6199C216.804 58.7935 210.331 64.3133 206.901 71.974C206.758 72.2955 206.614 72.6171 206.464 72.9386C202.332 81.9256 194.376 87.9599 191.483 97.7829C188.448 108.104 189.389 118.337 183.513 127.633C178.452 135.636 169.129 140.248 167.62 150.735C166.168 160.818 171.317 170.456 167.883 180.502C165.124 188.572 157.103 194.084 157.249 203.09C157.368 210.493 156.27 216.632 151.758 221.378C151.372 224.179 150.775 226.939 149.974 229.628C154.304 230.555 158.821 229.829 162.379 226.857C169.987 220.483 170.371 207.6 173.078 197.01C176.316 184.283 184.017 173.264 193.934 167.155C200.02 163.404 209.063 161.464 214.2 156.062C221.994 147.841 221.206 132.188 214.924 122.306C212.922 119.144 210.19 116.341 209.524 112.467C208.893 108.841 210.472 104.838 213.204 103.088C215.946 101.331 219.62 101.974 221.817 104.594C223.346 106.408 223.752 117.006 225.799 117.828C226.071 117.796 226.363 117.563 226.671 117.207C228.804 108.418 232.673 100.034 238.814 94.4496C243.894 89.8248 250.393 87.3704 256.825 87.6222C257.296 87.6437 258.187 87.7911 258.958 88.1287C263.699 81.2611 265.176 73.2521 256.723 66.5855Z" fill="#2E363A"/>
<path opacity="0.5" d="M211.816 109.586C212.242 107.483 213.737 105.741 215.514 105.283C216.271 105.087 217.167 105.162 217.668 105.867C218.256 106.69 218.015 107.997 217.451 108.841C216.887 109.685 216.075 110.24 215.397 110.958C214.718 111.676 214.14 112.71 214.308 113.772C214.42 114.484 214.888 115.583 213.992 115.856C213.326 116.06 213.185 115.334 212.898 114.795C212.031 113.163 211.413 111.574 211.816 109.586ZM224.702 139.176C227.399 146.451 232.131 152.597 237.978 156.443C240.283 157.935 242.731 159.087 245.263 159.846C245.094 159.429 244.963 158.994 244.871 158.549C244.644 156.711 246.024 148.286 246.024 148.286C246.024 148.286 246.208 148.286 246.538 148.238C238.759 147.576 231.144 144.417 224.702 139.176Z" fill="#FFAB90"/>
<path d="M289.108 137.694C289.851 139.216 289.507 141.129 288.845 142.699C288.179 144.267 287.221 145.679 286.701 147.314C285.356 151.534 287.217 156.25 289.822 159.647C292.426 163.045 295.772 165.676 298.242 169.197C300.709 172.721 302.197 177.704 300.365 181.686C299.283 184.036 297.203 185.703 296.324 188.154C295.287 191.048 296.159 194.349 297.38 197.152C298.598 199.955 300.184 202.642 300.64 205.719C301.094 208.795 299.976 212.484 297.337 213.465C296.484 213.781 295.507 213.773 294.721 213.283C294.036 212.854 293.556 212.117 293.095 211.407C288.504 204.355 282.602 197.265 274.866 196.306C271.658 195.909 268.345 196.619 265.218 195.724C261.445 194.642 258.318 191.088 257.401 186.844C256.957 184.789 256.995 182.621 256.419 180.609C255.129 176.118 250.997 173.093 250.085 168.49C249.144 163.747 251.998 159.031 255.418 156.049C258.839 153.066 262.935 151.108 266.136 147.833C269.505 144.362 271.661 139.658 272.219 134.564C273.661 134.283 275.14 134.342 276.56 134.737C277.981 135.133 279.312 135.857 280.469 136.863" fill="#2E363A"/>
<path d="M146.897 253.226C147.607 253.226 170.266 256.139 173.333 262.494C176.4 268.85 206.378 292.151 208.977 291.621C211.573 291.09 212.517 279.174 216.056 276.792C219.598 274.407 221.722 288.708 221.722 288.708C221.722 288.708 234.023 280.257 241.339 282.237C248.657 284.22 248.394 303.802 238.009 310.951C227.624 318.099 214.876 318.365 208.977 317.569C203.077 316.773 150.912 309.627 143.594 281.556C136.276 253.486 146.897 253.226 146.897 253.226Z" fill="#FEC9AC"/>
<path d="M265.853 264.448L255.879 320.929C255.37 323.815 252.862 326.168 250.288 326.168H216.182C213.607 326.168 211.933 323.815 212.444 320.929L222.428 264.445C222.939 261.546 225.438 259.207 228.01 259.207H262.115C264.688 259.207 266.365 261.546 265.853 264.448Z" fill="#2E363A"/>
<path d="M238.005 310.951C227.62 318.094 214.875 318.37 208.978 317.569C203.071 316.778 150.913 309.624 143.588 281.559C136.272 253.494 146.894 253.229 146.894 253.229C147.608 253.229 170.267 256.139 173.329 262.489C173.977 263.84 175.837 265.946 178.381 268.411C187.866 277.65 206.931 292.031 208.978 291.621C211.569 291.093 212.517 279.177 216.06 276.798C219.599 274.405 221.72 288.713 221.72 288.713C221.72 288.713 234.024 280.251 241.339 282.234C243.463 282.802 244.946 284.858 245.725 287.647C247.65 294.506 245.388 305.876 238.005 310.953V310.951Z" fill="#FEC9AC"/>
<path opacity="0.5" d="M238.005 310.951C227.62 318.094 214.875 318.37 208.978 317.569C203.071 316.778 150.913 309.624 143.588 281.559C136.272 253.494 146.894 253.229 146.894 253.229C147.608 253.229 170.267 256.139 173.329 262.489C173.977 263.84 175.837 265.946 178.381 268.411C176.532 275.134 178.24 283.033 182.11 288.764C186.805 295.731 194.083 299.954 201.466 302.757C208.094 305.275 215.128 306.821 222.088 306.012C229.055 305.19 235.949 301.797 240.408 295.75C242.316 293.169 243.735 290.166 245.725 287.65C247.65 294.509 245.388 305.876 238.005 310.953V310.951Z" fill="#FFAB90"/>
<path d="M187.192 220.726C180.831 228.309 174.119 236.155 165.525 239.384C159.494 241.651 152.293 240.799 147.22 236.728C146.738 237.712 146.217 238.666 145.663 239.593C142.051 245.603 139.094 252.077 137.293 259.041L136.84 260.812C136.84 260.812 152.931 276.843 181.192 267.452C181.192 267.452 181.053 268.823 180.833 271.197C186.16 255.249 188.434 237.832 187.192 220.726Z" fill="#FF8B6A"/>
<path d="M274.193 243.803C274.283 242.961 276.658 242.897 281.086 241.943C284.886 241.361 288.534 239.888 291.794 237.621C295.744 235.193 297.612 233.548 298.171 234.146C298.646 234.598 297.602 237.345 293.482 240.686C289.842 243.218 285.769 244.863 281.525 245.515C276.447 245.882 274.083 244.51 274.193 243.805V243.803ZM181.369 253.998C181.727 254.462 179.252 258.039 172.041 261.203C165.851 263.528 159.261 264.185 152.802 263.122C145.216 261.434 142.214 258.406 142.503 257.862C142.84 257.013 146.229 258.652 153.263 259.555C159.194 260.541 165.346 259.928 171.026 257.784C177.817 255.499 180.891 253.213 181.369 253.998Z" fill="white"/>
<path d="M172.206 151.003C174.833 160.901 173.333 172.075 168.227 180.665C164.99 186.113 160.488 190.427 156.282 194.966C152.078 199.505 148.018 204.523 146.064 210.692C144.11 216.86 144.705 224.445 148.897 229.003C152.131 232.519 156.817 233.666 161.26 234.496C163.808 234.979 166.414 235.405 168.965 234.952C171.518 234.499 174.05 233.033 175.333 230.517C177.162 226.927 176.063 222.238 177.554 218.454C179.386 213.792 184.385 212.026 188.844 211.051C193.301 210.073 198.284 209.036 200.94 204.901C204.229 199.778 202.37 192.273 205.079 186.737C207.537 181.713 213.088 179.599 216.147 175.009C219.209 170.413 219.267 164.21 219.195 158.474C219.121 152.332 218.932 145.783 215.813 140.741C213.799 137.485 210.754 135.207 208.564 132.099C205.43 127.646 204.272 121.762 204.374 116.089C204.477 110.417 205.736 104.862 206.985 99.3638" fill="#2E363A"/>
<path d="M102.439 324C99.9886 324.268 97.8867 326.358 97.3684 329.061C97.1722 330.064 97.1902 331.104 97.4209 332.096C97.6516 333.089 98.0884 334.007 98.6957 334.774C99.303 335.541 100.063 336.136 100.915 336.511C101.767 336.885 102.685 337.028 103.595 336.928C104.806 336.784 105.945 336.218 106.854 335.31C107.764 334.403 108.397 333.199 108.666 331.867C108.862 330.864 108.844 329.824 108.613 328.831C108.383 327.838 107.946 326.92 107.338 326.153C106.73 325.386 105.97 324.791 105.118 324.416C104.266 324.042 103.347 323.899 102.437 324H102.439ZM102.439 324C99.9886 324.268 97.8867 326.358 97.3684 329.061C97.1722 330.064 97.1902 331.104 97.4209 332.096C97.6516 333.089 98.0884 334.007 98.6957 334.774C99.303 335.541 100.063 336.136 100.915 336.511C101.767 336.885 102.685 337.028 103.595 336.928C104.806 336.784 105.945 336.218 106.854 335.31C107.764 334.403 108.397 333.199 108.666 331.867C108.862 330.864 108.844 329.824 108.613 328.831C108.383 327.838 107.946 326.92 107.338 326.153C106.73 325.386 105.97 324.791 105.118 324.416C104.266 324.042 103.347 323.899 102.437 324H102.439ZM102.439 324C99.9886 324.268 97.8867 326.358 97.3684 329.061C97.1722 330.064 97.1902 331.104 97.4209 332.096C97.6516 333.089 98.0884 334.007 98.6957 334.774C99.303 335.541 100.063 336.136 100.915 336.511C101.767 336.885 102.685 337.028 103.595 336.928C104.806 336.784 105.945 336.218 106.854 335.31C107.764 334.403 108.397 333.199 108.666 331.867C108.862 330.864 108.844 329.824 108.613 328.831C108.383 327.838 107.946 326.92 107.338 326.153C106.73 325.386 105.97 324.791 105.118 324.416C104.266 324.042 103.347 323.899 102.437 324H102.439Z" fill="#E4ECF9"/>
<path d="M118.027 335.666C118.327 335.733 118.638 335.666 118.894 335.479C119.149 335.291 119.33 334.999 119.396 334.664C119.818 332.626 119.927 330.522 119.718 328.443C119.687 328.101 119.538 327.787 119.303 327.568C119.069 327.349 118.766 327.241 118.462 327.269L116.986 327.414C116.723 327.442 116.459 327.367 116.24 327.202C116.021 327.037 115.86 326.792 115.784 326.508C115.631 325.894 115.443 325.292 115.22 324.705C115.121 324.428 115.111 324.122 115.192 323.838C115.272 323.554 115.439 323.311 115.662 323.151L116.904 322.239C117.155 322.06 117.335 321.779 117.404 321.455C117.474 321.13 117.428 320.788 117.277 320.5C116.273 318.683 114.998 317.074 113.508 315.742C113.272 315.542 112.976 315.452 112.682 315.491C112.388 315.53 112.119 315.694 111.932 315.951L110.971 317.231C110.803 317.461 110.569 317.618 110.308 317.675C110.048 317.732 109.778 317.685 109.545 317.542C109.053 317.228 108.542 316.95 108.017 316.712C107.773 316.594 107.572 316.385 107.451 316.12C107.33 315.855 107.295 315.55 107.353 315.259L107.656 313.625C107.72 313.298 107.668 312.956 107.511 312.671C107.354 312.386 107.105 312.18 106.815 312.098C104.981 311.629 103.09 311.502 101.219 311.722C100.913 311.756 100.631 311.923 100.435 312.188C100.238 312.453 100.142 312.794 100.168 313.137L100.3 314.793C100.327 315.09 100.26 315.388 100.112 315.636C99.9634 315.883 99.7426 316.065 99.4875 316.149C98.9381 316.318 98.4007 316.524 97.8824 316.771C97.6365 316.88 97.3642 316.891 97.1123 316.8C96.8604 316.709 96.6445 316.522 96.5018 316.272L95.6802 314.874C95.5195 314.594 95.2686 314.395 94.98 314.319C94.6914 314.242 94.3876 314.294 94.1324 314.464C92.5189 315.596 91.0865 317.024 89.8952 318.689C89.7146 318.953 89.6324 319.286 89.6658 319.617C89.6992 319.947 89.8457 320.251 90.0744 320.463L91.2209 321.551C91.4254 321.74 91.5647 322.003 91.6148 322.295C91.665 322.587 91.6228 322.89 91.4955 323.151C91.2185 323.7 90.9701 324.268 90.7527 324.857C90.6475 325.129 90.4614 325.352 90.2261 325.487C89.9908 325.622 89.721 325.661 89.4629 325.597L88.006 325.262C87.7067 325.196 87.3962 325.264 87.1409 325.451C86.8856 325.638 86.7057 325.93 86.6397 326.264C86.2178 328.302 86.1088 330.406 86.3173 332.486C86.3889 333.196 86.9383 333.718 87.5712 333.657L89.0545 333.515C89.5967 333.461 90.115 333.836 90.2583 334.426C90.4064 335.037 90.5927 335.632 90.8124 336.21C91.0274 336.773 90.8292 337.43 90.373 337.767L89.1261 338.686C88.8763 338.867 88.6985 339.149 88.6303 339.473C88.5622 339.797 88.6089 340.139 88.7607 340.425C89.7675 342.237 91.0403 343.844 92.525 345.179C93.0027 345.61 93.7121 345.5 94.1062 344.975L95.0616 343.697C95.23 343.466 95.4649 343.309 95.7257 343.252C95.9866 343.196 96.2569 343.243 96.4899 343.386C96.9795 343.7 97.4883 343.976 98.0185 344.217C98.2623 344.334 98.4619 344.544 98.5827 344.809C98.7035 345.074 98.7379 345.378 98.6801 345.669L98.3792 347.29C98.3181 347.627 98.3775 347.977 98.5446 348.266C98.7118 348.554 98.9732 348.757 99.2725 348.831C101.091 349.297 102.966 349.423 104.821 349.203C105.126 349.169 105.406 349.003 105.603 348.739C105.799 348.476 105.896 348.136 105.872 347.794L105.743 346.127C105.717 345.832 105.783 345.536 105.93 345.289C106.078 345.043 106.297 344.862 106.55 344.777C107.097 344.605 107.63 344.396 108.146 344.152C108.392 344.041 108.665 344.03 108.918 344.12C109.171 344.211 109.388 344.397 109.531 344.648L110.353 346.055C110.514 346.335 110.765 346.534 111.055 346.61C111.344 346.686 111.648 346.633 111.903 346.462C113.519 345.33 114.953 343.898 116.142 342.229C116.323 341.964 116.405 341.63 116.371 341.299C116.336 340.967 116.189 340.664 115.959 340.452L114.817 339.375C114.611 339.186 114.471 338.922 114.421 338.63C114.37 338.337 114.412 338.034 114.54 337.773C114.818 337.222 115.065 336.653 115.28 336.068C115.385 335.796 115.572 335.574 115.807 335.439C116.042 335.304 116.312 335.265 116.57 335.329L118.027 335.666ZM110.783 333.062C110.362 334.688 109.54 336.147 108.412 337.272C107.284 338.397 105.896 339.142 104.408 339.42C103.049 339.682 101.653 339.551 100.351 339.039C99.0499 338.527 97.8863 337.652 96.9701 336.496C96.054 335.339 95.4155 333.94 95.115 332.431C94.8145 330.921 94.8619 329.35 95.2526 327.866C95.6729 326.24 96.4941 324.781 97.6215 323.655C98.7489 322.53 100.137 321.785 101.625 321.505C102.985 321.242 104.382 321.371 105.685 321.883C106.988 322.394 108.152 323.269 109.069 324.426C109.986 325.583 110.625 326.984 110.924 328.495C111.224 330.006 111.175 331.578 110.783 333.062Z" fill="#E4ECF9"/>
</svg>
